<svg width="24" height="24" viewBox="0 0 24 24" fill="none" xmlns="http://www.w3.org/2000/svg">
<path fill-rule="evenodd" clip-rule="evenodd" d="M12.8819 2.75108C12.8805 2.75138 12.8549 2.7568 12.8154 2.80749L5.81717 11.7904C5.74582 11.882 5.72802 12.0156 5.7776 12.1395C5.82698 12.2629 5.88789 12.2651 5.90011 12.2651H9.30396C10.2977 12.2651 10.9526 13.1438 10.9526 14.0301V20.983C10.9526 21.1612 11.0394 21.2263 11.078 21.2427C11.1 21.2521 11.1129 21.2502 11.1176 21.249L11.1176 21.249C11.119 21.2487 11.1446 21.2433 11.1841 21.1926L18.1824 12.2097C18.2537 12.1181 18.2715 11.9845 18.2219 11.8606C18.1725 11.7372 18.1116 11.735 18.0994 11.735H14.6956C13.7018 11.735 13.047 10.8563 13.047 9.96999V3.01712C13.047 2.83893 12.9601 2.77383 12.9215 2.75739C12.8995 2.74799 12.8867 2.74989 12.882 2.75106L12.8819 2.75108ZM13.5097 1.37751C14.1209 1.63803 14.547 2.25947 14.547 3.01712V9.96999C14.547 10.0715 14.5834 10.1473 14.6217 10.1906C14.6588 10.2325 14.6864 10.235 14.6956 10.235H18.0994C18.8604 10.235 19.3922 10.7478 19.6145 11.3033C19.8366 11.8583 19.8051 12.5674 19.3656 13.1315L12.3674 22.1145C11.878 22.7427 11.1177 22.8902 10.4898 22.6226C9.87863 22.3621 9.45256 21.7406 9.45256 20.983V14.0301C9.45256 13.9287 9.41617 13.8529 9.37781 13.8095C9.34069 13.7676 9.31316 13.7651 9.30396 13.7651H5.90011C5.13909 13.7651 4.6073 13.2523 4.38499 12.6968C4.16287 12.1419 4.19439 11.4327 4.63388 10.8686L11.6321 1.88563C12.1215 1.25741 12.8819 1.10991 13.5097 1.37751Z" fill="#203A3B"/>
</svg>
