<svg width="24" height="24" viewBox="0 0 24 24" fill="none" xmlns="http://www.w3.org/2000/svg">
<g clip-path="url(#clip0_21706_8953)">
<path fill-rule="evenodd" clip-rule="evenodd" d="M13.1412 2.75218C13.1328 2.75829 13.1185 2.7711 13.0999 2.79628L10.603 6.17303C10.3568 6.50609 9.88714 6.57644 9.55409 6.33017C9.22104 6.0839 9.15068 5.61427 9.39695 5.28122L11.8938 1.90446C12.3654 1.26667 13.1214 1.09897 13.756 1.38397C14.3617 1.65598 14.7567 2.28776 14.7567 3.02842V10.059C14.7567 10.1744 14.7964 10.258 14.8335 10.3023C14.8527 10.3251 14.8661 10.333 14.872 10.3354H18.1359C18.9048 10.3354 19.4161 10.8782 19.6229 11.4226C19.831 11.9704 19.8037 12.6713 19.3864 13.2357L18.4915 14.4459C18.2452 14.7789 17.7756 14.8493 17.4426 14.603C17.1095 14.3568 17.0391 13.8871 17.2854 13.5541L18.1803 12.3439C18.2532 12.2453 18.2733 12.0939 18.2206 11.9553C18.1961 11.8906 18.1648 11.8556 18.148 11.842C18.1366 11.8328 18.1363 11.8354 18.1359 11.8354H14.8691C13.8616 11.8354 13.2567 10.9124 13.2567 10.059V3.02842C13.2567 2.82279 13.1594 2.76035 13.1415 2.75232C13.1414 2.75227 13.1413 2.75222 13.1412 2.75218ZM13.1497 2.7472C13.1497 2.74727 13.149 2.74769 13.1473 2.74823C13.1489 2.7474 13.1497 2.74713 13.1497 2.7472ZM14.8753 10.3362C14.8753 10.3363 14.8743 10.3362 14.8724 10.3355C14.8743 10.3357 14.8753 10.3361 14.8753 10.3362ZM1.46967 1.46966C1.76256 1.17676 2.23744 1.17676 2.53033 1.46966L16.523 15.4623C16.5284 15.4676 16.5338 15.4729 16.539 15.4783L22.5303 21.4697C22.8232 21.7626 22.8232 22.2374 22.5303 22.5303C22.2374 22.8232 21.7626 22.8232 21.4697 22.5303L16.0747 17.1354L12.2619 22.1097C11.7789 22.7399 11.0213 22.8931 10.3927 22.6208C9.78413 22.3571 9.36885 21.7336 9.36885 20.9829V14.03C9.36885 13.9251 9.33171 13.8478 9.29435 13.8049C9.2583 13.7635 9.23536 13.765 9.23474 13.765H5.88582C5.12379 13.765 4.59935 13.2439 4.38237 12.6929C4.16521 12.1414 4.19522 11.4363 4.62686 10.8732L6.87695 7.9376L1.46967 2.53032C1.17678 2.23742 1.17678 1.76255 1.46967 1.46966ZM7.94684 9.00748L5.81737 11.7857C5.74643 11.8782 5.72792 12.016 5.77807 12.1433C5.80159 12.2031 5.83216 12.2372 5.8513 12.2521C5.86553 12.2632 5.87338 12.265 5.88582 12.265H9.23474C10.2312 12.265 10.8688 13.1559 10.8688 14.03V20.9829C10.8688 21.1681 10.9582 21.2311 10.989 21.2444C10.9982 21.2484 11.0048 21.2496 11.0082 21.2499C11.0102 21.2501 11.0115 21.25 11.0124 21.2499C11.0128 21.2498 11.0131 21.2497 11.0134 21.2497C11.0137 21.2496 11.0177 21.2487 11.0257 21.2432C11.0339 21.2378 11.0503 21.2248 11.0714 21.1972L15.0048 16.0655L7.94684 9.00748Z" fill="#F3F2F1"/>
</g>
<defs>
<clipPath id="clip0_21706_8953">
<rect width="24" height="24" fill="white"/>
</clipPath>
</defs>
</svg>
