<svg width="18" height="18" viewBox="0 0 18 18" fill="none" xmlns="http://www.w3.org/2000/svg">
<path fill-rule="evenodd" clip-rule="evenodd" d="M0.25 5.44444C0.25 2.57563 2.57563 0.25 5.44444 0.25H12.5556C15.4244 0.25 17.75 2.57563 17.75 5.44444V12.5556C17.75 14.7281 16.4163 16.5891 14.5229 17.3645C14.4704 17.3925 14.4152 17.4139 14.3587 17.4285C13.797 17.6364 13.1895 17.75 12.5556 17.75H5.44444C2.57563 17.75 0.25 15.4244 0.25 12.5556V5.44444ZM14.3299 15.7968C15.4742 15.169 16.25 13.9529 16.25 12.5556V9.21836L15.1674 8.12184C14.9326 7.88393 14.6122 7.75 14.2779 7.75C13.9436 7.75 13.6232 7.8839 13.3883 8.1218C13.3883 8.12181 13.3883 8.12179 13.3883 8.1218L10.0715 11.4819L14.3299 15.7968ZM8.49377 12.0187L12.668 16.2483C12.6307 16.2494 12.5932 16.25 12.5556 16.25H5.44444C4.16814 16.25 3.043 15.6028 2.3793 14.6187L5.83307 11.1201C5.83296 11.1202 5.83319 11.12 5.83307 11.1201C6.06742 10.8835 6.38697 10.75 6.72 10.75C7.05301 10.75 7.37221 10.8831 7.60655 11.1197C7.60642 11.1196 7.60668 11.1198 7.60655 11.1197L8.47368 11.9983C8.47924 12.0042 8.48491 12.01 8.49069 12.0157C8.49172 12.0167 8.49274 12.0177 8.49377 12.0187ZM9.01773 10.4142L12.3208 7.06803C12.8375 6.54463 13.5424 6.25 14.2779 6.25C15.0133 6.25 15.7181 6.5446 16.2349 7.06799C16.2348 7.06798 16.2349 7.06799 16.2349 7.06799L16.25 7.08333V5.44444C16.25 3.40406 14.5959 1.75 12.5556 1.75H5.44444C3.40406 1.75 1.75 3.40406 1.75 5.44444V12.5556C1.75 12.7347 1.76275 12.9108 1.78739 13.0832L4.76626 10.0656C5.28238 9.54411 5.98629 9.25 6.72 9.25C7.45371 9.25 8.15696 9.54343 8.67307 10.0649L8.67381 10.0657L9.01773 10.4142Z" fill="#203A3B"/>
</svg>
