<svg width="25" height="24" viewBox="0 0 25 24" fill="none" xmlns="http://www.w3.org/2000/svg">
<path fill-rule="evenodd" clip-rule="evenodd" d="M4.24609 6.79534C6.50226 3.2079 10.8933 1.435 15.0954 2.6013C19.8172 3.91185 22.8307 8.52574 22.1328 13.3761C21.435 18.2265 17.2429 21.8036 12.3431 21.7298C7.44337 21.656 3.36098 17.9542 2.80953 13.085C2.76292 12.6734 3.05879 12.302 3.47037 12.2554C3.88195 12.2087 4.25339 12.5046 4.3 12.9162C4.76655 17.0357 8.22038 20.1675 12.3657 20.23C16.5111 20.2924 20.0577 17.2661 20.6481 13.1625C21.2386 9.05893 18.689 5.15543 14.6942 4.04666C11.0796 3.04341 7.29969 4.6108 5.42101 7.74872H6.49734C6.91156 7.74872 7.24734 8.08451 7.24734 8.49872C7.24734 8.91294 6.91156 9.24872 6.49734 9.24872H4.21921C4.20788 9.24898 4.19653 9.24898 4.18516 9.24872H3.49609C3.08188 9.24872 2.74609 8.91294 2.74609 8.49872V5.49747C2.74609 5.08326 3.08188 4.74747 3.49609 4.74747C3.91031 4.74747 4.24609 5.08326 4.24609 5.49747V6.79534ZM12.1857 7.14047C12.5999 7.14047 12.9357 7.47626 12.9357 7.89047V11.8347L15.5878 12.8966C15.9723 13.0505 16.1592 13.4871 16.0053 13.8716C15.8513 14.2562 15.4148 14.4431 15.0302 14.2891L11.9069 13.0386C11.6223 12.9246 11.4357 12.6489 11.4357 12.3423V7.89047C11.4357 7.47626 11.7715 7.14047 12.1857 7.14047Z" fill="#203A3B"/>
</svg>
