<svg width="26" height="26" viewBox="0 0 26 26" fill="none" xmlns="http://www.w3.org/2000/svg">
<path fill-rule="evenodd" clip-rule="evenodd" d="M4.99581 1.99478C3.33803 1.99478 1.99414 3.33867 1.99414 4.99645V6.33034C1.99414 6.88262 1.54643 7.33034 0.994141 7.33034C0.441856 7.33034 -0.00585938 6.88262 -0.00585938 6.33034V4.99645C-0.00585938 2.2341 2.23346 -0.00521851 4.99581 -0.00521851H6.3297C6.88198 -0.00521851 7.3297 0.442497 7.3297 0.994781C7.3297 1.54707 6.88198 1.99478 6.3297 1.99478H4.99581ZM18.6686 0.994781C18.6686 0.442497 19.1163 -0.00521851 19.6686 -0.00521851H21.0025C23.7649 -0.00521851 26.0042 2.2341 26.0042 4.99645V6.33034C26.0042 6.88262 25.5565 7.33034 25.0042 7.33034C24.4519 7.33034 24.0042 6.88262 24.0042 6.33034V4.99645C24.0042 3.33867 22.6603 1.99478 21.0025 1.99478H19.6686C19.1163 1.99478 18.6686 1.54707 18.6686 0.994781ZM5.66304 6.66405C6.21532 6.66405 6.66304 7.11177 6.66304 7.66405V12.0003H9.55366V7.66405C9.55366 7.11177 10.0014 6.66405 10.5537 6.66405C11.1059 6.66405 11.5537 7.11177 11.5537 7.66405V12.0003H14.4449V7.66405C14.4449 7.11177 14.8927 6.66405 15.4449 6.66405C15.9972 6.66405 16.4449 7.11177 16.4449 7.66405V12.0003H19.3356V7.66405C19.3356 7.11177 19.7833 6.66405 20.3356 6.66405C20.8878 6.66405 21.3356 7.11177 21.3356 7.66405V12.0003H23.6703C24.2226 12.0003 24.6703 12.448 24.6703 13.0003C24.6703 13.5526 24.2226 14.0003 23.6703 14.0003H2.32812C1.77584 14.0003 1.32812 13.5526 1.32812 13.0003C1.32812 12.448 1.77584 12.0003 2.32812 12.0003H4.66304V7.66405C4.66304 7.11177 5.11075 6.66405 5.66304 6.66405ZM5.66304 16.0013C6.21532 16.0013 6.66304 16.449 6.66304 17.0013V19.6691C6.66304 20.2214 6.21532 20.6691 5.66304 20.6691C5.11075 20.6691 4.66304 20.2214 4.66304 19.6691V17.0013C4.66304 16.449 5.11075 16.0013 5.66304 16.0013ZM10.5537 16.0013C11.1059 16.0013 11.5537 16.449 11.5537 17.0013V19.6691C11.5537 20.2214 11.1059 20.6691 10.5537 20.6691C10.0014 20.6691 9.55366 20.2214 9.55366 19.6691V17.0013C9.55366 16.449 10.0014 16.0013 10.5537 16.0013ZM15.4449 16.168C15.9972 16.168 16.4449 16.6157 16.4449 17.168V19.669C16.4449 20.2213 15.9972 20.669 15.4449 20.669C14.8927 20.669 14.4449 20.2213 14.4449 19.669V17.168C14.4449 16.6157 14.8927 16.168 15.4449 16.168ZM20.3356 16.168C20.8878 16.168 21.3356 16.6157 21.3356 17.168V19.669C21.3356 20.2213 20.8878 20.669 20.3356 20.669C19.7833 20.669 19.3356 20.2213 19.3356 19.669V17.168C19.3356 16.6157 19.7833 16.168 20.3356 16.168ZM0.994141 18.6693C1.54643 18.6693 1.99414 19.117 1.99414 19.6693V21.0032C1.99414 22.6609 3.33803 24.0048 4.99581 24.0048H6.3297C6.88198 24.0048 7.3297 24.4525 7.3297 25.0048C7.3297 25.5571 6.88198 26.0048 6.3297 26.0048H4.99581C2.23346 26.0048 -0.00585938 23.7655 -0.00585938 21.0032V19.6693C-0.00585938 19.117 0.441856 18.6693 0.994141 18.6693ZM25.0042 18.6693C25.5565 18.6693 26.0042 19.117 26.0042 19.6693V21.0032C26.0042 23.7655 23.7649 26.0048 21.0025 26.0048H19.6686C19.1163 26.0048 18.6686 25.5571 18.6686 25.0048C18.6686 24.4525 19.1163 24.0048 19.6686 24.0048H21.0025C22.6603 24.0048 24.0042 22.6609 24.0042 21.0032V19.6693C24.0042 19.117 24.4519 18.6693 25.0042 18.6693Z" fill="white"/>
</svg>
