<svg width="40" height="40" viewBox="0 0 40 40" fill="none" xmlns="http://www.w3.org/2000/svg">
<path fill-rule="evenodd" clip-rule="evenodd" d="M9.99622 6.24365C7.92401 6.24365 6.24414 7.92352 6.24414 9.99574V11.6631C6.24414 12.3535 5.6845 12.9131 4.99414 12.9131C4.30378 12.9131 3.74414 12.3535 3.74414 11.6631V9.99574C3.74414 6.54281 6.54329 3.74365 9.99622 3.74365H11.6636C12.3539 3.74365 12.9136 4.3033 12.9136 4.99365C12.9136 5.68401 12.3539 6.24365 11.6636 6.24365H9.99622ZM27.0872 4.99365C27.0872 4.3033 27.6469 3.74365 28.3372 3.74365H30.0046C33.4575 3.74365 36.2567 6.54281 36.2567 9.99574V11.6631C36.2567 12.3535 35.697 12.9131 35.0067 12.9131C34.3163 12.9131 33.7567 12.3535 33.7567 11.6631V9.99574C33.7567 7.92352 32.0768 6.24365 30.0046 6.24365H28.3372C27.6469 6.24365 27.0872 5.68401 27.0872 4.99365ZM10.8303 12.0802C11.5206 12.0802 12.0803 12.6399 12.0803 13.3302V18.7505H15.6935V13.3302C15.6935 12.6399 16.2532 12.0802 16.9435 12.0802C17.6339 12.0802 18.1935 12.6399 18.1935 13.3302V18.7505H21.8076V13.3302C21.8076 12.6399 22.3673 12.0802 23.0576 12.0802C23.748 12.0802 24.3076 12.6399 24.3076 13.3302V18.7505H27.9209V13.3302C27.9209 12.6399 28.4806 12.0802 29.1709 12.0802C29.8613 12.0802 30.4209 12.6399 30.4209 13.3302V18.7505H33.3394C34.0298 18.7505 34.5894 19.3102 34.5894 20.0005C34.5894 20.6909 34.0298 21.2505 33.3394 21.2505H6.66162C5.97127 21.2505 5.41162 20.6909 5.41162 20.0005C5.41162 19.3102 5.97127 18.7505 6.66162 18.7505H9.58026V13.3302C9.58026 12.6399 10.1399 12.0802 10.8303 12.0802ZM10.8303 23.7518C11.5206 23.7518 12.0803 24.3114 12.0803 25.0018V28.3365C12.0803 29.0269 11.5206 29.5865 10.8303 29.5865C10.1399 29.5865 9.58026 29.0269 9.58026 28.3365V25.0018C9.58026 24.3114 10.1399 23.7518 10.8303 23.7518ZM16.9435 23.7518C17.6339 23.7518 18.1935 24.3114 18.1935 25.0018V28.3365C18.1935 29.0269 17.6339 29.5865 16.9435 29.5865C16.2532 29.5865 15.6935 29.0269 15.6935 28.3365V25.0018C15.6935 24.3114 16.2532 23.7518 16.9435 23.7518ZM23.0576 23.9601C23.748 23.9601 24.3076 24.5198 24.3076 25.2101V28.3365C24.3076 29.0268 23.748 29.5865 23.0576 29.5865C22.3673 29.5865 21.8076 29.0268 21.8076 28.3365V25.2101C21.8076 24.5198 22.3673 23.9601 23.0576 23.9601ZM29.1709 23.9601C29.8613 23.9601 30.4209 24.5198 30.4209 25.2101V28.3365C30.4209 29.0268 29.8613 29.5865 29.1709 29.5865C28.4806 29.5865 27.9209 29.0268 27.9209 28.3365V25.2101C27.9209 24.5198 28.4806 23.9601 29.1709 23.9601ZM4.99414 27.0868C5.6845 27.0868 6.24414 27.6464 6.24414 28.3368V30.0041C6.24414 32.0763 7.92401 33.7562 9.99622 33.7562H11.6636C12.3539 33.7562 12.9136 34.3158 12.9136 35.0062C12.9136 35.6966 12.3539 36.2562 11.6636 36.2562H9.99622C6.54329 36.2562 3.74414 33.457 3.74414 30.0041V28.3368C3.74414 27.6464 4.30378 27.0868 4.99414 27.0868ZM35.0067 27.0868C35.697 27.0868 36.2567 27.6464 36.2567 28.3368V30.0041C36.2567 33.457 33.4575 36.2562 30.0046 36.2562H28.3372C27.6469 36.2562 27.0872 35.6966 27.0872 35.0062C27.0872 34.3158 27.6469 33.7562 28.3372 33.7562H30.0046C32.0768 33.7562 33.7567 32.0763 33.7567 30.0041V28.3368C33.7567 27.6464 34.3163 27.0868 35.0067 27.0868Z" fill="white"/>
</svg>
