<svg width="16" height="16" viewBox="0 0 16 16" fill="none" xmlns="http://www.w3.org/2000/svg">
<path fill-rule="evenodd" clip-rule="evenodd" d="M8.00016 1.8335C4.59441 1.8335 1.8335 4.59441 1.8335 8.00016C1.8335 11.4059 4.59441 14.1668 8.00016 14.1668C11.4059 14.1668 14.1668 11.4059 14.1668 8.00016C14.1668 4.59441 11.4059 1.8335 8.00016 1.8335ZM0.833496 8.00016C0.833496 4.04212 4.04212 0.833496 8.00016 0.833496C11.9582 0.833496 15.1668 4.04212 15.1668 8.00016C15.1668 11.9582 11.9582 15.1668 8.00016 15.1668C4.04212 15.1668 0.833496 11.9582 0.833496 8.00016ZM5.64661 5.64661C5.84187 5.45135 6.15845 5.45135 6.35372 5.64661L8.00016 7.29306L9.64661 5.64661C9.84187 5.45135 10.1585 5.45135 10.3537 5.64661C10.549 5.84187 10.549 6.15845 10.3537 6.35372L8.70727 8.00016L10.3537 9.64661C10.549 9.84187 10.549 10.1585 10.3537 10.3537C10.1585 10.549 9.84187 10.549 9.64661 10.3537L8.00016 8.70727L6.35372 10.3537C6.15845 10.549 5.84187 10.549 5.64661 10.3537C5.45135 10.1585 5.45135 9.84187 5.64661 9.64661L7.29306 8.00016L5.64661 6.35372C5.45135 6.15845 5.45135 5.84187 5.64661 5.64661Z" fill="#D51F1F"/>
</svg>
