<svg width="24" height="24" viewBox="0 0 24 24" fill="none" xmlns="http://www.w3.org/2000/svg">
<path d="M15.9912 5.79785C16.6546 5.79785 19.0816 5.85879 20.6797 8.17773C20.5414 8.28597 18.1319 9.67476 18.1318 12.7549C18.1318 16.3048 21.1841 17.5725 21.2979 17.6064C21.2677 17.6827 20.8005 19.3306 19.6699 21.0088C18.6598 22.4735 17.5893 23.9688 15.9912 23.9688C14.363 23.9687 13.9559 23.0079 12.1016 23.0078C10.2773 23.0078 9.62846 24 8.16602 24C6.68869 23.9998 5.66319 22.6264 4.4873 20.9482C3.11537 18.9648 2 15.8979 2 12.999C2.00004 8.33042 5.00013 5.85853 7.95508 5.8584C9.50798 5.8584 10.8204 6.89648 11.8154 6.89648C12.7351 6.89611 14.1974 5.79786 15.9912 5.79785ZM16.3525 0C16.3827 0.137229 16.3984 0.304933 16.3984 0.472656C16.3984 1.70851 15.8702 2.94515 15.1465 3.83008C14.3474 4.80631 13.0058 5.53802 11.9355 5.53809C11.8151 5.53809 11.6945 5.52305 11.6191 5.50781C11.6041 5.44677 11.5733 5.26399 11.5732 5.08105C11.5732 3.83 12.1917 2.60919 12.8701 1.83105C13.7294 0.808907 15.1615 0.0459108 16.3525 0Z" fill="white"/>
</svg>
