<svg width="16" height="16" viewBox="0 0 16 16" fill="none" xmlns="http://www.w3.org/2000/svg">
<path d="M10 3.66683C10 3.39097 9.77586 3.16683 9.5 3.16683C9.22414 3.16683 9 3.39097 9 3.66683V8.00016C9 8.27631 8.77614 8.50016 8.5 8.50016C8.22386 8.50016 8 8.27631 8 8.00016V2.3335C8 2.05764 7.77586 1.8335 7.5 1.8335C7.22414 1.8335 7 2.05764 7 2.3335V8.00016C7 8.27631 6.77614 8.50016 6.5 8.50016C6.22386 8.50016 6 8.27631 6 8.00016V3.66683C6 3.39097 5.77586 3.16683 5.5 3.16683C5.22414 3.16683 5 3.39097 5 3.66683V8.00016C5 8.27631 4.77614 8.50016 4.5 8.50016C4.22386 8.50016 4 8.27631 4 8.00016V5.00016C4 4.72431 3.77586 4.50016 3.5 4.50016C3.22414 4.50016 3 4.72431 3 5.00016V10.6668C3 12.6 4.56681 14.1668 6.5 14.1668H7.69271C8.86272 14.1668 9.95549 13.5819 10.6048 12.6082L12.946 9.09587L12.9915 9.01318C13.0785 8.81432 13.037 8.57753 12.8789 8.41943C12.6696 8.21036 12.3304 8.21036 12.1211 8.41943L10.8535 9.68701C10.7105 9.83 10.4954 9.8731 10.3086 9.79574C10.1218 9.71835 10 9.53573 10 9.3335V3.66683ZM11 8.12646L11.4141 7.7124C12.0139 7.1128 12.9861 7.1128 13.5859 7.7124C14.1038 8.23031 14.1843 9.0422 13.778 9.65121L13.7773 9.65055L11.4368 13.1629C10.6022 14.4145 9.19731 15.1668 7.69271 15.1668H6.5C4.01452 15.1668 2 13.1523 2 10.6668V5.00016C2 4.17202 2.67186 3.50016 3.5 3.50016C3.67696 3.50016 3.84625 3.53238 4.00391 3.5887C4.04463 2.79689 4.69809 2.16683 5.5 2.16683C5.67696 2.16683 5.84625 2.19904 6.00391 2.25537C6.04463 1.46356 6.69809 0.833496 7.5 0.833496C8.30189 0.833496 8.95471 1.46357 8.99544 2.25537C9.15327 2.19891 9.32282 2.16683 9.5 2.16683C10.3281 2.16683 11 2.83869 11 3.66683V8.12646Z" fill="#203A3B"/>
</svg>
