<svg width="24" height="24" viewBox="0 0 24 24" fill="none" xmlns="http://www.w3.org/2000/svg">
<path d="M4 17V7.5V6.5L12 2L16 5V14.5L18.5 11.5L20.5 13L15 21.5H7L4 17Z" fill="#FCE9E9"/>
<path d="M15 5.5C15 5.08621 14.6638 4.75 14.25 4.75C13.8362 4.75 13.5 5.08621 13.5 5.5V12C13.5 12.4142 13.1642 12.75 12.75 12.75C12.3358 12.75 12 12.4142 12 12V3.5C12 3.08621 11.6638 2.75 11.25 2.75C10.8362 2.75 10.5 3.08621 10.5 3.5V12C10.5 12.4142 10.1642 12.75 9.75 12.75C9.33579 12.75 9 12.4142 9 12V5.5C9 5.08621 8.66379 4.75 8.25 4.75C7.83621 4.75 7.5 5.08621 7.5 5.5V12C7.5 12.4142 7.16421 12.75 6.75 12.75C6.33579 12.75 6 12.4142 6 12V7.5C6 7.08621 5.66379 6.75 5.25 6.75C4.83621 6.75 4.5 7.08621 4.5 7.5V16C4.5 18.8998 6.85021 21.25 9.75 21.25H11.5391C13.2941 21.25 14.9332 20.3726 15.9072 18.9121L19.4189 13.6436L19.4873 13.5195C19.6177 13.2212 19.5555 12.8661 19.3184 12.6289C19.0043 12.3153 18.4957 12.3153 18.1816 12.6289L16.2803 14.5303C16.0658 14.7448 15.7431 14.8094 15.4629 14.6934C15.1826 14.5773 15 14.3033 15 14V5.5ZM16.5 12.1895L17.1211 11.5684C18.0209 10.669 19.4791 10.669 20.3789 11.5684C21.1558 12.3452 21.2765 13.5631 20.667 14.4766L20.666 14.4756L17.1553 19.7441C15.9033 21.6216 13.796 22.75 11.5391 22.75H9.75C6.02179 22.75 3 19.7282 3 16V7.5C3 6.25779 4.00779 5.25 5.25 5.25C5.51545 5.25 5.76937 5.29832 6.00586 5.38281C6.06694 4.19509 7.04714 3.25 8.25 3.25C8.51545 3.25 8.76937 3.29832 9.00586 3.38281C9.06694 2.19509 10.0471 1.25 11.25 1.25C12.4528 1.25 13.4321 2.19511 13.4932 3.38281C13.7299 3.29812 13.9842 3.25 14.25 3.25C15.4922 3.25 16.5 4.25779 16.5 5.5V12.1895Z" fill="#D51F1F"/>
</svg>
