<svg width="16" height="18" viewBox="0 0 16 18" fill="none" xmlns="http://www.w3.org/2000/svg">
<path d="M10 3.54167C10 3.19684 9.71982 2.91667 9.375 2.91667C9.03018 2.91667 8.75 3.19684 8.75 3.54167V8.95833C8.75 9.30351 8.47018 9.58333 8.125 9.58333C7.77982 9.58333 7.5 9.30351 7.5 8.95833V1.875C7.5 1.53018 7.21982 1.25 6.875 1.25C6.53018 1.25 6.25 1.53018 6.25 1.875V8.95833C6.25 9.30351 5.97018 9.58333 5.625 9.58333C5.27982 9.58333 5 9.30351 5 8.95833V3.54167C5 3.19684 4.71982 2.91667 4.375 2.91667C4.03018 2.91667 3.75 3.19684 3.75 3.54167V8.95833C3.75 9.30351 3.47018 9.58333 3.125 9.58333C2.77982 9.58333 2.5 9.30351 2.5 8.95833V5.20833C2.5 4.86351 2.21982 4.58333 1.875 4.58333C1.53018 4.58333 1.25 4.86351 1.25 5.20833V12.2917C1.25 14.7082 3.20851 16.6667 5.625 16.6667H7.11589C8.5784 16.6666 9.94436 15.9355 10.756 14.7184L13.6825 10.328L13.7394 10.2246C13.8481 9.97603 13.7963 9.68004 13.5986 9.48242C13.337 9.22107 12.913 9.22107 12.6514 9.48242L11.0669 11.0669C10.8882 11.2456 10.6193 11.2995 10.3857 11.2028C10.1522 11.1061 10 10.8778 10 10.625V3.54167ZM11.25 9.11621L11.7676 8.59863C12.5174 7.84913 13.7326 7.84913 14.4824 8.59863C15.1298 9.24601 15.2304 10.2609 14.7225 11.0221L14.7217 11.0213L11.7961 15.4118C10.7527 16.9763 8.99664 17.9166 7.11589 17.9167H5.625C2.51816 17.9167 0 15.3985 0 12.2917V5.20833C0 4.17316 0.839822 3.33333 1.875 3.33333C2.09621 3.33333 2.30781 3.3736 2.50488 3.44401C2.55578 2.45424 3.37262 1.66667 4.375 1.66667C4.59621 1.66667 4.80781 1.70693 5.00488 1.77734C5.05578 0.787574 5.87262 0 6.875 0C7.87737 0 8.69338 0.787594 8.7443 1.77734C8.94158 1.70677 9.15352 1.66667 9.375 1.66667C10.4102 1.66667 11.25 2.50649 11.25 3.54167V9.11621Z" fill="#D0CCC8"/>
</svg>
