<svg width="24" height="24" viewBox="0 0 24 24" fill="none" xmlns="http://www.w3.org/2000/svg">
<path d="M12.7498 2.25C12.7498 2.05109 12.6708 1.86032 12.5302 1.71967C12.3895 1.57902 12.1988 1.5 11.9998 1.5C11.8009 1.5 11.6102 1.57902 11.4695 1.71967C11.3289 1.86032 11.2498 2.05109 11.2498 2.25V10.1145L10.4998 10.65V7.08C10.4998 5.655 9.34484 4.5 7.91984 4.5C7.13384 4.5 6.38534 4.905 5.75534 5.388C5.10884 5.886 4.48484 6.5475 3.93134 7.2315C2.82734 8.5935 1.91084 10.1505 1.56134 10.9515C1.29734 11.559 0.971843 12.6915 0.727343 13.968C0.479843 15.2535 0.302843 16.7535 0.365843 18.1065C0.425843 19.407 0.715343 20.7915 1.62284 21.6015C2.62784 22.5015 4.05584 22.4355 5.73434 21.5955L8.42684 20.25C9.04973 19.9386 9.5736 19.4598 9.93974 18.8674C10.3059 18.2751 10.4998 17.5924 10.4998 16.896V15.75C10.4998 15.5511 10.4208 15.3603 10.2802 15.2197C10.1395 15.079 9.94876 15 9.74984 15C9.55093 15 9.36017 15.079 9.21951 15.2197C9.07886 15.3603 8.99984 15.5511 8.99984 15.75V16.896C8.99983 17.3141 8.88333 17.7239 8.66343 18.0794C8.44352 18.435 8.12889 18.7223 7.75484 18.909L5.06384 20.2545C3.59684 20.988 2.94134 20.769 2.62184 20.4825C2.20184 20.1075 1.92134 19.281 1.86434 18.0375C1.80884 16.845 1.96634 15.4725 2.20034 14.25C2.43584 13.02 2.73584 12.0135 2.93684 11.55C3.22184 10.893 4.06184 9.45 5.09684 8.175C5.60984 7.542 6.15134 6.9765 6.67034 6.5775C7.20734 6.1635 7.62884 6 7.91984 6C8.20628 6 8.48098 6.11379 8.68352 6.31632C8.88606 6.51886 8.99984 6.79357 8.99984 7.08V11.721L6.31484 13.641C6.16427 13.7605 6.06535 13.9333 6.03851 14.1237C6.01166 14.3141 6.05895 14.5075 6.17061 14.664C6.28226 14.8205 6.44975 14.9281 6.63849 14.9647C6.82724 15.0013 7.02281 14.964 7.18484 14.8605L11.9998 11.421L16.8148 14.8605C16.8948 14.9214 16.9862 14.9656 17.0835 14.9904C17.1809 15.0153 17.2823 15.0204 17.3816 15.0053C17.481 14.9903 17.5763 14.9554 17.6619 14.9028C17.7475 14.8501 17.8217 14.7809 17.88 14.699C17.9383 14.6172 17.9796 14.5244 18.0014 14.4263C18.0231 14.3282 18.025 14.2268 18.0068 14.1279C17.9886 14.0291 17.9507 13.9349 17.8954 13.851C17.8401 13.7671 17.7685 13.6952 17.6848 13.6395L14.9998 11.721V7.08C14.9998 6.79357 15.1136 6.51886 15.3162 6.31632C15.5187 6.11379 15.7934 6 16.0798 6C16.3708 6 16.7923 6.165 17.3293 6.5775C17.8483 6.9765 18.3883 7.542 18.9043 8.1765C19.9363 9.4515 20.7763 10.893 21.0628 11.55C21.2638 12.0135 21.5638 13.02 21.7993 14.25C22.0333 15.471 22.1893 16.845 22.1353 18.0375C22.0783 19.281 21.7993 20.1075 21.3778 20.4825C21.0583 20.7675 20.4028 20.988 18.9358 20.2545L16.2433 18.909C15.8696 18.7221 15.5553 18.4347 15.3356 18.0792C15.116 17.7236 14.9997 17.3139 14.9998 16.896V15.75C14.9998 15.5511 14.9208 15.3603 14.7802 15.2197C14.6395 15.079 14.4488 15 14.2498 15C14.0509 15 13.8602 15.079 13.7195 15.2197C13.5789 15.3603 13.4998 15.5511 13.4998 15.75V16.896C13.4999 17.5924 13.6938 18.2751 14.06 18.8674C14.4261 19.4598 14.95 19.9386 15.5728 20.25L18.2653 21.5955C19.9453 22.4355 21.3703 22.5 22.3768 21.6015C23.2843 20.7915 23.5738 19.407 23.6338 18.1065C23.6968 16.7535 23.5198 15.2535 23.2738 13.968C23.0278 12.69 22.7038 11.559 22.4368 10.95C22.0888 10.1505 21.1723 8.5935 20.0683 7.2315C19.5133 6.5475 18.8908 5.886 18.2443 5.388C17.6143 4.905 16.8658 4.5 16.0798 4.5C14.6548 4.5 13.4998 5.655 13.4998 7.08V10.65L12.7498 10.1145V2.25Z" fill="#635242"/>
</svg>
