<svg width="32" height="33" viewBox="0 0 32 33" fill="none" xmlns="http://www.w3.org/2000/svg">
<path d="M0 4.29248C0 2.08334 1.79086 0.29248 4 0.29248H28C30.2091 0.29248 32 2.08334 32 4.29248V28.2925C32 30.5016 30.2091 32.2925 28 32.2925H4C1.79086 32.2925 0 30.5016 0 28.2925V4.29248Z" fill="#F5EFE8"/>
<path d="M11.8749 20.4175L10.3749 22.6675C11.2499 23.5425 13.6749 25.2925 16.3749 25.2925C19.0749 25.2925 21.2499 23.5425 21.9999 22.6675L19.7499 20.4175H11.8749Z" fill="#BDDADB"/>
<circle cx="16.0001" cy="14.0425" r="3.75" fill="#BDDADB"/>
<path fill-rule="evenodd" clip-rule="evenodd" d="M21.8333 10.4588C18.6115 7.23703 13.3879 7.23702 10.166 10.4589C7.018 13.6069 6.9459 18.666 9.94973 21.9016C10.1681 21.411 10.4831 20.9693 10.8782 20.6029C10.8788 20.6023 10.8794 20.6018 10.88 20.6012L10.9445 20.5407C11.6376 19.9001 12.5472 19.5425 13.4926 19.5425H18.5066C19.4516 19.5425 20.3614 19.8998 21.0539 20.5419C21.0541 20.5421 21.0544 20.5424 21.0547 20.5427L21.1182 20.6012C21.5135 20.9673 21.8304 21.4096 22.049 21.9023C25.0534 18.6667 24.9815 13.6071 21.8333 10.4588ZM20.8591 22.9609L20.7158 22.6009C20.5805 22.26 20.3697 21.9527 20.0996 21.7023C20.0994 21.7021 20.0998 21.7025 20.0996 21.7023L20.0363 21.6439L20.0345 21.6423C19.6191 21.2569 19.0732 21.0425 18.5066 21.0425H13.4926C12.9268 21.0425 12.3812 21.2563 11.9645 21.6406L11.8992 21.7018C11.6295 21.9515 11.4192 22.2583 11.2823 22.6012C11.2822 22.6013 11.2823 22.6012 11.2823 22.6012L11.1393 22.9602C14.0257 25.0697 17.9725 25.0699 20.8591 22.9609ZM9.10538 9.39819C12.913 5.59058 19.0863 5.59058 22.8939 9.39819C26.7015 13.2058 26.7015 19.3792 22.8939 23.1868C19.0863 26.9944 12.913 26.9944 9.10537 23.1868C5.29776 19.3791 5.29776 13.2058 9.10538 9.39819ZM17.9442 12.2699C16.8702 11.196 15.129 11.196 14.0551 12.2699C12.9811 13.3439 12.9811 15.0851 14.0551 16.159C15.129 17.233 16.8702 17.233 17.9442 16.159C19.0181 15.0851 19.0181 13.3439 17.9442 12.2699ZM12.9944 11.2093C14.6542 9.54955 17.3451 9.54955 19.0048 11.2093C20.6646 12.869 20.6646 15.56 19.0048 17.2197C17.3451 18.8794 14.6542 18.8794 12.9944 17.2197C11.3347 15.56 11.3347 12.869 12.9944 11.2093Z" fill="#203A3B"/>
</svg>
