<svg width="24" height="24" viewBox="0 0 24 24" fill="none" xmlns="http://www.w3.org/2000/svg">
<path fill-rule="evenodd" clip-rule="evenodd" d="M12 4.25C12.4142 4.25 12.75 4.58579 12.75 5V17.1893L16.4707 13.4687C16.7636 13.1758 17.2385 13.1758 17.5314 13.4687C17.8242 13.7616 17.8242 14.2364 17.5314 14.5293L12.5304 19.5303C12.3897 19.671 12.1989 19.75 12 19.75C11.8011 19.75 11.6103 19.671 11.4697 19.5303L6.46869 14.5293C6.1758 14.2364 6.1758 13.7616 6.46869 13.4687C6.76159 13.1758 7.23646 13.1758 7.52935 13.4687L11.25 17.1893V5C11.25 4.58579 11.5858 4.25 12 4.25Z" fill="#203A3B"/>
</svg>
