<svg width="32" height="33" viewBox="0 0 32 33" fill="none" xmlns="http://www.w3.org/2000/svg">
<path d="M0 4.64648C0 2.43735 1.79086 0.646484 4 0.646484H28C30.2091 0.646484 32 2.43735 32 4.64648V28.6465C32 30.8556 30.2091 32.6465 28 32.6465H4C1.79086 32.6465 0 30.8556 0 28.6465V4.64648Z" fill="#F5EFE8"/>
<rect x="8" y="8.64648" width="16" height="16" rx="1" fill="#BDDADB"/>
<path d="M15.1379 8.65234C15.1147 8.65234 15.0914 8.65234 15.0682 8.65527C11.0399 9.12582 8.00195 12.5659 8.00195 16.6518C8.00195 20.7378 11.0428 24.1778 15.0711 24.6484C15.4022 24.6864 15.6926 24.4467 15.7304 24.1223C15.7478 23.9645 15.7043 23.8066 15.6055 23.681C15.5068 23.5553 15.3645 23.4764 15.2076 23.4588C11.7776 23.0584 9.18983 20.1328 9.18983 16.6518C9.18983 13.1709 11.7776 10.2452 15.2076 9.84481C15.5329 9.80682 15.7682 9.5087 15.7304 9.18136C15.6955 8.88032 15.4429 8.65234 15.1408 8.65234" fill="#203A3B"/>
<path d="M16.8631 8.65234C16.561 8.65234 16.3084 8.88032 16.2735 9.18136C16.2358 9.5087 16.471 9.80682 16.7963 9.84481C20.2263 10.2452 22.8141 13.1709 22.8141 16.6518C22.8141 20.1328 20.2263 23.0584 16.7963 23.4588C16.6395 23.4764 16.4971 23.5553 16.3984 23.681C16.2996 23.8066 16.2561 23.9615 16.2735 24.1223C16.3113 24.4467 16.6017 24.6864 16.9328 24.6484C20.964 24.1778 24.002 20.7407 24.002 16.6518C24.002 12.5629 20.9611 9.12582 16.9328 8.65527C16.9096 8.65234 16.8863 8.65234 16.8631 8.65234Z" fill="#203A3B"/>
<path d="M10.8627 16.9821C10.8279 16.9821 10.793 16.985 10.7582 16.9909C10.6013 17.0201 10.4648 17.1078 10.3748 17.2364C10.2848 17.3679 10.2499 17.5257 10.276 17.6835C10.7698 20.4777 13.1775 22.5031 16.0005 22.5031C18.8235 22.5031 21.2312 20.4747 21.7249 17.6835C21.783 17.3591 21.5681 17.0464 21.2428 16.9909C21.208 16.985 21.1731 16.9821 21.1383 16.9821C20.8507 16.9821 20.6039 17.1896 20.5516 17.476C20.1595 19.6973 18.2426 21.3106 15.9976 21.3106C13.7525 21.3106 11.8357 19.6973 11.4436 17.476C11.3913 17.1896 11.1474 16.9821 10.8598 16.9821" fill="#203A3B"/>
<path d="M16.0005 10.7976C14.6035 10.7976 13.253 11.3032 12.1958 12.2239C11.1503 13.1329 10.4619 14.3867 10.2528 15.7545C10.2034 16.0819 10.4271 16.3859 10.7495 16.4355C10.7785 16.4414 10.8104 16.4414 10.8395 16.4414C11.1299 16.4414 11.3826 16.2222 11.4262 15.9328C11.5917 14.8456 12.1435 13.8489 12.9742 13.1241C13.8135 12.3934 14.8881 11.9901 16.0005 11.9901C17.1129 11.9901 18.1875 12.3934 19.0268 13.1241C19.8575 13.8489 20.4093 14.8456 20.5748 15.9328C20.6184 16.2222 20.8711 16.4414 21.1615 16.4414C21.1935 16.4414 21.2225 16.4414 21.2515 16.4355C21.4084 16.4122 21.5478 16.3274 21.6407 16.1988C21.7337 16.0702 21.7743 15.9124 21.7482 15.7545C21.5391 14.3867 20.8478 13.1329 19.8023 12.2239C18.748 11.3032 17.3946 10.7976 15.9976 10.7976" fill="#203A3B"/>
<path d="M16.0266 13.0306C14.043 13.0306 12.4282 14.6556 12.4282 16.6518C12.4282 18.648 14.043 20.2731 16.0266 20.2731C16.9183 20.2731 17.7692 19.9457 18.4285 19.3495C18.5447 19.2297 18.6115 19.066 18.6115 18.8906C18.6115 18.5253 18.3153 18.2301 17.9551 18.2301C17.7867 18.2301 17.6298 18.2944 17.5049 18.4084L17.4875 18.423C17.0751 18.7649 16.5581 18.9549 16.0237 18.9549C14.7633 18.9549 13.7351 17.9232 13.7351 16.6518C13.7351 15.3804 14.7603 14.3487 16.0237 14.3487C16.9851 14.3487 17.8506 14.9596 18.1758 15.8715L18.2194 15.9913H15.4022C15.0624 16.0205 14.7981 16.3099 14.7981 16.6518C14.7981 17.0142 15.0914 17.3124 15.4545 17.3124C15.4603 17.3124 15.4632 17.3124 15.469 17.3124H18.9136C19.2737 17.3124 19.567 17.0172 19.567 16.6518C19.567 15.6815 19.2011 14.7725 18.536 14.0915C17.868 13.4076 16.9764 13.0306 16.0179 13.0306" fill="#203A3B"/>
<path d="M10 6.64648H8C6.89543 6.64648 6 7.54191 6 8.64648V10.6465" stroke="#203A3B" stroke-width="1.5" stroke-linecap="round"/>
<path d="M10 26.6465H8C6.89543 26.6465 6 25.7511 6 24.6465V22.6465" stroke="#203A3B" stroke-width="1.5" stroke-linecap="round"/>
<path d="M22 6.64648H24C25.1046 6.64648 26 7.54191 26 8.64648V10.6465" stroke="#203A3B" stroke-width="1.5" stroke-linecap="round"/>
<path d="M22 26.6465H24C25.1046 26.6465 26 25.7511 26 24.6465V22.6465" stroke="#203A3B" stroke-width="1.5" stroke-linecap="round"/>
</svg>
