<svg width="24" height="24" viewBox="0 0 24 24" fill="none" xmlns="http://www.w3.org/2000/svg">
<path fill-rule="evenodd" clip-rule="evenodd" d="M18.6522 8.1058C16.8444 6.29806 13.9135 6.29807 12.1058 8.1058C10.298 9.91355 10.298 12.8445 12.1058 14.6522C13.8974 16.4438 16.7923 16.4598 18.6036 14.7001C18.618 14.6828 18.6334 14.6659 18.6497 14.6497C18.6659 14.6334 18.6828 14.618 18.7001 14.6036C20.4598 12.7923 20.4438 9.89742 18.6522 8.1058ZM20.211 15.1504C22.0929 12.7455 21.9268 9.25913 19.7128 7.04514C17.3193 4.65162 13.4386 4.65162 11.0451 7.04514C8.65159 9.43867 8.65159 13.3193 11.0451 15.7129C13.2591 17.9269 16.7455 18.0929 19.1504 16.2111L21.4697 18.5303C21.7626 18.8232 22.2374 18.8232 22.5303 18.5303C22.8232 18.2374 22.8232 17.7626 22.5303 17.4697L20.211 15.1504ZM1.25 7C1.25 6.58579 1.58579 6.25 2 6.25H8C8.41421 6.25 8.75 6.58579 8.75 7C8.75 7.41422 8.41421 7.75 8 7.75H2C1.58579 7.75 1.25 7.41422 1.25 7ZM1.25 12C1.25 11.5858 1.58579 11.25 2 11.25H6C6.41421 11.25 6.75 11.5858 6.75 12C6.75 12.4142 6.41421 12.75 6 12.75H2C1.58579 12.75 1.25 12.4142 1.25 12ZM1.25 17C1.25 16.5858 1.58579 16.25 2 16.25H8C8.41421 16.25 8.75 16.5858 8.75 17C8.75 17.4142 8.41421 17.75 8 17.75H2C1.58579 17.75 1.25 17.4142 1.25 17Z" fill="#203A3B"/>
</svg>
