<svg width="25" height="24" viewBox="0 0 25 24" fill="none" xmlns="http://www.w3.org/2000/svg">
<path d="M11.6377 4.00098C11.6144 4.00098 11.5912 4.00098 11.568 4.0039C7.53965 4.47446 4.50171 7.9145 4.50171 12.0005C4.50171 16.0864 7.54255 19.5265 11.5709 19.997C11.902 20.035 12.1924 19.7953 12.2302 19.4709C12.2476 19.3131 12.204 19.1553 12.1053 19.0296C12.0065 18.9039 11.8642 18.825 11.7074 18.8075C8.27735 18.4071 5.68958 15.4814 5.68958 12.0005C5.68958 8.5195 8.27735 5.59386 11.7074 5.19345C12.0327 5.15545 12.2679 4.85733 12.2302 4.52999C12.1953 4.22895 11.9426 4.00098 11.6406 4.00098" fill="#203A3B"/>
<path d="M13.3628 4.00098C13.0608 4.00098 12.8081 4.22895 12.7733 4.52999C12.7355 4.85733 12.9708 5.15545 13.296 5.19345C16.7261 5.59386 19.3138 8.5195 19.3138 12.0005C19.3138 15.4814 16.7261 18.4071 13.296 18.8075C13.1392 18.825 12.9969 18.9039 12.8982 19.0296C12.7994 19.1553 12.7558 19.3102 12.7733 19.4709C12.811 19.7953 13.1015 20.035 13.4325 19.997C17.4638 19.5265 20.5017 16.0893 20.5017 12.0005C20.5017 7.91157 17.4609 4.47446 13.4325 4.0039C13.4093 4.00098 13.3861 4.00098 13.3628 4.00098Z" fill="#203A3B"/>
<path d="M7.36248 12.3307C7.32763 12.3307 7.29278 12.3336 7.25793 12.3395C7.10109 12.3687 6.96459 12.4564 6.87455 12.585C6.78452 12.7165 6.74967 12.8743 6.77581 13.0322C7.26954 15.8263 9.67724 17.8517 12.5003 17.8517C15.3233 17.8517 17.731 15.8234 18.2247 13.0322C18.2828 12.7078 18.0679 12.395 17.7426 12.3395C17.7077 12.3336 17.6729 12.3307 17.638 12.3307C17.3505 12.3307 17.1036 12.5382 17.0514 12.8247C16.6593 15.0459 14.7424 16.6593 12.4974 16.6593C10.2523 16.6593 8.33544 15.0459 7.94335 12.8247C7.89107 12.5382 7.64711 12.3307 7.35958 12.3307" fill="#203A3B"/>
<path d="M12.5003 6.14625C11.1033 6.14625 9.75275 6.65188 8.69557 7.57254C7.65001 8.4815 6.96168 9.73535 6.75257 11.1032C6.7032 11.4305 6.92683 11.7345 7.24921 11.7842C7.27826 11.79 7.3102 11.79 7.33925 11.79C7.62968 11.79 7.88236 11.5708 7.92592 11.2815C8.09147 10.1942 8.6433 9.19757 9.47394 8.47273C10.3133 7.74206 11.3879 7.33872 12.5003 7.33872C13.6126 7.33872 14.6872 7.74206 15.5266 8.47273C16.3572 9.19757 16.909 10.1942 17.0746 11.2815C17.1182 11.5708 17.3708 11.79 17.6613 11.79C17.6932 11.79 17.7223 11.79 17.7513 11.7842C17.9081 11.7608 18.0475 11.676 18.1405 11.5474C18.2334 11.4188 18.2741 11.261 18.2479 11.1032C18.0388 9.73535 17.3476 8.4815 16.302 7.57254C15.2478 6.65188 13.8943 6.14625 12.4974 6.14625" fill="#203A3B"/>
<path d="M12.5264 8.37921C10.5427 8.37921 8.92792 10.0042 8.92792 12.0005C8.92792 13.9967 10.5427 15.6217 12.5264 15.6217C13.418 15.6217 14.269 15.2944 14.9283 14.6981C15.0445 14.5783 15.1113 14.4146 15.1113 14.2393C15.1113 13.8739 14.815 13.5787 14.4549 13.5787C14.2864 13.5787 14.1296 13.643 14.0047 13.757L13.9873 13.7716C13.5749 14.1136 13.0579 14.3036 12.5235 14.3036C11.263 14.3036 10.2349 13.2718 10.2349 12.0005C10.2349 10.7291 11.2601 9.69735 12.5235 9.69735C13.4848 9.69735 14.3503 10.3082 14.6756 11.2201L14.7192 11.3399H11.902C11.5622 11.3691 11.2979 11.6585 11.2979 12.0005C11.2979 12.3629 11.5912 12.661 11.9542 12.661C11.96 12.661 11.963 12.661 11.9688 12.661H15.4133C15.7734 12.661 16.0668 12.3658 16.0668 12.0005C16.0668 11.0301 15.7008 10.1211 15.0357 9.44016C14.3677 8.75624 13.4761 8.37921 12.5177 8.37921" fill="#203A3B"/>
<path d="M7 1.99512H4.5C3.39543 1.99512 2.5 2.89055 2.5 3.99512V6.49512" stroke="#203A3B" stroke-width="2" stroke-linecap="round"/>
<path d="M7 21.9951H4.5C3.39543 21.9951 2.5 21.0997 2.5 19.9951V17.4951" stroke="#203A3B" stroke-width="2" stroke-linecap="round"/>
<path d="M18 1.99512H20.5C21.6046 1.99512 22.5 2.89055 22.5 3.99512L22.5 6.49512" stroke="#203A3B" stroke-width="2" stroke-linecap="round"/>
<path d="M18 21.9951H20.5C21.6046 21.9951 22.5 21.0997 22.5 19.9951L22.5 17.4951" stroke="#203A3B" stroke-width="2" stroke-linecap="round"/>
</svg>
