<svg fill="none" height="24" viewBox="0 0 24 24" width="24" xmlns="http://www.w3.org/2000/svg">
    <g clip-path="url(#clip0_6481_13890)">
        <path
            d="M11.1379 4.00098C11.1147 4.00098 11.0914 4.00098 11.0682 4.0039C7.03989 4.47446 4.00195 7.9145 4.00195 12.0005C4.00195 16.0864 7.0428 19.5265 11.0711 19.997C11.4022 20.035 11.6926 19.7953 11.7304 19.4709C11.7478 19.3131 11.7043 19.1553 11.6055 19.0296C11.5068 18.9039 11.3645 18.825 11.2076 18.8075C7.77759 18.4071 5.18983 15.4814 5.18983 12.0005C5.18983 8.5195 7.77759 5.59386 11.2076 5.19345C11.5329 5.15545 11.7682 4.85733 11.7304 4.52999C11.6955 4.22895 11.4429 4.00098 11.1408 4.00098"
            fill="#F3F2F1" />
        <path
            d="M12.8631 4.00098C12.561 4.00098 12.3084 4.22895 12.2735 4.52999C12.2358 4.85733 12.471 5.15545 12.7963 5.19345C16.2263 5.59386 18.8141 8.5195 18.8141 12.0005C18.8141 15.4814 16.2263 18.4071 12.7963 18.8075C12.6395 18.825 12.4971 18.9039 12.3984 19.0296C12.2996 19.1553 12.2561 19.3102 12.2735 19.4709C12.3113 19.7953 12.6017 20.035 12.9328 19.997C16.964 19.5265 20.002 16.0893 20.002 12.0005C20.002 7.91157 16.9611 4.47446 12.9328 4.0039C12.9096 4.00098 12.8863 4.00098 12.8631 4.00098Z"
            fill="#F3F2F1" />
        <path
            d="M6.86273 12.3307C6.82787 12.3307 6.79302 12.3336 6.75817 12.3395C6.60134 12.3687 6.46483 12.4564 6.3748 12.585C6.28476 12.7165 6.24991 12.8743 6.27605 13.0322C6.76979 15.8263 9.17748 17.8517 12.0005 17.8517C14.8235 17.8517 17.2312 15.8234 17.7249 13.0322C17.783 12.7078 17.5681 12.395 17.2428 12.3395C17.208 12.3336 17.1731 12.3307 17.1383 12.3307C16.8507 12.3307 16.6039 12.5382 16.5516 12.8247C16.1595 15.0459 14.2426 16.6593 11.9976 16.6593C9.75254 16.6593 7.83568 15.0459 7.44359 12.8247C7.39132 12.5382 7.14735 12.3307 6.85982 12.3307"
            fill="#F3F2F1" />
        <path
            d="M12.0005 6.14625C10.6035 6.14625 9.253 6.65188 8.19582 7.57254C7.15026 8.4815 6.46193 9.73535 6.25282 11.1032C6.20344 11.4305 6.42708 11.7345 6.74946 11.7842C6.7785 11.79 6.81045 11.79 6.83949 11.79C7.12993 11.79 7.3826 11.5708 7.42617 11.2815C7.59172 10.1942 8.14354 9.19757 8.97418 8.47273C9.81353 7.74206 10.8881 7.33872 12.0005 7.33872C13.1129 7.33872 14.1875 7.74206 15.0268 8.47273C15.8575 9.19757 16.4093 10.1942 16.5748 11.2815C16.6184 11.5708 16.8711 11.79 17.1615 11.79C17.1935 11.79 17.2225 11.79 17.2515 11.7842C17.4084 11.7608 17.5478 11.676 17.6407 11.5474C17.7337 11.4188 17.7743 11.261 17.7482 11.1032C17.5391 9.73535 16.8478 8.4815 15.8023 7.57254C14.748 6.65188 13.3946 6.14625 11.9976 6.14625"
            fill="#F3F2F1" />
        <path
            d="M12.0266 8.37921C10.043 8.37921 8.42816 10.0042 8.42816 12.0005C8.42816 13.9967 10.043 15.6217 12.0266 15.6217C12.9183 15.6217 13.7692 15.2944 14.4285 14.6981C14.5447 14.5783 14.6115 14.4146 14.6115 14.2393C14.6115 13.8739 14.3153 13.5787 13.9551 13.5787C13.7867 13.5787 13.6298 13.643 13.5049 13.757L13.4875 13.7716C13.0751 14.1136 12.5581 14.3036 12.0237 14.3036C10.7633 14.3036 9.73512 13.2718 9.73512 12.0005C9.73512 10.7291 10.7603 9.69735 12.0237 9.69735C12.9851 9.69735 13.8506 10.3082 14.1758 11.2201L14.2194 11.3399H11.4022C11.0624 11.3691 10.7981 11.6585 10.7981 12.0005C10.7981 12.3629 11.0914 12.661 11.4545 12.661C11.4603 12.661 11.4632 12.661 11.469 12.661H14.9136C15.2737 12.661 15.567 12.3658 15.567 12.0005C15.567 11.0301 15.2011 10.1211 14.536 9.44016C13.868 8.75624 12.9764 8.37921 12.0179 8.37921"
            fill="#F3F2F1" />
        <path
            d="M1.25 19.9951V17.9951C1.25 17.5809 1.58579 17.2451 2 17.2451C2.41421 17.2451 2.75 17.5809 2.75 17.9951V19.9951C2.75 20.6855 3.30964 21.2451 4 21.2451H6C6.41421 21.2451 6.75 21.5809 6.75 21.9951C6.75 22.4093 6.41421 22.7451 6 22.7451H4C2.48122 22.7451 1.25 21.5139 1.25 19.9951ZM21.25 19.9951V17.9951C21.25 17.5809 21.5858 17.2451 22 17.2451C22.4142 17.2451 22.75 17.5809 22.75 17.9951V19.9951C22.75 21.5139 21.5188 22.7451 20 22.7451H18C17.5858 22.7451 17.25 22.4093 17.25 21.9951C17.25 21.5809 17.5858 21.2451 18 21.2451H20C20.6904 21.2451 21.25 20.6855 21.25 19.9951ZM1.25 5.99512V3.99512C1.25 2.47633 2.48122 1.24512 4 1.24512H6C6.41421 1.24512 6.75 1.5809 6.75 1.99512C6.75 2.40933 6.41421 2.74512 6 2.74512H4C3.30964 2.74512 2.75 3.30476 2.75 3.99512V5.99512C2.75 6.40933 2.41421 6.74512 2 6.74512C1.58579 6.74512 1.25 6.40933 1.25 5.99512ZM21.25 5.99512V3.99512C21.25 3.30476 20.6904 2.74512 20 2.74512H18C17.5858 2.74512 17.25 2.40933 17.25 1.99512C17.25 1.5809 17.5858 1.24512 18 1.24512H20C21.5188 1.24512 22.75 2.47633 22.75 3.99512V5.99512C22.75 6.40933 22.4142 6.74512 22 6.74512C21.5858 6.74512 21.25 6.40933 21.25 5.99512Z"
            fill="#F3F2F1" />
    </g>
    <defs>
        <clipPath id="clip0_6481_13890">
            <rect fill="white" height="24" width="24" />
        </clipPath>
    </defs>
</svg>
