<svg width="20" height="20" viewBox="0 0 20 20" fill="none" xmlns="http://www.w3.org/2000/svg">
<path fill-rule="evenodd" clip-rule="evenodd" d="M4.99787 3.12158C3.96176 3.12158 3.12183 3.96151 3.12183 4.99762V5.8313C3.12183 6.17648 2.842 6.4563 2.49683 6.4563C2.15165 6.4563 1.87183 6.17648 1.87183 5.8313V4.99762C1.87183 3.27116 3.2714 1.87158 4.99787 1.87158H5.83155C6.17673 1.87158 6.45655 2.1514 6.45655 2.49658C6.45655 2.84176 6.17673 3.12158 5.83155 3.12158H4.99787ZM13.5434 2.49658C13.5434 2.1514 13.8232 1.87158 14.1684 1.87158H15.0021C16.7285 1.87158 18.1281 3.27116 18.1281 4.99762V5.8313C18.1281 6.17648 17.8483 6.4563 17.5031 6.4563C17.1579 6.4563 16.8781 6.17648 16.8781 5.8313V4.99762C16.8781 3.96151 16.0382 3.12158 15.0021 3.12158H14.1684C13.8232 3.12158 13.5434 2.84176 13.5434 2.49658ZM5.41489 6.03988C5.76007 6.03988 6.03989 6.3197 6.03989 6.66488V9.37501H7.84653V6.66488C7.84653 6.3197 8.12635 6.03988 8.47153 6.03988C8.81671 6.03988 9.09653 6.3197 9.09653 6.66488V9.37501H10.9036V6.66488C10.9036 6.3197 11.1834 6.03988 11.5286 6.03988C11.8738 6.03988 12.1536 6.3197 12.1536 6.66488V9.37501H13.9602V6.66488C13.9602 6.3197 14.24 6.03988 14.5852 6.03988C14.9304 6.03988 15.2102 6.3197 15.2102 6.66488V9.37501H16.6695C17.0146 9.37501 17.2945 9.65483 17.2945 10C17.2945 10.3452 17.0146 10.625 16.6695 10.625H3.33057C2.98539 10.625 2.70557 10.3452 2.70557 10C2.70557 9.65483 2.98539 9.37501 3.33057 9.37501H4.78989V6.66488C4.78989 6.3197 5.06971 6.03988 5.41489 6.03988ZM5.41489 11.8757C5.76007 11.8757 6.03989 12.1555 6.03989 12.5007V14.168C6.03989 14.5132 5.76007 14.793 5.41489 14.793C5.06971 14.793 4.78989 14.5132 4.78989 14.168V12.5007C4.78989 12.1555 5.06971 11.8757 5.41489 11.8757ZM8.47153 11.8757C8.81671 11.8757 9.09653 12.1555 9.09653 12.5007V14.168C9.09653 14.5132 8.81671 14.793 8.47153 14.793C8.12635 14.793 7.84653 14.5132 7.84653 14.168V12.5007C7.84653 12.1555 8.12635 11.8757 8.47153 11.8757ZM11.5286 11.9798C11.8738 11.9798 12.1536 12.2596 12.1536 12.6048V14.168C12.1536 14.5132 11.8738 14.793 11.5286 14.793C11.1834 14.793 10.9036 14.5132 10.9036 14.168V12.6048C10.9036 12.2596 11.1834 11.9798 11.5286 11.9798ZM14.5852 11.9798C14.9304 11.9798 15.2102 12.2596 15.2102 12.6048V14.168C15.2102 14.5132 14.9304 14.793 14.5852 14.793C14.24 14.793 13.9602 14.5132 13.9602 14.168V12.6048C13.9602 12.2596 14.24 11.9798 14.5852 11.9798ZM2.49683 13.5431C2.842 13.5431 3.12183 13.823 3.12183 14.1681V15.0018C3.12183 16.0379 3.96176 16.8779 4.99787 16.8779H5.83155C6.17673 16.8779 6.45655 17.1577 6.45655 17.5029C6.45655 17.848 6.17673 18.1279 5.83155 18.1279H4.99787C3.2714 18.1279 1.87183 16.7283 1.87183 15.0018V14.1681C1.87183 13.823 2.15165 13.5431 2.49683 13.5431ZM17.5031 13.5431C17.8483 13.5431 18.1281 13.823 18.1281 14.1681V15.0018C18.1281 16.7283 16.7285 18.1279 15.0021 18.1279H14.1684C13.8232 18.1279 13.5434 17.848 13.5434 17.5029C13.5434 17.1577 13.8232 16.8779 14.1684 16.8779H15.0021C16.0382 16.8779 16.8781 16.0379 16.8781 15.0018V14.1681C16.8781 13.823 17.1579 13.5431 17.5031 13.5431Z" fill="#516D6E"/>
</svg>
