<svg width="16" height="16" viewBox="0 0 16 16" fill="none" xmlns="http://www.w3.org/2000/svg">
<path d="M6.32062 13.163C6.51736 13.137 6.71611 13.1904 6.87285 13.3111L7.59515 13.8653C7.83391 14.0487 8.16605 14.0487 8.40415 13.8653L9.1538 13.2898C9.29385 13.1824 9.47059 13.135 9.64533 13.1584L10.5831 13.2818C10.8812 13.3211 11.1686 13.155 11.284 12.8769L11.6448 12.0046C11.7122 11.8412 11.8416 11.7118 12.005 11.6444L12.8773 11.2836C13.1555 11.1689 13.3215 10.8808 13.2822 10.5826L13.1635 9.67892C13.1375 9.48218 13.1908 9.28343 13.3115 9.12669L13.8658 8.40439C14.0492 8.16563 14.0492 7.83349 13.8658 7.59539L13.2902 6.84574C13.1828 6.70569 13.1355 6.52895 13.1588 6.35421L13.2822 5.41648C13.3215 5.11836 13.1555 4.83091 12.8773 4.71552L12.005 4.35471C11.8416 4.28735 11.7122 4.15796 11.6448 3.99456L11.284 3.12219C11.1693 2.84408 10.8812 2.67801 10.5831 2.71736L9.64533 2.84074C9.47059 2.86475 9.29385 2.8174 9.15446 2.71069L8.40482 2.13512C8.16605 1.95171 7.83391 1.95171 7.59581 2.13512L6.84617 2.71069C6.70611 2.8174 6.52937 2.86475 6.35463 2.84208L5.41691 2.71869C5.11878 2.67934 4.83133 2.84541 4.71595 3.12353L4.3558 3.99589C4.28777 4.15863 4.15838 4.28801 3.99565 4.35604L3.12328 4.71619C2.84517 4.83157 2.6791 5.11903 2.71845 5.41715L2.84183 6.35487C2.86451 6.52961 2.81716 6.70635 2.71044 6.84574L2.13487 7.59539C1.95146 7.83416 1.95146 8.16629 2.13487 8.40439L2.71044 9.15404C2.81782 9.2941 2.86518 9.47084 2.84183 9.64558L2.71845 10.5833C2.6791 10.8814 2.84517 11.1689 3.12328 11.2843L3.99565 11.6451C4.15905 11.7124 4.28844 11.8418 4.3558 12.0052L4.71661 12.8776C4.83133 13.1557 5.11945 13.3218 5.41757 13.2824L6.32062 13.163" stroke="#009A4F" stroke-width="1.5" stroke-linecap="round" stroke-linejoin="round"/>
<path fill-rule="evenodd" clip-rule="evenodd" d="M10.2203 6.71334C10.4155 6.9086 10.4155 7.22519 10.2203 7.42045L7.88531 9.75542C7.79152 9.8492 7.66432 9.90188 7.53169 9.90187C7.39906 9.90185 7.27188 9.84914 7.17811 9.75534L5.7782 8.35475C5.58298 8.15944 5.58306 7.84286 5.77837 7.64765C5.97368 7.45243 6.29026 7.45251 6.48547 7.64781L7.53184 8.69468L9.51317 6.71334C9.70843 6.51808 10.025 6.51808 10.2203 6.71334Z" fill="#009A4F"/>
</svg>
