<svg width="24" height="24" viewBox="0 0 24 24" fill="none" xmlns="http://www.w3.org/2000/svg">
<g clip-path="url(#clip0_25124_28568)">
<path fill-rule="evenodd" clip-rule="evenodd" d="M12 3.75C7.44366 3.75 3.75 7.44366 3.75 12C3.75 16.5563 7.44366 20.25 12 20.25C16.5563 20.25 20.25 16.5563 20.25 12C20.25 7.44366 16.5563 3.75 12 3.75ZM2.25 12C2.25 6.61523 6.61523 2.25 12 2.25C17.3848 2.25 21.75 6.61523 21.75 12C21.75 17.3848 17.3848 21.75 12 21.75C6.61523 21.75 2.25 17.3848 2.25 12ZM15.5303 9.96967C15.8232 10.2626 15.8232 10.7374 15.5303 11.0303L11.7803 14.7803C11.4874 15.0732 11.0126 15.0732 10.7197 14.7803L8.46967 12.5303C8.17678 12.2374 8.17678 11.7626 8.46967 11.4697C8.76256 11.1768 9.23744 11.1768 9.53033 11.4697L11.25 13.1893L14.4697 9.96967C14.7626 9.67678 15.2374 9.67678 15.5303 9.96967Z" fill="white"/>
</g>
<defs>
<clipPath id="clip0_25124_28568">
<rect width="24" height="24" fill="white"/>
</clipPath>
</defs>
</svg>
