<svg width="24" height="24" viewBox="0 0 24 24" fill="none" xmlns="http://www.w3.org/2000/svg">
<path fill-rule="evenodd" clip-rule="evenodd" d="M4.47016 4.47187C4.76305 4.17897 5.23793 4.17897 5.53082 4.47187L12.0005 10.9415L18.4702 4.47187C18.7631 4.17897 19.2379 4.17897 19.5308 4.47187C19.8237 4.76476 19.8237 5.23963 19.5308 5.53253L13.0611 12.0022L19.5308 18.4719C19.8237 18.7648 19.8237 19.2396 19.5308 19.5325C19.2379 19.8254 18.7631 19.8254 18.4702 19.5325L12.0005 13.0629L5.53082 19.5325C5.23793 19.8254 4.76305 19.8254 4.47016 19.5325C4.17726 19.2396 4.17726 18.7648 4.47016 18.4719L10.9398 12.0022L4.47016 5.53253C4.17726 5.23963 4.17726 4.76476 4.47016 4.47187Z" fill="#203A3B"/>
</svg>
