<svg width="16" height="17" viewBox="0 0 16 17" fill="none" xmlns="http://www.w3.org/2000/svg">
<path fill-rule="evenodd" clip-rule="evenodd" d="M8.00007 2.33301C4.59431 2.33301 1.8334 5.09392 1.8334 8.49968C1.8334 11.9054 4.59431 14.6663 8.00007 14.6663C11.4058 14.6663 14.1667 11.9054 14.1667 8.49968C14.1667 5.09392 11.4058 2.33301 8.00007 2.33301ZM0.833399 8.49968C0.833399 4.54163 4.04203 1.33301 8.00007 1.33301C11.9581 1.33301 15.1667 4.54163 15.1667 8.49968C15.1667 12.4577 11.9581 15.6663 8.00007 15.6663C4.04203 15.6663 0.833399 12.4577 0.833399 8.49968ZM5.64651 6.14612C5.84177 5.95086 6.15836 5.95086 6.35362 6.14612L8.00007 7.79257L9.64651 6.14612C9.84177 5.95086 10.1584 5.95086 10.3536 6.14612C10.5489 6.34138 10.5489 6.65797 10.3536 6.85323L8.70717 8.49968L10.3536 10.1461C10.5489 10.3414 10.5489 10.658 10.3536 10.8532C10.1584 11.0485 9.84177 11.0485 9.64651 10.8532L8.00007 9.20678L6.35362 10.8532C6.15836 11.0485 5.84177 11.0485 5.64651 10.8532C5.45125 10.658 5.45125 10.3414 5.64651 10.1461L7.29296 8.49968L5.64651 6.85323C5.45125 6.65797 5.45125 6.34138 5.64651 6.14612Z" fill="#D51F1F"/>
</svg>
