<svg width="24" height="24" viewBox="0 0 24 24" fill="none" xmlns="http://www.w3.org/2000/svg">
<path d="M12 1.5C17.799 1.5 22.5 6.20101 22.5 12C22.5 17.799 17.799 22.5 12 22.5C6.20101 22.5 1.5 17.799 1.5 12C1.5 6.20101 6.20101 1.5 12 1.5ZM15.5918 7.80762C15.1818 7.3976 14.5165 7.39765 14.1064 7.80762L11.6997 10.2144L9.29297 7.80762C8.88292 7.39757 8.21767 7.39757 7.80762 7.80762C7.39757 8.21767 7.39757 8.88292 7.80762 9.29297L10.2144 11.6997L7.80762 14.1064C7.39766 14.5165 7.3976 15.1818 7.80762 15.5918C8.21767 16.0014 8.88304 16.0016 9.29297 15.5918L11.6997 13.1836L14.1064 15.5918C14.5165 16.0014 15.1819 16.0017 15.5918 15.5918C16.0017 15.1819 16.0014 14.5165 15.5918 14.1064L13.1836 11.6997L15.5918 9.29297C16.0016 8.88304 16.0014 8.21767 15.5918 7.80762Z" fill="#203A3B"/>
</svg>
