<svg width="16" height="16" viewBox="0 0 16 16" fill="none" xmlns="http://www.w3.org/2000/svg">
<path d="M13.5 6.00033C13.5 5.5398 13.1272 5.16699 12.6667 5.16699H11.3333C11.1579 5.16699 10.9954 5.07508 10.9049 4.9248L9.89648 3.24707V3.24772C9.86613 3.19757 9.81165 3.16699 9.75326 3.16699H6.21745C6.1578 3.16699 6.10322 3.19883 6.07357 3.24967H6.07292L5.09831 4.91895C5.00868 5.07246 4.84443 5.16699 4.66667 5.16699H3.33333C2.87281 5.16699 2.5 5.5398 2.5 6.00033V12.0003C2.5 12.4608 2.87281 12.8337 3.33333 12.8337H12.6667C13.1272 12.8337 13.5 12.4608 13.5 12.0003V6.00033ZM5.80664 6.42546C7.0399 5.19219 9.03951 5.19222 10.2728 6.42546C11.5061 7.65873 11.5061 9.65833 10.2728 10.8916C9.03949 12.1247 7.03984 12.1248 5.80664 10.8916C4.57348 9.6584 4.5736 7.65873 5.80664 6.42546ZM9.56576 7.13249C8.72304 6.28981 7.35707 6.28985 6.51432 7.13249C5.67157 7.97524 5.67157 9.34182 6.51432 10.1846C7.35702 11.027 8.72308 11.027 9.56576 10.1846C10.4085 9.34182 10.4085 7.97524 9.56576 7.13249ZM14.5 12.0003C14.5 13.0131 13.6795 13.8337 12.6667 13.8337H3.33333C2.32052 13.8337 1.5 13.0131 1.5 12.0003V6.00033C1.5 4.98752 2.32052 4.16699 3.33333 4.16699H4.37956L5.20964 2.74577L5.25065 2.68001C5.46659 2.36053 5.82844 2.16699 6.21745 2.16699H9.75326C10.1115 2.16699 10.4465 2.33118 10.666 2.60645L10.7526 2.73145L10.7533 2.7321L11.6159 4.16699H12.6667C13.6795 4.16699 14.5 4.98752 14.5 6.00033V12.0003Z" fill="white"/>
</svg>
