<svg width="32" height="33" viewBox="0 0 32 33" fill="none" xmlns="http://www.w3.org/2000/svg">
<rect x="12" y="7.53906" width="13" height="13" rx="2" fill="#BDDADB"/>
<path d="M19 14.7891C19 13.8226 18.2165 13.0391 17.25 13.0391H9.25C8.2835 13.0391 7.5 13.8226 7.5 14.7891V22.7891C7.5 23.7556 8.2835 24.5391 9.25 24.5391H17.25C18.2165 24.5391 19 23.7556 19 22.7891V14.7891ZM11 17.7891V14.7891C11 14.3748 11.3358 14.0391 11.75 14.0391C12.1642 14.0391 12.5 14.3748 12.5 14.7891V17.7891C12.5 18.7556 13.2835 19.5391 14.25 19.5391H17.25C17.6642 19.5391 18 19.8748 18 20.2891C18 20.7033 17.6642 21.0391 17.25 21.0391H14.25C12.4551 21.0391 11 19.584 11 17.7891ZM24 17.7891V9.78906C24 8.82256 23.2165 8.03906 22.25 8.03906H14.25C13.2835 8.03906 12.5 8.82256 12.5 9.78906C12.5 10.2033 12.1642 10.5391 11.75 10.5391C11.3358 10.5391 11 10.2033 11 9.78906C11 7.99414 12.4551 6.53906 14.25 6.53906H22.25C24.0449 6.53906 25.5 7.99414 25.5 9.78906V17.7891C25.5 19.584 24.0449 21.0391 22.25 21.0391C21.8358 21.0391 21.5 20.7033 21.5 20.2891C21.5 19.8748 21.8358 19.5391 22.25 19.5391C23.2165 19.5391 24 18.7556 24 17.7891ZM20.5 22.7891C20.5 24.584 19.0449 26.0391 17.25 26.0391H9.25C7.45507 26.0391 6 24.584 6 22.7891V14.7891C6 12.9941 7.45507 11.5391 9.25 11.5391H17.25C19.0449 11.5391 20.5 12.9941 20.5 14.7891V22.7891Z" fill="#203A3B"/>
</svg>
