<svg width="17" height="17" viewBox="0 0 17 17" fill="none" xmlns="http://www.w3.org/2000/svg">
<path d="M6.82062 13.663C7.01736 13.637 7.21611 13.6904 7.37285 13.8111L8.09515 14.3653C8.33391 14.5487 8.66605 14.5487 8.90415 14.3653L9.6538 13.7898C9.79385 13.6824 9.97059 13.635 10.1453 13.6584L11.0831 13.7818C11.3812 13.8211 11.6686 13.655 11.784 13.3769L12.1448 12.5046C12.2122 12.3412 12.3416 12.2118 12.505 12.1444L13.3773 11.7836C13.6555 11.6689 13.8215 11.3808 13.7822 11.0826L13.6635 10.1789C13.6375 9.98218 13.6908 9.78343 13.8115 9.62669L14.3658 8.90439C14.5492 8.66563 14.5492 8.33349 14.3658 8.09539L13.7902 7.34574C13.6828 7.20569 13.6355 7.02895 13.6588 6.85421L13.7822 5.91648C13.8215 5.61836 13.6555 5.33091 13.3773 5.21552L12.505 4.85471C12.3416 4.78735 12.2122 4.65796 12.1448 4.49456L11.784 3.62219C11.6693 3.34408 11.3812 3.17801 11.0831 3.21736L10.1453 3.34074C9.97059 3.36475 9.79385 3.3174 9.65446 3.21069L8.90482 2.63512C8.66605 2.45171 8.33391 2.45171 8.09581 2.63512L7.34617 3.21069C7.20611 3.3174 7.02937 3.36475 6.85463 3.34208L5.91691 3.21869C5.61878 3.17934 5.33133 3.34541 5.21595 3.62353L4.8558 4.49589C4.78777 4.65863 4.65838 4.78801 4.49565 4.85604L3.62328 5.21619C3.34517 5.33157 3.1791 5.61903 3.21845 5.91715L3.34183 6.85487C3.36451 7.02961 3.31716 7.20635 3.21044 7.34574L2.63487 8.09539C2.45146 8.33416 2.45146 8.66629 2.63487 8.90439L3.21044 9.65404C3.31782 9.7941 3.36518 9.97084 3.34183 10.1456L3.21845 11.0833C3.1791 11.3814 3.34517 11.6689 3.62328 11.7843L4.49565 12.1451C4.65905 12.2124 4.78844 12.3418 4.8558 12.5052L5.21661 13.3776C5.33133 13.6557 5.61945 13.8218 5.91757 13.7824L6.82062 13.663" stroke="#009A4F" stroke-linecap="round" stroke-linejoin="round"/>
<path fill-rule="evenodd" clip-rule="evenodd" d="M10.7204 7.21334C10.9157 7.4086 10.9157 7.72519 10.7204 7.92045L8.38543 10.2554C8.29164 10.3492 8.16444 10.4019 8.03181 10.4019C7.89919 10.4019 7.772 10.3491 7.67824 10.2553L6.27832 8.85475C6.0831 8.65944 6.08318 8.34286 6.27849 8.14765C6.4738 7.95243 6.79038 7.95251 6.9856 8.14781L8.03196 9.19468L10.0133 7.21334C10.2086 7.01808 10.5251 7.01808 10.7204 7.21334Z" fill="#009A4F"/>
</svg>
