<svg width="20" height="20" viewBox="0 0 20 20" fill="none" xmlns="http://www.w3.org/2000/svg">
<path fill-rule="evenodd" clip-rule="evenodd" d="M9.6 1.2C4.96037 1.2 1.2 4.96037 1.2 9.6C1.2 14.2396 4.96037 18 9.6 18C14.2396 18 18 14.2396 18 9.6C18 4.96037 14.2396 1.2 9.6 1.2ZM0 9.6C0 4.29763 4.29763 0 9.6 0C14.9024 0 19.2 4.29763 19.2 9.6C19.2 14.9024 14.9024 19.2 9.6 19.2C4.29763 19.2 0 14.9024 0 9.6ZM9.6 5C9.93137 5 10.2 5.26863 10.2 5.6V9H13.6C13.9314 9 14.2 9.26863 14.2 9.6C14.2 9.93137 13.9314 10.2 13.6 10.2H10.2V13.6C10.2 13.9314 9.93137 14.2 9.6 14.2C9.26863 14.2 9 13.9314 9 13.6V10.2H5.6C5.26863 10.2 5 9.93137 5 9.6C5 9.26863 5.26863 9 5.6 9H9V5.6C9 5.26863 9.26863 5 9.6 5Z" fill="#203A3B"/>
</svg>
