<svg width="24" height="24" viewBox="0 0 24 24" fill="none" xmlns="http://www.w3.org/2000/svg">
<path d="M15 10.25C15 9.2835 14.2165 8.5 13.25 8.5H5.25C4.2835 8.5 3.5 9.2835 3.5 10.25V18.25C3.5 19.2165 4.2835 20 5.25 20H13.25C14.2165 20 15 19.2165 15 18.25V10.25ZM7 13.25V10.25C7 9.83579 7.33579 9.5 7.75 9.5C8.16421 9.5 8.5 9.83579 8.5 10.25V13.25C8.5 14.2165 9.2835 15 10.25 15H13.25C13.6642 15 14 15.3358 14 15.75C14 16.1642 13.6642 16.5 13.25 16.5H10.25C8.45507 16.5 7 15.0449 7 13.25ZM20 13.25V5.25C20 4.2835 19.2165 3.5 18.25 3.5H10.25C9.2835 3.5 8.5 4.2835 8.5 5.25C8.5 5.66421 8.16421 6 7.75 6C7.33579 6 7 5.66421 7 5.25C7 3.45507 8.45507 2 10.25 2H18.25C20.0449 2 21.5 3.45507 21.5 5.25V13.25C21.5 15.0449 20.0449 16.5 18.25 16.5C17.8358 16.5 17.5 16.1642 17.5 15.75C17.5 15.3358 17.8358 15 18.25 15C19.2165 15 20 14.2165 20 13.25ZM16.5 18.25C16.5 20.0449 15.0449 21.5 13.25 21.5H5.25C3.45507 21.5 2 20.0449 2 18.25V10.25C2 8.45507 3.45507 7 5.25 7H13.25C15.0449 7 16.5 8.45507 16.5 10.25V18.25Z" fill="#B8B3AD"/>
</svg>
