<svg width="20" height="20" viewBox="0 0 20 20" fill="none" xmlns="http://www.w3.org/2000/svg">
<g clip-path="url(#clip0_19942_26470)">
<path d="M6.25004 14.3667L6.31433 14.37C6.32836 14.3714 6.3421 14.3741 6.35583 14.3765C6.35825 14.3769 6.36074 14.3769 6.36316 14.3773C6.38303 14.3809 6.40178 14.3881 6.42094 14.3936C6.44413 14.4001 6.46784 14.406 6.49093 14.4156C6.49218 14.4161 6.49375 14.4158 6.495 14.4164C6.56506 14.4458 6.63385 14.4893 6.69519 14.5506C6.82891 14.6844 6.87911 14.8525 6.87911 14.9958C6.87911 15.1391 6.82891 15.3072 6.69519 15.4409C6.56147 15.5747 6.39332 15.6249 6.25004 15.6249C6.10676 15.6249 5.93861 15.5747 5.80489 15.4409C5.70469 15.3407 5.65124 15.2212 5.63074 15.1073L5.62097 14.9958L5.63074 14.8843C5.65124 14.7704 5.70469 14.6508 5.80489 14.5506C5.86623 14.4893 5.93503 14.4458 6.00509 14.4164C6.0061 14.4159 6.00732 14.416 6.00834 14.4156C6.0314 14.406 6.05516 14.4002 6.07833 14.3936C6.09748 14.3881 6.11625 14.381 6.13611 14.3773C6.13853 14.3769 6.14102 14.3769 6.14343 14.3765C6.17812 14.3705 6.21365 14.3667 6.25004 14.3667ZM5.90906 15.5142C5.93454 15.531 5.96079 15.545 5.98718 15.5573C5.96002 15.5447 5.93393 15.5305 5.90906 15.5142ZM6.51208 15.5573C6.53851 15.545 6.56469 15.531 6.59021 15.5142C6.5653 15.5304 6.53928 15.5447 6.51208 15.5573Z" fill="#203A3B"/>
<path d="M8.75004 14.3751L8.81433 14.3783C8.82836 14.3797 8.8421 14.3825 8.85583 14.3848C8.85825 14.3852 8.86074 14.3852 8.86316 14.3856C8.88303 14.3893 8.90178 14.3964 8.92094 14.4019C8.94413 14.4085 8.96784 14.4143 8.99093 14.4239C8.99218 14.4244 8.99375 14.4242 8.995 14.4247C9.06506 14.4542 9.13385 14.4976 9.19519 14.559C9.32891 14.6927 9.37911 14.8608 9.37911 15.0041C9.37911 15.1474 9.32891 15.3156 9.19519 15.4493C9.06147 15.583 8.89332 15.6332 8.75004 15.6332C8.60676 15.6332 8.43861 15.583 8.30489 15.4493C8.20469 15.3491 8.15124 15.2295 8.13074 15.1156L8.12097 15.0041L8.13074 14.8926C8.15124 14.7788 8.20469 14.6592 8.30489 14.559C8.36623 14.4976 8.43503 14.4542 8.50509 14.4247C8.5061 14.4243 8.50732 14.4243 8.50834 14.4239C8.5314 14.4143 8.55516 14.4085 8.57833 14.4019C8.59748 14.3964 8.61625 14.3893 8.63611 14.3856C8.63853 14.3852 8.64102 14.3852 8.64343 14.3848C8.67812 14.3789 8.71365 14.3751 8.75004 14.3751ZM8.40906 15.5225C8.43454 15.5393 8.46079 15.5533 8.48718 15.5656C8.46002 15.553 8.43393 15.5388 8.40906 15.5225ZM9.01208 15.5656C9.03851 15.5533 9.06469 15.5393 9.09021 15.5225C9.0653 15.5388 9.03928 15.553 9.01208 15.5656Z" fill="#203A3B"/>
<path d="M11.2459 14.3709L11.3102 14.3741C11.3242 14.3756 11.3379 14.3783 11.3517 14.3807C11.3541 14.3811 11.3566 14.381 11.359 14.3815C11.3789 14.3851 11.3976 14.3923 11.4168 14.3977C11.44 14.4043 11.4637 14.4102 11.4868 14.4197C11.488 14.4202 11.4896 14.42 11.4908 14.4205C11.5609 14.45 11.6297 14.4935 11.691 14.5548C11.8247 14.6885 11.8749 14.8567 11.8749 15C11.8749 15.1432 11.8247 15.3114 11.691 15.4451C11.5573 15.5788 11.3892 15.629 11.2459 15.629C11.1026 15.629 10.9344 15.5788 10.8007 15.4451C10.7005 15.3449 10.6471 15.2253 10.6266 15.1115L10.6168 15L10.6266 14.8885C10.6471 14.7746 10.7005 14.655 10.8007 14.5548C10.8621 14.4935 10.9309 14.45 11.0009 14.4205C11.0019 14.4201 11.0032 14.4201 11.0042 14.4197C11.0272 14.4102 11.051 14.4043 11.0742 14.3977C11.0933 14.3923 11.1121 14.3851 11.1319 14.3815C11.1344 14.381 11.1369 14.3811 11.1393 14.3807C11.174 14.3747 11.2095 14.3709 11.2459 14.3709ZM10.9049 15.5184C10.9304 15.5351 10.9566 15.5492 10.983 15.5615C10.9558 15.5488 10.9298 15.5346 10.9049 15.5184ZM11.5079 15.5615C11.5343 15.5492 11.5605 15.5351 11.586 15.5184C11.5611 15.5346 11.5351 15.5489 11.5079 15.5615Z" fill="#203A3B"/>
<path d="M13.7459 14.3709L13.8102 14.3741C13.8242 14.3756 13.8379 14.3783 13.8517 14.3807C13.8541 14.3811 13.8566 14.381 13.859 14.3815C13.8789 14.3851 13.8976 14.3923 13.9168 14.3977C13.94 14.4043 13.9637 14.4102 13.9868 14.4197C13.988 14.4202 13.9896 14.42 13.9908 14.4205C14.0609 14.45 14.1297 14.4935 14.191 14.5548C14.3247 14.6885 14.3749 14.8567 14.3749 15C14.3749 15.1432 14.3247 15.3114 14.191 15.4451C14.0573 15.5788 13.8892 15.629 13.7459 15.629C13.6026 15.629 13.4344 15.5788 13.3007 15.4451C13.2005 15.3449 13.1471 15.2253 13.1266 15.1115L13.1168 15L13.1266 14.8885C13.1471 14.7746 13.2005 14.655 13.3007 14.5548C13.3621 14.4935 13.4309 14.45 13.5009 14.4205C13.5019 14.4201 13.5032 14.4201 13.5042 14.4197C13.5272 14.4102 13.551 14.4043 13.5742 14.3977C13.5933 14.3923 13.6121 14.3851 13.6319 14.3815C13.6344 14.381 13.6369 14.3811 13.6393 14.3807C13.674 14.3747 13.7095 14.3709 13.7459 14.3709ZM13.4049 15.5184C13.4304 15.5351 13.4566 15.5492 13.483 15.5615C13.4558 15.5488 13.4298 15.5346 13.4049 15.5184ZM14.0079 15.5615C14.0343 15.5492 14.0605 15.5351 14.086 15.5184C14.0611 15.5346 14.0351 15.5489 14.0079 15.5615Z" fill="#203A3B"/>
<path d="M16.0417 15C16.0417 13.9643 15.2024 13.125 14.1667 13.125H5.83337C4.79772 13.125 3.95837 13.9643 3.95837 15C3.95837 16.0356 4.79772 16.875 5.83337 16.875H14.1667C15.2024 16.875 16.0417 16.0356 16.0417 15ZM12.7084 6.66663C12.7084 6.09097 12.2424 5.62496 11.6667 5.62496H8.33337C7.75772 5.62496 7.29171 6.09097 7.29171 6.66663V8.33329C7.29171 8.90895 7.75772 9.37496 8.33337 9.37496H11.6667C12.2424 9.37496 12.7084 8.90895 12.7084 8.33329V6.66663ZM17.2917 15C17.2917 16.726 15.8927 18.125 14.1667 18.125H5.83337C4.10736 18.125 2.70837 16.726 2.70837 15C2.70837 13.2739 4.10736 11.875 5.83337 11.875H14.1667C15.8927 11.875 17.2917 13.2739 17.2917 15ZM11.0417 3.22913C11.0417 2.74837 10.6143 2.29163 10 2.29163C9.38576 2.29163 8.95837 2.74837 8.95837 3.22913V4.37496H11.0417V3.22913ZM12.2917 4.46285C13.2535 4.73493 13.9584 5.61746 13.9584 6.66663V8.33329C13.9584 9.5993 12.9327 10.625 11.6667 10.625H8.33337C7.06736 10.625 6.04171 9.5993 6.04171 8.33329V6.66663C6.04171 5.61746 6.74654 4.73493 7.70837 4.46285V3.22913C7.70837 1.98322 8.77265 1.04163 10 1.04163C11.2274 1.04163 12.2917 1.98322 12.2917 3.22913V4.46285Z" fill="#203A3B"/>
</g>
<defs>
<clipPath id="clip0_19942_26470">
<rect width="20" height="20" fill="white"/>
</clipPath>
</defs>
</svg>
