<svg width="14" height="14" viewBox="0 0 14 14" fill="none" xmlns="http://www.w3.org/2000/svg">
<g clip-path="url(#clip0_33685_158)">
<path fill-rule="evenodd" clip-rule="evenodd" d="M6.5625 2.625C5.98234 2.625 5.42594 2.85547 5.0157 3.2657C4.60547 3.67594 4.375 4.23234 4.375 4.8125V11.8125C4.375 12.3927 4.60547 12.9491 5.0157 13.3593C5.42594 13.7695 5.98234 14 6.5625 14H11.8125C12.3927 14 12.9491 13.7695 13.3593 13.3593C13.7695 12.9491 14 12.3927 14 11.8125V4.8125C14 4.23234 13.7695 3.67594 13.3593 3.2657C12.9491 2.85547 12.3927 2.625 11.8125 2.625H6.5625ZM5.25 4.8125C5.25 4.4644 5.38828 4.13056 5.63442 3.88442C5.88056 3.63828 6.2144 3.5 6.5625 3.5H11.8125C12.1606 3.5 12.4944 3.63828 12.7406 3.88442C12.9867 4.13056 13.125 4.4644 13.125 4.8125V11.8125C13.125 12.1606 12.9867 12.4944 12.7406 12.7406C12.4944 12.9867 12.1606 13.125 11.8125 13.125H6.5625C6.2144 13.125 5.88056 12.9867 5.63442 12.7406C5.38828 12.4944 5.25 12.1606 5.25 11.8125V4.8125Z" fill="#203A3B"/>
<path d="M7 5.6875C7 5.57147 7.04609 5.46019 7.12814 5.37814C7.21019 5.29609 7.32147 5.25 7.4375 5.25H10.9375C11.0535 5.25 11.1648 5.29609 11.2469 5.37814C11.3289 5.46019 11.375 5.57147 11.375 5.6875C11.375 5.80353 11.3289 5.91481 11.2469 5.99686C11.1648 6.07891 11.0535 6.125 10.9375 6.125H7.4375C7.32147 6.125 7.21019 6.07891 7.12814 5.99686C7.04609 5.91481 7 5.80353 7 5.6875ZM7 8.3125C7 8.19647 7.04609 8.08519 7.12814 8.00314C7.21019 7.92109 7.32147 7.875 7.4375 7.875H10.9375C11.0535 7.875 11.1648 7.92109 11.2469 8.00314C11.3289 8.08519 11.375 8.19647 11.375 8.3125C11.375 8.42853 11.3289 8.53981 11.2469 8.62186C11.1648 8.70391 11.0535 8.75 10.9375 8.75H7.4375C7.32147 8.75 7.21019 8.70391 7.12814 8.62186C7.04609 8.53981 7 8.42853 7 8.3125ZM7 10.9375C7 10.8215 7.04609 10.7102 7.12814 10.6281C7.21019 10.5461 7.32147 10.5 7.4375 10.5H10.0625C10.1785 10.5 10.2898 10.5461 10.3719 10.6281C10.4539 10.7102 10.5 10.8215 10.5 10.9375C10.5 11.0535 10.4539 11.1648 10.3719 11.2469C10.2898 11.3289 10.1785 11.375 10.0625 11.375H7.4375C7.32147 11.375 7.21019 11.3289 7.12814 11.2469C7.04609 11.1648 7 11.0535 7 10.9375ZM0 2.1875C0 1.60734 0.230468 1.05094 0.640704 0.640704C1.05094 0.230468 1.60734 0 2.1875 0L7.4375 0C8.29412 0 9.03875 0.49175 9.3975 1.2075C9.5305 1.47263 9.3065 1.74825 9.00988 1.74825C8.81125 1.74825 8.64062 1.61787 8.5295 1.4525C8.40972 1.27467 8.24819 1.12889 8.05905 1.02792C7.86991 0.926938 7.65891 0.873835 7.4445 0.87325H2.1945C1.8464 0.87325 1.51256 1.01153 1.26642 1.25767C1.02028 1.50381 0.882 1.83765 0.882 2.18575V9.18575C0.882 9.53385 1.02028 9.86769 1.26642 10.1138C1.51256 10.36 1.8464 10.4983 2.1945 10.4983H3.0695C3.18553 10.4983 3.29681 10.5443 3.37886 10.6264C3.46091 10.7084 3.507 10.8197 3.507 10.9358C3.507 11.0518 3.46091 11.1631 3.37886 11.2451C3.29681 11.3272 3.18553 11.3733 3.0695 11.3733H2.1945C1.61434 11.3733 1.05794 11.1428 0.647704 10.7325C0.237468 10.3223 0.007 9.76591 0.007 9.18575V2.18575L0 2.1875Z" fill="#203A3B"/>
</g>
<defs>
<clipPath id="clip0_33685_158">
<rect width="14" height="14" fill="white"/>
</clipPath>
</defs>
</svg>
