<svg width="24" height="24" viewBox="0 0 24 24" fill="none" xmlns="http://www.w3.org/2000/svg">
<path d="M18 5.99997L16.95 7.04997M4.99997 4.99997L6.99997 6.99997M17.05 18.05L16.5 17.5M5.99997 19.05L7.04997 18M12.057 19C12.9716 19.0104 13.8792 18.838 14.7263 18.4928C15.5733 18.1475 16.3429 17.6365 16.9897 16.9897C17.6365 16.3429 18.1475 15.5733 18.4928 14.7263C18.838 13.8792 19.0104 12.9716 19 12.057C18.969 8.18997 15.81 5.02997 11.944 4.99997C11.0291 4.98938 10.1214 5.16176 9.27414 5.50698C8.42687 5.8522 7.65715 6.36329 7.01022 7.01022C6.36329 7.65715 5.8522 8.42687 5.50698 9.27414C5.16176 10.1214 4.98938 11.0291 4.99997 11.944C5.03097 15.809 8.18997 18.969 12.057 19Z" stroke="#635242" stroke-width="1.5" stroke-linecap="round"/>
<path d="M16.5 13C16.5 13.5304 16.2893 14.0391 15.9142 14.4142C15.5391 14.7893 15.0304 15 14.5 15C13.9696 15 13.4609 14.7893 13.0858 14.4142C12.7107 14.0391 12.5 13.5304 12.5 13C12.5 12.4696 12.7107 11.9609 13.0858 11.5858C13.4609 11.2107 13.9696 11 14.5 11C15.0304 11 15.5391 11.2107 15.9142 11.5858C16.2893 11.9609 16.5 12.4696 16.5 13ZM11 9C11 9.26522 10.8946 9.51957 10.7071 9.70711C10.5196 9.89464 10.2652 10 10 10C9.73478 10 9.48043 9.89464 9.29289 9.70711C9.10536 9.51957 9 9.26522 9 9C9 8.73478 9.10536 8.48043 9.29289 8.29289C9.48043 8.10536 9.73478 8 10 8C10.2652 8 10.5196 8.10536 10.7071 8.29289C10.8946 8.48043 11 8.73478 11 9Z" stroke="#635242" stroke-width="1.5"/>
<path d="M9 14C9.55228 14 10 13.5523 10 13C10 12.4477 9.55228 12 9 12C8.44772 12 8 12.4477 8 13C8 13.5523 8.44772 14 9 14Z" fill="#635242"/>
<path d="M19.5 6C20.3284 6 21 5.32843 21 4.5C21 3.67157 20.3284 3 19.5 3C18.6716 3 18 3.67157 18 4.5C18 5.32843 18.6716 6 19.5 6Z" stroke="#635242" stroke-width="1.5"/>
<path d="M3.5 5C2.67157 5 2 4.32843 2 3.5C2 2.67157 2.67157 2 3.5 2C4.32843 2 5 2.67157 5 3.5C5 4.32843 4.32843 5 3.5 5Z" stroke="#635242" stroke-width="1.5"/>
<path d="M2 12C2 12.197 2.0388 12.392 2.11418 12.574C2.18956 12.756 2.30005 12.9214 2.43934 13.0607C2.57863 13.1999 2.74399 13.3104 2.92597 13.3858C3.10796 13.4612 3.30302 13.5 3.5 13.5C3.69698 13.5 3.89204 13.4612 4.07403 13.3858C4.25601 13.3104 4.42137 13.1999 4.56066 13.0607C4.69995 12.9214 4.81044 12.756 4.88582 12.574C4.9612 12.392 5 12.197 5 12C5 11.6022 4.84196 11.2206 4.56066 10.9393C4.27936 10.658 3.89782 10.5 3.5 10.5C3.10218 10.5 2.72064 10.658 2.43934 10.9393C2.15804 11.2206 2 11.6022 2 12Z" stroke="#635242" stroke-width="1.5"/>
<path d="M18.55 18.05C19.3785 18.05 20.05 18.7216 20.05 19.55C20.05 20.3785 19.3785 21.05 18.55 21.05C17.7216 21.05 17.05 20.3785 17.05 19.55C17.05 18.7216 17.7216 18.05 18.55 18.05Z" stroke="#635242" stroke-width="1.5"/>
<path d="M4.5 19C3.67157 19 3 19.6716 3 20.5C3 21.3284 3.67157 22 4.5 22C5.32843 22 6 21.3284 6 20.5C6 19.6716 5.32843 19 4.5 19Z" stroke="#635242" stroke-width="1.5"/>
<path d="M13.5 3.5C13.5 3.89782 13.342 4.27936 13.0607 4.56066C12.7794 4.84196 12.3978 5 12 5C11.6022 5 11.2206 4.84196 10.9393 4.56066C10.658 4.27936 10.5 3.89782 10.5 3.5C10.5 3.10218 10.658 2.72064 10.9393 2.43934C11.2206 2.15804 11.6022 2 12 2C12.3978 2 12.7794 2.15804 13.0607 2.43934C13.342 2.72064 13.5 3.10218 13.5 3.5ZM19.5 13.5C19.7183 13.4997 19.9338 13.4517 20.1316 13.3595C20.3294 13.2673 20.5047 13.133 20.6453 12.966C20.7859 12.799 20.8883 12.6034 20.9454 12.3928C21.0026 12.1821 21.0131 11.9615 20.9762 11.7464C20.9393 11.5313 20.8559 11.3268 20.7318 11.1473C20.6077 10.9677 20.446 10.8174 20.2578 10.7068C20.0696 10.5962 19.8596 10.528 19.6423 10.507C19.4251 10.4859 19.2059 10.5126 19 10.585V13.415C19.1573 13.471 19.324 13.4993 19.5 13.5ZM10.585 19C10.6881 19.293 10.8796 19.5468 11.133 19.7263C11.3865 19.9058 11.6894 20.0022 12 20.0022C12.3106 20.0022 12.6135 19.9058 12.867 19.7263C13.1204 19.5468 13.3119 19.293 13.415 19H10.585Z" stroke="#635242" stroke-width="1.5"/>
</svg>
