<svg width="20" height="20" viewBox="0 0 20 20" fill="none" xmlns="http://www.w3.org/2000/svg">
<g clip-path="url(#clip0_19942_26483)">
<path d="M16.875 14.7917C16.875 13.1808 15.5692 11.875 13.9583 11.875C12.3475 11.875 11.0417 13.1808 11.0417 14.7917C11.0417 16.4025 12.3475 17.7083 13.9583 17.7083C15.5692 17.7083 16.875 16.4025 16.875 14.7917ZM1.875 16.6667V15.8333C1.875 13.6472 3.64721 11.875 5.83333 11.875H8.33333L8.39762 11.8783C8.7126 11.9104 8.95833 12.1765 8.95833 12.5C8.95833 12.8235 8.7126 13.0896 8.39762 13.1217L8.33333 13.125H5.83333C4.33756 13.125 3.125 14.3376 3.125 15.8333V16.6667C3.125 17.0118 2.84518 17.2917 2.5 17.2917C2.15482 17.2917 1.875 17.0118 1.875 16.6667ZM14.3498 13.5164C14.5939 13.2724 14.9895 13.2724 15.2336 13.5164C15.4776 13.7605 15.4776 14.1562 15.2336 14.4002L14.8421 14.7917L15.2336 15.1831L15.2767 15.2303C15.4769 15.4758 15.4624 15.8381 15.2336 16.0669C15.0047 16.2957 14.6425 16.3103 14.397 16.11L14.3498 16.0669L13.9583 15.6755L13.5669 16.0669C13.3228 16.311 12.9272 16.311 12.6831 16.0669C12.439 15.8228 12.439 15.4272 12.6831 15.1831L13.0745 14.7917L12.6831 14.4002L12.64 14.353C12.4397 14.1075 12.4543 13.7453 12.6831 13.5164C12.9119 13.2876 13.2742 13.273 13.5197 13.4733L13.5669 13.5164L13.9583 13.9079L14.3498 13.5164ZM11.875 5.83333C11.875 4.33756 10.6624 3.125 9.16667 3.125C7.6709 3.125 6.45833 4.33756 6.45833 5.83333C6.45833 7.3291 7.6709 8.54167 9.16667 8.54167C10.6624 8.54167 11.875 7.3291 11.875 5.83333ZM18.125 14.7917C18.125 17.0929 16.2595 18.9583 13.9583 18.9583C11.6571 18.9583 9.79167 17.0929 9.79167 14.7917C9.79167 12.4905 11.6571 10.625 13.9583 10.625C16.2595 10.625 18.125 12.4905 18.125 14.7917ZM13.125 5.83333C13.125 8.01946 11.3528 9.79167 9.16667 9.79167C6.98054 9.79167 5.20833 8.01946 5.20833 5.83333C5.20833 3.64721 6.98054 1.875 9.16667 1.875C11.3528 1.875 13.125 3.64721 13.125 5.83333Z" fill="#861313"/>
</g>
<defs>
<clipPath id="clip0_19942_26483">
<rect width="20" height="20" fill="white"/>
</clipPath>
</defs>
</svg>
