<svg width="24" height="24" viewBox="0 0 24 24" fill="none" xmlns="http://www.w3.org/2000/svg">
<rect x="2.99622" y="3.0564" width="18.0075" height="18.0075" rx="5" stroke="#635242" stroke-width="1.5" stroke-linecap="round" stroke-linejoin="round"/>
<path d="M14.501 17.4305C16.019 17.2928 17.284 16.2105 17.6549 14.7321C18.0257 13.2537 17.4214 11.7024 16.1481 10.8645C14.8749 10.0266 13.2111 10.0853 12 11.0108" stroke="#635242" stroke-width="1.5" stroke-linecap="round" stroke-linejoin="round"/>
<path d="M6.52768 12.5002C6.34385 12.9339 6.24861 13.3998 6.24756 13.8708C6.24756 15.8566 7.85732 17.4663 9.84306 17.4663C11.8288 17.4663 13.4386 15.8566 13.4386 13.8708C13.4347 13.5768 13.394 13.2844 13.3175 13.0005" stroke="#635242" stroke-width="1.5" stroke-linecap="round" stroke-linejoin="round"/>
<path d="M14.8792 7.9985C13.9522 6.73802 12.3146 6.2247 10.8339 6.73049C9.35328 7.23627 8.37197 8.64422 8.40987 10.2084C8.44778 11.7726 9.49615 13.1313 10.9996 13.5648" stroke="#635242" stroke-width="1.5" stroke-linecap="round" stroke-linejoin="round"/>
</svg>
