<svg width="24" height="24" viewBox="0 0 24 24" fill="none" xmlns="http://www.w3.org/2000/svg">
<g clip-path="url(#clip0_18657_22352)">
<path fill-rule="evenodd" clip-rule="evenodd" d="M9.19133 3.60125C8.90113 3.60125 8.66587 3.83651 8.66587 4.12671V5.77765H15.3441V4.12671C15.3441 3.83651 15.1089 3.60125 14.8187 3.60125H9.19133ZM16.5441 5.77765V4.12671C16.5441 3.17376 15.7716 2.40125 14.8187 2.40125H9.19133C8.23838 2.40125 7.46587 3.17376 7.46587 4.12671V5.77765H4.00167C3.6703 5.77765 3.40167 6.04628 3.40167 6.37765C3.40167 6.70902 3.6703 6.97765 4.00167 6.97765H4.69657L5.61956 18.9765C5.73382 20.4618 6.97238 21.6087 8.4621 21.6087H15.5479C17.0376 21.6087 18.2762 20.4618 18.3904 18.9765L19.3134 6.97765H20.0083C20.3397 6.97765 20.6083 6.70902 20.6083 6.37765C20.6083 6.04628 20.3397 5.77765 20.0083 5.77765H16.5441ZM18.1099 6.97765H5.90012L6.81603 18.8844C6.88219 19.7446 7.59943 20.4087 8.4621 20.4087H15.5479C16.4106 20.4087 17.1278 19.7446 17.194 18.8844L18.1099 6.97765ZM9.43544 16.5069V10.8795C9.43544 10.5482 9.70406 10.2795 10.0354 10.2795C10.3668 10.2795 10.6354 10.5482 10.6354 10.8795V16.5069C10.6354 16.8382 10.3668 17.1069 10.0354 17.1069C9.70406 17.1069 9.43544 16.8382 9.43544 16.5069ZM13.9746 10.2795C14.3059 10.2795 14.5746 10.5482 14.5746 10.8795V16.5069C14.5746 16.8382 14.3059 17.1069 13.9746 17.1069C13.6432 17.1069 13.3746 16.8382 13.3746 16.5069V10.8795C13.3746 10.5482 13.6432 10.2795 13.9746 10.2795Z" fill="#565450"/>
</g>
<defs>
<clipPath id="clip0_18657_22352">
<rect width="24" height="24" fill="white"/>
</clipPath>
</defs>
</svg>
