<svg width="24" height="24" viewBox="0 0 24 24" fill="none" xmlns="http://www.w3.org/2000/svg">
<path d="M14.683 15.5918C14.6829 15.2494 14.4499 14.9512 14.119 14.8687L11.8829 14.3094C11.5767 14.2331 11.2631 14.1951 10.9482 14.1951C10.2831 14.1951 9.63075 14.3669 9.05512 14.6924L8.81313 14.842L7.3659 15.8062V19.561H8.10523C8.48392 19.561 8.86124 19.6072 9.22948 19.7001L11.8133 20.346L11.9858 20.3841C12.388 20.4614 12.8021 20.4599 13.2053 20.3794L16.0636 19.8077L16.2913 19.7534C16.8164 19.6072 17.2964 19.3266 17.6832 18.9398L19.7069 16.9171L19.7574 16.8609C19.9964 16.5686 19.9798 16.1363 19.7059 15.8624C19.4435 15.6002 19.0272 15.5696 18.7303 15.7919L18.7313 15.7928L16.3742 17.5611L16.3732 17.5602C15.9085 17.9092 15.3441 18.0975 14.764 18.0975H12.4879C12.0838 18.0975 11.7562 17.7699 11.7562 17.3658C11.7562 16.9617 12.0838 16.6341 12.4879 16.6341H13.937C14.3492 16.6339 14.6828 16.3003 14.683 15.8881V15.5918ZM8.87886 3.025C10.2456 1.6583 12.4617 1.65836 13.8284 3.025L14.0209 3.23366C14.2881 3.54857 14.4863 3.89987 14.623 4.26739C15.5102 4.27389 16.3956 4.6156 17.0725 5.29255C18.4395 6.6596 18.4395 8.87604 17.0725 10.243C15.7055 11.61 13.4891 11.61 12.122 10.243C11.7567 9.87768 11.4899 9.45114 11.3198 8.99685C10.4367 8.98872 9.55451 8.65019 8.87886 7.97455C7.51222 6.6078 7.51216 4.39171 8.87886 3.025ZM16.0378 6.32724C15.5425 5.83188 14.8552 5.64454 14.2152 5.76607C14.2094 5.76717 14.2039 5.76987 14.1981 5.77083H14.1952C13.8147 5.84706 13.4517 6.03227 13.1567 6.32724C12.6872 6.79676 12.4966 7.43823 12.5813 8.04886C12.5839 8.05996 12.5877 8.07089 12.5898 8.08221C12.5954 8.11154 12.5983 8.1408 12.6003 8.16986C12.6766 8.55028 12.8618 8.91343 13.1567 9.20836C13.9523 10.0038 15.2423 10.0038 16.0378 9.20836C16.8333 8.41286 16.8333 7.12278 16.0378 6.32724ZM12.7937 4.05969C11.9985 3.26455 10.7088 3.26449 9.91355 4.05969C9.11835 4.85489 9.11842 6.14462 9.91355 6.93986C10.2479 7.27425 10.6699 7.46455 11.1064 7.51723C11.1642 6.70661 11.5023 5.91231 12.122 5.29255C12.4323 4.98228 12.7864 4.74265 13.1643 4.57323C13.0944 4.4342 13.0081 4.30202 12.9042 4.17974L12.7937 4.05969ZM16.1465 15.8881C16.1465 15.8929 16.1455 15.8976 16.1455 15.9024L17.8528 14.6228L18.0215 14.5076C18.8842 13.9766 20.0117 14.099 20.7406 14.8277C21.5498 15.6368 21.601 16.9173 20.8921 17.785L20.7406 17.9527L18.7189 19.9754C18.1531 20.5412 17.4503 20.949 16.6829 21.1625L16.3503 21.2426L13.4921 21.8142C12.8194 21.9485 12.1244 21.9325 11.458 21.7656L8.87315 21.1197C8.62297 21.0565 8.36446 21.0244 8.10523 21.0244H7.19916C6.92487 21.6006 6.33904 22 5.65857 22H3.70733C2.76468 22 2 21.2353 2 20.2927V14.439C2 13.4963 2.76468 12.7316 3.70733 12.7316H5.65857C6.47592 12.7316 7.1586 13.3067 7.32588 14.0741L8.00043 13.6244L8.33484 13.4186C9.13038 12.9687 10.0309 12.7317 10.9482 12.7316C11.3826 12.7316 11.8148 12.7847 12.2364 12.8898L14.4734 13.4491C15.4573 13.6943 16.1463 14.5784 16.1465 15.5918V15.8881ZM3.46343 20.2927C3.46343 20.4271 3.5729 20.5366 3.70733 20.5366H5.65857C5.79299 20.5366 5.90247 20.4271 5.90247 20.2927V14.439C5.90247 14.3045 5.79299 14.1951 5.65857 14.1951H3.70733C3.5729 14.1951 3.46343 14.3045 3.46343 14.439V20.2927Z" fill="#203A3B"/>
</svg>
