<svg width="86" height="84" viewBox="0 0 86 84" fill="none" xmlns="http://www.w3.org/2000/svg">
<path d="M38.3627 0C38.2378 0 38.1129 0 37.988 0.0153453C16.3319 2.48593 0 20.5473 0 42C0 63.4527 16.3475 81.5141 38.0036 83.9846C39.7836 84.1841 41.345 82.9258 41.5479 81.2225C41.6416 80.3939 41.4074 79.5652 40.8765 78.9054C40.3457 78.2455 39.5806 77.8312 38.7375 77.7391C20.2977 75.6368 6.38598 60.2762 6.38598 42C6.38598 23.7238 20.2977 8.36317 38.7375 6.26087C40.4862 6.06138 41.7509 4.49616 41.5479 2.77749C41.3606 1.19693 40.0022 0 38.3784 0" fill="white"/>
<path d="M47.6373 0C46.0134 0 44.655 1.19693 44.4677 2.77749C44.2647 4.49616 45.5294 6.06138 47.2781 6.26087C65.7179 8.36317 79.6296 23.7238 79.6296 42C79.6296 60.2762 65.7179 75.6368 47.2781 77.7391C46.435 77.8312 45.6699 78.2455 45.1391 78.9054C44.6082 79.5652 44.374 80.3785 44.4677 81.2225C44.6707 82.9258 46.232 84.1841 48.012 83.9846C69.6837 81.5141 86.0156 63.468 86.0156 42C86.0156 20.532 69.6681 2.48593 48.012 0.0153453C47.8871 0 47.7622 0 47.6373 0Z" fill="white"/>
<path d="M15.3791 43.7339C15.1918 43.7339 15.0044 43.7492 14.817 43.7799C13.9739 43.9334 13.2401 44.3937 12.756 45.0689C12.272 45.7595 12.0846 46.5881 12.2252 47.4168C14.8795 62.0868 27.8232 72.7211 42.9997 72.7211C58.1761 72.7211 71.1199 62.0715 73.7742 47.4168C74.0865 45.7134 72.931 44.0715 71.1823 43.7799C70.9949 43.7492 70.8076 43.7339 70.6202 43.7339C69.0745 43.7339 67.7473 44.8234 67.4663 46.3272C65.3584 57.9896 55.0534 66.4602 42.9841 66.4602C30.9147 66.4602 20.6097 57.9896 18.5019 46.3272C18.2208 44.8234 16.9093 43.7339 15.3635 43.7339" fill="white"/>
<path d="M42.9996 11.2634C35.4895 11.2634 28.2291 13.9182 22.5457 18.7519C16.9248 23.5243 13.2244 30.1074 12.1002 37.289C11.8348 39.0077 13.037 40.6036 14.7701 40.8644C14.9263 40.8951 15.098 40.8951 15.2542 40.8951C16.8155 40.8951 18.1739 39.7442 18.4081 38.2251C19.2981 32.5166 22.2647 27.2839 26.7302 23.4783C31.2425 19.6419 37.0196 17.5243 42.9996 17.5243C48.9797 17.5243 54.7567 19.6419 59.2691 23.4783C63.7346 27.2839 66.7011 32.5166 67.5911 38.2251C67.8253 39.7442 69.1837 40.8951 70.7451 40.8951C70.9168 40.8951 71.073 40.8951 71.2291 40.8644C72.0722 40.7417 72.8217 40.2967 73.3213 39.6215C73.821 38.9463 74.0396 38.1176 73.899 37.289C72.7749 30.1074 69.0588 23.5243 63.4379 18.7519C57.7701 13.9182 50.4942 11.2634 42.984 11.2634" fill="white"/>
<path d="M43.1402 22.9873C32.4761 22.9873 23.7949 31.5193 23.7949 42.0001C23.7949 52.4809 32.4761 61.0129 43.1402 61.0129C47.9336 61.0129 52.5084 59.2942 56.0527 56.1638C56.6773 55.5346 57.0364 54.6753 57.0364 53.7546C57.0364 51.8364 55.4438 50.2865 53.5077 50.2865C52.6021 50.2865 51.759 50.6241 51.0876 51.2226L50.9939 51.2993C48.7768 53.0947 45.9975 54.0922 43.1246 54.0922C36.3483 54.0922 30.8211 48.6753 30.8211 42.0001C30.8211 35.3249 36.3327 29.908 43.1246 29.908C48.2927 29.908 52.9456 33.1152 54.6943 37.9029L54.9285 38.5321H39.7833C37.9565 38.6855 36.5357 40.2047 36.5357 42.0001C36.5357 43.9029 38.1126 45.4681 40.0643 45.4681C40.0956 45.4681 40.1112 45.4681 40.1424 45.4681H40.1893H58.6602C60.5963 45.4681 62.1733 43.9183 62.1733 42.0001C62.1733 36.9055 60.206 32.1331 56.6304 28.5576C53.0393 24.9668 48.2459 22.9873 43.0934 22.9873" fill="white"/>
</svg>
