<svg width="21" height="20" viewBox="0 0 21 20" fill="none" xmlns="http://www.w3.org/2000/svg">
<path fill-rule="evenodd" clip-rule="evenodd" d="M2.375 5.6665C2.375 4.48799 3.32149 3.5415 4.5 3.5415H16.5C17.6785 3.5415 18.625 4.48799 18.625 5.6665C18.625 5.70285 18.6241 5.73877 18.6223 5.7743C18.6241 5.79368 18.625 5.81332 18.625 5.83317V14.1665C18.625 15.4283 17.5952 16.4582 16.3333 16.4582H4.66667C3.40482 16.4582 2.375 15.4283 2.375 14.1665V5.83317C2.375 5.81335 2.37592 5.79375 2.37773 5.77441C2.37592 5.73882 2.375 5.70285 2.375 5.6665ZM3.625 7.64502V14.1665C3.625 14.2164 3.62859 14.2656 3.63553 14.3138L7.59288 10.3564L3.625 7.64502ZM8.94974 9.76962C8.93045 9.75473 8.9105 9.74112 8.88999 9.72879L4.04007 6.41468C3.74241 6.17098 3.625 5.92402 3.625 5.6665C3.625 5.17835 4.01184 4.7915 4.5 4.7915H16.5C16.9882 4.7915 17.375 5.17835 17.375 5.6665C17.375 5.92669 17.258 6.18324 16.9869 6.53518L12.1307 9.77264C12.1239 9.77703 12.1171 9.78156 12.1103 9.78623L12.0745 9.81012C11.1169 10.4236 9.96968 10.4242 9.01171 9.81197L8.94974 9.76962ZM8.66346 11.0536L4.51941 15.1976C4.56756 15.2046 4.61672 15.2082 4.66667 15.2082H16.3333C16.3833 15.2082 16.4324 15.2046 16.4806 15.1976L12.3648 11.0819C11.1865 11.6762 9.83635 11.6668 8.66346 11.0536ZM13.4477 10.397L17.3645 14.3138C17.3714 14.2656 17.375 14.2164 17.375 14.1665V7.77877L13.4477 10.397Z" fill="#203A3B"/>
</svg>
