<svg width="174" height="174" viewBox="0 0 174 174" fill="none" xmlns="http://www.w3.org/2000/svg">
<g clip-path="url(#clip0_50939_32183)">
<path d="M86.8493 173.699C38.9622 173.699 0 134.736 0 86.8493C0 38.9622 38.9622 0 86.8493 0C134.736 0 173.699 38.9622 173.699 86.8493C173.699 134.736 134.736 173.699 86.8493 173.699ZM86.8493 4.74036C41.5742 4.74036 4.74036 41.5742 4.74036 86.8493C4.74036 132.124 41.5742 168.958 86.8493 168.958C132.124 168.958 168.958 132.124 168.958 86.8493C168.958 41.5742 132.124 4.74036 86.8493 4.74036Z" fill="#009A4F"/>
<path d="M29.1973 46.1337L35.1397 38.5193L37.4127 40.2952L33.4993 45.3112L34.9815 46.4681L38.5289 41.9266L40.6482 43.5805L37.1009 48.122L38.6373 49.3241L42.6049 44.2403L44.8915 46.0252L38.8949 53.7074L29.1973 46.1337Z" fill="#009A4F"/>
<path d="M36.5488 36.3773L39.3009 34.1856L45.3698 38.4515L42.7307 31.411L44.9721 29.626L51.2354 33.7835L48.4427 26.9102L51.1405 24.7637L55.7091 36.9603L53.4406 38.7633L47.1548 34.7144L49.6718 41.7639L47.4033 43.5669L36.5533 36.3683L36.5488 36.3773Z" fill="#009A4F"/>
<path d="M55.4697 29.7888L55.4562 29.7571C53.9649 26.4945 55.289 22.798 58.6601 21.257C60.5806 20.3804 62.2075 20.3487 63.8297 20.8458L63.0615 23.8645C61.9725 23.5481 61.0325 23.5165 59.9435 24.0136C58.3664 24.7366 57.7653 26.6346 58.5471 28.3427L58.5607 28.3743C59.3967 30.1955 61.2178 30.9275 62.9531 30.1367C63.7032 29.7933 64.1913 29.3775 64.4895 28.8759L63.8659 27.5157L61.7284 28.4918L60.6891 26.2233L65.7006 23.9322L67.9962 28.9528C67.2958 30.4711 66.0485 31.9488 64.0512 32.8616C60.6484 34.4162 57.0242 33.1734 55.4742 29.7843L55.4697 29.7888Z" fill="#009A4F"/>
<path d="M70.0303 17.2488L73.6906 16.6839L77.5769 23.9685L79.0952 15.8525L82.6878 15.2966L79.7731 28.2886L76.7228 28.7585L70.0348 17.2488H70.0303Z" fill="#009A4F"/>
<path d="M85.0828 15.292L94.7217 15.7981L94.5726 18.6767L88.219 18.3423L88.1241 20.2221L93.8767 20.5249L93.7366 23.2092L87.984 22.9064L87.8846 24.854L94.3241 25.193L94.1749 28.0896L84.4502 27.579L85.0919 15.292H85.0828Z" fill="#009A4F"/>
<path d="M97.3964 16.0918L102.928 17.3661C104.717 17.7774 105.842 18.5411 106.443 19.5307C106.968 20.3893 107.108 21.3789 106.836 22.5584L106.827 22.5945C106.403 24.4428 105.169 25.4369 103.569 25.7352L105.399 30.5569L101.671 29.6983L100.148 25.5273L98.7115 25.1974L97.8754 28.8261L94.6309 28.0805L97.3874 16.0963L97.3964 16.0918ZM101.473 23.0916C102.557 23.3402 103.334 22.9425 103.538 22.0703L103.547 22.0342C103.768 21.0762 103.194 20.439 102.123 20.1905L99.9858 19.6979L99.3215 22.59L101.477 23.0871L101.473 23.0916Z" fill="#009A4F"/>
<path d="M109.928 19.4177L113.037 20.6107L108.644 32.0978L105.535 30.9094L109.928 19.4222V19.4177Z" fill="#009A4F"/>
<path d="M115.509 21.5416L123.973 26.0922L122.558 28.7222L117.027 25.7488L116.038 27.5925L121.04 30.2812L119.702 32.7712L114.7 30.0824L112.621 33.9506L109.688 32.3735L115.509 21.5371V21.5416Z" fill="#009A4F"/>
<path d="M125.631 27.3801L128.337 29.3187L121.179 39.3327L118.473 37.3986L125.631 27.3846V27.3801Z" fill="#009A4F"/>
<path d="M130.493 30.8281L137.569 37.3941L135.608 39.509L130.945 35.1799L129.666 36.5581L133.891 40.476L132.061 42.4463L127.836 38.5284L126.507 39.9609L131.234 44.3488L129.259 46.4727L122.119 39.8479L130.493 30.8326V30.8281Z" fill="#009A4F"/>
<path d="M139.486 39.4683L142.247 43.2054C144.782 46.6398 144.222 50.1465 141.366 52.2568L141.339 52.2794C138.483 54.3898 134.863 53.9243 132.305 50.4628L129.585 46.7799L139.49 39.4728L139.486 39.4683ZM139.043 43.9284L133.991 47.6566L134.795 48.7456C135.988 50.3589 137.678 50.752 139.274 49.5726L139.301 49.55C140.887 48.3796 141.036 46.6308 139.843 45.013L139.039 43.9239L139.043 43.9284Z" fill="#009A4F"/>
<path d="M30.5887 56.1522L30.6204 56.1657C31.6281 56.6447 32.0393 57.8829 31.5919 58.8228C31.1536 59.7492 29.929 60.2327 28.9213 59.7537L28.8896 59.7402C27.8819 59.2612 27.4526 58.0682 27.9181 57.0831C28.3835 56.0979 29.581 55.6777 30.5887 56.1522Z" fill="#009A4F"/>
<path d="M31.9357 67.6529L30.0015 75.3035L29.2378 75.1137L30.9686 68.2675L26.4045 67.1197L24.85 73.2654L24.0863 73.0756L25.6408 66.9299L20.5977 65.6601L20.801 64.8557L31.9357 67.6574V67.6529Z" fill="#009A4F"/>
<path d="M24.09 75.1453H24.1216C27.2442 75.3803 29.8742 77.8431 29.6211 81.2278C29.3681 84.6124 26.4353 86.6279 23.3127 86.3929H23.2811C20.154 86.1579 17.5285 83.6951 17.7815 80.3104C18.0346 76.9212 20.9674 74.9103 24.09 75.1453ZM23.3127 85.5298H23.3443C26.1732 85.7422 28.6496 83.903 28.8574 81.1419C29.0653 78.3763 26.9233 76.2253 24.0945 76.0129H24.0629C21.234 75.8005 18.7576 77.6397 18.5498 80.4008C18.3419 83.1664 20.4839 85.3174 23.3127 85.5298Z" fill="#009A4F"/>
<path d="M29.1697 88.1147L29.6894 92.7964C29.843 94.1656 29.5222 95.3089 28.9121 96.0545C28.4331 96.6374 27.701 97.0396 26.8876 97.13H26.856C24.949 97.3424 23.7018 96.0816 23.2318 94.2334L18.7626 98.4495L18.6451 97.4011L22.9788 93.3296L22.5766 89.6873L17.8453 90.2115L17.7549 89.3846L29.1697 88.1238V88.1147ZM23.7605 93.3522C23.9684 95.214 25.0846 96.4928 26.7295 96.3121H26.7611C28.293 96.1404 29.1245 94.8525 28.8986 92.8325L28.4783 89.0276L23.3403 89.597L23.756 93.3522H23.7605Z" fill="#009A4F"/>
<path d="M26.0199 107.523L30.9636 100.686L31.3116 101.667L26.8921 107.677L34.1133 109.593L34.4432 110.529L26.3136 108.305L22.0116 109.824L21.7314 109.037L26.0154 107.523H26.0199Z" fill="#009A4F"/>
<path d="M29.0433 112.648L29.0704 112.63C31.8134 111.12 35.3608 111.744 36.9966 114.718C38.6325 117.691 37.2768 120.976 34.5293 122.486L34.5022 122.504C31.7592 124.013 28.2118 123.389 26.576 120.416C24.9401 117.442 26.2958 114.157 29.0433 112.648ZM34.0593 121.763L34.0864 121.744C36.5719 120.375 37.6383 117.488 36.3052 115.061C34.9676 112.634 32.0032 112.002 29.5178 113.371L29.4862 113.384C27.0008 114.754 25.9298 117.641 27.2674 120.068C28.6005 122.495 31.5694 123.127 34.0548 121.758L34.0593 121.763Z" fill="#009A4F"/>
<path d="M35.0671 124.872L40.2368 120.601L40.77 121.243L35.6636 125.464C33.5804 127.185 33.2867 129.278 34.796 131.099C36.2466 132.852 38.262 133.078 40.3995 131.311L45.5691 127.041L46.1024 127.682L41.0095 131.894C38.4699 133.991 35.9212 133.666 34.186 131.573C32.4688 129.499 32.5953 126.928 35.0717 124.881L35.0671 124.872Z" fill="#009A4F"/>
<path d="M47.2685 128.817L50.8475 131.867C51.8959 132.762 52.4517 133.814 52.515 134.772C52.5647 135.527 52.3116 136.322 51.7784 136.946L51.7603 136.969C50.5131 138.428 48.7417 138.361 47.1329 137.335L46.7624 143.462L45.958 142.776L46.3285 136.842L43.5404 134.461L40.4539 138.08L39.8213 137.543L47.273 128.812L47.2685 128.817ZM46.9115 136.336C48.335 137.552 50.025 137.719 51.1005 136.458L51.1231 136.435C52.1218 135.265 51.8507 133.76 50.3007 132.441L47.3905 129.96L44.0374 133.891L46.9115 136.341V136.336Z" fill="#009A4F"/>
<path d="M58.1904 137.303L58.936 137.678L56.5365 142.419L62.9443 145.654L65.3439 140.914L66.085 141.289L60.9063 151.533L60.1607 151.158L62.5873 146.359L56.184 143.128L53.7573 147.927L53.0117 147.552L58.1904 137.308V137.303Z" fill="#009A4F"/>
<path d="M67.807 141.917L75.4259 144.258L75.1955 145.008L68.3719 142.911L67.0478 147.222L73.18 149.107L72.9496 149.861L66.8174 147.977L65.4662 152.383L72.3666 154.507L72.1362 155.257L64.4404 152.893L67.807 141.917Z" fill="#009A4F"/>
<path d="M80.8839 144.985L81.6792 145.085L85.4616 157.195L84.5533 157.087L83.5275 153.725L76.9615 152.925L75.1584 155.944L74.2998 155.84L80.8749 144.99L80.8839 144.985ZM83.2744 152.912L81.1505 145.961L77.4088 152.198L83.2744 152.912Z" fill="#009A4F"/>
<path d="M87.7174 145.627L88.5489 145.582L89.1092 156.26L95.6798 155.912L95.7204 156.698L88.3139 157.092L87.7129 145.627H87.7174Z" fill="#009A4F"/>
<path d="M97.8796 145.464L94.0385 146.174L93.8984 145.401L102.399 143.833L102.543 144.606L98.7021 145.315L100.641 155.826L99.8228 155.98L97.8841 145.469L97.8796 145.464Z" fill="#009A4F"/>
<path d="M103.411 143.548L104.188 143.259L106.05 148.239L112.769 145.731L110.908 140.751L111.685 140.462L115.707 151.217L114.925 151.511L113.041 146.472L106.321 148.985L108.205 154.023L107.428 154.312L103.406 143.557L103.411 143.548Z" fill="#009A4F"/>
<path d="M119.851 142.437L119.833 142.41C119.228 141.474 119.53 140.204 120.407 139.64C121.266 139.084 122.562 139.319 123.168 140.254L123.186 140.281C123.792 141.217 123.525 142.464 122.612 143.056C121.695 143.648 120.457 143.377 119.851 142.437Z" fill="#009A4F"/>
<path d="M124.723 131.975L130.385 126.363L130.941 126.919L125.87 131.948L129.047 135.152L133.607 130.633L134.163 131.194L129.603 135.712L132.848 138.984L137.977 133.9L138.528 134.456L132.807 140.127L124.723 131.98V131.975Z" fill="#009A4F"/>
<path d="M130.832 126.449L131.334 125.667L141.845 128.202L134.976 119.914L135.319 119.377L145.726 122.133L139.011 113.66L139.477 112.933L147.032 122.59L146.671 123.159L136.499 120.552L143.137 128.69L142.776 129.26L130.837 126.458L130.832 126.449Z" fill="#009A4F"/>
<path d="M144.511 114.971L144.479 114.962C141.564 113.904 139.648 110.877 140.787 107.731C141.411 106.014 142.328 105.124 143.603 104.392L144.018 105.119C142.979 105.68 142.075 106.443 141.497 108.034C140.57 110.592 142.138 113.19 144.746 114.13L144.777 114.144C147.57 115.156 150.268 114.211 151.289 111.396C151.773 110.054 151.66 108.599 151.271 107.596L148.171 106.471L146.892 109.991L146.151 109.72L147.701 105.445L151.863 106.954C152.383 108.215 152.604 109.964 151.981 111.676C150.774 115.002 147.548 116.064 144.511 114.962V114.971Z" fill="#009A4F"/>
<path d="M152.464 104.496L152.708 103.47L154.064 103.791L153.82 104.821L152.464 104.5V104.496Z" fill="#009A4F"/>
<path d="M149.012 101.314H148.98C145.871 100.944 143.35 98.3726 143.747 95.0014C144.145 91.6303 147.155 89.7459 150.268 90.112H150.3C153.409 90.4825 155.93 93.0538 155.533 96.4249C155.135 99.796 152.126 101.68 149.017 101.314H149.012ZM150.232 90.9751H150.196C147.381 90.6362 144.832 92.3669 144.507 95.1189C144.181 97.871 146.228 100.112 149.044 100.442H149.075C151.891 100.777 154.439 99.0504 154.765 96.2984C155.09 93.5464 153.043 91.305 150.228 90.9706L150.232 90.9751Z" fill="#009A4F"/>
<path d="M144.497 88.1237L144.176 83.4241C144.081 82.0503 144.447 80.9161 145.089 80.1975C145.59 79.6327 146.341 79.2621 147.158 79.2034H147.19C149.106 79.0678 150.295 80.3828 150.683 82.2537L155.324 78.2273L155.397 79.2802L150.896 83.171L151.144 86.8268L155.889 86.5015L155.943 87.3329L144.492 88.1192L144.497 88.1237ZM150.118 83.1123C149.992 81.2414 148.93 79.9174 147.281 80.0304H147.249C145.712 80.1388 144.827 81.386 144.967 83.415L145.229 87.2335L150.38 86.881L150.123 83.1123H150.118Z" fill="#009A4F"/>
<path d="M149.41 77.1924L149.378 77.2015C146.369 77.9471 143.083 76.5055 142.279 73.261C141.836 71.4895 142.103 70.2378 142.753 68.9228L143.504 69.2979C142.952 70.3417 142.627 71.476 143.038 73.1254C143.693 75.7644 146.45 77.0433 149.139 76.3745L149.17 76.3655C152.053 75.6515 153.762 73.3604 153.043 70.4547C152.7 69.0719 151.791 67.9286 150.906 67.3095L147.706 68.1049L148.61 71.7381L147.846 71.9279L146.748 67.5174L151.046 66.4509C152.18 67.2056 153.341 68.5342 153.78 70.3056C154.634 73.7354 152.546 76.4197 149.41 77.1969V77.1924Z" fill="#009A4F"/>
<path d="M144.394 61.2948L144.366 61.3083C143.363 61.7919 142.139 61.3309 141.691 60.391C141.248 59.4646 141.646 58.2129 142.654 57.7294L142.685 57.7158C143.689 57.2323 144.891 57.6525 145.361 58.6331C145.831 59.6137 145.406 60.8158 144.398 61.2948H144.394Z" fill="#009A4F"/>
<path d="M82.3979 45.7769C82.2759 45.7769 82.1584 45.7814 82.0409 45.7994C61.2222 48.2171 45.5234 65.8635 45.5234 86.8494C45.5234 107.835 61.2267 125.491 82.0545 127.899C83.7626 128.103 85.2674 126.869 85.4572 125.202C85.5521 124.388 85.3262 123.584 84.8155 122.942C84.3049 122.3 83.5774 121.894 82.7594 121.799C65.0317 119.747 51.6647 104.722 51.6647 86.8494C51.6647 68.977 65.0317 53.9561 82.7459 51.9C84.4314 51.7057 85.638 50.1783 85.4437 48.4973C85.2629 46.9473 83.9569 45.7769 82.3979 45.7769Z" fill="#009A4F"/>
<path d="M91.3052 45.7769C89.7462 45.7769 88.4402 46.9473 88.2594 48.4973C88.0651 50.1783 89.2762 51.7057 90.9572 51.9C108.676 53.9606 122.043 68.9816 122.043 86.8494C122.043 104.717 108.676 119.747 90.9482 121.799C90.1348 121.894 89.4027 122.3 88.8966 122.942C88.386 123.584 88.1555 124.388 88.2504 125.202C88.4402 126.869 89.954 128.098 91.6532 127.899C112.481 125.491 128.184 107.84 128.184 86.8494C128.184 65.859 112.485 48.2171 91.6667 45.7994C91.5447 45.7859 91.4272 45.7769 91.3052 45.7769Z" fill="#009A4F"/>
<path d="M60.3009 88.5394C60.1201 88.5394 59.9394 88.5575 59.7586 88.5891C58.9497 88.7337 58.2493 89.1811 57.7793 89.8544C57.3093 90.5278 57.1331 91.3412 57.2777 92.1501C59.8309 106.493 72.2715 116.9 86.8541 116.9C101.437 116.9 113.873 106.493 116.431 92.1501C116.729 90.4826 115.613 88.8874 113.945 88.5891C113.764 88.5575 113.588 88.5394 113.403 88.5394C111.912 88.5394 110.646 89.6059 110.38 91.0745C108.351 102.48 98.4542 110.759 86.8541 110.759C75.254 110.759 65.3576 102.48 63.324 91.07C63.0619 89.6014 61.7921 88.5349 60.3054 88.5349" fill="#009A4F"/>
<path d="M86.8493 56.7939C79.628 56.7939 72.6463 59.3923 67.1919 64.1146C61.7963 68.7827 58.2264 75.2221 57.1464 82.2446C56.8888 83.9166 58.0411 85.4892 59.7131 85.7467C59.8668 85.7693 60.0249 85.7829 60.1831 85.7829C61.6834 85.7829 62.9848 84.6622 63.2108 83.18C64.0694 77.5991 66.9118 72.4792 71.2048 68.7601C75.5429 65.0048 81.0967 62.9397 86.8448 62.9397C92.5928 62.9397 98.1421 65.0048 102.48 68.7601C106.778 72.4792 109.616 77.5991 110.479 83.1755C110.705 84.6622 112.006 85.7784 113.506 85.7784C113.665 85.7784 113.823 85.7648 113.976 85.7422C114.79 85.6202 115.499 85.1864 115.987 84.5221C116.471 83.8578 116.67 83.0489 116.548 82.24C115.463 75.2221 111.902 68.7827 106.502 64.1146C101.052 59.3923 94.0705 56.7939 86.8493 56.7939Z" fill="#009A4F"/>
<path d="M86.9799 68.2585C76.731 68.2585 68.3936 76.596 68.3936 86.8494C68.3936 97.1029 76.731 105.44 86.9799 105.44C91.5802 105.44 95.9907 103.755 99.3934 100.691C99.999 100.072 100.347 99.2268 100.347 98.3411C100.347 96.4702 98.824 94.9473 96.9532 94.9473C96.0901 94.9473 95.2631 95.2727 94.635 95.8647L94.5446 95.9415C92.4207 97.7039 89.7365 98.671 86.9799 98.671C80.4636 98.671 75.1584 93.3657 75.1584 86.8494C75.1584 80.3331 80.4636 75.0279 86.9799 75.0279C91.9507 75.0279 96.42 78.1731 98.1055 82.8502L98.3269 83.4647L83.776 83.4783C82.0226 83.6139 80.6489 85.1006 80.6489 86.8539C80.6489 88.7203 82.1673 90.2386 84.0336 90.2386C84.0607 90.2386 84.0833 90.2386 84.1104 90.2386H84.1601L101.915 90.2341C103.781 90.2341 105.3 88.7157 105.3 86.8494C105.3 81.8741 103.411 77.206 99.9809 73.7084C96.5329 70.1926 91.9191 68.2585 86.9754 68.2585" fill="#009A4F"/>
<path d="M147.778 14.8583V14.8176C147.778 11.1256 150.77 8.0166 154.539 8.0166C158.307 8.0166 161.299 11.085 161.299 14.7769V14.8176C161.299 18.5096 158.307 21.6186 154.539 21.6186C150.77 21.6186 147.778 18.5502 147.778 14.8583ZM160.526 14.8176V14.7769C160.526 11.4736 157.959 8.75319 154.543 8.75319C151.127 8.75319 148.56 11.5143 148.56 14.8176V14.8583C148.56 18.1616 151.127 20.882 154.543 20.882C157.959 20.882 160.526 18.1209 160.526 14.8176ZM151.588 11.1256H155.009C156.757 11.1256 158 11.8622 158 13.5342C158 14.6594 157.417 15.4367 156.522 15.7892L158.231 18.2746H155.899L154.462 16.1371H153.608V18.2746H151.588V11.1256ZM154.891 14.5465C155.592 14.5465 155.98 14.1985 155.98 13.6924C155.98 13.1501 155.592 12.8383 154.891 12.8383H153.608V14.5465H154.891Z" fill="#009A4F"/>
</g>
<defs>
<clipPath id="clip0_50939_32183">
<rect width="173.699" height="173.699" fill="white"/>
</clipPath>
</defs>
</svg>
