<svg width="95" height="123" viewBox="0 0 95 123" fill="none" xmlns="http://www.w3.org/2000/svg">
<g clip-path="url(#clip0_4031_6495)">
<path d="M44.0909 4.75246e-07C44.0005 4.75246e-07 43.9101 0.00451755 43.8153 0.0180688C27.8792 1.86555 15.8606 15.3716 15.8606 31.4343C15.8606 47.4971 27.8838 61.0031 43.8243 62.8506C45.1346 63.0042 46.2822 62.0646 46.4313 60.7863C46.5036 60.1629 46.3319 59.5486 45.9389 59.0563C45.5503 58.5639 44.99 58.2522 44.3665 58.1799C30.7981 56.608 20.5641 45.112 20.5641 31.4343C20.5641 17.7566 30.7935 6.26067 44.3574 4.68421C45.6452 4.53515 46.5714 3.36522 46.4223 2.07786C46.2822 0.894382 45.2837 -0.0045166 44.0909 -0.0045166" fill="#009A4F"/>
<path d="M50.9087 0C49.7159 0 48.7174 0.894381 48.5773 2.08237C48.4282 3.36974 49.3544 4.53966 50.6421 4.68873C64.2061 6.26519 74.44 17.7611 74.44 31.4343C74.44 45.1075 64.2061 56.608 50.6376 58.18C50.0141 58.2522 49.4538 58.5639 49.0653 59.0563C48.6767 59.5486 48.5005 60.163 48.5728 60.7863C48.7174 62.0601 49.874 63.0042 51.1798 62.8506C67.1203 61.0076 79.1435 47.5016 79.1435 31.4343C79.1435 15.3671 67.1158 1.86555 51.1843 0.0180683C51.094 0.00451708 51.0036 0 50.9087 0Z" fill="#009A4F"/>
<path d="M27.1743 32.7261C27.0342 32.7261 26.8942 32.7396 26.7586 32.7622C26.1396 32.8706 25.6019 33.2184 25.2405 33.7334C24.879 34.2483 24.7434 34.8717 24.8564 35.4905C26.8128 46.467 36.3329 54.4306 47.4976 54.4306C58.6622 54.4306 68.1823 46.467 70.1387 35.4905C70.3646 34.2167 69.5152 32.9926 68.2365 32.7667C68.101 32.7441 67.9609 32.7306 67.8208 32.7306C66.6822 32.7306 65.7108 33.5482 65.5075 34.6684C63.9532 43.3954 56.376 49.7329 47.4976 49.7329C38.6191 49.7329 31.0419 43.3954 29.4877 34.6684C29.2843 33.5437 28.3174 32.7306 27.1743 32.7306" fill="#009A4F"/>
<path d="M47.4981 8.43323C41.9722 8.43323 36.6271 10.4253 32.4522 14.0344C28.3179 17.6074 25.5889 22.5355 24.762 27.9063C24.5632 29.1892 25.4488 30.3907 26.7275 30.585C26.845 30.603 26.9669 30.6121 27.0889 30.6121C28.2366 30.6121 29.2351 29.7538 29.4068 28.62C30.0665 24.3469 32.2398 20.4306 35.5246 17.5848C38.8455 14.712 43.0972 13.131 47.4981 13.131C51.8989 13.131 56.1461 14.712 59.467 17.5848C62.7563 20.4306 64.9296 24.3469 65.5893 28.6155C65.761 29.7538 66.7595 30.6076 67.9072 30.6076C68.0292 30.6076 68.1466 30.5985 68.2686 30.5805C68.8876 30.4856 69.4344 30.1559 69.8049 29.6499C70.1754 29.144 70.329 28.5207 70.2341 27.9018C69.4072 22.531 66.6782 17.6029 62.544 14.0299C58.3736 10.4162 53.0284 8.42871 47.4981 8.42871" fill="#009A4F"/>
<path d="M47.5975 17.2057C39.7537 17.2057 33.3694 23.5883 33.3694 31.43C33.3694 39.2716 39.7537 45.6588 47.5975 45.6588C51.1172 45.6588 54.4924 44.3714 57.0994 42.027C57.5648 41.5527 57.8269 40.9068 57.8269 40.2292C57.8269 38.7973 56.6612 37.6319 55.2289 37.6319C54.5692 37.6319 53.9366 37.8803 53.4532 38.3321L53.3854 38.3908C51.7588 39.7369 49.7075 40.4822 47.5975 40.4822C42.6093 40.4822 38.5519 36.4213 38.5519 31.4345C38.5519 26.4476 42.6093 22.3868 47.5975 22.3868C51.4019 22.3868 54.8222 24.7944 56.1145 28.3719L56.2862 28.8417L45.1486 28.8507C43.8066 28.9546 42.7584 30.0884 42.7584 31.4345C42.7584 32.8619 43.9196 34.0273 45.3519 34.0273C45.37 34.0273 45.388 34.0273 45.4106 34.0273H45.4468H59.0378C60.4656 34.0273 61.6268 32.8664 61.6268 31.439C61.6268 27.6311 60.1809 24.0581 57.5558 21.384C54.9171 18.6963 51.3838 17.2147 47.602 17.2147" fill="#009A4F"/>
<path d="M32.1806 73.9897C30.3778 72.0699 27.965 71.0129 25.3851 71.0129C20.0309 71.0129 15.6753 75.5661 15.6753 81.1628C15.6753 86.7595 20.2568 91.3127 25.6833 91.3127C28.1684 91.3127 30.7664 90.3189 32.4743 88.7108C32.8132 88.3495 32.9984 87.8707 32.9984 87.3602C32.9984 86.9085 32.8132 86.5427 32.5782 86.2084C32.2574 85.7522 31.8056 85.4043 31.2092 85.4043C30.7302 85.4043 30.3417 85.5489 29.8492 85.9283L29.7995 85.969C28.7919 86.8453 27.1743 87.4099 25.6833 87.4099C22.2856 87.4099 19.4164 84.5461 19.4164 81.1583C19.4164 77.7705 22.0958 74.9067 25.3851 74.9067C27.8927 74.9067 30.1519 76.5689 31.0058 79.0443L31.0646 79.2114H22.8368C21.8699 79.2973 21.1108 80.151 21.1108 81.1628C21.1108 82.2379 21.9512 83.1142 22.9814 83.1142C22.9994 83.1142 23.0175 83.1142 23.0446 83.1142H33.0888C34.119 83.1142 34.9548 82.2379 34.9548 81.1628C34.9548 78.448 33.9699 75.9004 32.1761 73.9897" fill="#009A4F"/>
<path d="M77.2464 72.1332C75.9949 72.1332 75.1545 72.9192 75.1545 74.2427V74.5227C73.8216 72.883 71.6302 71.8667 69.3214 71.8667C64.2157 71.8667 60.6462 75.6023 60.6462 80.9505C60.6462 86.2988 64.297 90.0389 69.3214 90.0389C71.5715 90.0389 73.7131 89.0226 75.037 87.3874V88.6205C75.037 92.4329 73.4511 93.9913 69.5608 93.9913C67.2926 93.9913 65.4266 93.1376 64.3106 92.4691C63.1855 91.8051 62.5259 92.3968 62.3587 92.582C61.9927 93.0111 61.5951 93.6029 61.5951 94.0998C61.5951 94.5966 61.7939 95.2787 62.7427 95.8388C64.8302 97.0223 67.1978 97.6276 69.7958 97.6276C76.153 97.6276 79.3248 94.5018 79.3248 88.345V74.202C79.3248 72.9011 78.5206 72.1287 77.2464 72.1287M70.0307 86.2807C67.0622 86.2807 64.9883 84.0899 64.9883 80.9505C64.9883 77.8112 67.0622 75.6204 70.0307 75.6204C72.9992 75.6204 75.0325 77.8609 75.0325 80.9505C75.0325 84.0402 72.9315 86.2807 70.0307 86.2807Z" fill="#009A4F"/>
<path d="M59.1907 72.1514C58.531 72.0701 58.0476 72.0701 58.0476 72.0701C57.153 72.0701 56.7057 72.7793 56.43 73.642L53.6332 82.6762L53.2943 83.6428L49.6029 73.3484C49.2957 72.4721 48.8212 72.1333 47.8046 72.1333C46.788 72.1333 46.3181 72.4721 46.0109 73.3439L42.3556 83.6925L39.2199 73.5562C38.9488 72.6934 38.5015 71.9843 37.6068 71.9843C37.6068 71.9843 37.1234 71.9842 36.4637 72.0656C34.7287 72.314 35.2844 73.8769 35.2844 73.8769C35.3161 74.0621 35.3703 74.2654 35.429 74.4009L40.3766 89.375C40.5799 90.1926 41.2712 90.6262 42.22 90.6262C43.1689 90.6262 43.7698 90.2242 44.0951 89.366L47.8091 78.9993L51.5593 89.3614C51.8575 90.2107 52.5217 90.6262 53.4344 90.6262C54.3471 90.6262 54.9706 90.2468 55.2734 89.3976L55.5896 88.4625L60.2299 74.4912C60.2841 74.3557 60.3384 74.157 60.3745 73.9672C60.3745 73.9672 60.9303 72.4043 59.1952 72.1559" fill="#009A4F"/>
<path d="M1.49251 109.801L2.58142 108.694L4.72309 111.396H5.81651L3.18687 108.089L5.74422 105.483H4.6011L1.49251 108.712V105.483H0.625V111.396H1.49251V109.801Z" fill="#009A4F"/>
<path d="M7.05476 108.875C7.05476 108.166 7.52918 107.669 8.20241 107.669C8.87563 107.669 9.25517 108.089 9.25517 108.826V111.391H10.1046V108.672C10.1046 107.583 9.43138 106.879 8.38314 106.879C7.83642 106.879 7.39363 107.077 7.05476 107.466V106.969H6.20532V111.396H7.05476V108.88V108.875Z" fill="#009A4F"/>
<path d="M13.0819 111.49C14.3787 111.49 15.3953 110.479 15.3953 109.169C15.3953 107.859 14.3832 106.879 13.0955 106.879C11.8078 106.879 10.7866 107.89 10.7866 109.2C10.7866 110.51 11.7942 111.49 13.0774 111.49M13.0774 107.651C13.8907 107.651 14.5278 108.324 14.5278 109.196C14.5278 110.068 13.9133 110.705 13.0955 110.705C12.2777 110.705 11.6541 110.036 11.6541 109.164C11.6541 108.292 12.2686 107.651 13.0819 107.651" fill="#009A4F"/>
<path d="M17.7948 111.427L18.8566 108.342L19.9048 111.427H20.6097L22.1685 106.969H21.2784L20.2527 110.099L19.1955 106.951H18.5132L17.465 110.099L16.4393 106.969H15.5356L17.0854 111.427H17.7948Z" fill="#009A4F"/>
<path d="M26.9579 110.294L25.5076 106.974H24.5723L26.5332 111.274C26.2847 111.838 26.0723 111.951 25.7922 111.951C25.5527 111.951 25.381 111.911 25.1868 111.811L25.0783 111.757L24.7801 112.462L24.875 112.507C25.2003 112.665 25.4759 112.728 25.8193 112.728C26.5196 112.728 26.9534 112.367 27.3194 111.473L29.1448 106.978H28.2366L26.9579 110.298V110.294Z" fill="#009A4F"/>
<path d="M33.7984 109.169C33.7984 107.886 32.7863 106.879 31.4985 106.879C30.2108 106.879 29.1897 107.89 29.1897 109.2C29.1897 110.51 30.1973 111.49 31.4805 111.49C32.7637 111.49 33.7938 110.479 33.7938 109.169M31.4805 107.655C32.2938 107.655 32.9308 108.329 32.9308 109.2C32.9308 110.072 32.3118 110.709 31.4985 110.709C30.6853 110.709 30.0572 110.04 30.0572 109.169C30.0572 108.297 30.6717 107.655 31.485 107.655" fill="#009A4F"/>
<path d="M36.2019 111.486C36.7486 111.486 37.1869 111.292 37.5303 110.894V111.396H38.3707V106.969H37.5303V109.485C37.5303 110.194 37.0559 110.691 36.3827 110.691C35.7094 110.691 35.3299 110.271 35.3299 109.535V106.969H34.4805V109.688C34.4805 110.777 35.1582 111.482 36.2019 111.482" fill="#009A4F"/>
<path d="M41.9541 107.791V106.897H41.8456C41.1995 106.87 40.6167 107.181 40.2371 107.741V106.965H39.3877V111.391H40.2371V109.607C40.2371 108.505 40.8471 107.791 41.7914 107.791H41.9496H41.9541Z" fill="#009A4F"/>
<path d="M46.6664 106.879C45.451 106.879 44.5383 107.872 44.5383 109.187C44.5383 110.501 45.4872 111.495 46.7478 111.495C47.4933 111.495 48.049 111.242 48.5641 110.668L48.6409 110.587L48.0852 110.09L48.0129 110.167C47.6469 110.546 47.2538 110.727 46.7658 110.727C46.0655 110.727 45.5369 110.262 45.4149 109.553H48.7223L48.7313 109.453C48.7403 109.349 48.7403 109.282 48.7403 109.223C48.7403 107.823 47.909 106.883 46.6664 106.883M46.6484 107.633C47.412 107.633 47.7734 108.229 47.8638 108.825H45.4104C45.5369 108.116 46.0294 107.633 46.6484 107.633Z" fill="#009A4F"/>
<path d="M52.4996 108.83V111.396H53.349V108.676C53.349 107.588 52.6712 106.883 51.6275 106.883C51.0808 106.883 50.638 107.082 50.2991 107.47V106.969H49.4497V111.396H50.2991V108.88C50.2991 108.17 50.7736 107.674 51.4468 107.674C52.12 107.674 52.4996 108.094 52.4996 108.83Z" fill="#009A4F"/>
<path d="M58.2058 106.969H57.2841L55.9376 110.271L54.5957 106.969H53.6604L55.5762 111.427H56.2765L58.2058 106.969Z" fill="#009A4F"/>
<path d="M59.6522 106.969H58.8027V111.395H59.6522V106.969Z" fill="#009A4F"/>
<path d="M59.7018 105.361H58.762V106.273H59.7018V105.361Z" fill="#009A4F"/>
<path d="M61.5678 109.607C61.5678 108.505 62.1778 107.791 63.1221 107.791H63.2803V106.897H63.1718C62.5257 106.87 61.9428 107.181 61.5633 107.741V106.964H60.7139V111.391H61.5633V109.607H61.5678Z" fill="#009A4F"/>
<path d="M65.7018 111.49C66.9985 111.49 68.0151 110.479 68.0151 109.169C68.0151 107.859 67.0076 106.879 65.7153 106.879C64.4231 106.879 63.4065 107.89 63.4065 109.2C63.4065 110.51 64.4141 111.49 65.6973 111.49M65.6973 107.651C66.5106 107.651 67.1476 108.324 67.1476 109.196C67.1476 110.068 66.5332 110.705 65.7153 110.705C64.8975 110.705 64.274 110.036 64.274 109.164C64.274 108.292 64.8885 107.651 65.7018 107.651" fill="#009A4F"/>
<path d="M71.648 108.83V111.396H72.4974V108.676C72.4974 107.588 71.8197 106.883 70.776 106.883C70.2292 106.883 69.7865 107.082 69.4476 107.47V106.969H68.5981V111.396H69.4476V108.88C69.4476 108.17 69.922 107.674 70.5952 107.674C71.2685 107.674 71.648 108.094 71.648 108.83Z" fill="#009A4F"/>
<path d="M78.2086 106.879C77.5987 106.879 77.1152 107.122 76.7402 107.615C76.4465 107.136 75.9676 106.879 75.3802 106.879C74.7928 106.879 74.3952 107.15 74.1331 107.452V106.969H73.2837V111.396H74.1331V108.884C74.1331 108.179 74.5804 107.669 75.1949 107.669C75.8094 107.669 76.1664 108.094 76.1664 108.812V111.396H77.0068V108.862C77.0068 108.039 77.5354 107.674 78.0595 107.674C78.6921 107.674 79.04 108.085 79.04 108.83V111.396H79.8894V108.681C79.8894 107.57 79.2478 106.879 78.2177 106.879" fill="#009A4F"/>
<path d="M82.7226 106.879C81.5072 106.879 80.5945 107.872 80.5945 109.187C80.5945 110.501 81.5433 111.495 82.8039 111.495C83.5449 111.495 84.1052 111.242 84.6203 110.668L84.6971 110.587L84.1413 110.09L84.069 110.167C83.6985 110.556 83.3145 110.727 82.822 110.727C82.1217 110.727 81.5885 110.262 81.471 109.553H84.7784L84.7875 109.449C84.7965 109.345 84.7965 109.277 84.7965 109.219C84.7965 107.818 83.9651 106.879 82.7271 106.879M82.709 107.628C83.4726 107.628 83.8296 108.225 83.9245 108.821H81.471C81.593 108.112 82.09 107.628 82.709 107.628Z" fill="#009A4F"/>
<path d="M87.6832 106.878C87.1365 106.878 86.6937 107.077 86.3548 107.466V106.969H85.5054V111.395H86.3548V108.875C86.3548 108.166 86.8292 107.669 87.5025 107.669C88.1757 107.669 88.5552 108.089 88.5552 108.825V111.391H89.4047V108.667C89.4047 107.579 88.7269 106.874 87.6832 106.874" fill="#009A4F"/>
<path d="M91.42 105.7H90.5705V106.969H89.9832V107.746H90.5705V110.172C90.5705 110.998 91.045 111.468 91.8673 111.468C92.1655 111.468 92.423 111.409 92.6761 111.278L92.7348 111.247V110.465L92.5766 110.542C92.3778 110.637 92.2152 110.678 92.0164 110.678C91.6052 110.678 91.42 110.497 91.42 110.09V107.746H92.7529V106.969H91.42V105.7Z" fill="#009A4F"/>
<path d="M94.3752 110.321H93.4038V111.396H94.3752V110.321Z" fill="#009A4F"/>
<path d="M12.1693 115.759H9.92822V121.672H10.7912V119.662H12.0609C13.466 119.662 14.4104 118.871 14.4104 117.674C14.4104 116.477 13.5293 115.759 12.1693 115.759ZM10.7912 116.577H12.1196C13.0187 116.577 13.5383 116.988 13.5383 117.719C13.5383 118.411 12.969 118.858 12.088 118.858H10.7912V116.577Z" fill="#009A4F"/>
<path d="M15.9376 118.027V117.25H15.0881V121.677H15.9376V119.892C15.9376 118.79 16.5475 118.076 17.4919 118.076H17.65V117.182H17.5416C16.8909 117.155 16.3126 117.467 15.9331 118.027" fill="#009A4F"/>
<path d="M20.0901 117.159C18.7979 117.159 17.7812 118.171 17.7812 119.481C17.7812 120.791 18.7888 121.771 20.072 121.771C21.3552 121.771 22.3854 120.759 22.3854 119.449C22.3854 118.14 21.3733 117.159 20.0856 117.159M20.0856 120.99C19.2768 120.99 18.6442 120.321 18.6442 119.449C18.6442 118.578 19.2587 117.936 20.0675 117.936C20.8763 117.936 21.5179 118.609 21.5179 119.486C21.5179 120.362 20.9034 120.994 20.0856 120.994" fill="#009A4F"/>
<path d="M24.2015 115.98H23.352V117.25H22.7646V118.027H23.352V120.452C23.352 121.279 23.8264 121.749 24.6488 121.749C24.947 121.749 25.2045 121.686 25.4575 121.559L25.5163 121.527V120.746L25.3581 120.823C25.1593 120.918 24.9967 120.958 24.7979 120.958C24.3867 120.958 24.2015 120.778 24.2015 120.371V118.027H25.5344V117.25H24.2015V115.98Z" fill="#009A4F"/>
<path d="M28.0014 117.159C26.786 117.159 25.8733 118.153 25.8733 119.468C25.8733 120.782 26.8221 121.776 28.0827 121.776C28.8237 121.776 29.384 121.523 29.8991 120.949L29.9714 120.868L29.4156 120.371L29.3433 120.448C28.9774 120.832 28.5843 121.008 28.0963 121.008C27.396 121.008 26.8628 120.543 26.7453 119.834H30.0527L30.0617 119.734C30.0708 119.63 30.0708 119.563 30.0708 119.504C30.0708 118.103 29.2394 117.164 28.0014 117.164M27.9833 117.914C28.7469 117.914 29.1039 118.51 29.1988 119.106H26.7453C26.8673 118.397 27.3643 117.914 27.9833 117.914Z" fill="#009A4F"/>
<path d="M34.0284 120.398C33.6579 120.796 33.2648 120.99 32.8265 120.99C32.0223 120.99 31.3942 120.321 31.3942 119.45C31.3942 118.578 32.0042 117.936 32.7859 117.936C33.3326 117.936 33.685 118.226 33.9832 118.537L34.0646 118.623L34.6339 118.022L34.5616 117.946C34.2182 117.58 33.7076 117.164 32.7994 117.164C31.5479 117.164 30.5312 118.198 30.5312 119.486C30.5312 120.773 31.5479 121.776 32.7994 121.776C33.7166 121.776 34.2453 121.32 34.5977 120.927L34.67 120.845L34.1097 120.321L34.0329 120.403L34.0284 120.398Z" fill="#009A4F"/>
<path d="M36.3333 115.98H35.4839V117.25H34.8965V118.027H35.4839V120.452C35.4839 121.279 35.9583 121.749 36.7806 121.749C37.0788 121.749 37.3364 121.686 37.5894 121.559L37.6481 121.527V120.746L37.49 120.823C37.2912 120.918 37.1285 120.958 36.9297 120.958C36.5186 120.958 36.3333 120.778 36.3333 120.371V118.027H37.6662V117.25H36.3333V115.98Z" fill="#009A4F"/>
<path d="M42.568 120.57L41.1177 117.25H40.1824L42.1433 121.55C41.8948 122.115 41.6824 122.228 41.4023 122.228C41.1628 122.228 40.9911 122.187 40.7969 122.088L40.6884 122.033L40.3902 122.738L40.4851 122.783C40.8104 122.941 41.0815 123.005 41.4294 123.005C42.1298 123.005 42.5635 122.643 42.9295 121.749L44.7549 117.254H43.8467L42.568 120.574V120.57Z" fill="#009A4F"/>
<path d="M47.1091 117.159C45.8169 117.159 44.8003 118.171 44.8003 119.481C44.8003 120.791 45.8079 121.771 47.0911 121.771C48.3743 121.771 49.4044 120.76 49.4044 119.45C49.4044 118.14 48.3969 117.159 47.1046 117.159M47.1046 120.99C46.2958 120.99 45.6633 120.321 45.6633 119.45C45.6633 118.578 46.2778 117.936 47.0865 117.936C47.8953 117.936 48.5369 118.609 48.5369 119.486C48.5369 120.362 47.9224 120.994 47.1046 120.994" fill="#009A4F"/>
<path d="M53.1412 119.766C53.1412 120.475 52.6667 120.972 51.9935 120.972C51.3203 120.972 50.9407 120.552 50.9407 119.815V117.25H50.0913V119.969C50.0913 121.058 50.7645 121.762 51.8128 121.762C52.3595 121.762 52.7978 121.568 53.1412 121.171V121.672H53.9816V117.245H53.1412V119.761V119.766Z" fill="#009A4F"/>
<path d="M55.8524 118.027V117.25H55.0029V121.677H55.8524V119.892C55.8524 118.79 56.4623 118.077 57.4067 118.077H57.5648V117.182H57.4564C56.8102 117.155 56.2274 117.467 55.8479 118.027" fill="#009A4F"/>
<path d="M62.5846 117.16C62.0378 117.16 61.5951 117.358 61.2562 117.747V115.515H60.4067V121.672H61.2562V119.156C61.2562 118.447 61.7306 117.95 62.4038 117.95C63.077 117.95 63.4566 118.37 63.4566 119.106V121.672H64.306V118.948C64.306 117.86 63.6283 117.155 62.5846 117.155" fill="#009A4F"/>
<path d="M67.1249 117.159C65.9095 117.159 64.9968 118.153 64.9968 119.468C64.9968 120.782 65.9457 121.776 67.2063 121.776C67.9473 121.776 68.5075 121.523 69.0226 120.949L69.0949 120.868L68.5392 120.371L68.4669 120.448C68.1009 120.832 67.7078 121.008 67.2198 121.008C66.5195 121.008 65.9863 120.543 65.8689 119.833H69.1762L69.1853 119.734C69.1943 119.63 69.1943 119.562 69.1943 119.504C69.1943 118.103 68.363 117.164 67.1204 117.164M67.1024 117.914C67.8659 117.914 68.2274 118.51 68.3178 119.106H65.8643C65.9863 118.397 66.4833 117.914 67.1024 117.914Z" fill="#009A4F"/>
<path d="M71.6027 117.182C70.9249 117.182 70.446 117.358 70.0258 117.548L69.9309 117.589L70.193 118.311L70.3014 118.262C70.7442 118.058 71.1147 117.973 71.5304 117.973C72.0455 117.973 72.6554 118.149 72.6645 118.984C72.3572 118.908 71.9958 118.84 71.4897 118.84C70.315 118.84 69.583 119.409 69.583 120.339C69.583 121.27 70.4279 121.758 71.2638 121.758C71.9235 121.758 72.3708 121.5 72.6645 121.22V121.667H73.5049V118.989C73.5049 118.42 73.3513 117.991 73.035 117.674C72.7187 117.358 72.2127 117.177 71.5982 117.177M72.6735 119.707V120.014C72.6735 120.597 72.1178 121.035 71.3858 121.035C70.9295 121.035 70.4415 120.809 70.4415 120.294C70.4415 119.843 70.8707 119.558 71.5575 119.558C72.0364 119.558 72.416 119.639 72.6735 119.712" fill="#009A4F"/>
<path d="M75.1363 115.515H74.2869V121.672H75.1363V115.515Z" fill="#009A4F"/>
<path d="M77.2735 115.98H76.424V117.25H75.8367V118.027H76.424V120.452C76.424 121.279 76.8985 121.749 77.7208 121.749C78.019 121.749 78.2765 121.686 78.5296 121.559L78.5883 121.527V120.746L78.4302 120.823C78.2314 120.918 78.0687 120.958 77.8699 120.958C77.4587 120.958 77.2735 120.778 77.2735 120.371V118.027H78.6064V117.25H77.2735V115.98Z" fill="#009A4F"/>
<path d="M81.5067 117.16C80.96 117.16 80.5172 117.358 80.1783 117.747V115.515H79.3289V121.672H80.1783V119.156C80.1783 118.447 80.6527 117.95 81.3259 117.95C81.9992 117.95 82.3787 118.37 82.3787 119.106V121.672H83.2281V118.948C83.2281 117.86 82.5504 117.155 81.5067 117.155" fill="#009A4F"/>
<path d="M85.072 120.601H84.1006V121.676H85.072V120.601Z" fill="#009A4F"/>
</g>
<defs>
<clipPath id="clip0_4031_6495">
<rect width="93.75" height="123" fill="white" transform="translate(0.625)"/>
</clipPath>
</defs>
</svg>
