<svg width="124" height="10" viewBox="0 0 124 10" fill="none" xmlns="http://www.w3.org/2000/svg">
<path d="M0 9.84973V1.9375H5.19517V3.48756H1.51022V5.08388H4.75217V6.63394H1.51022V8.29967H5.23544V9.84973H0Z" fill="#009A4F"/>
<path d="M18.0016 9.91883H16.6727L15.1222 4.73655L13.5717 9.91883H12.2427L9.88672 1.9372H11.5178L12.9474 7.30456L14.4979 1.91406H15.8068L17.3573 7.30456L18.787 1.9372H20.3777L18.0016 9.91883Z" fill="#009A4F"/>
<path d="M28.5923 9.99454C26.4377 9.99454 24.9678 8.2594 24.9678 5.92275V5.89961C24.9678 3.6555 26.4981 1.80469 28.5722 1.80469C29.8206 1.80469 30.5657 2.19798 31.2704 2.89204L30.324 4.21074C29.8005 3.70177 29.3172 3.40101 28.5319 3.40101C27.4244 3.40101 26.5585 4.5115 26.5585 5.87648V5.89961C26.5585 7.35713 27.4244 8.42135 28.6527 8.42135C29.1964 8.42135 29.6998 8.2594 30.0824 7.93551V6.80188H28.552V5.2981H31.5523V8.74524C30.8274 9.4393 29.8609 9.99454 28.5923 9.99454Z" fill="#009A4F"/>
<path d="M44.0381 9.91914H42.689L39.9102 1.9375H41.5815L43.3736 7.51308L45.1657 1.9375H46.7968L44.0381 9.91914Z" fill="#009A4F"/>
<path d="M52.2939 9.84973V1.9375H57.4891V3.48756H53.8042V5.08388H57.0461V6.63394H53.8042V8.29967H57.5495V9.84973H52.2939Z" fill="#009A4F"/>
<path d="M67.679 9.84973L66.209 7.30486H65.021V9.84973H63.5107V1.9375H66.652C68.283 1.9375 69.2496 2.93231 69.2496 4.55177V4.57491C69.2496 5.84734 68.6455 6.65707 67.7796 7.02724L69.4711 9.84973H67.679ZM67.6991 4.64432C67.6991 3.90399 67.2561 3.51069 66.5111 3.51069H65.0008V5.77794H66.5312C67.2762 5.77794 67.6991 5.33837 67.6991 4.64432Z" fill="#009A4F"/>
<path d="M75.1689 9.84973V1.9375H76.6786V9.84973H75.1689Z" fill="#009A4F"/>
<path d="M84.4106 3.51039V5.19926H87.6928V6.77245H84.4106V9.82629H82.9004V1.91406H88.156V3.48725H84.4106V3.51039Z" fill="#009A4F"/>
<path d="M93.8555 9.84973V1.9375H95.3651V9.84973H93.8555Z" fill="#009A4F"/>
<path d="M101.568 9.84973V1.9375H106.764V3.48756H103.079V5.08388H106.321V6.63394H103.079V8.29967H106.824V9.84973H101.568Z" fill="#009A4F"/>
<path d="M115.441 9.84973H112.763V1.9375H115.441C117.616 1.9375 119.106 3.6495 119.106 5.87048V5.89361C119.106 8.11459 117.616 9.84973 115.441 9.84973ZM117.535 5.89361C117.535 4.48237 116.689 3.51069 115.461 3.51069H114.293V8.27654H115.461C116.689 8.27654 117.535 7.328 117.535 5.89361Z" fill="#009A4F"/>
<path d="M120.858 1.82768C120.858 0.832867 121.543 0 122.429 0C123.315 0 124 0.809732 124 1.80454C124 2.79936 123.315 3.60909 122.429 3.60909C121.543 3.60909 120.858 2.79936 120.858 1.82768ZM123.818 1.80454C123.818 0.902273 123.214 0.185082 122.429 0.185082C121.644 0.185082 121.04 0.925408 121.04 1.80454C121.04 2.68368 121.644 3.40087 122.429 3.40087C123.214 3.42401 123.818 2.68368 123.818 1.80454ZM121.744 0.832866H122.53C122.932 0.832866 123.214 1.04108 123.214 1.48065C123.214 1.78141 123.073 1.98962 122.872 2.08217L123.275 2.75309H122.731L122.389 2.17471H122.187V2.75309H121.724V0.832866H121.744ZM122.51 1.73514C122.671 1.73514 122.771 1.6426 122.771 1.50379C122.771 1.36498 122.691 1.27243 122.51 1.27243H122.208V1.73514H122.51Z" fill="#009A4F"/>
</svg>
