<svg width="22" height="22" viewBox="0 0 22 22" fill="none" xmlns="http://www.w3.org/2000/svg">
<path fill-rule="evenodd" clip-rule="evenodd" d="M11.8912 1.50224C11.8828 1.50835 11.8685 1.52117 11.8499 1.54634L9.35305 4.9231C9.10678 5.25615 8.63714 5.3265 8.30409 5.08023C7.97104 4.83396 7.90068 4.36433 8.14695 4.03128L10.6438 0.654521C11.1154 0.0167316 11.8714 -0.150968 12.506 0.134027C13.1117 0.406045 13.5067 1.03782 13.5067 1.77848V8.80904C13.5067 8.92449 13.5464 9.0081 13.5835 9.05231C13.6027 9.0752 13.6161 9.08305 13.622 9.08541H16.8859C17.6548 9.08541 18.1661 9.62829 18.3729 10.1727C18.581 10.7205 18.5537 11.4213 18.1364 11.9857L17.2415 13.196C16.9952 13.529 16.5256 13.5994 16.1926 13.3531C15.8595 13.1068 15.7891 12.6372 16.0354 12.3041L16.9303 11.0939C17.0032 10.9953 17.0233 10.844 16.9706 10.7053C16.9461 10.6407 16.9148 10.6057 16.898 10.5921C16.8866 10.5829 16.8863 10.5854 16.8859 10.5854H13.6191C12.6116 10.5854 12.0067 9.6625 12.0067 8.80904V1.77848C12.0067 1.57285 11.9094 1.51041 11.8915 1.50238C11.8914 1.50233 11.8913 1.50229 11.8912 1.50224ZM11.8997 1.49726C11.8997 1.49733 11.899 1.49775 11.8973 1.49829C11.8989 1.49746 11.8997 1.49719 11.8997 1.49726ZM13.6253 9.08627C13.6253 9.0864 13.6243 9.0863 13.6224 9.08557C13.6243 9.08578 13.6253 9.08613 13.6253 9.08627ZM0.21967 0.219718C0.512563 -0.0731754 0.987437 -0.0731754 1.28033 0.219718L15.273 14.2124C15.2784 14.2176 15.2838 14.223 15.289 14.2284L21.2803 20.2197C21.5732 20.5126 21.5732 20.9875 21.2803 21.2804C20.9874 21.5733 20.5126 21.5733 20.2197 21.2804L14.8247 15.8854L11.0119 20.8598C10.5289 21.4899 9.77133 21.6432 9.14267 21.3708C8.53413 21.1072 8.11885 20.4836 8.11885 19.733V12.7801C8.11885 12.6752 8.08171 12.5979 8.04435 12.555C8.0083 12.5136 7.98536 12.5151 7.98474 12.5151H4.63582C3.87379 12.5151 3.34935 11.994 3.13237 11.4429C2.91521 10.8914 2.94522 10.1864 3.37686 9.62323L5.62695 6.68766L0.21967 1.28038C-0.0732233 0.987485 -0.0732233 0.512611 0.21967 0.219718ZM6.69684 7.75755L4.56737 10.5357C4.49643 10.6283 4.47792 10.766 4.52807 10.8934C4.55159 10.9531 4.58216 10.9873 4.6013 11.0022C4.61553 11.0133 4.62338 11.0151 4.63582 11.0151H7.98474C8.98115 11.0151 9.61885 11.9059 9.61885 12.7801V19.733C9.61885 19.9182 9.70822 19.9811 9.73896 19.9945C9.74821 19.9985 9.75478 19.9996 9.75819 19.9999C9.76024 20.0001 9.76154 20 9.76238 19.9999C9.76282 19.9999 9.76313 19.9998 9.76336 19.9997C9.76371 19.9996 9.76774 19.9987 9.77575 19.9933C9.78386 19.9878 9.80026 19.9749 9.8214 19.9473L13.7548 14.8155L6.69684 7.75755Z" fill="#203A3B"/>
</svg>
