<svg width="16" height="16" viewBox="0 0 16 16" fill="none" xmlns="http://www.w3.org/2000/svg">
<path fill-rule="evenodd" clip-rule="evenodd" d="M5.33333 3.1665C5.24148 3.1665 5.16667 3.24131 5.16667 3.33317V5.99984C5.16667 6.09169 5.24148 6.1665 5.33333 6.1665H6.66667C6.75852 6.1665 6.83333 6.09169 6.83333 5.99984V3.33317C6.83333 3.24131 6.75852 3.1665 6.66667 3.1665H5.33333ZM7.83333 4.1665V3.33317C7.83333 2.68903 7.31081 2.1665 6.66667 2.1665H5.33333C4.68919 2.1665 4.16667 2.68903 4.16667 3.33317V4.1665H2C1.72386 4.1665 1.5 4.39036 1.5 4.6665C1.5 4.94265 1.72386 5.1665 2 5.1665H4.16667V5.99984C4.16667 6.64398 4.68919 7.1665 5.33333 7.1665H6.66667C7.31081 7.1665 7.83333 6.64398 7.83333 5.99984V5.1665H14C14.2761 5.1665 14.5 4.94265 14.5 4.6665C14.5 4.39036 14.2761 4.1665 14 4.1665H7.83333ZM9.33333 9.83317C9.24148 9.83317 9.16667 9.90798 9.16667 9.99984V12.6665C9.16667 12.7584 9.24148 12.8332 9.33333 12.8332H10.6667C10.7585 12.8332 10.8333 12.7584 10.8333 12.6665V9.99984C10.8333 9.90798 10.7585 9.83317 10.6667 9.83317H9.33333ZM11.8333 10.8332V9.99984C11.8333 9.35569 11.3108 8.83317 10.6667 8.83317H9.33333C8.68919 8.83317 8.16667 9.35569 8.16667 9.99984V10.8332H2C1.72386 10.8332 1.5 11.057 1.5 11.3332C1.5 11.6093 1.72386 11.8332 2 11.8332H8.16667V12.6665C8.16667 13.3106 8.68919 13.8332 9.33333 13.8332H10.6667C11.3108 13.8332 11.8333 13.3106 11.8333 12.6665V11.8332H14C14.2761 11.8332 14.5 11.6093 14.5 11.3332C14.5 11.057 14.2761 10.8332 14 10.8332H11.8333Z" fill="#203A3B"/>
</svg>
