<svg width="24" height="24" viewBox="0 0 24 24" fill="none" xmlns="http://www.w3.org/2000/svg">
<path fill-rule="evenodd" clip-rule="evenodd" d="M11 3.75488C6.99594 3.75488 3.75 7.00082 3.75 11.0049C3.75 15.0089 6.99594 18.2549 11 18.2549C12.9606 18.2549 14.7395 17.4766 16.0445 16.2122C16.0669 16.1816 16.092 16.1522 16.1197 16.1246C16.1474 16.0969 16.1767 16.0718 16.2073 16.0493C17.4717 14.7443 18.25 12.9655 18.25 11.0049C18.25 7.00082 15.0041 3.75488 11 3.75488ZM17.6949 16.6391C18.9773 15.1169 19.75 13.1511 19.75 11.0049C19.75 6.17239 15.8325 2.25488 11 2.25488C6.16751 2.25488 2.25 6.17239 2.25 11.0049C2.25 15.8374 6.16751 19.7549 11 19.7549C13.1462 19.7549 15.112 18.9822 16.6342 17.6998L20.4697 21.5352C20.7626 21.8281 21.2374 21.8281 21.5303 21.5352C21.8232 21.2423 21.8232 20.7674 21.5303 20.4746L17.6949 16.6391Z" fill="#898076"/>
</svg>
