<svg width="16" height="16" viewBox="0 0 16 16" fill="none" xmlns="http://www.w3.org/2000/svg">
<path d="M6.83545 9.83252H4.50081V12.3338C4.50081 12.9785 5.02342 13.5018 5.66813 13.5018C6.31272 13.5016 6.83545 12.9784 6.83545 12.3338V9.83252ZM4.50081 8.83252H6.83545V5.83122H4.50081V8.83252ZM10.5047 5.33252C10.5047 4.55539 9.91394 3.91582 9.15706 3.83903L8.95264 3.82861C8.70051 3.80301 8.50407 3.5901 8.50407 3.33122C8.50417 3.05516 8.72799 2.83122 9.00407 2.83122L9.15706 2.8234C9.91392 2.7466 10.5047 2.10768 10.5047 1.33057C10.5047 1.05442 10.7286 0.830566 11.0047 0.830566C11.2634 0.830639 11.4764 1.02719 11.5021 1.27913L11.5125 1.48421C11.5895 2.2409 12.2284 2.8312 13.0054 2.83122C13.2815 2.83122 13.5053 3.05516 13.5054 3.33122C13.5054 3.60736 13.2815 3.83122 13.0054 3.83122C12.2283 3.83124 11.5894 4.42205 11.5125 5.17887L11.5021 5.3833C11.4765 5.63541 11.2636 5.83245 11.0047 5.83252C10.7287 5.83252 10.5049 5.60853 10.5047 5.33252ZM11.0047 2.83057C10.8624 3.02018 10.6937 3.18881 10.5041 3.33122C10.6935 3.47349 10.8624 3.64181 11.0047 3.83122C11.147 3.64194 11.3154 3.47342 11.5047 3.33122C11.3153 3.18888 11.147 3.02005 11.0047 2.83057ZM7.83545 12.3338C7.83545 13.5307 6.865 14.5016 5.66813 14.5018C4.50858 14.5018 3.56154 13.5909 3.50342 12.4458L3.50081 12.3338V5.83122H3.3335C3.05736 5.83122 2.83351 5.60735 2.8335 5.33122C2.8335 5.05507 3.05735 4.83122 3.3335 4.83122H8.00212L8.05355 4.83382C8.30552 4.85957 8.50212 5.07244 8.50212 5.33122C8.5021 5.58998 8.30552 5.80286 8.05355 5.82861L8.00212 5.83122H7.83545V12.3338Z" fill="#203A3B"/>
</svg>
