<svg width="16" height="22" viewBox="0 0 16 22" fill="none" xmlns="http://www.w3.org/2000/svg">
<path fill-rule="evenodd" clip-rule="evenodd" d="M8.6319 1.50083C8.63048 1.50113 8.6049 1.50656 8.56542 1.55725L1.56717 10.5402C1.49582 10.6318 1.47802 10.7654 1.5276 10.8893C1.57698 11.0126 1.63789 11.0148 1.65011 11.0148H5.05396C6.04773 11.0148 6.70256 11.8936 6.70256 12.7799V19.7327C6.70256 19.9109 6.78942 19.976 6.82799 19.9925C6.85005 20.0019 6.86286 20 6.86756 19.9988L6.86762 19.9988C6.86902 19.9985 6.8946 19.9931 6.9341 19.9424L13.9324 10.9594C14.0037 10.8679 14.0215 10.7342 13.9719 10.6104C13.9225 10.487 13.8616 10.4848 13.8494 10.4848H10.4456C9.45179 10.4848 8.79696 9.60605 8.79696 8.71975V1.76687C8.79696 1.58869 8.7101 1.52359 8.67153 1.50715C8.64947 1.49775 8.63666 1.49965 8.63196 1.50082L8.6319 1.50083ZM9.25969 0.127268C9.87089 0.387786 10.297 1.00923 10.297 1.76687V8.71975C10.297 8.82121 10.3334 8.89701 10.3717 8.94034C10.4088 8.98227 10.4364 8.98478 10.4456 8.98478H13.8494C14.6104 8.98478 15.1422 9.49753 15.3645 10.053C15.5866 10.608 15.5551 11.3172 15.1156 11.8813L8.1174 20.8642C7.62798 21.4924 6.86766 21.64 6.23983 21.3723C5.62863 21.1118 5.20256 20.4904 5.20256 19.7327V12.7799C5.20256 12.6784 5.16617 12.6026 5.12781 12.5593C5.09069 12.5174 5.06316 12.5148 5.05396 12.5148H1.65011C0.889094 12.5148 0.357299 12.0021 0.134987 11.4466C-0.0871275 10.8916 -0.0556053 10.1824 0.383875 9.61832L7.38212 0.63539C7.87154 0.00717068 8.63186 -0.140337 9.25969 0.127268Z" fill="#203A3B"/>
</svg>
