<svg width="20" height="21" viewBox="0 0 20 21" fill="none" xmlns="http://www.w3.org/2000/svg">
<path d="M17.9033 7.5C17.9033 4.60032 15.553 2.25017 12.6533 2.25H7C4.10021 2.25 1.75 4.60021 1.75 7.5V13.5C1.75 16.3998 4.10021 18.75 7 18.75H12.6543C15.4624 18.7498 17.7566 16.5443 17.8965 13.7705L17.9033 13.5V7.5ZM12.7998 12.1543C13.0929 11.8647 13.5656 11.8656 13.8574 12.1572C14.1503 12.4501 14.1503 12.9259 13.8574 13.2188L13.3271 12.6885C13.8181 13.1794 13.854 13.2159 13.8564 13.2188V13.2197L13.8555 13.2207C13.8548 13.2214 13.8534 13.2218 13.8525 13.2227C13.8507 13.2244 13.8491 13.2271 13.8467 13.2295C13.8417 13.2343 13.8347 13.2399 13.8271 13.2471C13.8119 13.2615 13.7913 13.2808 13.7656 13.3037C13.7143 13.3496 13.642 13.4112 13.5498 13.4834C13.3653 13.6277 13.0991 13.8163 12.7568 14.0029C12.0725 14.3761 11.0744 14.75 9.82715 14.75C8.57999 14.75 7.58177 14.3761 6.89746 14.0029C6.55519 13.8163 6.28799 13.6277 6.10352 13.4834C6.01131 13.4112 5.93899 13.3495 5.8877 13.3037C5.86203 13.2808 5.84138 13.2615 5.82617 13.2471C5.81877 13.2401 5.8125 13.2342 5.80762 13.2295L5.79688 13.2188C5.79689 13.2183 5.80828 13.2073 6.32715 12.6885L6.71191 12.3027L5.79688 13.2188C5.50398 12.9259 5.50398 12.4501 5.79688 12.1572C6.08876 11.8657 6.56147 11.8646 6.85449 12.1543L6.8584 12.1582C6.8635 12.163 6.87339 12.1728 6.8877 12.1855C6.91665 12.2114 6.96383 12.2523 7.02832 12.3027C7.15818 12.4043 7.35623 12.5443 7.61523 12.6855C8.13392 12.9684 8.88644 13.25 9.82715 13.25C10.7676 13.25 11.5194 12.9683 12.0381 12.6855C12.2973 12.5442 12.4961 12.4044 12.626 12.3027C12.6906 12.2522 12.7377 12.2114 12.7666 12.1855C12.781 12.1726 12.7908 12.163 12.7959 12.1582C12.7984 12.1558 12.7997 12.1544 12.7998 12.1543ZM7.07715 9V8C7.07715 7.58579 7.41293 7.25 7.82715 7.25C8.24129 7.25008 8.57715 7.58584 8.57715 8V9C8.57715 9.41416 8.24129 9.74992 7.82715 9.75C7.41293 9.75 7.07715 9.41421 7.07715 9ZM11.0771 9V8C11.0771 7.58579 11.4129 7.25 11.8271 7.25C12.2413 7.25008 12.5771 7.58584 12.5771 8V9C12.5771 9.41416 12.2413 9.74992 11.8271 9.75C11.4129 9.75 11.0771 9.41421 11.0771 9ZM19.4033 13.5L19.3945 13.8477C19.2145 17.4144 16.2646 20.2498 12.6543 20.25H7C3.27179 20.25 0.25 17.2282 0.25 13.5V7.5C0.25 3.77179 3.27179 0.75 7 0.75H12.6533C16.3814 0.750173 19.4033 3.77189 19.4033 7.5V13.5Z" fill="#89725A"/>
</svg>
