<svg width="16" height="20" viewBox="0 0 16 20" fill="none" xmlns="http://www.w3.org/2000/svg">
<path fill-rule="evenodd" clip-rule="evenodd" d="M0.750019 0.93C1.16423 0.93 1.50002 1.26579 1.50002 1.68V18.75C1.50002 19.1642 1.16423 19.5 0.750019 19.5C0.335806 19.5 1.93963e-05 19.1642 1.93963e-05 18.75V1.68C1.93963e-05 1.26579 0.335806 0.93 0.750019 0.93Z" fill="#203A3B"/>
<path fill-rule="evenodd" clip-rule="evenodd" d="M14.75 1C15.1642 1 15.5 1.33579 15.5 1.75V11.77C15.5 12.1842 15.1642 12.52 14.75 12.52C14.3358 12.52 14 12.1842 14 11.77V1.75C14 1.33579 14.3358 1 14.75 1Z" fill="#203A3B"/>
<path fill-rule="evenodd" clip-rule="evenodd" d="M0.750019 11.75L0.270725 11.1731C-0.0478707 11.4378 -0.0915556 11.9107 0.173152 12.2293C0.433533 12.5427 0.895321 12.5901 1.21357 12.3396L1.21627 12.3377C1.22589 12.3311 1.25027 12.3151 1.29116 12.2925C1.37275 12.2473 1.52159 12.1749 1.75218 12.0982C2.21301 11.9451 3.00693 11.773 4.25002 11.773C5.40013 11.773 6.3677 12.1472 7.47464 12.5841C7.48869 12.5897 7.50276 12.5952 7.51686 12.6008C8.58696 13.0233 9.7943 13.5 11.25 13.5C12.6577 13.5 13.6383 13.2375 14.2902 12.9463C14.6151 12.8012 14.854 12.6509 15.0201 12.5273C15.103 12.4656 15.1674 12.4108 15.2149 12.3671C15.2387 12.3452 15.2583 12.3261 15.2738 12.3103C15.2816 12.3024 15.2884 12.2954 15.2942 12.2892L15.3022 12.2806L15.3056 12.2768L15.3072 12.275L15.308 12.2742C15.308 12.2742 15.3087 12.2734 14.75 11.773L15.3087 12.2734C15.5851 11.9648 15.5589 11.4907 15.2504 11.2143C14.9465 10.9421 14.482 10.9634 14.204 11.2588C14.204 11.2588 14.2015 11.2612 14.1996 11.2629C14.1891 11.2726 14.1646 11.2942 14.1245 11.324C14.0445 11.3836 13.9005 11.4776 13.6785 11.5767C13.2368 11.774 12.4673 12 11.25 12C10.0999 12 9.13234 11.6258 8.0254 11.1889L7.98318 11.1722C6.91308 10.7497 5.70574 10.273 4.25002 10.273C2.86811 10.273 1.91203 10.4644 1.27911 10.6748C0.96282 10.7799 0.728848 10.8892 0.564349 10.9803C0.482193 11.0258 0.417699 11.0666 0.369221 11.0998C0.344994 11.1164 0.324807 11.131 0.30845 11.1434C0.300273 11.1495 0.293058 11.1551 0.286778 11.1601L0.278058 11.1671L0.274219 11.1702L0.272429 11.1717L0.271566 11.1724C0.271566 11.1724 0.270725 11.1731 0.750019 11.75Z" fill="#203A3B"/>
<path fill-rule="evenodd" clip-rule="evenodd" d="M1.28344 2.20923C0.99857 2.49772 0.533958 2.50789 0.236673 2.22879C-0.0653086 1.94527 -0.0802806 1.47064 0.203233 1.16865L0.750019 1.682C0.203233 1.16865 0.203994 1.16784 0.203994 1.16784L0.204778 1.16701L0.206411 1.16529L0.209946 1.16159L0.218092 1.15322C0.224005 1.14721 0.230886 1.14036 0.238762 1.13274C0.254518 1.11748 0.274247 1.09912 0.298171 1.07813C0.346042 1.03614 0.410583 0.983761 0.493524 0.924865C0.659695 0.806868 0.898042 0.663899 1.22167 0.526015C1.87073 0.249477 2.84704 0 4.25002 0C5.70574 0 6.91308 0.476702 7.98318 0.899218L8.0254 0.915885C9.13234 1.35284 10.0999 1.727 11.25 1.727C12.4931 1.727 13.287 1.55493 13.7479 1.40178C13.9784 1.32514 14.1273 1.25271 14.2089 1.20752C14.2498 1.18487 14.2741 1.16885 14.2838 1.16226L14.2865 1.16041C14.6047 0.909926 15.0665 0.957315 15.3269 1.27071C15.5916 1.5893 15.5479 2.06216 15.2293 2.32687L14.75 1.75C15.2293 2.32687 15.2285 2.32757 15.2285 2.32757L15.2276 2.32828L15.2258 2.32975L15.222 2.33289L15.2133 2.33988C15.207 2.34486 15.1998 2.35046 15.1916 2.35663C15.1752 2.36899 15.155 2.38363 15.1308 2.40021C15.0823 2.43338 15.0178 2.47416 14.9357 2.51967C14.7712 2.61079 14.5372 2.72011 14.2209 2.82522C13.588 3.03557 12.6319 3.227 11.25 3.227C9.7943 3.227 8.58696 2.7503 7.51686 2.32778C7.50276 2.32222 7.48869 2.31666 7.47464 2.31112C6.3677 1.87416 5.40013 1.5 4.25002 1.5C3.028 1.5 2.25431 1.71652 1.80962 1.90599C1.58637 2.0011 1.44191 2.09113 1.36198 2.14788C1.32188 2.17636 1.29755 2.1968 1.28732 2.20578C1.28566 2.20723 1.28344 2.20923 1.28344 2.20923Z" fill="#203A3B"/>
</svg>
