<svg width="24" height="24" viewBox="0 0 24 24" fill="none" xmlns="http://www.w3.org/2000/svg">
<path d="M16.125 7.125C16.125 6.30915 15.8831 5.51163 15.4298 4.83327C14.9766 4.15492 14.3323 3.62621 13.5786 3.314C12.8248 3.00179 11.9954 2.9201 11.1953 3.07926C10.3951 3.23843 9.66008 3.63129 9.08319 4.20819C8.50629 4.78508 8.11343 5.52008 7.95426 6.32025C7.7951 7.12043 7.87679 7.94983 8.189 8.70357C8.50121 9.45732 9.02992 10.1016 9.70827 10.5548C10.3866 11.0081 11.1842 11.25 12 11.25C13.0936 11.2488 14.1421 10.8138 14.9154 10.0404C15.6888 9.26713 16.1238 8.21864 16.125 7.125ZM12 9.75C11.4808 9.75 10.9733 9.59605 10.5416 9.30761C10.11 9.01917 9.7735 8.6092 9.57482 8.12955C9.37614 7.64989 9.32415 7.12209 9.42544 6.61289C9.52673 6.10369 9.77673 5.63596 10.1438 5.26885C10.511 4.90173 10.9787 4.65173 11.4879 4.55044C11.9971 4.44915 12.5249 4.50114 13.0045 4.69982C13.4842 4.8985 13.8942 5.23495 14.1826 5.66663C14.471 6.09831 14.625 6.60583 14.625 7.125C14.625 7.8212 14.3484 8.48887 13.8562 8.98116C13.3639 9.47344 12.6962 9.75 12 9.75ZM17.625 12C16.8092 12 16.0116 12.2419 15.3333 12.6952C14.6549 13.1485 14.1262 13.7927 13.814 14.5464C13.5018 15.3002 13.4201 16.1296 13.5793 16.9297C13.7384 17.7299 14.1313 18.4649 14.7082 19.0418C15.2851 19.6187 16.0201 20.0116 16.8203 20.1707C17.6204 20.3299 18.4498 20.2482 19.2036 19.936C19.9573 19.6238 20.6016 19.0951 21.0548 18.4167C21.5081 17.7384 21.75 16.9408 21.75 16.125C21.7488 15.0314 21.3138 13.9829 20.5404 13.2096C19.7671 12.4362 18.7186 12.0012 17.625 12ZM17.625 18.75C17.1058 18.75 16.5983 18.596 16.1666 18.3076C15.735 18.0192 15.3985 17.6092 15.1998 17.1295C15.0011 16.6499 14.9492 16.1221 15.0504 15.6129C15.1517 15.1037 15.4017 14.636 15.7688 14.2688C16.136 13.9017 16.6037 13.6517 17.1129 13.5504C17.6221 13.4492 18.1499 13.5011 18.6295 13.6998C19.1092 13.8985 19.5192 14.235 19.8076 14.6666C20.096 15.0983 20.25 15.6058 20.25 16.125C20.25 16.8212 19.9734 17.4889 19.4812 17.9812C18.9889 18.4734 18.3212 18.75 17.625 18.75ZM6.375 12C5.55915 12 4.76163 12.2419 4.08327 12.6952C3.40492 13.1485 2.87621 13.7927 2.564 14.5464C2.25179 15.3002 2.1701 16.1296 2.32926 16.9297C2.48843 17.7299 2.88129 18.4649 3.45819 19.0418C4.03508 19.6187 4.77008 20.0116 5.57025 20.1707C6.37043 20.3299 7.19983 20.2482 7.95357 19.936C8.70732 19.6238 9.35155 19.0951 9.80481 18.4167C10.2581 17.7384 10.5 16.9408 10.5 16.125C10.4988 15.0314 10.0638 13.9829 9.29045 13.2096C8.51713 12.4362 7.46864 12.0012 6.375 12ZM6.375 18.75C5.85583 18.75 5.34831 18.596 4.91663 18.3076C4.48495 18.0192 4.1485 17.6092 3.94982 17.1295C3.75114 16.6499 3.69915 16.1221 3.80044 15.6129C3.90173 15.1037 4.15173 14.636 4.51885 14.2688C4.88596 13.9017 5.35369 13.6517 5.86289 13.5504C6.37209 13.4492 6.89989 13.5011 7.37955 13.6998C7.8592 13.8985 8.26917 14.235 8.55761 14.6666C8.84605 15.0983 9 15.6058 9 16.125C9 16.8212 8.72344 17.4889 8.23116 17.9812C7.73887 18.4734 7.0712 18.75 6.375 18.75Z" fill="#635242"/>
</svg>
