<svg width="24" height="24" viewBox="0 0 24 24" fill="none" xmlns="http://www.w3.org/2000/svg">
<path fill-rule="evenodd" clip-rule="evenodd" d="M1.75 11.1561C1.75038 5.96141 5.96141 1.75038 11.1561 1.75H11.1562C16.3511 1.75 20.5624 5.9613 20.5624 11.1562C20.5624 13.3031 19.8431 15.282 18.6324 16.8651L21.8839 20.1166C22.372 20.6047 22.372 21.3962 21.8839 21.8844C21.3957 22.3725 20.6043 22.3725 20.1161 21.8844L16.8646 18.6328C15.2816 19.8433 13.3029 20.5624 11.1562 20.5624C5.9613 20.5624 1.75 16.3511 1.75 11.1562V11.1561ZM4.25 11.1563C4.25005 14.9704 7.34204 18.0624 11.1562 18.0624C14.9704 18.0624 18.0624 14.9704 18.0624 11.1562C18.0624 7.34204 14.9704 4.25005 11.1563 4.25M4.25 11.1562C4.25033 7.34214 7.34214 4.25033 11.1562 4.25L4.25 11.1562Z" fill="#203A3B"/>
</svg>
