<svg width="24" height="24" viewBox="0 0 24 24" fill="none" xmlns="http://www.w3.org/2000/svg">
<rect x="3" y="3" width="18" height="18" rx="6" fill="#F5EFE8"/>
<path d="M19.9033 9C19.9033 6.10032 17.553 3.75017 14.6533 3.75H9C6.10021 3.75 3.75 6.10021 3.75 9V15C3.75 17.8998 6.10021 20.25 9 20.25H14.6543C17.4624 20.2498 19.7566 18.0443 19.8965 15.2705L19.9033 15V9ZM14.7998 13.6543C15.0929 13.3647 15.5656 13.3656 15.8574 13.6572C16.1503 13.9501 16.1503 14.4259 15.8574 14.7188L15.3271 14.1885C15.8181 14.6794 15.854 14.7159 15.8564 14.7188V14.7197L15.8555 14.7207C15.8548 14.7214 15.8534 14.7218 15.8525 14.7227C15.8507 14.7244 15.8491 14.7271 15.8467 14.7295C15.8417 14.7343 15.8347 14.7399 15.8271 14.7471C15.8119 14.7615 15.7913 14.7808 15.7656 14.8037C15.7143 14.8496 15.642 14.9112 15.5498 14.9834C15.3653 15.1277 15.0991 15.3163 14.7568 15.5029C14.0725 15.8761 13.0744 16.25 11.8271 16.25C10.58 16.25 9.58177 15.8761 8.89746 15.5029C8.55519 15.3163 8.28799 15.1277 8.10352 14.9834C8.01131 14.9112 7.93899 14.8495 7.8877 14.8037C7.86203 14.7808 7.84138 14.7615 7.82617 14.7471C7.81877 14.7401 7.8125 14.7342 7.80762 14.7295L7.79688 14.7188C7.79689 14.7183 7.80828 14.7073 8.32715 14.1885L8.71191 13.8027L7.79688 14.7188C7.50398 14.4259 7.50398 13.9501 7.79688 13.6572C8.08876 13.3657 8.56147 13.3646 8.85449 13.6543L8.8584 13.6582C8.8635 13.663 8.87339 13.6728 8.8877 13.6855C8.91665 13.7114 8.96383 13.7523 9.02832 13.8027C9.15818 13.9043 9.35623 14.0443 9.61523 14.1855C10.1339 14.4684 10.8864 14.75 11.8271 14.75C12.7676 14.75 13.5194 14.4683 14.0381 14.1855C14.2973 14.0442 14.4961 13.9044 14.626 13.8027C14.6906 13.7522 14.7377 13.7114 14.7666 13.6855C14.781 13.6726 14.7908 13.663 14.7959 13.6582C14.7984 13.6558 14.7997 13.6544 14.7998 13.6543ZM9.07715 10.5V9.5C9.07715 9.08579 9.41293 8.75 9.82715 8.75C10.2413 8.75008 10.5771 9.08584 10.5771 9.5V10.5C10.5771 10.9142 10.2413 11.2499 9.82715 11.25C9.41293 11.25 9.07715 10.9142 9.07715 10.5ZM13.0771 10.5V9.5C13.0771 9.08579 13.4129 8.75 13.8271 8.75C14.2413 8.75008 14.5771 9.08584 14.5771 9.5V10.5C14.5771 10.9142 14.2413 11.2499 13.8271 11.25C13.4129 11.25 13.0771 10.9142 13.0771 10.5ZM21.4033 15L21.3945 15.3477C21.2145 18.9144 18.2646 21.7498 14.6543 21.75H9C5.27179 21.75 2.25 18.7282 2.25 15V9C2.25 5.27179 5.27179 2.25 9 2.25H14.6533C18.3814 2.25017 21.4033 5.27189 21.4033 9V15Z" fill="#89725A"/>
</svg>
