<svg width="13" height="13" viewBox="0 0 13 13" fill="none" xmlns="http://www.w3.org/2000/svg">
<path d="M9.31966 0.261806C9.77779 -0.111889 10.4537 -0.0858257 10.8809 0.341884L12.3815 1.84253L12.4616 1.93108C12.8355 2.38921 12.8086 3.0644 12.3809 3.49162L12.3815 3.49227L3.49219 12.3809L3.49284 12.3816C3.27346 12.602 2.9757 12.724 2.66732 12.724H0.5C0.223858 12.724 0 12.5002 0 12.224V10.0567C5.08296e-05 9.74842 0.122043 9.45054 0.342448 9.23121L9.23112 0.341884L9.31966 0.261806ZM10.1732 1.04892C10.1169 0.992522 10.0298 0.98468 9.96484 1.02743L9.93815 1.04892L8.45833 2.52873L10.1947 4.26506L11.6751 2.78459L11.696 2.7592C11.7325 2.70423 11.7328 2.632 11.696 2.57626L11.6745 2.54957L10.1732 1.04892ZM1 11.724H2.66732C2.71205 11.724 2.75394 11.7065 2.78385 11.6765L9.48763 4.97209L7.7513 3.23576L1.04883 9.93889L1.04818 9.94019C1.01813 9.97008 1.00005 10.0119 1 10.0567V11.724Z" fill="#203A3B"/>
</svg>
