<svg width="24" height="24" viewBox="0 0 24 24" fill="none" xmlns="http://www.w3.org/2000/svg">
<path fill-rule="evenodd" clip-rule="evenodd" d="M23.5205 12.2741C23.5205 11.4232 23.4441 10.605 23.3023 9.81958H12.0005V14.4614H18.4587C18.1805 15.9614 17.335 17.2323 16.0641 18.0832V21.0941H19.9423C22.2114 19.005 23.5205 15.9287 23.5205 12.2741Z" fill="#4285F4"/>
<path fill-rule="evenodd" clip-rule="evenodd" d="M11.9995 23.9998C15.2395 23.9998 17.9559 22.9252 19.9413 21.0925L16.0632 18.0816C14.9886 18.8016 13.6141 19.2271 11.9995 19.2271C8.87406 19.2271 6.22861 17.1161 5.28497 14.2798H1.27588V17.3889C3.25042 21.3107 7.30861 23.9998 11.9995 23.9998Z" fill="#34A853"/>
<path fill-rule="evenodd" clip-rule="evenodd" d="M5.28594 14.2804C5.04594 13.5604 4.90958 12.7913 4.90958 12.0004C4.90958 11.2095 5.04594 10.4404 5.28594 9.72042V6.61133H1.27685C0.464125 8.23133 0.000488281 10.0641 0.000488281 12.0004C0.000488281 13.9368 0.464125 15.7695 1.27685 17.3895L5.28594 14.2804Z" fill="#FBBC05"/>
<path fill-rule="evenodd" clip-rule="evenodd" d="M11.9995 4.77346C13.7613 4.77346 15.3432 5.37891 16.5868 6.56801L20.0286 3.12619C17.9504 1.18982 15.2341 0.000732422 11.9995 0.000732422C7.30861 0.000732422 3.25042 2.68982 1.27588 6.61164L5.28497 9.72073C6.22861 6.88437 8.87406 4.77346 11.9995 4.77346Z" fill="#EA4335"/>
</svg>
