<svg width="373" height="140" viewBox="0 0 373 140" fill="none" xmlns="http://www.w3.org/2000/svg">
<path d="M62.48 0.0100002C62.28 0.0100002 62.08 0.0199992 61.87 0.0499992C26.6 4.14 0 34.04 0 69.59C0 105.14 26.61 135.05 61.89 139.14C64.79 139.48 67.33 137.4 67.66 134.57C67.82 133.19 67.44 131.83 66.57 130.74C65.71 129.65 64.47 128.96 63.09 128.8C33.06 125.32 10.41 99.87 10.41 69.59C10.41 39.31 33.05 13.87 63.07 10.38C65.92 10.05 67.97 7.46 67.64 4.61C67.33 1.99 65.12 0 62.48 0" fill="#009A4F"/>
<path d="M77.5704 0.0100098C74.9304 0.0100098 72.7204 1.99001 72.4104 4.62001C72.0804 7.47001 74.1304 10.06 76.9804 10.39C107 13.88 129.65 39.33 129.65 69.6C129.65 99.87 107 125.33 76.9704 128.81C75.5904 128.97 74.3504 129.66 73.4904 130.75C72.6304 131.84 72.2404 133.2 72.4004 134.58C72.7204 137.4 75.2804 139.49 78.1704 139.15C113.45 135.07 140.06 105.17 140.06 69.6C140.06 34.03 113.46 4.15001 78.1904 0.0500088C77.9904 0.0200088 77.7904 0.0100098 77.5804 0.0100098" fill="#009A4F"/>
<path d="M25.04 72.46C24.73 72.46 24.42 72.49 24.12 72.54C22.75 72.78 21.56 73.55 20.76 74.69C19.96 75.83 19.66 77.21 19.91 78.58C24.24 102.88 45.31 120.51 70.02 120.51C94.73 120.51 115.8 102.88 120.13 78.58C120.63 75.76 118.75 73.05 115.92 72.55C115.62 72.5 115.31 72.47 115 72.47C112.48 72.47 110.33 74.28 109.88 76.76C106.44 96.08 89.67 110.11 70.02 110.11C50.37 110.11 33.6 96.08 30.16 76.76C29.71 74.27 27.57 72.47 25.04 72.47" fill="#009A4F"/>
<path d="M70.0204 18.6699C57.7904 18.6699 45.9604 23.0799 36.7204 31.0699C27.5704 38.9799 21.5304 49.8899 19.7004 61.7799C19.2604 64.6199 21.2204 67.2799 24.0504 67.7099C24.3104 67.7499 24.5804 67.7699 24.8504 67.7699C27.3904 67.7699 29.6004 65.8699 29.9804 63.3599C31.4404 53.8999 36.2504 45.2299 43.5204 38.9299C50.8704 32.5699 60.2804 29.0699 70.0204 29.0699C79.7604 29.0699 89.1604 32.5699 96.5104 38.9299C103.79 45.2299 108.6 53.8999 110.06 63.3499C110.44 65.8699 112.65 67.7599 115.19 67.7599C115.46 67.7599 115.72 67.7399 115.99 67.6999C117.36 67.4899 118.57 66.7599 119.39 65.6399C120.21 64.5199 120.55 63.1399 120.34 61.7699C118.51 49.8799 112.47 38.9699 103.32 31.0599C94.0904 23.0599 82.2604 18.6599 70.0204 18.6599" fill="#009A4F"/>
<path d="M70.24 38.1C52.88 38.1 38.75 52.23 38.75 69.59C38.75 86.95 52.88 101.09 70.24 101.09C78.03 101.09 85.5 98.24 91.27 93.05C92.3 92 92.88 90.57 92.88 89.07C92.88 85.9 90.3 83.32 87.13 83.32C85.67 83.32 84.27 83.87 83.2 84.87L83.05 85C79.45 87.98 74.91 89.63 70.24 89.63C59.2 89.63 50.22 80.64 50.22 69.6C50.22 58.56 59.2 49.57 70.24 49.57C78.66 49.57 86.23 54.9 89.09 62.82L89.47 63.86L64.82 63.88C61.85 64.11 59.53 66.62 59.53 69.6C59.53 72.76 62.1 75.34 65.27 75.34C65.31 75.34 65.35 75.34 65.4 75.34H65.48H95.56C98.72 75.34 101.29 72.77 101.29 69.61C101.29 61.18 98.09 53.27 92.28 47.35C86.44 41.4 78.62 38.12 70.25 38.12" fill="#009A4F"/>
<path d="M190.26 53.49C190.26 57.26 190.54 60.82 192.08 64.87H181.19C182.73 60.82 182.87 57.26 182.87 53.49V42.18H168.84V53.49C168.84 57.26 168.98 60.82 170.58 64.87H159.62C161.09 60.82 161.43 57.26 161.43 53.49V30.88C161.43 27.11 161.08 23.55 159.62 19.5H170.51C168.98 23.55 168.84 27.11 168.84 30.88V39.95H182.87V30.88C182.87 27.11 182.73 23.55 181.19 19.5H192.08C190.61 23.55 190.26 27.11 190.26 30.88V53.49Z" fill="#009A4F"/>
<path d="M222.7 47.2099H203.86C204.42 54.4699 207.35 59.0699 214.89 59.0699C218.03 59.0699 220.05 58.2299 222.36 56.5599C221.66 61.1699 217.96 65.6999 211.05 65.6999C202.47 65.6999 196.53 58.5799 196.53 47.7599C196.53 37.9199 201.21 29.1299 210.98 29.1299C219.29 29.1299 222.7 35.2699 222.7 42.1799V47.1999V47.2099ZM215.24 42.1099C215.24 34.8499 213.08 31.7099 209.93 31.7099C206.09 31.7099 203.79 36.1099 203.79 44.3399V45.2499H212.65C214.81 45.2499 215.23 44.8999 215.23 42.1099H215.24Z" fill="#009A4F"/>
<path d="M245.96 64.8599C245.33 63.6699 244.84 61.7899 244.7 60.1099C242.33 63.5299 238.56 65.4099 234.65 65.4099C229.76 65.4099 226.48 62.4099 226.48 57.9399C226.48 51.7999 232.97 49.6299 237.23 47.8899C242.12 46.0099 244.63 44.6099 244.63 43.4899V41.7499C244.63 36.9999 243.86 31.6299 238.98 31.6299C236.33 31.6299 234.72 33.2399 234.72 36.3799C234.72 38.0599 235.14 40.2899 236.19 42.7299L227.95 42.3099V40.2199C227.95 34.7099 231.58 29.1899 240.44 29.1899C250.56 29.1899 251.95 36.5199 251.95 42.5899V53.1999C251.95 58.3599 252.09 60.8799 253.77 64.8499H245.95L245.96 64.8599ZM244.63 58.4399V50.8999C244.63 49.5699 244.42 49.2899 242.19 49.2899C235.84 49.2899 233.81 51.0999 233.81 55.0799C233.81 58.1499 235.56 60.3799 239.04 60.3799C241.13 60.3799 243.02 59.6099 244.62 58.4299L244.63 58.4399Z" fill="#009A4F"/>
<path d="M259.16 54.3301V30.3201C259.16 26.0601 259.02 21.9401 257.55 18.7301C260.62 17.8901 263.41 16.7801 266.41 15.3101V54.3201C266.41 58.0901 266.62 61.0201 268.09 64.8601H257.48C258.95 61.0201 259.16 58.0901 259.16 54.3201V54.3301Z" fill="#009A4F"/>
<path d="M284.89 59.5599C286.36 59.5599 287.68 58.9299 289.43 57.6799C289.43 61.6599 285.94 65.6399 280.92 65.6399C276.59 65.6399 274.08 62.4999 274.08 56.1499V32.0699H270.17L270.52 29.9099H274.08C274.01 28.0299 273.94 26.4899 273.73 23.8399C276.38 22.8599 278.89 21.6099 281.34 20.0699V29.9099H289.43L289.08 32.0699H281.33V54.2599C281.33 55.7999 281.33 59.5599 284.89 59.5599Z" fill="#009A4F"/>
<path d="M320.32 64.86H312.08C311.38 61.72 311.17 57.74 311.17 53.69V40.36C311.17 36.24 309.84 34.2901 306.84 34.2901C305.16 34.2901 303 34.9901 300.77 37.7101V54.3201C300.77 58.0901 300.98 61.02 302.45 64.86H291.84C293.31 61.02 293.52 58.0901 293.52 54.3201V30.3101C293.52 26.0501 293.38 21.9301 291.92 18.7201C294.99 17.8801 297.78 16.77 300.78 15.3V35.68C303.43 31.07 307.13 29.26 310.76 29.26C315.44 29.26 318.44 32.2601 318.44 39.0301V53.48C318.44 57.67 318.86 60.81 320.33 64.86H320.32Z" fill="#009A4F"/>
<path d="M352.29 29.8999C349.99 32.5499 348.66 35.6199 346.99 40.7199L338.34 66.3299C334.78 77.0799 332.9 78.8199 326.96 78.8199H324.31L323.82 69.5399C325.98 70.7999 328.01 71.4199 329.75 71.4199C332.68 71.4199 334.7 69.5399 335.75 66.3299L336.66 63.8199H333.17L325.7 40.7199C324.03 35.6999 322.91 32.6899 320.68 29.8999H333.24C332.89 30.7399 332.68 32.1999 332.68 33.9499C332.68 35.9699 332.96 38.2799 333.59 40.3699L338.75 57.3299L344.12 40.3699C344.68 38.6299 344.89 36.5999 344.89 34.7199C344.89 32.6299 344.68 30.8799 344.19 29.8999H352.29Z" fill="#009A4F"/>
<path d="M185.16 109.49L185.02 121.35H159.62C161.09 117.3 161.43 113.74 161.43 109.97V87.36C161.43 83.59 161.08 80.03 159.62 75.98H170.44C169.18 80.03 168.91 83.59 168.91 87.36V109.97C168.91 112.9 168.98 115.69 169.4 118.69H170.45C178.27 118.69 182.11 115.62 185.18 109.48L185.16 109.49Z" fill="#009A4F"/>
<path d="M189.24 77.38C189.24 74.52 191.33 72.29 194.4 72.29C197.47 72.29 199.63 74.52 199.63 77.38C199.63 80.24 197.4 82.48 194.4 82.48C191.4 82.48 189.24 80.25 189.24 77.38ZM190.99 110.95V100.55C190.99 96.5 190.92 92.31 189.39 89.1C192.39 88.12 195.32 87.08 198.25 85.68V110.94C198.25 114.71 198.39 117.29 199.85 121.34H189.38C190.85 117.29 190.98 114.71 190.98 110.94L190.99 110.95Z" fill="#009A4F"/>
<path d="M233.19 86.3899C230.89 89.0399 229.63 92.1799 227.89 97.2099L219.38 121.36H215.4L206.82 97.2099C205.15 92.3899 204.03 89.1099 201.87 86.3899H214.36C214.01 87.2299 213.8 88.6899 213.8 90.4399C213.8 92.4599 214.08 94.8399 214.71 96.8599L219.8 113.33L225.03 96.8599C225.59 95.0499 225.8 93.0899 225.8 91.2799C225.8 89.2599 225.52 87.4399 225.1 86.3899H233.2H233.19Z" fill="#009A4F"/>
<path d="M235.34 77.38C235.34 74.52 237.43 72.29 240.5 72.29C243.57 72.29 245.73 74.52 245.73 77.38C245.73 80.24 243.5 82.48 240.5 82.48C237.5 82.48 235.34 80.25 235.34 77.38ZM237.09 110.95V100.55C237.09 96.5 237.02 92.31 235.49 89.1C238.49 88.12 241.42 87.08 244.35 85.68V110.94C244.35 114.71 244.49 117.29 245.95 121.34H235.48C236.95 117.29 237.08 114.71 237.08 110.94L237.09 110.95Z" fill="#009A4F"/>
<path d="M278.76 121.35H270.52C269.82 118.21 269.61 114.23 269.61 110.18V96.85C269.61 92.73 268.28 90.78 265.28 90.78C263.61 90.78 261.44 91.48 259.21 94.2V110.81C259.21 114.58 259.35 117.51 260.88 121.35H250.34C251.81 117.51 251.94 114.58 251.94 110.81V100.34C251.94 96.08 251.87 92.38 250.34 89.17C252.92 88.05 255.5 86.87 257.88 85.61C258.65 87.15 259.14 90.08 259.21 92.17C261.86 87.56 265.49 85.75 269.19 85.75C273.87 85.75 276.87 88.75 276.87 95.52V109.97C276.87 114.16 277.29 117.3 278.75 121.35H278.76Z" fill="#009A4F"/>
<path d="M313.28 79.41L312.09 88.48C311.11 86.74 309.51 85.69 307.9 85.69C306.5 85.69 305.25 86.46 304.41 88.55C307.13 90.64 308.81 93.92 308.81 97.62C308.81 104.95 303.09 110.67 295.2 110.67C293.73 110.67 292.27 110.46 290.94 110.04C288.99 111.51 288.15 112.76 288.15 113.95C288.15 115.55 290.17 115.55 292.69 115.55H299.81C304.91 115.55 310 115.76 310 122.04C310 129.23 303.37 135.23 294.16 135.23C289.41 135.23 285.02 134.25 280.62 131.32L284.81 124.34C289.35 129.37 294.02 130.76 298.49 130.76C302.96 130.76 305.61 128.81 305.61 126.15C305.61 123.36 303.72 122.31 299.05 122.31H291.23C286.14 122.31 282.86 121.33 282.86 117.7C282.86 114.7 285.51 111.63 288.72 109.19C284.95 107.24 282.37 103.54 282.37 98.72C282.37 91.39 288.23 85.74 296.05 85.74C298.63 85.74 301 86.37 302.96 87.48C304.7 80.57 307.71 78.97 311.06 78.97C312.04 78.97 312.73 79.11 313.29 79.39L313.28 79.41ZM301.34 100.07C301.34 94.7 299.73 88.35 294.92 88.35C291.92 88.35 289.83 90.79 289.83 96.45C289.83 101.4 291.09 108.17 296.18 108.17C299.6 108.17 301.34 105.17 301.34 100.07Z" fill="#009A4F"/>
<path d="M322.86 88.4398H320.33V86.3998H327.71V88.4398H325.18V94.8098H322.85V88.4398H322.86Z" fill="#009A4F"/>
<path d="M328.44 86.3899H330.91L332.92 89.6499L334.93 86.3899H337.4V94.8099H335.08V89.9799L332.93 93.2799H332.88L330.74 90.0099V94.8199H328.45V86.3999L328.44 86.3899Z" fill="#009A4F"/>
</svg>
