<svg width="118" height="45" viewBox="0 0 118 45" fill="none" xmlns="http://www.w3.org/2000/svg">
<path d="M19.7514 0.0031613C19.6882 0.0031613 19.6249 0.00632222 19.5585 0.0158059C8.40888 1.30875 0 10.7608 0 21.999C0 33.2372 8.41204 42.6924 19.5649 43.9854C20.4816 44.0929 21.2846 43.4353 21.3889 42.5407C21.4395 42.1045 21.3193 41.6745 21.0443 41.33C20.7725 40.9854 20.3805 40.7673 19.9442 40.7167C10.451 39.6166 3.29084 31.5712 3.29084 21.999C3.29084 12.4268 10.4479 4.38463 19.9379 3.28136C20.8388 3.17704 21.4869 2.35828 21.3826 1.45733C21.2846 0.629085 20.5859 0 19.7514 0" fill="#203A3B"/>
<path d="M24.5224 0.00292969C23.6879 0.00292969 22.9892 0.628853 22.8912 1.46026C22.7869 2.36121 23.435 3.17997 24.3359 3.28429C33.8259 4.38756 40.9861 12.4329 40.9861 22.0019C40.9861 31.571 33.8259 39.6195 24.3328 40.7196C23.8965 40.7702 23.5045 40.9883 23.2326 41.3329C22.9608 41.6775 22.8375 42.1074 22.8881 42.5436C22.9892 43.4351 23.7985 44.0958 24.7121 43.9883C35.8649 42.6985 44.277 33.2464 44.277 22.0019C44.277 10.7574 35.8681 1.31168 24.7184 0.0155743C24.6552 0.00609061 24.592 0.00292969 24.5256 0.00292969" fill="#203A3B"/>
<path d="M7.91642 22.9062C7.81842 22.9062 7.72042 22.9157 7.62559 22.9315C7.1925 23.0074 6.81631 23.2508 6.56341 23.6112C6.31052 23.9716 6.21568 24.4078 6.29471 24.8409C7.66352 32.5227 14.3242 38.096 22.1356 38.096C29.947 38.096 36.6078 32.5227 37.9766 24.8409C38.1346 23.9495 37.5403 23.0928 36.6457 22.9347C36.5509 22.9189 36.4529 22.9094 36.3549 22.9094C35.5582 22.9094 34.8786 23.4816 34.7363 24.2656C33.6489 30.3731 28.3475 34.8083 22.1356 34.8083C15.9238 34.8083 10.6224 30.3731 9.53497 24.2656C9.39272 23.4784 8.71621 22.9094 7.91642 22.9094" fill="#203A3B"/>
<path d="M22.1358 5.9016C18.2696 5.9016 14.5299 7.2957 11.6089 9.82153C8.71639 12.3221 6.80701 15.771 6.2285 19.5297C6.08941 20.4275 6.70901 21.2683 7.60364 21.4043C7.68583 21.4169 7.77118 21.4232 7.85653 21.4232C8.65949 21.4232 9.35812 20.8226 9.47825 20.0291C9.93979 17.0386 11.4603 14.2978 13.7586 12.3063C16.0821 10.2957 19.0568 9.18928 22.1358 9.18928C25.2149 9.18928 28.1864 10.2957 30.5099 12.3063C32.8113 14.2978 34.3319 17.0386 34.7934 20.026C34.9135 20.8226 35.6122 21.4201 36.4151 21.4201C36.5005 21.4201 36.5827 21.4138 36.668 21.4011C37.1011 21.3347 37.4836 21.104 37.7428 20.7499C38.002 20.3958 38.1095 19.9596 38.0431 19.5265C37.4646 15.7678 35.5553 12.3189 32.6627 9.81837C29.7449 7.28938 26.0052 5.89844 22.1358 5.89844" fill="#203A3B"/>
<path d="M22.2047 12.0439C16.7168 12.0439 12.25 16.5108 12.25 21.9987C12.25 27.4866 16.7168 31.9565 22.2047 31.9565C24.6673 31.9565 27.0288 31.0556 28.8528 29.4149C29.1784 29.083 29.3617 28.6309 29.3617 28.1567C29.3617 27.1546 28.5462 26.339 27.544 26.339C27.0825 26.339 26.6399 26.5129 26.3017 26.829L26.2543 26.8701C25.1162 27.8122 23.681 28.3338 22.2047 28.3338C18.7147 28.3338 15.8759 25.4918 15.8759 22.0018C15.8759 18.5118 18.7147 15.6699 22.2047 15.6699C24.8665 15.6699 27.2595 17.3548 28.1636 19.8585L28.2838 20.1873L20.4913 20.1936C19.5524 20.2663 18.819 21.0598 18.819 22.0018C18.819 23.0008 19.6315 23.8164 20.6336 23.8164C20.6462 23.8164 20.6589 23.8164 20.6747 23.8164H20.7H30.209C31.2079 23.8164 32.0203 23.0039 32.0203 22.005C32.0203 19.3401 31.0088 16.8395 29.1721 14.9681C27.3259 13.0872 24.8538 12.0503 22.2079 12.0503" fill="#203A3B"/>
<path d="M60.145 16.9091C60.145 18.1009 60.2335 19.2263 60.7203 20.5066H57.2778C57.7646 19.2263 57.8088 18.1009 57.8088 16.9091V13.3337H53.3736V16.9091C53.3736 18.1009 53.4179 19.2263 53.9237 20.5066H50.459C50.9237 19.2263 51.0312 18.1009 51.0312 16.9091V9.76155C51.0312 8.56976 50.9205 7.44436 50.459 6.16406H53.9016C53.4179 7.44436 53.3736 8.56976 53.3736 9.76155V12.6288H57.8088V9.76155C57.8088 8.56976 57.7646 7.44436 57.2778 6.16406H60.7203C60.2556 7.44436 60.145 8.56976 60.145 9.76155V16.9091Z" fill="#203A3B"/>
<path d="M70.4019 14.9235H64.4461C64.6231 17.2186 65.5494 18.6727 67.9329 18.6727C68.9256 18.6727 69.5641 18.4072 70.2944 17.8793C70.0731 19.3366 68.9034 20.7686 66.719 20.7686C64.0067 20.7686 62.1289 18.5178 62.1289 15.0974C62.1289 11.9867 63.6084 9.20801 66.6969 9.20801C69.3239 9.20801 70.4019 11.149 70.4019 13.3334V14.9204V14.9235ZM68.0436 13.3113C68.0436 11.0162 67.3607 10.0236 66.365 10.0236C65.151 10.0236 64.424 11.4145 64.424 14.0162V14.3039H67.2248C67.9076 14.3039 68.0404 14.1933 68.0404 13.3113H68.0436Z" fill="#203A3B"/>
<path d="M77.7538 20.5037C77.5546 20.1275 77.3997 19.5332 77.3555 19.0021C76.6063 20.0832 75.4145 20.6775 74.1784 20.6775C72.6326 20.6775 71.5957 19.7292 71.5957 18.3161C71.5957 16.3751 73.6473 15.6891 74.994 15.139C76.5399 14.5447 77.3333 14.1022 77.3333 13.7481V13.198C77.3333 11.6965 77.0899 9.99888 75.5472 9.99888C74.7095 9.99888 74.2006 10.5078 74.2006 11.5005C74.2006 12.0316 74.3333 12.7365 74.6653 13.5078L72.0604 13.3751V12.7144C72.0604 10.9725 73.2079 9.22754 76.0088 9.22754C79.208 9.22754 79.6474 11.5447 79.6474 13.4636V16.8177C79.6474 18.4489 79.6916 19.2455 80.2227 20.5005H77.7506L77.7538 20.5037ZM77.3333 18.4741V16.0906C77.3333 15.6701 77.267 15.5816 76.562 15.5816C74.5546 15.5816 73.9129 16.1538 73.9129 17.412C73.9129 18.3825 74.4661 19.0874 75.5662 19.0874C76.2269 19.0874 76.8244 18.844 77.3302 18.471L77.3333 18.4741Z" fill="#203A3B"/>
<path d="M81.9276 17.175V9.58485C81.9276 8.23817 81.8833 6.93574 81.4186 5.92098C82.3891 5.65544 83.2711 5.30454 84.2195 4.83984V17.1718C84.2195 18.3636 84.2858 19.2898 84.7505 20.5037H81.3965C81.8612 19.2898 81.9276 18.3636 81.9276 17.1718V17.175Z" fill="#203A3B"/>
<path d="M90.0596 18.8284C90.5243 18.8284 90.9416 18.6293 91.4948 18.2341C91.4948 19.4923 90.3915 20.7505 88.8046 20.7505C87.4358 20.7505 86.6423 19.7578 86.6423 17.7505V10.1382H85.4062L85.5169 9.45538H86.6423C86.6202 8.86107 86.598 8.37424 86.5316 7.53651C87.3694 7.22671 88.1628 6.83156 88.9373 6.34473V9.45538H91.4948L91.3841 10.1382H88.9342V17.153C88.9342 17.6398 88.9342 18.8284 90.0596 18.8284Z" fill="#203A3B"/>
<path d="M101.261 20.503H98.6561C98.4349 19.5104 98.3685 18.2522 98.3685 16.9719V12.758C98.3685 11.4556 97.948 10.8391 96.9997 10.8391C96.4686 10.8391 95.7857 11.0604 95.0808 11.9203V17.1711C95.0808 18.3629 95.1472 19.2891 95.6119 20.503H92.2578C92.7225 19.2891 92.7889 18.3629 92.7889 17.1711V9.58095C92.7889 8.23426 92.7446 6.93184 92.2831 5.91708C93.2536 5.65154 94.1356 5.30064 95.084 4.83594V11.2785C95.9217 9.8212 97.0913 9.24902 98.2389 9.24902C99.7183 9.24902 100.667 10.1974 100.667 12.3375V16.9055C100.667 18.2301 100.799 19.2227 101.264 20.503H101.261Z" fill="#203A3B"/>
<path d="M111.368 9.45215C110.641 10.2899 110.22 11.2604 109.692 12.8726L106.958 20.9685C105.832 24.3668 105.238 24.9169 103.36 24.9169H102.523L102.368 21.9833C103.05 22.3816 103.692 22.5776 104.242 22.5776C105.168 22.5776 105.807 21.9833 106.139 20.9685L106.427 20.175H105.323L102.962 12.8726C102.434 11.2857 102.08 10.3341 101.375 9.45215H105.346C105.235 9.71769 105.168 10.1792 105.168 10.7324C105.168 11.371 105.257 12.1013 105.456 12.762L107.087 18.1234L108.785 12.762C108.962 12.2119 109.028 11.5702 109.028 10.9759C109.028 10.3152 108.962 9.76195 108.807 9.45215H111.368Z" fill="#203A3B"/>
<path d="M58.5328 34.6118L58.4885 38.3611H50.459C50.9237 37.0808 51.0312 35.9554 51.0312 34.7636V27.616C51.0312 26.4243 50.9205 25.2989 50.459 24.0186H53.8794C53.4811 25.2989 53.3958 26.4243 53.3958 27.616V34.7636C53.3958 35.6898 53.4179 36.5718 53.5507 37.5202H53.8826C56.3547 37.5202 57.5686 36.5497 58.5391 34.6087L58.5328 34.6118Z" fill="#203A3B"/>
<path d="M59.8223 24.4616C59.8223 23.5575 60.483 22.8525 61.4535 22.8525C62.424 22.8525 63.1068 23.5575 63.1068 24.4616C63.1068 25.3657 62.4018 26.0738 61.4535 26.0738C60.5051 26.0738 59.8223 25.3689 59.8223 24.4616ZM60.3755 35.0739V31.7862C60.3755 30.5059 60.3534 29.1813 59.8697 28.1666C60.8181 27.8568 61.7443 27.528 62.6705 27.0854V35.0707C62.6705 36.2625 62.7148 37.0781 63.1763 38.3584H59.8665C60.3312 37.0781 60.3723 36.2625 60.3723 35.0707L60.3755 35.0739Z" fill="#203A3B"/>
<path d="M73.7174 27.3096C72.9903 28.1473 72.592 29.1399 72.0419 30.73L69.3517 38.3644H68.0936L65.3812 30.73C64.8533 29.2063 64.4992 28.1694 63.8164 27.3096H67.7648C67.6541 27.5751 67.5878 28.0367 67.5878 28.5899C67.5878 29.2284 67.6763 29.9808 67.8754 30.6194L69.4845 35.8259L71.1378 30.6194C71.3149 30.0472 71.3812 29.4276 71.3812 28.8554C71.3812 28.2168 71.2927 27.6415 71.16 27.3096H73.7205H73.7174Z" fill="#203A3B"/>
<path d="M74.3965 24.4616C74.3965 23.5575 75.0572 22.8525 76.0277 22.8525C76.9982 22.8525 77.681 23.5575 77.681 24.4616C77.681 25.3657 76.9761 26.0738 76.0277 26.0738C75.0793 26.0738 74.3965 25.3689 74.3965 24.4616ZM74.9497 35.0739V31.7862C74.9497 30.5059 74.9276 29.1813 74.4439 28.1666C75.3923 27.8568 76.3185 27.528 77.2448 27.0854V35.0707C77.2448 36.2625 77.289 37.0781 77.7506 38.3584H74.4407C74.9054 37.0781 74.9465 36.2625 74.9465 35.0707L74.9497 35.0739Z" fill="#203A3B"/>
<path d="M88.1229 38.3617H85.518C85.2967 37.3691 85.2304 36.1109 85.2304 34.8306V30.6167C85.2304 29.3143 84.8099 28.6978 83.8616 28.6978C83.3336 28.6978 82.6476 28.9191 81.9427 29.779V35.0298C81.9427 36.2216 81.9869 37.1478 82.4706 38.3617H79.1387C79.6034 37.1478 79.6445 36.2216 79.6445 35.0298V31.72C79.6445 30.3733 79.6223 29.2036 79.1387 28.1889C79.9543 27.8348 80.7699 27.4618 81.5222 27.0635C81.7657 27.5503 81.9206 28.4765 81.9427 29.1372C82.7804 27.6799 83.9279 27.1077 85.0976 27.1077C86.5771 27.1077 87.5254 28.0561 87.5254 30.1963V34.7642C87.5254 36.0888 87.6582 37.0814 88.1197 38.3617H88.1229Z" fill="#203A3B"/>
<path d="M99.0355 25.103L98.6593 27.9702C98.3495 27.4201 97.8437 27.0882 97.3348 27.0882C96.8922 27.0882 96.4971 27.3316 96.2315 27.9923C97.0914 28.653 97.6225 29.6899 97.6225 30.8596C97.6225 33.1767 95.8142 34.985 93.32 34.985C92.8553 34.985 92.3938 34.9186 91.9733 34.7858C91.3569 35.2505 91.0913 35.6457 91.0913 36.0219C91.0913 36.5277 91.7299 36.5277 92.5265 36.5277H94.7773C96.3896 36.5277 97.9986 36.594 97.9986 38.5793C97.9986 40.8522 95.9027 42.749 92.9912 42.749C91.4897 42.749 90.1019 42.4392 88.7109 41.5129L90.0355 39.3064C91.4707 40.8965 92.947 41.3359 94.3601 41.3359C95.7731 41.3359 96.6109 40.7195 96.6109 39.8786C96.6109 38.9966 96.0134 38.6646 94.5371 38.6646H92.065C90.4559 38.6646 89.4191 38.3548 89.4191 37.2073C89.4191 36.2589 90.2568 35.2885 91.2715 34.5171C90.0798 33.9007 89.2642 32.731 89.2642 31.2073C89.2642 28.8901 91.1166 27.104 93.5887 27.104C94.4043 27.104 95.1535 27.3032 95.7731 27.6541C96.3232 25.4697 97.2747 24.9639 98.3337 24.9639C98.6435 24.9639 98.8617 25.0081 99.0387 25.0966L99.0355 25.103ZM95.261 31.6341C95.261 29.9365 94.7521 27.9291 93.2315 27.9291C92.2831 27.9291 91.6224 28.7004 91.6224 30.4897C91.6224 32.0545 92.0207 34.1947 93.6298 34.1947C94.711 34.1947 95.261 33.2463 95.261 31.6341Z" fill="#203A3B"/>
<path d="M102.175 27.7113H101.375V27.0664H103.708V27.7113H102.908V29.725H102.172V27.7113H102.175Z" fill="#203A3B"/>
<path d="M103.938 27.0635H104.718L105.354 28.094L105.989 27.0635H106.77V29.7252H106.037V28.1984L105.357 29.2416H105.341L104.665 28.2078V29.7284H103.941V27.0666L103.938 27.0635Z" fill="#203A3B"/>
</svg>
