<svg width="304" height="297" viewBox="0 0 304 297" fill="none" xmlns="http://www.w3.org/2000/svg">
<path d="M78.5997 182.44C78.5997 185.97 78.8597 189.3 80.2997 193.09H70.1097C71.5497 189.3 71.6797 185.97 71.6797 182.44V171.86H58.5497V182.44C58.5497 185.97 58.6797 189.3 60.1797 193.09H49.9297C51.2997 189.3 51.6297 185.97 51.6297 182.44V161.28C51.6297 157.75 51.2997 154.42 49.9297 150.63H60.1197C58.6797 154.42 58.5497 157.75 58.5497 161.28V169.77H71.6797V161.28C71.6797 157.75 71.5497 154.42 70.1097 150.63H80.2997C78.9297 154.42 78.5997 157.75 78.5997 161.28V182.44Z" fill="#009A4F"/>
<path d="M108.96 176.56H91.3297C91.8497 183.35 94.5997 187.66 101.65 187.66C104.59 187.66 106.48 186.88 108.64 185.31C107.99 189.62 104.53 193.87 98.0597 193.87C90.0297 193.87 84.4697 187.21 84.4697 177.09C84.4697 167.88 88.8497 159.65 97.9897 159.65C105.76 159.65 108.96 165.4 108.96 171.86V176.56ZM101.97 171.79C101.97 165 99.9397 162.06 97.0097 162.06C93.4197 162.06 91.2597 166.17 91.2597 173.88V174.73H99.5497C101.58 174.73 101.97 174.4 101.97 171.79Z" fill="#009A4F"/>
<path d="M130.72 193.08C130.13 191.97 129.68 190.21 129.54 188.64C127.32 191.84 123.79 193.6 120.13 193.6C115.56 193.6 112.49 190.79 112.49 186.61C112.49 180.86 118.56 178.84 122.55 177.21C127.12 175.45 129.47 174.14 129.47 173.1V171.47C129.47 167.03 128.75 162 124.18 162C121.7 162 120.2 163.5 120.2 166.44C120.2 168.01 120.59 170.1 121.57 172.38L113.86 171.99V170.03C113.86 164.87 117.26 159.71 125.55 159.71C135.02 159.71 136.32 166.57 136.32 172.25V182.18C136.32 187.01 136.45 189.36 138.02 193.09H130.71L130.72 193.08ZM129.48 187.08V180.03C129.48 178.79 129.28 178.53 127.19 178.53C121.25 178.53 119.35 180.23 119.35 183.95C119.35 186.82 120.98 188.91 124.25 188.91C126.21 188.91 127.97 188.19 129.48 187.08Z" fill="#009A4F"/>
<path d="M143.08 183.22V160.75C143.08 156.77 142.95 152.91 141.58 149.91C144.45 149.13 147.07 148.08 149.87 146.71V183.22C149.87 186.75 150.07 189.49 151.44 193.08H141.51C142.88 189.49 143.08 186.75 143.08 183.22Z" fill="#009A4F"/>
<path d="M167.15 188.12C168.52 188.12 169.76 187.53 171.39 186.36C171.39 190.08 168.13 193.8 163.42 193.8C159.37 193.8 157.02 190.86 157.02 184.92V162.39H153.36L153.69 160.37H157.02C156.95 158.61 156.89 157.17 156.69 154.69C159.17 153.78 161.52 152.6 163.81 151.16V160.37H171.38L171.05 162.39H163.8V183.16C163.8 184.6 163.8 188.12 167.13 188.12H167.15Z" fill="#009A4F"/>
<path d="M200.31 193.08H192.6C191.95 190.14 191.75 186.42 191.75 182.63V170.16C191.75 166.31 190.51 164.48 187.7 164.48C186.13 164.48 184.11 165.13 182.02 167.68V183.22C182.02 186.75 182.22 189.49 183.59 193.08H173.66C175.03 189.49 175.23 186.75 175.23 183.22V160.75C175.23 156.77 175.1 152.91 173.73 149.91C176.6 149.13 179.22 148.08 182.02 146.71V165.78C184.5 161.47 187.96 159.77 191.36 159.77C195.74 159.77 198.54 162.58 198.54 168.91V182.43C198.54 186.35 198.93 189.29 200.3 193.08H200.31Z" fill="#009A4F"/>
<path d="M230.22 160.37C228.07 162.85 226.82 165.73 225.26 170.49L217.16 194.46C213.83 204.52 212.07 206.15 206.51 206.15H204.03L203.57 197.46C205.59 198.64 207.49 199.22 209.12 199.22C211.86 199.22 213.76 197.46 214.74 194.45L215.59 192.1H212.32L205.33 170.48C203.76 165.78 202.72 162.97 200.63 160.36H212.39C212.06 161.14 211.87 162.52 211.87 164.15C211.87 166.04 212.13 168.2 212.72 170.16L217.55 186.03L222.58 170.16C223.1 168.53 223.3 166.63 223.3 164.87C223.3 162.91 223.1 161.28 222.65 160.36H230.23L230.22 160.37Z" fill="#009A4F"/>
<path d="M73.8297 234.84L73.6997 245.94H49.9297C51.2997 242.15 51.6297 238.82 51.6297 235.29V214.13C51.6297 210.6 51.2997 207.27 49.9297 203.48H60.0497C58.8697 207.27 58.6097 210.6 58.6097 214.13V235.29C58.6097 238.03 58.6797 240.64 59.0697 243.45H60.0497C67.3597 243.45 70.9597 240.58 73.8297 234.83V234.84Z" fill="#009A4F"/>
<path d="M77.6504 204.8C77.6504 202.12 79.6103 200.03 82.4803 200.03C85.3503 200.03 87.3804 202.12 87.3804 204.8C87.3804 207.48 85.2903 209.57 82.4803 209.57C79.6703 209.57 77.6504 207.48 77.6504 204.8ZM79.2804 236.21V226.48C79.2804 222.69 79.2104 218.77 77.7804 215.77C80.5904 214.86 83.3304 213.88 86.0704 212.57V236.21C86.0704 239.74 86.2004 242.15 87.5704 245.94H77.7704C79.1404 242.15 79.2704 239.74 79.2704 236.21H79.2804Z" fill="#009A4F"/>
<path d="M118.78 213.22C116.62 215.7 115.45 218.64 113.82 223.34L105.85 245.94H102.13L94.0999 223.34C92.5299 218.83 91.49 215.76 89.46 213.22H101.15C100.82 214 100.63 215.38 100.63 217.01C100.63 218.9 100.89 221.12 101.48 223.02L106.25 238.43L111.15 223.02C111.67 221.32 111.87 219.49 111.87 217.8C111.87 215.91 111.61 214.21 111.22 213.23H118.8L118.78 213.22Z" fill="#009A4F"/>
<path d="M120.79 204.8C120.79 202.12 122.75 200.03 125.62 200.03C128.49 200.03 130.52 202.12 130.52 204.8C130.52 207.48 128.43 209.57 125.62 209.57C122.81 209.57 120.79 207.48 120.79 204.8ZM122.42 236.21V226.48C122.42 222.69 122.35 218.77 120.92 215.77C123.73 214.86 126.47 213.88 129.21 212.57V236.21C129.21 239.74 129.34 242.15 130.71 245.94H120.91C122.28 242.15 122.41 239.74 122.41 236.21H122.42Z" fill="#009A4F"/>
<path d="M161.41 245.94H153.7C153.05 243 152.85 239.28 152.85 235.49V223.02C152.85 219.17 151.61 217.34 148.8 217.34C147.23 217.34 145.21 217.99 143.12 220.54V236.08C143.12 239.61 143.25 242.35 144.69 245.94H134.83C136.2 242.35 136.33 239.61 136.33 236.08V226.28C136.33 222.3 136.26 218.83 134.83 215.83C137.25 214.78 139.66 213.67 141.88 212.5C142.6 213.94 143.06 216.68 143.12 218.64C145.6 214.33 149 212.63 152.46 212.63C156.84 212.63 159.64 215.44 159.64 221.77V235.29C159.64 239.21 160.03 242.15 161.4 245.94H161.41Z" fill="#009A4F"/>
<path d="M193.72 206.69L192.61 215.18C191.7 213.55 190.19 212.57 188.69 212.57C187.38 212.57 186.21 213.29 185.42 215.25C187.97 217.21 189.53 220.28 189.53 223.74C189.53 230.6 184.18 235.95 176.8 235.95C175.43 235.95 174.06 235.75 172.82 235.36C170.99 236.73 170.21 237.91 170.21 239.02C170.21 240.52 172.1 240.52 174.45 240.52H181.11C185.88 240.52 190.65 240.72 190.65 246.59C190.65 253.32 184.44 258.93 175.82 258.93C171.38 258.93 167.26 258.02 163.15 255.27L167.07 248.74C171.31 253.44 175.69 254.75 179.87 254.75C184.05 254.75 186.53 252.92 186.53 250.44C186.53 247.83 184.77 246.85 180.39 246.85H173.08C168.31 246.85 165.24 245.94 165.24 242.54C165.24 239.73 167.72 236.86 170.73 234.57C167.2 232.74 164.79 229.28 164.79 224.77C164.79 217.91 170.28 212.62 177.59 212.62C180.01 212.62 182.23 213.21 184.05 214.25C185.68 207.78 188.49 206.28 191.63 206.28C192.54 206.28 193.2 206.41 193.72 206.67V206.69ZM182.55 226.02C182.55 220.99 181.05 215.05 176.54 215.05C173.73 215.05 171.77 217.34 171.77 222.63C171.77 227.27 172.95 233.6 177.71 233.6C180.91 233.6 182.54 230.79 182.54 226.02H182.55Z" fill="#009A4F"/>
<path d="M147.16 12.47C226.53 12.47 290.88 76.81 290.88 156.19V284.05H12.48V12.47H147.17M147.16 0H0V296.52H303.34V156.19C303.34 135.11 299.21 114.66 291.06 95.39C283.19 76.79 271.93 60.09 257.59 45.75C243.25 31.41 226.55 20.15 207.95 12.28C188.69 4.13 168.23 0 147.15 0L147.16 0Z" fill="#009A4F"/>
<path d="M202.791 215.23H200.311V213.22H207.561V215.23H205.081V221.49H202.791V215.23Z" fill="#009A4F"/>
<path d="M208.271 213.23H210.69L212.661 216.43L214.63 213.23H217.05V221.5H214.771V216.75L212.661 219.99H212.61L210.51 216.78V221.51H208.271V213.24V213.23Z" fill="#009A4F"/>
</svg>
