<svg width="16" height="17" viewBox="0 0 16 17" fill="none" xmlns="http://www.w3.org/2000/svg">
<path fill-rule="evenodd" clip-rule="evenodd" d="M8.00008 2.3335C7.37231 2.33349 6.79842 2.68818 6.51767 3.24968C6.38983 3.5053 6.12855 3.66681 5.84274 3.66683H5.66675C5.39061 3.66683 5.16675 3.89069 5.16675 4.16683V4.66683H10.8334V4.16683C10.8334 3.89069 10.6096 3.66683 10.3334 3.66683H10.1574C9.87164 3.6668 9.61032 3.50532 9.48249 3.24969C9.20175 2.6882 8.62785 2.3335 8.00008 2.3335ZM5.69602 2.66683C6.16782 1.84544 7.04507 1.33349 8.00008 1.3335C8.95509 1.3335 9.83233 1.84545 10.3041 2.66683H10.3334C10.9865 2.66683 11.5421 3.08423 11.7481 3.66683H12.0001C13.0126 3.66683 13.8334 4.48764 13.8334 5.50016V13.1668C13.8334 14.1794 13.0126 15.0002 12.0001 15.0002H4.00008C2.98756 15.0002 2.16675 14.1794 2.16675 13.1668V5.50016C2.16675 4.48764 2.98756 3.66683 4.00008 3.66683H4.2521C4.45802 3.08423 5.01364 2.66683 5.66675 2.66683H5.69602ZM4.16675 4.66683H4.00008C3.53984 4.66683 3.16675 5.03993 3.16675 5.50016V13.1668C3.16675 13.6271 3.53984 14.0002 4.00008 14.0002H12.0001C12.4603 14.0002 12.8334 13.6271 12.8334 13.1668V5.50016C12.8334 5.03993 12.4603 4.66683 12.0001 4.66683H11.8334V4.8335C11.8334 5.29373 11.4603 5.66683 11.0001 5.66683H5.00008C4.53984 5.66683 4.16675 5.29373 4.16675 4.8335V4.66683ZM4.97986 8.14328C5.17512 7.94801 5.49171 7.94801 5.68697 8.14328L5.6903 8.14661C5.88556 8.34187 5.88556 8.65845 5.6903 8.85372L5.68697 8.85705C5.49171 9.05231 5.17512 9.05231 4.97986 8.85705L4.97653 8.85372C4.78127 8.65845 4.78127 8.34187 4.97653 8.14661L4.97986 8.14328ZM7.33342 8.00016H10.6667C10.9429 8.00016 11.1667 8.22402 11.1667 8.50016C11.1667 8.77631 10.9429 9.00016 10.6667 9.00016H7.33342C7.05727 9.00016 6.83342 8.77631 6.83342 8.50016C6.83342 8.22402 7.05727 8.00016 7.33342 8.00016ZM7.33342 10.6668H10.6667C10.9429 10.6668 11.1667 10.8907 11.1667 11.1668C11.1667 11.443 10.9429 11.6668 10.6667 11.6668H7.33342C7.05727 11.6668 6.83342 11.443 6.83342 11.1668C6.83342 10.8907 7.05727 10.6668 7.33342 10.6668ZM4.97986 10.8099C5.17512 10.6147 5.49171 10.6147 5.68697 10.8099L5.6903 10.8133C5.88556 11.0085 5.88556 11.3251 5.6903 11.5204L5.68697 11.5237C5.49171 11.719 5.17512 11.719 4.97986 11.5237L4.97653 11.5204C4.78127 11.3251 4.78127 11.0085 4.97653 10.8133L4.97986 10.8099Z" fill="#2B2B2B"/>
</svg>
