<svg width="24" height="24" viewBox="0 0 24 24" fill="none" xmlns="http://www.w3.org/2000/svg">
<path fill-rule="evenodd" clip-rule="evenodd" d="M10.7271 3.02704C11.43 2.32379 12.5698 2.32494 13.2727 3.02678L20.1713 9.91495C20.7015 10.4444 21 11.163 21 11.9118V20.7297C21 21.1551 20.6546 21.5 20.2286 21.5H14.5714C14.1454 21.5 13.8 21.1551 13.8 20.7297V16.1082C13.8 15.1153 12.9944 14.3109 12 14.3109C11.0056 14.3109 10.2 15.1153 10.2 16.1082V20.7297C10.2 21.1551 9.85462 21.5 9.42857 21.5H3.77143C3.34538 21.5 3 21.1551 3 20.7297V11.9118C3 11.163 3.29847 10.4444 3.82869 9.91495L10.7271 3.02704Z" fill="#203A3B"/>
</svg>
