<svg width="32" height="32" viewBox="0 0 32 32" fill="none" xmlns="http://www.w3.org/2000/svg">
<path d="M0 4C0 1.79086 1.79086 0 4 0H28C30.2091 0 32 1.79086 32 4V28C32 30.2091 30.2091 32 28 32H4C1.79086 32 0 30.2091 0 28V4Z" fill="#F5EFE8"/>
<path fill-rule="evenodd" clip-rule="evenodd" d="M14.7271 7.4993C15.43 6.83306 16.5698 6.83415 17.2727 7.49905L24.1713 14.0247C24.7015 14.5262 25 15.207 25 15.9164V24.2703C25 24.6733 24.6546 25 24.2286 25H18.5714C18.1454 25 17.8 24.6733 17.8 24.2703V19.892C17.8 18.9513 16.9944 18.1893 16 18.1893C15.0056 18.1893 14.2 18.9513 14.2 19.892V24.2703C14.2 24.6733 13.8546 25 13.4286 25H7.77143C7.34538 25 7 24.6733 7 24.2703V15.9164C7 15.207 7.29847 14.5262 7.82869 14.0247L14.7271 7.4993Z" fill="#BDDADB"/>
<path fill-rule="evenodd" clip-rule="evenodd" d="M14.7271 7.03192C15.43 6.32867 16.5698 6.32982 17.2727 7.03166L24.1713 13.9198C24.7015 14.4493 25 15.1679 25 15.9167V24.7346C25 25.16 24.6546 25.5049 24.2286 25.5049H18.5714C18.1454 25.5049 17.8 25.16 17.8 24.7346V20.1131C17.8 19.1202 16.9944 18.3158 16 18.3158C15.0056 18.3158 14.2 19.1202 14.2 20.1131V24.7346C14.2 25.16 13.8546 25.5049 13.4286 25.5049H7.77143C7.34538 25.5049 7 25.16 7 24.7346V15.9167C7 15.1679 7.29847 14.4493 7.82869 13.9198L14.7271 7.03192ZM16.1817 8.12097C16.0804 8.01983 15.9183 8.02083 15.819 8.12027L8.91965 15.0091C8.67845 15.25 8.54286 15.5769 8.54286 15.9167V23.9644H12.6571V20.1131C12.6571 18.2694 14.1535 16.7753 16 16.7753C17.8465 16.7753 19.3429 18.2694 19.3429 20.1131V23.9644H23.4571V15.9167C23.4571 15.5769 23.3216 15.25 23.0803 15.0091L16.1817 8.12097Z" fill="#203A3B"/>
</svg>
