<svg width="24" height="24" viewBox="0 0 24 24" fill="none" xmlns="http://www.w3.org/2000/svg">
<path fill-rule="evenodd" clip-rule="evenodd" d="M10.7271 3.03192C11.43 2.32867 12.5698 2.32982 13.2727 3.03166L20.1713 9.91984C20.7015 10.4493 21 11.1679 21 11.9167V20.7346C21 21.16 20.6546 21.5049 20.2286 21.5049H14.5714C14.1454 21.5049 13.8 21.16 13.8 20.7346V16.1131C13.8 15.1202 12.9944 14.3158 12 14.3158C11.0056 14.3158 10.2 15.1202 10.2 16.1131V20.7346C10.2 21.16 9.85462 21.5049 9.42857 21.5049H3.77143C3.34538 21.5049 3 21.16 3 20.7346V11.9167C3 11.1679 3.29847 10.4493 3.82869 9.91984L10.7271 3.03192ZM12.1817 4.12097C12.0804 4.01983 11.9183 4.02083 11.819 4.12027L4.91965 11.0091C4.67845 11.25 4.54286 11.5769 4.54286 11.9167V19.9644H8.65714V16.1131C8.65714 14.2694 10.1535 12.7753 12 12.7753C13.8465 12.7753 15.3429 14.2694 15.3429 16.1131V19.9644H19.4571V11.9167C19.4571 11.5769 19.3216 11.25 19.0803 11.0091L12.1817 4.12097Z" fill="#898076"/>
</svg>
