<svg fill="none" height="31" viewBox="0 0 145 31" width="145" xmlns="http://www.w3.org/2000/svg">
    <path
        d="M13.4998 0.110549C13.4568 0.110549 13.4138 0.112698 13.3687 0.119148C5.7855 0.998513 0.0664062 7.42711 0.0664062 15.0705C0.0664062 22.7139 5.78765 29.1446 13.373 30.024C13.9965 30.0971 14.5426 29.6499 14.6135 29.0414C14.6479 28.7447 14.5662 28.4523 14.3792 28.218C14.1943 27.9836 13.9277 27.8352 13.631 27.8008C7.17442 27.0526 2.30459 21.5808 2.30459 15.0705C2.30459 8.56018 7.17227 3.0905 13.6267 2.34013C14.2394 2.26918 14.6802 1.71232 14.6092 1.09956C14.5426 0.536255 14.0674 0.108398 13.4998 0.108398"
        fill="#009A4F" />
    <path
        d="M16.7441 0.110596C16.1765 0.110596 15.7014 0.536302 15.6347 1.10176C15.5638 1.71452 16.0045 2.27138 16.6173 2.34233C23.0717 3.09269 27.9415 8.56453 27.9415 15.0727C27.9415 21.5808 23.0717 27.0548 16.6151 27.803C16.3184 27.8374 16.0518 27.9858 15.8669 28.2201C15.682 28.4545 15.5982 28.7469 15.6326 29.0436C15.7014 29.6499 16.2518 30.0993 16.8731 30.0262C24.4584 29.149 30.1797 22.7204 30.1797 15.0727C30.1797 7.42501 24.4606 1.00071 16.8774 0.119196C16.8344 0.112746 16.7914 0.110596 16.7463 0.110596"
        fill="#009A4F" />
    <path
        d="M5.45052 15.6875C5.38387 15.6875 5.31722 15.6939 5.25272 15.7047C4.95816 15.7563 4.70231 15.9219 4.53031 16.167C4.3583 16.4121 4.2938 16.7088 4.34755 17.0033C5.27852 22.2279 9.80864 26.0184 15.1214 26.0184C20.4341 26.0184 24.9642 22.2279 25.8952 17.0033C26.0027 16.397 25.5985 15.8144 24.99 15.7068C24.9255 15.6961 24.8589 15.6896 24.7922 15.6896C24.2504 15.6896 23.7882 16.0788 23.6914 16.612C22.9518 20.7659 19.3462 23.7824 15.1214 23.7824C10.8966 23.7824 7.29095 20.7659 6.55134 16.612C6.45459 16.0767 5.99448 15.6896 5.45052 15.6896"
        fill="#009A4F" />
    <path
        d="M15.1213 4.12251C12.4918 4.12251 9.94833 5.07068 7.96169 6.78855C5.99441 8.48923 4.69579 10.8349 4.30234 13.3913C4.20773 14.0019 4.62914 14.5738 5.2376 14.6663C5.2935 14.6749 5.35155 14.6792 5.4096 14.6792C5.95571 14.6792 6.43087 14.2707 6.51257 13.731C6.82648 11.6971 7.86064 9.833 9.42372 8.47848C11.004 7.11106 13.0272 6.35855 15.1213 6.35855C17.2154 6.35855 19.2365 7.11106 20.8167 8.47848C22.382 9.833 23.4161 11.6971 23.73 13.7289C23.8117 14.2707 24.2869 14.677 24.833 14.677C24.8911 14.677 24.947 14.6727 25.005 14.6641C25.2996 14.619 25.5597 14.462 25.736 14.2212C25.9123 13.9804 25.9854 13.6837 25.9403 13.3892C25.5468 10.8328 24.2482 8.48708 22.2809 6.7864C20.2964 5.06638 17.7529 4.12036 15.1213 4.12036"
        fill="#009A4F" />
    <path
        d="M15.1679 8.30005C11.4355 8.30005 8.39746 11.338 8.39746 15.0705C8.39746 18.803 11.4355 21.8431 15.1679 21.8431C16.8428 21.8431 18.4489 21.2304 19.6894 20.1145C19.9109 19.8887 20.0356 19.5813 20.0356 19.2588C20.0356 18.5772 19.4809 18.0225 18.7993 18.0225C18.4854 18.0225 18.1844 18.1408 17.9544 18.3558L17.9221 18.3837C17.1481 19.0244 16.172 19.3792 15.1679 19.3792C12.7943 19.3792 10.8636 17.4463 10.8636 15.0727C10.8636 12.699 12.7943 10.7661 15.1679 10.7661C16.9782 10.7661 18.6058 11.9121 19.2207 13.6149L19.3024 13.8385L14.0026 13.8428C13.364 13.8923 12.8652 14.4319 12.8652 15.0727C12.8652 15.7521 13.4178 16.3068 14.0994 16.3068C14.108 16.3068 14.1166 16.3068 14.1273 16.3068H14.1445H20.6118C21.2912 16.3068 21.8438 15.7542 21.8438 15.0748C21.8438 13.2623 21.1558 11.5617 19.9066 10.2888C18.651 9.00956 16.9696 8.30435 15.1701 8.30435"
        fill="#009A4F" />
    <path
        d="M140.671 8.04325H139.939V7.45337H142.073V8.04325H141.342V9.88518H140.668V8.04325H140.671Z"
        fill="#009A4F" />
    <path
        d="M142.284 7.45044H142.998L143.58 8.39309L144.161 7.45044H144.875V9.88514H144.204V8.48851L143.582 9.44273H143.568L142.949 8.49719V9.88803H142.287V7.45333L142.284 7.45044Z"
        fill="#009A4F" />
    <path
        d="M101.115 18.207L101.074 21.6364H93.7295C94.1546 20.4653 94.2529 19.4359 94.2529 18.3458V11.8079C94.2529 10.7178 94.1517 9.68842 93.7295 8.51733H96.8582C96.4938 9.68842 96.4158 10.7178 96.4158 11.8079V18.3458C96.4158 19.193 96.436 19.9997 96.5574 20.8672H96.8611C99.1223 20.8672 100.233 19.9795 101.12 18.2041L101.115 18.207Z"
        fill="#009A4F" />
    <path
        d="M102.294 8.92225C102.294 8.09526 102.898 7.45044 103.786 7.45044C104.674 7.45044 105.298 8.09526 105.298 8.92225C105.298 9.74924 104.653 10.3969 103.786 10.3969C102.919 10.3969 102.294 9.75213 102.294 8.92225ZM102.8 18.6292V15.622C102.8 14.4509 102.78 13.2394 102.337 12.3112C103.205 12.0278 104.052 11.7271 104.899 11.3222V18.6263C104.899 19.7165 104.94 20.4625 105.362 21.6336H102.334C102.759 20.4625 102.797 19.7165 102.797 18.6263L102.8 18.6292Z"
        fill="#009A4F" />
    <path
        d="M115.003 11.5276C114.338 12.2939 113.973 13.2018 113.47 14.6563L111.009 21.6394H109.859L107.378 14.6563C106.895 13.2625 106.571 12.3141 105.946 11.5276H109.558C109.457 11.7705 109.396 12.1926 109.396 12.6987C109.396 13.2828 109.477 13.971 109.659 14.5551L111.131 19.3175L112.643 14.5551C112.805 14.0317 112.866 13.4649 112.866 12.9416C112.866 12.3575 112.785 11.8312 112.663 11.5276H115.006H115.003Z"
        fill="#009A4F" />
    <path
        d="M115.625 8.92225C115.625 8.09526 116.229 7.45044 117.117 7.45044C118.005 7.45044 118.629 8.09526 118.629 8.92225C118.629 9.74924 117.985 10.3969 117.117 10.3969C116.25 10.3969 115.625 9.75213 115.625 8.92225ZM116.131 18.6292V15.622C116.131 14.4509 116.111 13.2394 115.668 12.3112C116.536 12.0278 117.383 11.7271 118.23 11.3222V18.6263C118.23 19.7165 118.271 20.4625 118.693 21.6336H115.665C116.091 20.4625 116.128 19.7165 116.128 18.6263L116.131 18.6292Z"
        fill="#009A4F" />
    <path
        d="M128.18 21.6365H125.797C125.595 20.7285 125.534 19.5777 125.534 18.4066V14.5521C125.534 13.3608 125.149 12.7969 124.282 12.7969C123.799 12.7969 123.172 12.9994 122.527 13.7859V18.5887C122.527 19.6789 122.567 20.5261 123.01 21.6365H119.962C120.387 20.5261 120.425 19.6789 120.425 18.5887V15.5613C120.425 14.3295 120.404 13.2596 119.962 12.3314C120.708 12.0075 121.454 11.6663 122.142 11.302C122.365 11.7473 122.506 12.5945 122.527 13.1989C123.293 11.8659 124.343 11.3425 125.413 11.3425C126.766 11.3425 127.633 12.21 127.633 14.1675V18.3459C127.633 19.5574 127.755 20.4654 128.177 21.6365H128.18Z"
        fill="#009A4F" />
    <path
        d="M138.162 9.50931L137.818 12.132C137.534 11.6288 137.072 11.3252 136.606 11.3252C136.201 11.3252 135.84 11.5479 135.597 12.1522C136.383 12.7565 136.869 13.705 136.869 14.7749C136.869 16.8944 135.215 18.5483 132.934 18.5483C132.509 18.5483 132.086 18.4876 131.702 18.3662C131.138 18.7912 130.895 19.1527 130.895 19.4968C130.895 19.9594 131.479 19.9594 132.208 19.9594H134.267C135.741 19.9594 137.213 20.0202 137.213 21.8361C137.213 23.9151 135.296 25.65 132.633 25.65C131.259 25.65 129.99 25.3667 128.718 24.5194L129.929 22.5011C131.242 23.9556 132.592 24.3575 133.885 24.3575C135.178 24.3575 135.944 23.7936 135.944 23.0245C135.944 22.2177 135.397 21.9141 134.047 21.9141H131.786C130.314 21.9141 129.365 21.6308 129.365 20.5811C129.365 19.7136 130.132 18.8259 131.06 18.1204C129.97 17.5565 129.224 16.4867 129.224 15.0929C129.224 12.9734 130.918 11.3397 133.179 11.3397C133.925 11.3397 134.611 11.5218 135.178 11.8428C135.681 9.84473 136.551 9.38208 137.52 9.38208C137.803 9.38208 138.003 9.42256 138.165 9.50353L138.162 9.50931ZM134.709 15.4833C134.709 13.9305 134.244 12.0944 132.853 12.0944C131.985 12.0944 131.381 12.7999 131.381 14.4365C131.381 15.8679 131.745 17.8255 133.217 17.8255C134.206 17.8255 134.709 16.958 134.709 15.4833Z"
        fill="#009A4F" />
    <path
        d="M44.2631 18.3402C44.2631 19.4303 44.344 20.4597 44.7893 21.6308H41.6404C42.0857 20.4597 42.1262 19.4303 42.1262 18.3402V15.0698H38.0693V18.3402C38.0693 19.4303 38.1098 20.4597 38.5725 21.6308H35.4033C35.8284 20.4597 35.9267 19.4303 35.9267 18.3402V11.8023C35.9267 10.7122 35.8255 9.6828 35.4033 8.51172H38.5522C38.1098 9.6828 38.0693 10.7122 38.0693 11.8023V14.425H42.1262V11.8023C42.1262 10.7122 42.0857 9.6828 41.6404 8.51172H44.7893C44.3643 9.6828 44.2631 10.7122 44.2631 11.8023V18.3402Z"
        fill="#009A4F" />
    <path
        d="M53.6434 16.5243H48.1957C48.3576 18.6236 49.2048 19.9537 51.3851 19.9537C52.293 19.9537 52.8771 19.7108 53.5451 19.228C53.3427 20.561 52.2728 21.8708 50.2747 21.8708C47.7938 21.8708 46.0762 19.812 46.0762 16.6834C46.0762 13.8381 47.4294 11.2964 50.2545 11.2964C52.6574 11.2964 53.6434 13.0718 53.6434 15.0699V16.5214V16.5243ZM51.4863 15.0496C51.4863 12.9504 50.8617 12.0424 49.9509 12.0424C48.8405 12.0424 48.1754 13.3147 48.1754 15.6945V15.9576H50.7374C51.362 15.9576 51.4834 15.8564 51.4834 15.0496H51.4863Z"
        fill="#009A4F" />
    <path
        d="M60.3691 21.6279C60.1869 21.2838 60.0452 20.7402 60.0048 20.2544C59.3195 21.2434 58.2293 21.787 57.0987 21.787C55.6848 21.787 54.7363 20.9195 54.7363 19.627C54.7363 17.8516 56.613 17.2241 57.8448 16.721C59.2587 16.1773 59.9845 15.7725 59.9845 15.4487V14.9455C59.9845 13.572 59.7619 12.0193 58.3508 12.0193C57.5845 12.0193 57.119 12.4848 57.119 13.3928C57.119 13.8785 57.2404 14.5234 57.544 15.2289L55.1614 15.1075V14.5031C55.1614 12.9099 56.211 11.3137 58.773 11.3137C61.6992 11.3137 62.1011 13.4332 62.1011 15.1884V18.2564C62.1011 19.7484 62.1416 20.4771 62.6274 21.625H60.3662L60.3691 21.6279ZM59.9845 19.7716V17.5913C59.9845 17.2067 59.9238 17.1258 59.279 17.1258C57.4428 17.1258 56.8558 17.6491 56.8558 18.8C56.8558 19.6877 57.3619 20.3325 58.3681 20.3325C58.9725 20.3325 59.519 20.1099 59.9816 19.7687L59.9845 19.7716Z"
        fill="#009A4F" />
    <path
        d="M64.186 18.5829V11.6403C64.186 10.4085 64.1455 9.21716 63.7204 8.28896C64.6081 8.04607 65.4149 7.72511 66.2824 7.30005V18.58C66.2824 19.6702 66.3431 20.5174 66.7681 21.6278H63.7002C64.1253 20.5174 64.186 19.6702 64.186 18.58V18.5829Z"
        fill="#009A4F" />
    <path
        d="M71.6255 20.0953C72.0506 20.0953 72.4323 19.9131 72.9383 19.5517C72.9383 20.7025 71.9291 21.8534 70.4776 21.8534C69.2255 21.8534 68.4997 20.9454 68.4997 19.1093V12.1464H67.3691L67.4703 11.5218H68.4997C68.4795 10.9782 68.4593 10.5329 68.3985 9.76663C69.1648 9.48326 69.8906 9.12181 70.599 8.67651V11.5218H72.9383L72.8371 12.1464H70.5961V18.5628C70.5961 19.0081 70.5961 20.0953 71.6255 20.0953Z"
        fill="#009A4F" />
    <path
        d="M81.8709 21.6277H79.4883C79.2859 20.7198 79.2251 19.5689 79.2251 18.3978V14.5434C79.2251 13.3521 78.8406 12.7882 77.9731 12.7882C77.4873 12.7882 76.8627 12.9906 76.2179 13.7771V18.58C76.2179 19.6701 76.2786 20.5174 76.7037 21.6277H73.6357C74.0608 20.5174 74.1215 19.6701 74.1215 18.58V11.6374C74.1215 10.4056 74.081 9.21423 73.6589 8.28604C74.5466 8.04314 75.3533 7.72218 76.2208 7.29712V13.1901C76.9871 11.8571 78.057 11.3337 79.1066 11.3337C80.4598 11.3337 81.3273 12.2012 81.3273 14.1588V18.3371C81.3273 19.5487 81.4488 20.4566 81.8738 21.6277H81.8709Z"
        fill="#009A4F" />
    <path
        d="M91.1149 11.519C90.4498 12.2853 90.0652 13.173 89.5823 14.6477L87.0811 22.053C86.0517 25.1615 85.5081 25.6646 83.7905 25.6646H83.0242L82.8826 22.9812C83.5071 23.3455 84.0941 23.5248 84.5973 23.5248C85.4445 23.5248 86.0286 22.9812 86.3322 22.053L86.5953 21.3272H85.5862L83.4262 14.6477C82.9433 13.1962 82.6194 12.3258 81.9746 11.519H85.6064C85.5052 11.7619 85.4445 12.1841 85.4445 12.6901C85.4445 13.2742 85.5255 13.9422 85.7076 14.5465L87.1997 19.4506L88.7524 14.5465C88.9144 14.0434 88.9751 13.4564 88.9751 12.9128C88.9751 12.3084 88.9144 11.8024 88.7727 11.519H91.1149Z"
        fill="#009A4F" />
</svg>
