<svg width="501" height="104" viewBox="0 0 501 104" fill="none" xmlns="http://www.w3.org/2000/svg">
<path d="M46.4572 0.00743571C46.3085 0.00743571 46.1598 0.0148705 46.0037 0.0371771C19.7785 3.07831 0 25.3106 0 51.7439C0 78.1772 19.786 100.417 46.0185 103.458C48.1748 103.711 50.0635 102.164 50.3088 100.06C50.4278 99.0339 50.1453 98.0227 49.4984 97.2122C48.8589 96.4017 47.9369 95.8887 46.9108 95.7697C24.5819 93.1821 7.74039 74.2587 7.74039 51.7439C7.74039 29.2291 24.5744 10.3131 46.8959 7.71809C49.0151 7.47271 50.5393 5.54691 50.294 3.42778C50.0635 1.47967 48.4202 0 46.4572 0" fill="#203A3B"/>
<path d="M57.6774 0.00738525C55.7145 0.00738525 54.0712 1.47962 53.8407 3.43517C53.5953 5.55429 55.1196 7.4801 57.2387 7.72547C79.5602 10.3205 96.4017 29.2439 96.4017 51.7513C96.4017 74.2587 79.5602 93.1895 57.2313 95.7771C56.2052 95.8961 55.2832 96.4091 54.6437 97.2196C54.0043 98.0301 53.7143 99.0413 53.8333 100.067C54.0712 102.164 55.9747 103.718 58.1236 103.465C84.3561 100.432 104.142 78.1995 104.142 51.7513C104.142 25.3031 84.3636 3.0857 58.1384 0.0371267C57.9897 0.0148201 57.841 0.00738525 57.6849 0.00738525" fill="#203A3B"/>
<path d="M18.619 53.8779C18.3885 53.8779 18.158 53.9002 17.9349 53.9373C16.9162 54.1158 16.0314 54.6883 15.4366 55.536C14.8417 56.3836 14.6186 57.4097 14.8045 58.4284C18.0241 76.4968 33.6908 89.6056 52.064 89.6056C70.4372 89.6056 86.1039 76.4968 89.3235 58.4284C89.6953 56.3316 88.2974 54.3166 86.1931 53.9448C85.9701 53.9076 85.7395 53.8853 85.509 53.8853C83.6353 53.8853 82.0367 55.2311 81.7021 57.0751C79.1442 71.4406 66.6748 81.8727 52.064 81.8727C37.4532 81.8727 24.9838 71.4406 22.426 57.0751C22.0914 55.2237 20.5002 53.8853 18.619 53.8853" fill="#203A3B"/>
<path d="M52.0636 13.8821C42.9699 13.8821 34.1737 17.1612 27.3032 23.1022C20.4997 28.9837 16.0087 37.0959 14.648 45.9367C14.3208 48.0484 15.7782 50.0263 17.8824 50.346C18.0757 50.3757 18.2765 50.3906 18.4773 50.3906C20.3659 50.3906 22.0091 48.9779 22.2917 47.1115C23.3773 40.0775 26.9538 33.6309 32.3594 28.9465C37.8245 24.2175 44.8214 21.6151 52.0636 21.6151C59.3058 21.6151 66.2952 24.2175 71.7603 28.9465C77.1734 33.6309 80.7499 40.0775 81.8355 47.1041C82.118 48.9779 83.7613 50.3832 85.6499 50.3832C85.8506 50.3832 86.044 50.3683 86.2447 50.3386C87.2634 50.1824 88.1631 49.6396 88.7728 48.8068C89.3825 47.9741 89.6353 46.948 89.4792 45.9293C88.1185 37.0884 83.6274 28.9763 76.8239 23.0948C69.9609 17.1463 61.1647 13.8747 52.0636 13.8747" fill="#203A3B"/>
<path d="M52.2275 28.3293C39.3194 28.3293 28.813 38.8358 28.813 51.7438C28.813 64.6519 39.3194 75.1658 52.2275 75.1658C58.0198 75.1658 63.5741 73.0467 67.8644 69.1876C68.6303 68.4069 69.0615 67.3436 69.0615 66.2283C69.0615 63.8712 67.1432 61.9528 64.7861 61.9528C63.7005 61.9528 62.6595 62.3618 61.8639 63.1053L61.7524 63.202C59.0756 65.4178 55.6999 66.6447 52.2275 66.6447C44.0187 66.6447 37.3415 59.9601 37.3415 51.7513C37.3415 43.5425 44.0187 36.8579 52.2275 36.8579C58.4882 36.8579 64.1169 40.821 66.2435 46.71L66.526 47.4833L48.1974 47.4982C45.9891 47.6692 44.264 49.5355 44.264 51.7513C44.264 54.1009 46.175 56.0193 48.532 56.0193C48.5618 56.0193 48.5915 56.0193 48.6287 56.0193H48.6882H71.0543C73.4039 56.0193 75.3148 54.1083 75.3148 51.7587C75.3148 45.4906 72.9355 39.6091 68.6154 35.2072C64.2731 30.7831 58.4585 28.3442 52.2349 28.3442" fill="#203A3B"/>
<path d="M486.259 27.4412H483.729V25.4012H491.109V27.4412H488.579V33.8112H486.249V27.4412H486.259Z" fill="#203A3B"/>
<path d="M491.839 25.3912H494.309L496.319 28.6512L498.329 25.3912H500.799V33.8112H498.479V28.9812L496.329 32.2812H496.279L494.139 29.0112V33.8212H491.849V25.4012L491.839 25.3912Z" fill="#203A3B"/>
<path d="M349.458 62.5912L349.318 74.4512H323.918C325.388 70.4012 325.728 66.8412 325.728 63.0712V40.4612C325.728 36.6912 325.378 33.1312 323.918 29.0812H334.738C333.478 33.1312 333.208 36.6912 333.208 40.4612V63.0712C333.208 66.0012 333.278 68.7912 333.698 71.7912H334.748C342.568 71.7912 346.408 68.7212 349.478 62.5812L349.458 62.5912Z" fill="#203A3B"/>
<path d="M353.538 30.4812C353.538 27.6212 355.628 25.3912 358.698 25.3912C361.768 25.3912 363.928 27.6212 363.928 30.4812C363.928 33.3412 361.698 35.5812 358.698 35.5812C355.698 35.5812 353.538 33.3512 353.538 30.4812ZM355.288 64.0512V53.6512C355.288 49.6012 355.218 45.4112 353.688 42.2012C356.688 41.2212 359.618 40.1812 362.548 38.7812V64.0412C362.548 67.8112 362.688 70.3912 364.148 74.4412H353.678C355.148 70.3912 355.278 67.8112 355.278 64.0412L355.288 64.0512Z" fill="#203A3B"/>
<path d="M397.488 39.4912C395.188 42.1412 393.928 45.2812 392.188 50.3112L383.678 74.4612H379.698L371.118 50.3112C369.448 45.4912 368.328 42.2112 366.168 39.4912H378.658C378.308 40.3312 378.098 41.7912 378.098 43.5412C378.098 45.5612 378.378 47.9412 379.008 49.9612L384.098 66.4312L389.328 49.9612C389.888 48.1512 390.098 46.1912 390.098 44.3812C390.098 42.3612 389.818 40.5412 389.398 39.4912H397.498H397.488Z" fill="#203A3B"/>
<path d="M399.639 30.4812C399.639 27.6212 401.729 25.3912 404.799 25.3912C407.869 25.3912 410.029 27.6212 410.029 30.4812C410.029 33.3412 407.799 35.5812 404.799 35.5812C401.799 35.5812 399.639 33.3512 399.639 30.4812ZM401.389 64.0512V53.6512C401.389 49.6012 401.319 45.4112 399.789 42.2012C402.789 41.2212 405.719 40.1812 408.649 38.7812V64.0412C408.649 67.8112 408.789 70.3912 410.249 74.4412H399.779C401.249 70.3912 401.379 67.8112 401.379 64.0412L401.389 64.0512Z" fill="#203A3B"/>
<path d="M443.059 74.4512H434.819C434.119 71.3112 433.909 67.3312 433.909 63.2812V49.9512C433.909 45.8312 432.579 43.8812 429.579 43.8812C427.909 43.8812 425.739 44.5812 423.509 47.3012V63.9112C423.509 67.6812 423.649 70.6112 425.179 74.4512H414.639C416.109 70.6112 416.239 67.6812 416.239 63.9112V53.4412C416.239 49.1812 416.169 45.4812 414.639 42.2712C417.219 41.1512 419.799 39.9712 422.179 38.7112C422.949 40.2512 423.439 43.1812 423.509 45.2712C426.159 40.6612 429.789 38.8512 433.489 38.8512C438.169 38.8512 441.169 41.8512 441.169 48.6212V63.0712C441.169 67.2612 441.589 70.4012 443.049 74.4512H443.059Z" fill="#203A3B"/>
<path d="M477.578 32.5112L476.388 41.5812C475.408 39.8412 473.808 38.7912 472.198 38.7912C470.798 38.7912 469.548 39.5612 468.708 41.6512C471.428 43.7412 473.108 47.0212 473.108 50.7212C473.108 58.0512 467.388 63.7712 459.498 63.7712C458.028 63.7712 456.568 63.5612 455.238 63.1412C453.288 64.6112 452.448 65.8612 452.448 67.0512C452.448 68.6512 454.468 68.6512 456.988 68.6512H464.108C469.208 68.6512 474.298 68.8612 474.298 75.1412C474.298 82.3312 467.668 88.3312 458.458 88.3312C453.708 88.3312 449.318 87.3512 444.918 84.4212L449.108 77.4412C453.648 82.4712 458.318 83.8612 462.788 83.8612C467.258 83.8612 469.908 81.9112 469.908 79.2512C469.908 76.4612 468.018 75.4112 463.348 75.4112H455.528C450.438 75.4112 447.158 74.4312 447.158 70.8012C447.158 67.8012 449.808 64.7312 453.018 62.2912C449.248 60.3412 446.668 56.6412 446.668 51.8212C446.668 44.4912 452.528 38.8412 460.348 38.8412C462.928 38.8412 465.298 39.4712 467.258 40.5812C468.998 33.6712 472.008 32.0712 475.358 32.0712C476.338 32.0712 477.028 32.2112 477.588 32.4912L477.578 32.5112ZM465.638 53.1712C465.638 47.8012 464.028 41.4512 459.218 41.4512C456.218 41.4512 454.128 43.8912 454.128 49.5512C454.128 54.5012 455.388 61.2712 460.478 61.2712C463.898 61.2712 465.638 58.2712 465.638 53.1712Z" fill="#203A3B"/>
<path d="M152.847 63.0512C152.847 66.8212 153.127 70.3812 154.667 74.4312H143.777C145.317 70.3812 145.457 66.8212 145.457 63.0512V51.7412H131.427V63.0512C131.427 66.8212 131.567 70.3812 133.167 74.4312H122.207C123.677 70.3812 124.017 66.8212 124.017 63.0512V40.4412C124.017 36.6712 123.667 33.1112 122.207 29.0612H133.097C131.567 33.1112 131.427 36.6712 131.427 40.4412V49.5112H145.457V40.4412C145.457 36.6712 145.317 33.1112 143.777 29.0612H154.667C153.197 33.1112 152.847 36.6712 152.847 40.4412V63.0512Z" fill="#203A3B"/>
<path d="M185.287 56.7712H166.447C167.007 64.0312 169.937 68.6312 177.477 68.6312C180.617 68.6312 182.637 67.7912 184.947 66.1212C184.247 70.7312 180.547 75.2612 173.637 75.2612C165.057 75.2612 159.117 68.1412 159.117 57.3212C159.117 47.4812 163.797 38.6912 173.567 38.6912C181.877 38.6912 185.287 44.8312 185.287 51.7412V56.7612V56.7712ZM177.827 51.6712C177.827 44.4112 175.667 41.2712 172.517 41.2712C168.677 41.2712 166.377 45.6712 166.377 53.9012V54.8112H175.237C177.397 54.8112 177.817 54.4612 177.817 51.6712H177.827Z" fill="#203A3B"/>
<path d="M208.547 74.4212C207.917 73.2312 207.427 71.3512 207.287 69.6712C204.917 73.0912 201.147 74.9712 197.237 74.9712C192.347 74.9712 189.067 71.9712 189.067 67.5012C189.067 61.3612 195.557 59.1912 199.817 57.4512C204.707 55.5712 207.217 54.1712 207.217 53.0512V51.3112C207.217 46.5612 206.447 41.1912 201.567 41.1912C198.917 41.1912 197.307 42.8012 197.307 45.9412C197.307 47.6212 197.727 49.8512 198.777 52.2912L190.537 51.8712V49.7812C190.537 44.2712 194.167 38.7512 203.027 38.7512C213.147 38.7512 214.537 46.0812 214.537 52.1512V62.7612C214.537 67.9212 214.677 70.4412 216.357 74.4112H208.537L208.547 74.4212ZM207.217 68.0012V60.4612C207.217 59.1312 207.007 58.8512 204.777 58.8512C198.427 58.8512 196.397 60.6612 196.397 64.6412C196.397 67.7112 198.147 69.9412 201.627 69.9412C203.717 69.9412 205.607 69.1712 207.207 67.9912L207.217 68.0012Z" fill="#203A3B"/>
<path d="M221.747 63.8912V39.8812C221.747 35.6212 221.607 31.5012 220.137 28.2912C223.207 27.4512 225.997 26.3412 228.997 24.8712V63.8812C228.997 67.6512 229.207 70.5812 230.677 74.4212H220.067C221.537 70.5812 221.747 67.6512 221.747 63.8812V63.8912Z" fill="#203A3B"/>
<path d="M247.477 69.1212C248.947 69.1212 250.267 68.4912 252.017 67.2412C252.017 71.2212 248.527 75.2012 243.507 75.2012C239.177 75.2012 236.667 72.0612 236.667 65.7112V41.6312H232.757L233.107 39.4712H236.667C236.597 37.5912 236.527 36.0512 236.317 33.4012C238.967 32.4212 241.477 31.1712 243.927 29.6312V39.4712H252.017L251.667 41.6312H243.917V63.8212C243.917 65.3612 243.917 69.1212 247.477 69.1212Z" fill="#203A3B"/>
<path d="M282.907 74.4212H274.667C273.967 71.2812 273.757 67.3012 273.757 63.2512V49.9212C273.757 45.8012 272.427 43.8512 269.427 43.8512C267.747 43.8512 265.587 44.5512 263.357 47.2712V63.8812C263.357 67.6512 263.567 70.5812 265.037 74.4212H254.427C255.897 70.5812 256.107 67.6512 256.107 63.8812V39.8712C256.107 35.6112 255.967 31.4912 254.507 28.2812C257.577 27.4412 260.367 26.3312 263.367 24.8612V45.2412C266.017 40.6312 269.717 38.8212 273.347 38.8212C278.027 38.8212 281.027 41.8212 281.027 48.5912V63.0412C281.027 67.2312 281.447 70.3712 282.917 74.4212H282.907Z" fill="#203A3B"/>
<path d="M314.877 39.4612C312.577 42.1112 311.247 45.1812 309.577 50.2812L300.927 75.8912C297.367 86.6412 295.487 88.3812 289.547 88.3812H286.897L286.407 79.1012C288.567 80.3612 290.597 80.9812 292.337 80.9812C295.267 80.9812 297.287 79.1012 298.337 75.8912L299.247 73.3812H295.757L288.287 50.2812C286.617 45.2612 285.497 42.2512 283.267 39.4612H295.827C295.477 40.3012 295.267 41.7612 295.267 43.5112C295.267 45.5312 295.547 47.8412 296.177 49.9312L301.337 66.8912L306.707 49.9312C307.267 48.1912 307.477 46.1612 307.477 44.2812C307.477 42.1912 307.267 40.4412 306.777 39.4612H314.877Z" fill="#203A3B"/>
</svg>
