<svg width="24" height="24" viewBox="0 0 24 24" fill="none" xmlns="http://www.w3.org/2000/svg">
<path fill-rule="evenodd" clip-rule="evenodd" d="M0.46967 0.46967C0.762563 0.176777 1.23744 0.176777 1.53033 0.46967L6.58157 5.52091C6.58703 5.52621 6.59243 5.5316 6.59776 5.5371L10.4075 9.34681C10.4092 9.34848 10.4108 9.35016 10.4125 9.35185L14.6481 13.5874C14.6498 13.5891 14.6515 13.5909 14.6533 13.5926L18.4616 17.4009C18.467 17.4062 18.4724 17.4116 18.4778 17.4171L23.5303 22.4697C23.8232 22.7626 23.8232 23.2374 23.5303 23.5303C23.2374 23.8232 22.7626 23.8232 22.4697 23.5303L17.859 18.9196C16.131 20.0776 14.1014 20.7157 12.0123 20.7499L12 20.7501V20.75C8.20037 20.75 5.26586 18.5802 3.32785 16.513C2.352 15.4721 1.60624 14.434 1.10435 13.6569C0.852934 13.2676 0.661492 12.9419 0.531865 12.7114C0.467023 12.5962 0.417564 12.5046 0.383723 12.4406C0.3668 12.4087 0.353774 12.3836 0.344676 12.3659L0.333974 12.3449L0.330837 12.3387L0.329823 12.3367L0.329455 12.336C0.32931 12.3357 0.32918 12.3354 1 12L0.32918 12.3354C0.220196 12.1174 0.223908 11.8601 0.339133 11.6454C1.49869 9.48444 3.0602 7.56802 4.93709 5.99775L0.46967 1.53033C0.176777 1.23744 0.176777 0.762563 0.46967 0.46967ZM6.0023 7.06296C4.32935 8.44128 2.9232 10.1157 1.85457 12.0033C1.9709 12.2089 2.14145 12.4979 2.3644 12.8431C2.83126 13.566 3.523 14.5279 4.42215 15.487C6.23299 17.4186 8.79639 19.2477 11.9939 19.25C13.6917 19.2211 15.3436 18.7292 16.7744 17.8351L14.0819 15.1426C13.8843 15.2815 13.6732 15.4014 13.4514 15.5002C12.9914 15.7052 12.4948 15.8154 11.9913 15.8242C11.4878 15.8331 10.9877 15.7405 10.5207 15.5519C10.0538 15.3633 9.62961 15.0826 9.27352 14.7265C8.91742 14.3704 8.6367 13.9462 8.44809 13.4793C8.25949 13.0123 8.16687 12.5122 8.17575 12.0087C8.18463 11.5052 8.29484 11.0086 8.4998 10.5486C8.59862 10.3268 8.71849 10.1157 8.85744 9.9181L6.0023 7.06296ZM9.94528 11.0059C9.91828 11.0559 9.89315 11.107 9.86995 11.1591C9.74697 11.4351 9.68085 11.733 9.67552 12.0351C9.67019 12.3372 9.72576 12.6373 9.83892 12.9175C9.95209 13.1977 10.1205 13.4522 10.3342 13.6658C10.5478 13.8795 10.8023 14.0479 11.0825 14.1611C11.3627 14.2742 11.6627 14.3298 11.9649 14.3245C12.267 14.3192 12.5649 14.253 12.8409 14.13C12.893 14.1069 12.9441 14.0817 12.9941 14.0547L9.94528 11.0059ZM11.9982 4.75C11.3494 4.74847 10.7027 4.82239 10.0709 4.97026C9.66762 5.06467 9.26414 4.81425 9.16974 4.41093C9.07533 4.00762 9.32575 3.60414 9.72906 3.50974C10.4737 3.33544 11.2361 3.24827 12.0008 3.25C12.0012 3.25 12.0015 3.25 12.0018 3.25L12 4V3.25C12.0003 3.25 12.0006 3.25 12.0008 3.25C15.8001 3.25032 18.7343 5.41998 20.6722 7.48704C21.648 8.52795 22.3938 9.56598 22.8957 10.3431C23.1471 10.7324 23.3385 11.0581 23.4681 11.2886C23.533 11.4038 23.5824 11.4954 23.6163 11.5594C23.6332 11.5913 23.6462 11.6164 23.6553 11.6341L23.666 11.6551L23.6692 11.6613L23.6702 11.6633L23.6705 11.664C23.6707 11.6643 23.6708 11.6646 23 12L22.3386 11.6464C22.2756 11.7642 22.2114 11.8812 22.1458 11.9974C22.0295 11.7917 21.8588 11.5025 21.6356 11.1569C21.1687 10.434 20.477 9.47205 19.5778 8.51296C17.7659 6.58017 15.2004 4.75 12 4.75L11.9982 4.75ZM22.1458 11.9974C21.6048 12.9568 20.9756 13.864 20.2661 14.7071C19.9994 15.0241 20.0402 15.4972 20.3571 15.7639C20.6741 16.0306 21.1472 15.9898 21.4139 15.6729C22.2765 14.6477 23.0298 13.5352 23.6614 12.3536C23.7761 12.139 23.7796 11.8822 23.6708 11.6646L23 12C22.3292 12.3354 22.3293 12.3356 22.3294 12.3358L22.3281 12.3333L22.3213 12.32C22.3148 12.3074 22.3045 12.2876 22.2905 12.2609C22.2623 12.2077 22.219 12.1274 22.1608 12.0239C22.1559 12.0153 22.1509 12.0064 22.1458 11.9974Z" fill="#203A3B"/>
</svg>
