<svg width="40" height="40" viewBox="0 0 40 40" fill="none" xmlns="http://www.w3.org/2000/svg">
<path d="M17.0879 24.5813H11.2513V30.8346C11.2513 32.4463 12.5578 33.7545 14.1696 33.7545C15.7811 33.7541 17.0879 32.4461 17.0879 30.8346V24.5813ZM11.2513 22.0813H17.0879V14.578H11.2513V22.0813ZM26.2611 13.3313C26.2611 11.3885 24.7841 9.78956 22.8919 9.59757L22.3809 9.57153C21.7505 9.50751 21.2594 8.97525 21.2594 8.32804C21.2597 7.6379 21.8192 7.07804 22.5094 7.07804L22.8919 7.05851C24.7841 6.86649 26.2611 5.26921 26.2611 3.32642C26.2611 2.63606 26.8207 2.07642 27.5111 2.07642C28.1579 2.0766 28.6902 2.56798 28.7546 3.19784L28.7806 3.71053C28.973 5.60225 30.5702 7.07799 32.5127 7.07804C33.2029 7.07804 33.7624 7.6379 33.7627 8.32804C33.7627 9.0184 33.2031 9.57804 32.5127 9.57804C30.57 9.57809 28.9727 11.0551 28.7806 12.9472L28.7546 13.4583C28.6906 14.0885 28.1582 14.5811 27.5111 14.5813C26.821 14.5813 26.2615 14.0213 26.2611 13.3313ZM27.5111 7.07642C27.1551 7.55046 26.7334 7.97203 26.2594 8.32804C26.7331 8.68372 27.1553 9.10452 27.5111 9.57804C27.8666 9.10485 28.2878 8.68354 28.7611 8.32804C28.2874 7.97221 27.8668 7.55012 27.5111 7.07642ZM19.5879 30.8346C19.5879 33.8268 17.1618 36.2541 14.1696 36.2545C11.2707 36.2545 8.90311 33.9773 8.75781 31.1145L8.7513 30.8346V14.578H8.33301C7.64267 14.578 7.08304 14.0184 7.08301 13.328C7.08301 12.6377 7.64265 12.078 8.33301 12.078H20.0046L20.1331 12.0846C20.7631 12.1489 21.2546 12.6811 21.2546 13.328C21.2545 13.975 20.7631 14.5072 20.1331 14.5715L20.0046 14.578H19.5879V30.8346Z" fill="white"/>
</svg>
