<svg width="32" height="32" viewBox="0 0 32 32" fill="none" xmlns="http://www.w3.org/2000/svg">
<path d="M0 4C0 1.79086 1.79086 0 4 0H28C30.2091 0 32 1.79086 32 4V28C32 30.2091 30.2091 32 28 32H4C1.79086 32 0 30.2091 0 28V4Z" fill="#F5EFE8"/>
<rect x="12" y="7" width="13" height="13" rx="2" fill="#BDDADB"/>
<path d="M19 14.25C19 13.2835 18.2165 12.5 17.25 12.5H9.25C8.2835 12.5 7.5 13.2835 7.5 14.25V22.25C7.5 23.2165 8.2835 24 9.25 24H17.25C18.2165 24 19 23.2165 19 22.25V14.25ZM11 17.25V14.25C11 13.8358 11.3358 13.5 11.75 13.5C12.1642 13.5 12.5 13.8358 12.5 14.25V17.25C12.5 18.2165 13.2835 19 14.25 19H17.25C17.6642 19 18 19.3358 18 19.75C18 20.1642 17.6642 20.5 17.25 20.5H14.25C12.4551 20.5 11 19.0449 11 17.25ZM24 17.25V9.25C24 8.2835 23.2165 7.5 22.25 7.5H14.25C13.2835 7.5 12.5 8.2835 12.5 9.25C12.5 9.66421 12.1642 10 11.75 10C11.3358 10 11 9.66421 11 9.25C11 7.45507 12.4551 6 14.25 6H22.25C24.0449 6 25.5 7.45507 25.5 9.25V17.25C25.5 19.0449 24.0449 20.5 22.25 20.5C21.8358 20.5 21.5 20.1642 21.5 19.75C21.5 19.3358 21.8358 19 22.25 19C23.2165 19 24 18.2165 24 17.25ZM20.5 22.25C20.5 24.0449 19.0449 25.5 17.25 25.5H9.25C7.45507 25.5 6 24.0449 6 22.25V14.25C6 12.4551 7.45507 11 9.25 11H17.25C19.0449 11 20.5 12.4551 20.5 14.25V22.25Z" fill="#203A3B"/>
</svg>
