<svg width="32" height="33" viewBox="0 0 32 33" fill="none" xmlns="http://www.w3.org/2000/svg">
<path d="M15 18.5391H10V22.5391V24.5391L11.5 25.5391H13.5L15 24.5391V22.5391V18.5391Z" fill="#BDDADB"/>
<path d="M14.2529 19.2881H10.751V23.04C10.751 24.0071 11.5349 24.792 12.502 24.792C13.4688 24.7918 14.2529 24.007 14.2529 23.04V19.2881ZM10.751 17.7881H14.2529V13.2861H10.751V17.7881ZM19.7568 12.5381C19.7568 11.3724 18.8707 10.413 17.7354 10.2979L17.4287 10.2822C17.0505 10.2438 16.7559 9.92446 16.7559 9.53613C16.756 9.12205 17.0917 8.78613 17.5059 8.78613L17.7354 8.77441C18.8706 8.6592 19.7568 7.70083 19.7568 6.53516C19.7568 6.12094 20.0926 5.78516 20.5068 5.78516C20.8949 5.78526 21.2143 6.0801 21.2529 6.45801L21.2686 6.76562C21.384 7.90066 22.3423 8.7861 23.5078 8.78613C23.9219 8.78613 24.2577 9.12205 24.2578 9.53613C24.2578 9.95035 23.922 10.2861 23.5078 10.2861C22.3422 10.2862 21.3838 11.1724 21.2686 12.3076L21.2529 12.6143C21.2146 12.9924 20.8951 13.288 20.5068 13.2881C20.0928 13.2881 19.7571 12.9521 19.7568 12.5381ZM20.5068 8.78516C20.2933 9.06958 20.0402 9.32253 19.7559 9.53613C20.04 9.74954 20.2934 10.002 20.5068 10.2861C20.7202 10.0022 20.9729 9.74943 21.2568 9.53613C20.9727 9.32263 20.7203 9.06938 20.5068 8.78516ZM15.7529 23.04C15.7529 24.8354 14.2973 26.2918 12.502 26.292C10.7626 26.292 9.34206 24.9257 9.25488 23.208L9.25098 23.04V13.2861H9C8.5858 13.2861 8.25002 12.9503 8.25 12.5361C8.25 12.1219 8.58579 11.7861 9 11.7861H16.0029L16.0801 11.79C16.458 11.8287 16.7529 12.148 16.7529 12.5361C16.7529 12.9243 16.458 13.2436 16.0801 13.2822L16.0029 13.2861H15.7529V23.04Z" fill="#203A3B"/>
</svg>
