<svg width="32" height="32" viewBox="0 0 32 32" fill="none" xmlns="http://www.w3.org/2000/svg">
<path d="M0 4C0 1.79086 1.79086 0 4 0H28C30.2091 0 32 1.79086 32 4V28C32 30.2091 30.2091 32 28 32H4C1.79086 32 0 30.2091 0 28V4Z" fill="#F5EFE8"/>
<path d="M15 18H10V22V24L11.5 25H13.5L15 24V22V18Z" fill="#BDDADB"/>
<path d="M14.2529 18.7488H10.751V22.5007C10.751 23.4678 11.5349 24.2527 12.502 24.2527C13.4688 24.2525 14.2529 23.4677 14.2529 22.5007V18.7488ZM10.751 17.2488H14.2529V12.7468H10.751V17.2488ZM19.7568 11.9988C19.7568 10.8331 18.8707 9.87373 17.7354 9.75854L17.4287 9.74292C17.0505 9.70451 16.7559 9.38515 16.7559 8.99683C16.756 8.58274 17.0917 8.24683 17.5059 8.24683L17.7354 8.23511C18.8706 8.11989 19.7568 7.16153 19.7568 5.99585C19.7568 5.58164 20.0926 5.24585 20.5068 5.24585C20.8949 5.24596 21.2143 5.54079 21.2529 5.9187L21.2686 6.22632C21.384 7.36135 22.3423 8.2468 23.5078 8.24683C23.9219 8.24683 24.2577 8.58274 24.2578 8.99683C24.2578 9.41104 23.922 9.74683 23.5078 9.74683C22.3422 9.74686 21.3838 10.6331 21.2686 11.7683L21.2529 12.075C21.2146 12.4531 20.8951 12.7487 20.5068 12.7488C20.0928 12.7488 19.7571 12.4128 19.7568 11.9988ZM20.5068 8.24585C20.2933 8.53027 20.0402 8.78322 19.7559 8.99683C20.04 9.21023 20.2934 9.46271 20.5068 9.74683C20.7202 9.46291 20.9729 9.21012 21.2568 8.99683C20.9727 8.78333 20.7203 8.53007 20.5068 8.24585ZM15.7529 22.5007C15.7529 24.2961 14.2973 25.7525 12.502 25.7527C10.7626 25.7527 9.34206 24.3864 9.25488 22.6687L9.25098 22.5007V12.7468H9C8.5858 12.7468 8.25002 12.411 8.25 11.9968C8.25 11.5826 8.58579 11.2468 9 11.2468H16.0029L16.0801 11.2507C16.458 11.2894 16.7529 11.6087 16.7529 11.9968C16.7529 12.385 16.458 12.7043 16.0801 12.7429L16.0029 12.7468H15.7529V22.5007Z" fill="#203A3B"/>
</svg>
