<svg width="24" height="24" viewBox="0 0 24 24" fill="none" xmlns="http://www.w3.org/2000/svg">
<path d="M4.5 17.25C4.91421 17.25 5.25 17.5858 5.25 18C5.25 18.4142 4.91421 18.75 4.5 18.75H3.5C3.08579 18.75 2.75 18.4142 2.75 18C2.75 17.5858 3.08579 17.25 3.5 17.25H4.5ZM20.5 17.25C20.9142 17.25 21.25 17.5858 21.25 18C21.25 18.4142 20.9142 18.75 20.5 18.75H8.5C8.08579 18.75 7.75 18.4142 7.75 18C7.75 17.5858 8.08579 17.25 8.5 17.25H20.5ZM4.5 11.25C4.91421 11.25 5.25 11.5858 5.25 12C5.25 12.4142 4.91421 12.75 4.5 12.75H3.5C3.08579 12.75 2.75 12.4142 2.75 12C2.75 11.5858 3.08579 11.25 3.5 11.25H4.5ZM20.5 11.25C20.9142 11.25 21.25 11.5858 21.25 12C21.25 12.4142 20.9142 12.75 20.5 12.75H8.5C8.08579 12.75 7.75 12.4142 7.75 12C7.75 11.5858 8.08579 11.25 8.5 11.25H20.5ZM4.5 5.25C4.91421 5.25 5.25 5.58579 5.25 6C5.25 6.41421 4.91421 6.75 4.5 6.75H3.5C3.08579 6.75 2.75 6.41421 2.75 6C2.75 5.58579 3.08579 5.25 3.5 5.25H4.5ZM20.5 5.25C20.9142 5.25 21.25 5.58579 21.25 6C21.25 6.41421 20.9142 6.75 20.5 6.75H8.5C8.08579 6.75 7.75 6.41421 7.75 6C7.75 5.58579 8.08579 5.25 8.5 5.25H20.5Z" fill="#203A3B"/>
</svg>
