<svg width="24" height="24" viewBox="0 0 24 24" fill="none" xmlns="http://www.w3.org/2000/svg">
<path fill-rule="evenodd" clip-rule="evenodd" d="M11.25 6.27813C9.26597 4.38055 6.32452 4.25334 4.21364 5.87912L4.21328 5.87939C3.92453 6.10151 3.75 6.45991 3.75 6.84393V18.1569C3.75 18.2461 3.78999 18.306 3.85361 18.3435C3.92094 18.3832 4.0136 18.3949 4.11101 18.3469C6.33276 17.2445 9.07351 17.3006 11.25 18.538V6.27813ZM12.75 6.27813V18.538C14.9266 17.3005 17.6675 17.2443 19.8892 18.346L19.8894 18.3461C19.9866 18.3943 20.0789 18.3827 20.1462 18.343C20.2098 18.3055 20.25 18.2453 20.25 18.1559V6.84393C20.25 6.46112 20.0756 6.10264 19.7867 5.88039L19.7862 5.88C17.6754 4.25341 14.734 4.38057 12.75 6.27813ZM12 4.93394C9.48935 2.7757 5.89724 2.68937 3.29872 4.69046L12 4.93394ZM12 4.93394C14.5107 2.77567 18.103 2.68941 20.7015 4.69164C21.3745 5.20941 21.75 6.01483 21.75 6.84393V18.1559C21.75 19.4957 20.3488 20.2485 19.2228 19.6899C17.0661 18.6204 14.3082 18.9222 12.5033 20.556C12.2176 20.8146 11.7824 20.8146 11.4967 20.556C9.69184 18.9222 6.93398 18.6205 4.77741 19.6907L4.77658 19.6912C3.65217 20.2474 2.25 19.4981 2.25 18.1569V6.84393C2.25 6.01408 2.62534 5.20862 3.29836 4.69073" fill="#203A3B"/>
</svg>
