<svg width="16" height="16" viewBox="0 0 16 16" fill="none" xmlns="http://www.w3.org/2000/svg">
<g clip-path="url(#clip0_27854_26537)">
<path d="M3.00004 11.5C3.27618 11.5 3.50004 11.7239 3.50004 12C3.50004 12.2761 3.27618 12.5 3.00004 12.5H2.33337C2.05723 12.5 1.83337 12.2761 1.83337 12C1.83337 11.7239 2.05723 11.5 2.33337 11.5H3.00004ZM13.6667 11.5C13.9429 11.5 14.1667 11.7239 14.1667 12C14.1667 12.2761 13.9429 12.5 13.6667 12.5H5.66671C5.39057 12.5 5.16671 12.2761 5.16671 12C5.16671 11.7239 5.39057 11.5 5.66671 11.5H13.6667ZM3.00004 7.5C3.27618 7.5 3.50004 7.72386 3.50004 8C3.50004 8.27614 3.27618 8.5 3.00004 8.5H2.33337C2.05723 8.5 1.83337 8.27614 1.83337 8C1.83337 7.72386 2.05723 7.5 2.33337 7.5H3.00004ZM13.6667 7.5C13.9429 7.5 14.1667 7.72386 14.1667 8C14.1667 8.27614 13.9429 8.5 13.6667 8.5H5.66671C5.39057 8.5 5.16671 8.27614 5.16671 8C5.16671 7.72386 5.39057 7.5 5.66671 7.5H13.6667ZM3.00004 3.5C3.27618 3.5 3.50004 3.72386 3.50004 4C3.50004 4.27614 3.27618 4.5 3.00004 4.5H2.33337C2.05723 4.5 1.83337 4.27614 1.83337 4C1.83337 3.72386 2.05723 3.5 2.33337 3.5H3.00004ZM13.6667 3.5C13.9429 3.5 14.1667 3.72386 14.1667 4C14.1667 4.27614 13.9429 4.5 13.6667 4.5H5.66671C5.39057 4.5 5.16671 4.27614 5.16671 4C5.16671 3.72386 5.39057 3.5 5.66671 3.5H13.6667Z" fill="#203A3B"/>
</g>
<defs>
<clipPath id="clip0_27854_26537">
<rect width="16" height="16" fill="white"/>
</clipPath>
</defs>
</svg>
