<svg width="24" height="24" viewBox="0 0 24 24" fill="none" xmlns="http://www.w3.org/2000/svg">
<path fill-rule="evenodd" clip-rule="evenodd" d="M2.625 5.149C2.625 3.75479 3.75479 2.625 5.149 2.625H18.851C20.2452 2.625 21.375 3.75479 21.375 5.149V18.851C21.375 20.2452 20.2452 21.375 18.851 21.375H5.149C3.75479 21.375 2.625 20.2452 2.625 18.851V5.149ZM5.149 4.125C4.58321 4.125 4.125 4.58321 4.125 5.149V18.851C4.125 19.4168 4.58321 19.875 5.149 19.875H18.851C19.4168 19.875 19.875 19.4168 19.875 18.851V5.149C19.875 4.58321 19.4168 4.125 18.851 4.125H5.149Z" fill="#203A3B"/>
<path fill-rule="evenodd" clip-rule="evenodd" d="M10.88 12C10.88 11.5858 11.2158 11.25 11.63 11.25H16.89C17.3042 11.25 17.64 11.5858 17.64 12C17.64 12.4142 17.3042 12.75 16.89 12.75H11.63C11.2158 12.75 10.88 12.4142 10.88 12Z" fill="#203A3B"/>
<path fill-rule="evenodd" clip-rule="evenodd" d="M10.88 7.5C10.88 7.08579 11.2158 6.75 11.63 6.75H16.89C17.3042 6.75 17.64 7.08579 17.64 7.5C17.64 7.91421 17.3042 8.25 16.89 8.25H11.63C11.2158 8.25 10.88 7.91421 10.88 7.5Z" fill="#203A3B"/>
<path fill-rule="evenodd" clip-rule="evenodd" d="M10.97 16.5C10.97 16.0858 11.3058 15.75 11.72 15.75H16.98C17.3942 15.75 17.73 16.0858 17.73 16.5C17.73 16.9142 17.3942 17.25 16.98 17.25H11.72C11.3058 17.25 10.97 16.9142 10.97 16.5Z" fill="#203A3B"/>
<path d="M8.5 16.5C8.5 17.0523 8.05228 17.5 7.5 17.5C6.94772 17.5 6.5 17.0523 6.5 16.5C6.5 15.9477 6.94772 15.5 7.5 15.5C8.05228 15.5 8.5 15.9477 8.5 16.5Z" fill="#203A3B"/>
<path d="M8.5 12C8.5 12.5523 8.05228 13 7.5 13C6.94772 13 6.5 12.5523 6.5 12C6.5 11.4477 6.94772 11 7.5 11C8.05228 11 8.5 11.4477 8.5 12Z" fill="#203A3B"/>
<path d="M8.5 7.5C8.5 8.05228 8.05228 8.5 7.5 8.5C6.94772 8.5 6.5 8.05228 6.5 7.5C6.5 6.94772 6.94772 6.5 7.5 6.5C8.05228 6.5 8.5 6.94772 8.5 7.5Z" fill="#203A3B"/>
</svg>
