<svg width="12" height="12" viewBox="0 0 12 12" fill="none" xmlns="http://www.w3.org/2000/svg">
<path d="M7.0026 2.57649C7.0026 1.99084 6.66283 1.4624 6.13867 1.21711L6.03125 1.17219L5.60482 1.01138C5.53037 0.983408 5.44816 1.01167 5.40625 1.07583L5.39128 1.10578L3.86849 4.9313V10.6715H8.7526C9.28821 10.6715 9.75544 10.307 9.88542 9.78742L10.6354 6.78612L10.6602 6.65461C10.6949 6.39028 10.6383 6.1217 10.4993 5.89419L10.4232 5.78417C10.2296 5.53633 9.94544 5.37902 9.63672 5.34341L9.5026 5.3356H7.5026C7.22666 5.33543 7.00269 5.11157 7.0026 4.8356V2.57649ZM1 10.1709C1 10.4473 1.22428 10.6715 1.50065 10.6715H2.86849V5.33495L1.50065 5.3356C1.22436 5.3356 1.00014 5.55935 1 5.8356V10.1709ZM8.0026 4.3356H9.50326L9.6276 4.33886C10.2482 4.37456 10.8259 4.67587 11.2109 5.16893L11.2852 5.26919C11.6155 5.74631 11.7403 6.33644 11.6322 6.90656L11.6055 7.02831L10.8555 10.0296C10.6143 10.9944 9.74714 11.6715 8.7526 11.6715H1.50065C0.671994 11.6715 0 10.9995 0 10.1709V5.8356C0.000139462 5.0072 0.67162 4.33583 1.5 4.3356L3.0293 4.33495L4.46224 0.735991L4.51107 0.628569C4.78016 0.11021 5.39968 -0.135039 5.95768 0.0751837L6.38411 0.235991L6.5625 0.311512C7.43605 0.720176 8.0026 1.60053 8.0026 2.57649V4.3356Z" fill="#203A3B"/>
</svg>
