<svg width="24" height="24" viewBox="0 0 24 24" fill="none" xmlns="http://www.w3.org/2000/svg">
<path d="M12 0.5C18.3513 0.5 23.5 5.64873 23.5 12C23.5 18.3513 18.3513 23.5 12 23.5C5.64873 23.5 0.5 18.3513 0.5 12C0.5 5.64873 5.64873 0.5 12 0.5Z" fill="white"/>
<path d="M12 0.5C18.3513 0.5 23.5 5.64873 23.5 12C23.5 18.3513 18.3513 23.5 12 23.5C5.64873 23.5 0.5 18.3513 0.5 12C0.5 5.64873 5.64873 0.5 12 0.5Z" stroke="#203A3B"/>
<g clip-path="url(#clip0_29127_56155)">
<path fill-rule="evenodd" clip-rule="evenodd" d="M6.83301 12C6.83301 11.7239 7.05687 11.5 7.33301 11.5H16.6663C16.9425 11.5 17.1663 11.7239 17.1663 12C17.1663 12.2761 16.9425 12.5 16.6663 12.5H7.33301C7.05687 12.5 6.83301 12.2761 6.83301 12Z" fill="#203A3B"/>
</g>
<defs>
<clipPath id="clip0_29127_56155">
<rect width="16" height="16" fill="white" transform="translate(4 4)"/>
</clipPath>
</defs>
</svg>
