<svg width="57" height="56" viewBox="0 0 57 56" fill="none" xmlns="http://www.w3.org/2000/svg">
<rect x="0.5" width="56" height="56" rx="8" fill="#F5EFE8"/>
<path d="M23 33.5L21 36.5C22.1667 37.6667 25.4 40 29 40C32.6 40 35.5 37.6667 36.5 36.5L33.5 33.5H23Z" fill="#BDDADB"/>
<circle cx="28.5" cy="25" r="5" fill="#BDDADB"/>
<path fill-rule="evenodd" clip-rule="evenodd" d="M36.2781 20.2218C31.9824 15.9261 25.0176 15.9261 20.7218 20.2218C16.5245 24.4192 16.4283 31.1647 20.4334 35.4788C20.7245 34.8248 21.1445 34.2357 21.6714 33.7472C21.6722 33.7465 21.673 33.7457 21.6738 33.745L21.7598 33.6643C22.6839 32.8101 23.8967 32.3333 25.1573 32.3333H31.8426C33.1026 32.3333 34.3156 32.8098 35.2389 33.6659C35.2393 33.6662 35.2397 33.6666 35.2401 33.6669L35.3247 33.745C35.8518 34.2331 36.2744 34.8228 36.5658 35.4797C40.5717 31.1657 40.4758 24.4195 36.2781 20.2218ZM34.9793 36.8912L34.7882 36.4113C34.6078 35.9566 34.3268 35.5469 33.9666 35.2131C33.9663 35.2128 33.9668 35.2133 33.9666 35.2131L33.8821 35.1352L33.8798 35.1331C33.3259 34.6192 32.5981 34.3333 31.8426 34.3333H25.1573C24.4029 34.3333 23.6753 34.6184 23.1197 35.1308L23.0328 35.2124C22.6732 35.5454 22.3927 35.9544 22.2102 36.4117C22.2101 36.4118 22.2102 36.4116 22.2102 36.4117L22.0196 36.8903C25.8681 39.7029 31.1305 39.7032 34.9793 36.8912ZM19.3076 18.8076C24.3844 13.7308 32.6156 13.7308 37.6924 18.8076C42.7692 23.8844 42.7692 32.1156 37.6924 37.1924C32.6155 42.2692 24.3844 42.2692 19.3076 37.1924C14.2308 32.1155 14.2308 23.8844 19.3076 18.8076ZM31.0927 22.6366C29.6608 21.2047 27.3392 21.2047 25.9072 22.6366C24.4753 24.0685 24.4753 26.3901 25.9072 27.8221C27.3392 29.254 29.6608 29.254 31.0927 27.8221C32.5246 26.3901 32.5246 24.0685 31.0927 22.6366ZM24.493 21.2224C26.706 19.0094 30.2939 19.0094 32.5069 21.2224C34.7199 23.4354 34.7199 27.0233 32.5069 29.2363C30.2939 31.4493 26.706 31.4493 24.493 29.2363C22.28 27.0233 22.28 23.4354 24.493 21.2224Z" fill="#203A3B"/>
</svg>
