<svg width="25" height="24" viewBox="0 0 25 24" fill="none" xmlns="http://www.w3.org/2000/svg">
<path fill-rule="evenodd" clip-rule="evenodd" d="M8.38382 2.55485C8.89926 2.03941 9.59888 1.74927 10.3279 1.74927H15.4999C15.914 1.74927 16.2496 2.08491 16.2496 2.49896C16.2496 2.913 15.914 3.24864 15.4999 3.24864H10.3279C9.99698 3.24864 9.67861 3.3805 9.44404 3.61506L9.03004 4.02906C8.73727 4.32184 8.26259 4.32184 7.96982 4.02906C7.67705 3.73629 7.67705 3.26162 7.96982 2.96885L8.38382 2.55485Z" fill="#203A3B"/>
<path fill-rule="evenodd" clip-rule="evenodd" d="M10.9999 6.24864C10.862 6.24864 10.7496 6.361 10.7496 6.49896V7.74927H14.2502V6.49896C14.2502 6.361 14.1379 6.24864 13.9999 6.24864H10.9999ZM9.25024 6.49896C9.25024 5.53291 10.0339 4.74927 10.9999 4.74927H13.9999C14.966 4.74927 15.7496 5.53291 15.7496 6.49896V8.49896C15.7496 8.913 15.414 9.24864 14.9999 9.24864H9.99993C9.58589 9.24864 9.25024 8.913 9.25024 8.49896V6.49896Z" fill="#203A3B"/>
<path fill-rule="evenodd" clip-rule="evenodd" d="M5.75024 12.213C5.75024 9.74791 7.74889 7.74927 10.2139 7.74927H14.7859C17.251 7.74927 19.2496 9.74791 19.2496 12.213V19.499C19.2496 21.018 18.019 22.2486 16.4999 22.2486H8.49993C6.98089 22.2486 5.75024 21.018 5.75024 19.499V12.213Z" fill="#203A3B"/>
<path fill-rule="evenodd" clip-rule="evenodd" d="M12.4999 1.74927C12.914 1.74927 13.2496 2.08491 13.2496 2.49896V5.49896C13.2496 5.913 12.914 6.24864 12.4999 6.24864C12.0859 6.24864 11.7502 5.913 11.7502 5.49896V2.49896C11.7502 2.08491 12.0859 1.74927 12.4999 1.74927Z" fill="#203A3B"/>
</svg>
