<svg width="25" height="24" viewBox="0 0 25 24" fill="none" xmlns="http://www.w3.org/2000/svg">
<path fill-rule="evenodd" clip-rule="evenodd" d="M17.3595 18.6684L17.2161 18.3085C17.0808 17.9675 16.8701 17.6602 16.5999 17.4098L16.5366 17.3514L16.5348 17.3498C16.1194 16.9644 15.5736 16.75 15.0069 16.75H9.99294C9.42716 16.75 8.8815 16.9638 8.4648 17.3481L8.39957 17.4093C8.12988 17.659 7.91954 17.9658 7.78261 18.3088L7.63967 18.6678C10.526 20.7772 14.4729 20.7774 17.3595 18.6684ZM5.60571 5.10571C9.41332 1.2981 15.5867 1.2981 19.3943 5.10571C23.2019 8.91332 23.2019 15.0867 19.3943 18.8943C15.5867 22.7019 9.4133 22.7019 5.60571 18.8943C1.7981 15.0867 1.7981 8.9133 5.60571 5.10571ZM9.49476 6.9168C11.1545 5.25707 13.8454 5.25707 15.5052 6.9168C17.1649 8.57653 17.1649 11.2675 15.5052 12.9272C13.8454 14.5869 11.1545 14.5869 9.49476 12.9272C7.83503 11.2675 7.83503 8.57653 9.49476 6.9168Z" fill="#203A3B"/>
</svg>
