<svg width="57" height="56" viewBox="0 0 57 56" fill="none" xmlns="http://www.w3.org/2000/svg">
<rect x="0.5" width="56" height="56" rx="8" fill="#F5EFE8"/>
<rect x="17.5" y="17" width="22" height="22" fill="#BDDADB"/>
<path d="M39 18.8652C38.9999 18.1109 38.3891 17.5001 37.6348 17.5H19.3652C18.6109 17.5001 18.0001 18.1109 18 18.8652V37.1348C18.0001 37.8891 18.6109 38.4999 19.3652 38.5H37.6348C38.3891 38.4999 38.9999 37.8891 39 37.1348V18.8652ZM35.1406 33L35.2422 33.0049C35.7466 33.0559 36.1406 33.4821 36.1406 34C36.1406 34.5179 35.7466 34.9441 35.2422 34.9951L35.1406 35H28.127C27.5747 35 27.127 34.5523 27.127 34C27.127 33.4477 27.5747 33 28.127 33H35.1406ZM35.0195 27L35.1221 27.0049C35.6263 27.0561 36.0195 27.4822 36.0195 28C36.0195 28.5178 35.6263 28.9439 35.1221 28.9951L35.0195 29H28.0068C27.4546 29 27.0068 28.5523 27.0068 28C27.0068 27.4477 27.4546 27 28.0068 27H35.0195ZM35.0195 21L35.1221 21.0049C35.6263 21.0561 36.0195 21.4822 36.0195 22C36.0195 22.5178 35.6263 22.9439 35.1221 22.9951L35.0195 23H28.0068C27.4546 23 27.0068 22.5523 27.0068 22C27.0068 21.4477 27.4546 21 28.0068 21H35.0195ZM41 37.1348C40.9999 38.9936 39.4936 40.4999 37.6348 40.5H19.3652C17.5064 40.4999 16.0001 38.9936 16 37.1348V18.8652C16.0001 17.0064 17.5064 15.5001 19.3652 15.5H37.6348C39.4936 15.5001 40.9999 17.0064 41 18.8652V37.1348Z" fill="#203A3B"/>
<path d="M21.6585 26.9661C22.1473 26.5673 22.8523 26.5674 23.3411 26.9661L23.4427 27.057L23.5345 27.1585C23.933 27.6472 23.9329 28.3524 23.5345 28.8411L23.4427 28.9427C22.9546 29.4308 22.1822 29.4615 21.6585 29.0345L21.557 28.9427C21.0364 28.422 21.0363 27.5776 21.557 27.057L21.6585 26.9661Z" fill="#203A3B"/>
<path d="M21.6585 20.9701C22.1473 20.5712 22.8523 20.5713 23.3411 20.9701L23.4427 21.0609L23.5345 21.1624C23.933 21.6511 23.9329 22.3563 23.5345 22.8451L23.4427 22.9466C22.9546 23.4347 22.1822 23.4654 21.6585 23.0384L21.557 22.9466C21.0364 22.4259 21.0363 21.5815 21.557 21.0609L21.6585 20.9701Z" fill="#203A3B"/>
<path d="M21.7757 32.9714C22.2645 32.5725 22.9695 32.5726 23.4583 32.9714L23.5599 33.0622L23.6517 33.1637C24.0502 33.6524 24.0501 34.3576 23.6517 34.8464L23.5599 34.9479C23.0718 35.436 22.2994 35.4667 21.7757 35.0397L21.6742 34.9479C21.1536 34.4272 21.1535 33.5828 21.6742 33.0622L21.7757 32.9714Z" fill="#203A3B"/>
</svg>
