<svg width="32" height="33" viewBox="0 0 32 33" fill="none" xmlns="http://www.w3.org/2000/svg">
<path d="M0 4.46924C0 2.2601 1.79086 0.469238 4 0.469238H28C30.2091 0.469238 32 2.2601 32 4.46924V28.4692C32 30.6784 30.2091 32.4692 28 32.4692H4C1.79086 32.4692 0 30.6784 0 28.4692V4.46924Z" fill="#F5EFE8"/>
<path d="M21.1428 17.8975H10.2856V23.6117L11.7142 25.0403H19.9999L21.1428 23.6117V17.8975Z" fill="#BDDADB"/>
<path fill-rule="evenodd" clip-rule="evenodd" d="M12.0635 8.04476C12.5233 7.58498 13.1473 7.32617 13.7977 7.32617H18.4111C18.7805 7.32617 19.0799 7.62557 19.0799 7.9949C19.0799 8.36423 18.7805 8.66363 18.4111 8.66363H13.7977C13.5024 8.66363 13.2184 8.78125 13.0092 8.99049L12.6399 9.35978C12.3788 9.62094 11.9553 9.62094 11.6942 9.35978C11.433 9.09863 11.433 8.67521 11.6942 8.41405L12.0635 8.04476Z" fill="#203A3B"/>
<path fill-rule="evenodd" clip-rule="evenodd" d="M14.3971 11.3397C14.274 11.3397 14.1738 11.4399 14.1738 11.563V12.6783H17.2964V11.563C17.2964 11.4399 17.1962 11.3397 17.0731 11.3397H14.3971ZM12.8363 11.563C12.8363 10.7012 13.5354 10.0022 14.3971 10.0022H17.0731C17.9348 10.0022 18.6339 10.7012 18.6339 11.563V13.347C18.6339 13.7163 18.3345 14.0157 17.9651 14.0157H13.5051C13.1357 14.0157 12.8363 13.7163 12.8363 13.347V11.563Z" fill="#203A3B"/>
<path fill-rule="evenodd" clip-rule="evenodd" d="M9.71429 16.6599C9.71429 14.4611 11.4971 12.6783 13.696 12.6783H17.7742C19.9731 12.6783 21.7559 14.4611 21.7559 16.6599V23.1591C21.7559 24.5141 20.6582 25.6119 19.3032 25.6119H12.1671C10.812 25.6119 9.71429 24.5141 9.71429 23.1591V16.6599ZM13.696 14.0157C12.2358 14.0157 11.0518 15.1997 11.0518 16.6599V23.1591C11.0518 23.7755 11.5507 24.2744 12.1671 24.2744H19.3032C19.9195 24.2744 20.4185 23.7755 20.4185 23.1591V16.6599C20.4185 15.1997 19.2344 14.0157 17.7742 14.0157H13.696Z" fill="#203A3B"/>
<path fill-rule="evenodd" clip-rule="evenodd" d="M15.7351 7.32617C16.1044 7.32617 16.4038 7.62557 16.4038 7.9949V10.6709C16.4038 11.0403 16.1044 11.3397 15.7351 11.3397C15.3658 11.3397 15.0664 11.0403 15.0664 10.6709V7.9949C15.0664 7.62557 15.3658 7.32617 15.7351 7.32617Z" fill="#203A3B"/>
<line x1="10.2856" y1="18.0406" x2="21.1428" y2="18.0406" stroke="#203A3B" stroke-width="1.42857"/>
</svg>
