<svg width="25" height="24" viewBox="0 0 25 24" fill="none" xmlns="http://www.w3.org/2000/svg">
<path fill-rule="evenodd" clip-rule="evenodd" d="M18.3336 6.17125C15.1118 2.94943 9.8882 2.94943 6.66637 6.17125C3.51834 9.31927 3.44623 14.3784 6.45006 17.614C6.6684 17.1235 6.98341 16.6817 7.37853 16.3153C7.37913 16.3147 7.37972 16.3142 7.38032 16.3136L7.44485 16.2531C8.13792 15.6125 9.04753 15.2549 9.99294 15.2549H15.0069C15.9519 15.2549 16.8617 15.6122 17.5542 16.2543C17.5545 16.2545 17.5548 16.2548 17.555 16.2551L17.6186 16.3136C18.0138 16.6797 18.3308 17.122 18.5493 17.6147C21.5538 14.3791 21.4819 9.31949 18.3336 6.17125ZM17.3595 18.6733L17.2161 18.3133C17.0808 17.9724 16.8701 17.6651 16.5999 17.4147C16.5997 17.4145 16.6001 17.4149 16.5999 17.4147L16.5366 17.3563L16.5348 17.3547C16.1194 16.9693 15.5736 16.7549 15.0069 16.7549H9.99294C9.42716 16.7549 8.8815 16.9687 8.4648 17.353L8.39957 17.4142C8.12988 17.6639 7.91954 17.9707 7.78261 18.3136C7.78258 18.3137 7.78265 18.3136 7.78261 18.3136L7.63967 18.6726C10.526 20.7821 14.4729 20.7823 17.3595 18.6733ZM5.60571 5.11059C9.41332 1.30298 15.5867 1.30298 19.3943 5.11059C23.2019 8.91821 23.2019 15.0916 19.3943 18.8992C15.5867 22.7068 9.4133 22.7068 5.60571 18.8992C1.7981 15.0915 1.7981 8.91819 5.60571 5.11059ZM14.4445 7.98234C13.3706 6.9084 11.6294 6.9084 10.5554 7.98234C9.48147 9.05629 9.48147 10.7975 10.5554 11.8714C11.6294 12.9454 13.3706 12.9454 14.4445 11.8714C15.5185 10.7975 15.5185 9.05629 14.4445 7.98234ZM9.49476 6.92168C11.1545 5.26195 13.8454 5.26195 15.5052 6.92168C17.1649 8.58142 17.1649 11.2724 15.5052 12.9321C13.8454 14.5918 11.1545 14.5918 9.49476 12.9321C7.83503 11.2724 7.83503 8.58142 9.49476 6.92168Z" fill="#898076"/>
</svg>
