<svg width="24" height="24" viewBox="0 0 24 24" fill="none" xmlns="http://www.w3.org/2000/svg">
<path d="M16.5 5.99992C14.9878 5.86445 13.5 6.74992 12 6.74992C10.5 6.74992 9.01172 5.8593 7.5 5.99992C4.5 6.28117 3 8.99992 3 13.4999C3 17.2499 6 22.4999 8.2125 22.4999C10.425 22.4999 10.6472 21.3749 12 21.3749C13.3528 21.3749 13.5745 22.4999 15.7875 22.4999C18.0005 22.4999 21 17.2499 21 13.4999C21 8.99992 19.6406 6.28117 16.5 5.99992Z" stroke="#635242" stroke-width="1.5" stroke-miterlimit="10"/>
<path d="M15.1837 3.89707C14.1994 4.88144 13.0434 5.16269 12.4265 5.2466C12.3701 5.25473 12.3126 5.2499 12.2584 5.23248C12.2041 5.21505 12.1546 5.18549 12.1134 5.14605C12.0723 5.1066 12.0407 5.0583 12.0211 5.00481C12.0014 4.95133 11.9942 4.89407 12 4.83738C12.1112 3.78296 12.5853 2.79991 13.3411 2.05629C14.3723 1.02504 15.4973 0.79535 16.0936 0.750819C16.1492 0.74574 16.2053 0.753168 16.2578 0.77256C16.3102 0.791952 16.3576 0.822817 16.3966 0.862898C16.4355 0.902978 16.465 0.951261 16.4829 1.00421C16.5008 1.05717 16.5066 1.11345 16.5 1.16894C16.3823 2.20098 15.9183 3.16266 15.1837 3.89707Z" fill="#635242"/>
<path d="M10.125 16.5C10.7463 16.5 11.25 15.4926 11.25 14.25C11.25 13.0074 10.7463 12 10.125 12C9.50368 12 9 13.0074 9 14.25C9 15.4926 9.50368 16.5 10.125 16.5Z" fill="#635242"/>
<path d="M13.875 16.5C14.4963 16.5 15 15.4926 15 14.25C15 13.0074 14.4963 12 13.875 12C13.2537 12 12.75 13.0074 12.75 14.25C12.75 15.4926 13.2537 16.5 13.875 16.5Z" fill="#635242"/>
</svg>
