<svg width="19" height="22" viewBox="0 0 19 22" fill="none" xmlns="http://www.w3.org/2000/svg">
<path fill-rule="evenodd" clip-rule="evenodd" d="M6.88517 1.84412C6.88511 1.8442 6.88523 1.84405 6.88517 1.84412L5.75 3.26309V4C5.75 4.13779 5.86221 4.25 6 4.25H12C12.1378 4.25 12.25 4.13779 12.25 4V3.26293L11.1158 1.84412C11.1158 1.84403 11.1159 1.84422 11.1158 1.84412C11.068 1.78462 10.996 1.75 10.92 1.75H7.081C7.00497 1.75 6.93302 1.78457 6.88517 1.84412ZM13.3606 2.25L12.2868 0.906698L12.2862 0.905877C11.954 0.491565 11.4519 0.25 10.92 0.25H7.081C6.54912 0.25 6.04698 0.491565 5.71483 0.905877L4.63953 2.25H3C1.48079 2.25 0.25 3.48079 0.25 5V17C0.25 18.5192 1.48079 19.75 3 19.75H6C6.41421 19.75 6.75 19.4142 6.75 19C6.75 18.5858 6.41421 18.25 6 18.25H3C2.30921 18.25 1.75 17.6908 1.75 17V5C1.75 4.30921 2.30921 3.75 3 3.75H4.25V4C4.25 4.96621 5.03379 5.75 6 5.75H12C12.9662 5.75 13.75 4.96621 13.75 4V3.75H15C15.6908 3.75 16.25 4.30921 16.25 5V7C16.25 7.41421 16.5858 7.75 17 7.75C17.4142 7.75 17.75 7.41421 17.75 7V5C17.75 3.48079 16.5192 2.25 15 2.25H13.3606ZM6.13667 7.80267C6.42956 7.50978 6.90444 7.50978 7.19733 7.80267C7.49022 8.09556 7.49022 8.57044 7.19733 8.86333L5.53033 10.5303C5.23744 10.8232 4.76256 10.8232 4.46967 10.5303L3.46967 9.53033C3.17678 9.23744 3.17678 8.76256 3.46967 8.46967C3.76256 8.17678 4.23744 8.17678 4.53033 8.46967L5 8.93934L6.13667 7.80267ZM9.25 9C9.25 8.58579 9.58579 8.25 10 8.25H13C13.4142 8.25 13.75 8.58579 13.75 9C13.75 9.41421 13.4142 9.75 13 9.75H10C9.58579 9.75 9.25 9.41421 9.25 9ZM16.095 11.75C15.4042 11.75 14.845 12.3092 14.845 13V13.417H15.262C15.9518 13.417 16.512 12.8568 16.512 12.167V11.75H16.095ZM13.345 13.5167V13C13.345 11.4808 14.5758 10.25 16.095 10.25H17.262C17.6762 10.25 18.012 10.5858 18.012 11V12.167C18.012 12.8402 17.7698 13.4572 17.3678 13.9353C17.6037 14.099 17.8134 14.2994 17.994 14.5337C18.5268 15.2252 18.75 16.138 18.75 17.095C18.75 19.6833 16.6059 21.75 13.999 21.75C11.3921 21.75 9.248 19.6833 9.248 17.095C9.248 16.138 9.47118 15.2252 10.004 14.5337C10.5573 13.8157 11.3848 13.416 12.399 13.416C12.7761 13.416 13.0892 13.4628 13.345 13.5167ZM3.25 14C3.25 13.5858 3.58579 13.25 4 13.25H7C7.41421 13.25 7.75 13.5858 7.75 14C7.75 14.4142 7.41421 14.75 7 14.75H4C3.58579 14.75 3.25 14.4142 3.25 14ZM11.1922 15.4493C10.9248 15.7963 10.748 16.348 10.748 17.095C10.748 18.8207 12.1859 20.25 13.999 20.25C15.8121 20.25 17.25 18.8207 17.25 17.095C17.25 16.348 17.0732 15.7963 16.8058 15.4493C16.5588 15.1288 16.1858 14.916 15.599 14.916C15.2822 14.916 15.0332 14.9647 14.8068 15.0201C14.7725 15.0284 14.7295 15.0394 14.6834 15.0512C14.6037 15.0715 14.5152 15.094 14.4484 15.1092C14.3276 15.1366 14.1698 15.167 13.999 15.167C13.8282 15.167 13.6704 15.1366 13.5496 15.1092C13.4828 15.094 13.3943 15.0715 13.3146 15.0512C13.2685 15.0394 13.2255 15.0284 13.1912 15.0201C12.9648 14.9647 12.7158 14.916 12.399 14.916C11.8122 14.916 11.4392 15.1288 11.1922 15.4493Z" fill="#203A3B"/>
</svg>
