<svg width="24" height="24" viewBox="0 0 24 24" fill="none" xmlns="http://www.w3.org/2000/svg">
<path d="M20.6674 2C20.9032 2 21.1301 2.05905 21.3343 2.17774L21.4201 2.23243L21.4345 2.2423C21.6299 2.38439 21.7976 2.57307 21.8994 2.81425C22.0012 3.05568 22.0189 3.30748 21.9829 3.54722L21.9814 3.55786L19.3146 19.558V19.561L18.6576 19.4478L19.3138 19.561C19.2523 19.9179 19.0634 20.2062 18.7875 20.4087L18.6637 20.4907L18.6546 20.496L18.6538 20.4953C18.4505 20.6113 18.2286 20.6669 18.0013 20.6669C17.8687 20.6669 17.7422 20.6443 17.6253 20.6092L17.5114 20.5705C17.5073 20.5689 17.5034 20.5668 17.4993 20.5651L13.2359 18.8242L11.0271 21.5169L11.0255 21.5161C10.766 21.8401 10.4016 22 10.0009 22C9.85776 21.9999 9.69898 21.9782 9.54136 21.9156V21.9172C9.53155 21.9135 9.52219 21.9088 9.5125 21.905C9.50884 21.9034 9.50476 21.9028 9.50111 21.9012V21.9004C9.26008 21.803 9.05717 21.6433 8.90713 21.428C8.7499 21.2023 8.66789 20.9428 8.66787 20.6669V17.0317L8.67774 16.9177C8.69717 16.8055 8.74476 16.6994 8.8175 16.6101L12.9609 11.5302L7.63487 16.14C7.44478 16.3042 7.17842 16.3477 6.94595 16.2524L2.83142 14.5646V14.5639C2.60848 14.4764 2.40173 14.3354 2.24808 14.1241C2.13077 13.9627 2.06112 13.7847 2.02629 13.6045L2.00274 13.4238L2.00198 13.4086C1.99012 13.1713 2.03038 12.9245 2.15465 12.6954C2.27796 12.468 2.46117 12.3007 2.66811 12.1834L20.0012 2.18305V2.18457C20.2034 2.06538 20.4286 2.00005 20.6674 2ZM3.34184 13.3326L7.07204 14.8631L17.898 5.49625L17.9489 5.45675C18.2083 5.27245 18.5663 5.29617 18.7989 5.52208C19.0469 5.76306 19.0691 6.15343 18.8505 6.42139L10.0009 17.2687V20.6646L12.5166 17.5983L12.5918 17.5201C12.7793 17.355 13.0476 17.3071 13.2845 17.4039L17.9899 19.3255H17.9907C17.9946 19.327 17.9983 19.3275 18.0013 19.3286L20.6643 3.34898V3.3391L3.34184 13.3326Z" fill="#203A3B"/>
</svg>
