<svg width="24" height="24" viewBox="0 0 24 24" fill="none" xmlns="http://www.w3.org/2000/svg">
<path fill-rule="evenodd" clip-rule="evenodd" d="M12 3.75C7.44321 3.75 3.75 7.44321 3.75 12C3.75 16.5568 7.44321 20.25 12 20.25C16.5568 20.25 20.25 16.5568 20.25 12C20.25 7.44321 16.5568 3.75 12 3.75ZM2.25 12C2.25 6.61479 6.61479 2.25 12 2.25C17.3852 2.25 21.75 6.61479 21.75 12C21.75 17.3852 17.3852 21.75 12 21.75C6.61479 21.75 2.25 17.3852 2.25 12ZM11 8.25272C10.9974 7.69648 11.4487 7.25 11.999 7.25C12.5503 7.25 13 7.69584 13 8.25C13 8.80221 12.5522 9.25 12 9.25C11.4487 9.25 11.0015 8.80368 11 8.25272ZM11.5 8.25181L11 8.25543C11 8.25453 11 8.25362 11 8.25272C11 8.25181 11 8.25091 11 8.25H11.5C11.5 8.2506 11.5 8.25121 11.5 8.25181ZM12 11.25C12.4142 11.25 12.75 11.5858 12.75 12V17C12.75 17.4142 12.4142 17.75 12 17.75C11.5858 17.75 11.25 17.4142 11.25 17V12C11.25 11.5858 11.5858 11.25 12 11.25Z" fill="#203A3B"/>
</svg>
