<svg width="35" height="35" viewBox="0 0 35 35" fill="none" xmlns="http://www.w3.org/2000/svg">
<g clip-path="url(#clip0_4091_72470)">
<path d="M15.6342 0.402344C15.584 0.402344 15.5337 0.402344 15.4835 0.408518C6.77038 1.40253 0.199432 8.66932 0.199432 17.3006C0.199432 25.9318 6.77666 33.1986 15.4898 34.1926C16.2059 34.2729 16.8341 33.7666 16.9158 33.0813C16.9535 32.7479 16.8592 32.4145 16.6456 32.149C16.4321 31.8835 16.1242 31.7168 15.785 31.6798C8.366 30.834 2.76876 24.6538 2.76876 17.3006C2.76876 9.94734 8.366 3.76717 15.785 2.92133C16.4886 2.84107 16.9974 2.21132 16.9158 1.51984C16.8404 0.883915 16.2939 0.402344 15.6405 0.402344" fill="#009A4F"/>
<path d="M19.3657 0.402344C18.7124 0.402344 18.1659 0.883915 18.0905 1.51984C18.0088 2.21132 18.5177 2.84107 19.2213 2.92133C26.6403 3.76717 32.2375 9.94734 32.2375 17.3006C32.2375 24.6538 26.6403 30.834 19.2213 31.6798C18.882 31.7168 18.5742 31.8835 18.3606 32.149C18.147 32.4145 18.0528 32.7417 18.0905 33.0813C18.1722 33.7666 18.8004 34.2729 19.5165 34.1926C28.2359 33.1986 34.8068 25.938 34.8068 17.3006C34.8068 8.66315 28.2296 1.40253 19.5165 0.408518C19.4663 0.402344 19.416 0.402344 19.3657 0.402344Z" fill="#009A4F"/>
<path d="M6.38705 17.998C6.31167 17.998 6.23628 18.0042 6.1609 18.0166C5.82167 18.0783 5.52642 18.2635 5.33168 18.5352C5.13694 18.813 5.06155 19.1464 5.11809 19.4798C6.18603 25.3821 11.3938 29.6607 17.4999 29.6607C23.6059 29.6607 28.8137 25.376 29.8816 19.4798C30.0073 18.7945 29.5424 18.1339 28.8388 18.0166C28.7634 18.0042 28.6881 17.998 28.6127 17.998C27.9908 17.998 27.4568 18.4364 27.3437 19.0415C26.4956 23.7337 22.3495 27.1417 17.4936 27.1417C12.6376 27.1417 8.49151 23.7337 7.64345 19.0415C7.53037 18.4364 7.00268 17.998 6.38077 17.998" fill="#009A4F"/>
<path d="M17.4998 4.93408C14.4782 4.93408 11.5571 6.00218 9.27046 7.94699C7.00895 9.8671 5.52012 12.5157 5.06782 15.4052C4.96102 16.0967 5.44473 16.7388 6.14203 16.8437C6.20485 16.8561 6.27396 16.8561 6.33678 16.8561C6.96497 16.8561 7.5115 16.393 7.60573 15.7818C7.96381 13.4851 9.15738 11.3797 10.954 9.84858C12.7695 8.30508 15.0939 7.45307 17.4998 7.45307C19.9058 7.45307 22.2302 8.30508 24.0457 9.84858C25.8423 11.3797 27.0359 13.4851 27.394 15.7818C27.4882 16.393 28.0347 16.8561 28.6629 16.8561C28.732 16.8561 28.7948 16.8561 28.8577 16.8437C29.1969 16.7943 29.4984 16.6153 29.6994 16.3436C29.9005 16.072 29.9884 15.7386 29.9319 15.4052C29.4796 12.5157 27.9845 9.8671 25.723 7.94699C23.4426 6.00218 20.5152 4.93408 17.4936 4.93408" fill="#009A4F"/>
<path d="M17.5564 9.65088C13.2658 9.65088 9.77304 13.0836 9.77304 17.3005C9.77304 21.5173 13.2658 24.95 17.5564 24.95C19.485 24.95 21.3256 24.2585 22.7516 22.9991C23.0029 22.7459 23.1474 22.4002 23.1474 22.0297C23.1474 21.258 22.5066 20.6344 21.7276 20.6344C21.3633 20.6344 21.0241 20.7702 20.7539 21.011L20.7162 21.0419C19.8242 21.7643 18.706 22.1656 17.5501 22.1656C14.8237 22.1656 12.5999 19.9861 12.5999 17.3005C12.5999 14.6148 14.8175 12.4354 17.5501 12.4354C19.6295 12.4354 21.5015 13.7257 22.2051 15.652L22.2993 15.9051H16.2058C15.4708 15.9669 14.8991 16.5781 14.8991 17.3005C14.8991 18.066 15.5336 18.6958 16.3189 18.6958C16.3314 18.6958 16.3377 18.6958 16.3503 18.6958H16.3691H23.8007C24.5797 18.6958 25.2141 18.0722 25.2141 17.3005C25.2141 15.2507 24.4226 13.3306 22.984 11.892C21.5392 10.4473 19.6106 9.65088 17.5376 9.65088" fill="#009A4F"/>
</g>
<defs>
<clipPath id="clip0_4091_72470">
<rect width="34.6011" height="34.6011" fill="white" transform="translate(0.199432)"/>
</clipPath>
</defs>
</svg>
