<svg width="21" height="20" viewBox="0 0 21 20" fill="none" xmlns="http://www.w3.org/2000/svg">
<path d="M10.2498 0C10.5361 1.92513e-05 10.7977 0.162847 10.9237 0.419922L13.6844 6.05762L19.8592 6.96777C20.1408 7.00927 20.3745 7.20691 20.4627 7.47754C20.5509 7.74825 20.4784 8.04566 20.2752 8.24512L15.8045 12.6318L16.8602 18.832C16.9081 19.1136 16.7918 19.398 16.5604 19.5654C16.3288 19.7329 16.0218 19.7549 15.7694 19.6211L10.2498 16.6953L4.73029 19.6211C4.4778 19.7549 4.17083 19.7329 3.93928 19.5654C3.70786 19.398 3.59154 19.1136 3.63947 18.832L4.69416 12.6318L0.224433 8.24512C0.0212822 8.04566 -0.0512442 7.74825 0.0369333 7.47754C0.125178 7.20692 0.35883 7.00927 0.640449 6.96777L6.8133 6.05762L9.576 0.419922L9.62971 0.328125C9.76801 0.124745 9.99936 -9.66065e-08 10.2498 0ZM7.98713 7.07324C7.89204 7.26711 7.71885 7.40911 7.5135 7.46582L7.42268 7.48535L2.35236 8.23145L6.02521 11.8369C6.20042 12.0089 6.28028 12.256 6.23908 12.498L5.37287 17.5811L9.89826 15.1846L9.98322 15.1465C10.1837 15.0702 10.4092 15.0828 10.6014 15.1846L15.1258 17.5811L14.2606 12.498C14.2194 12.256 14.2992 12.0089 14.4744 11.8369L18.1463 8.23145L13.076 7.48535C12.8316 7.44936 12.6203 7.29497 12.5115 7.07324L10.2488 2.45508L7.98713 7.07324Z" fill="#B8B3AD"/>
</svg>
