<svg width="15" height="17" viewBox="0 0 15 17" fill="none" xmlns="http://www.w3.org/2000/svg">
<path fill-rule="evenodd" clip-rule="evenodd" d="M7.29133 1.25C5.58671 1.25 4.1805 2.67162 4.1805 4.38917C4.1805 6.10056 5.58059 7.5 7.29133 7.5C8.99596 7.5 10.4022 6.07838 10.4022 4.36083C10.4022 2.64944 9.00208 1.25 7.29133 1.25ZM2.9305 4.38917C2.9305 1.99338 4.88429 0 7.29133 0C9.69226 0 11.6522 1.9589 11.6522 4.36083C11.6522 6.75662 9.69837 8.75 7.29133 8.75C4.89041 8.75 2.9305 6.7911 2.9305 4.38917ZM3.95833 11.25C2.47018 11.25 1.25 12.4702 1.25 13.9583V14.7917C1.25 14.9048 1.34518 15 1.45833 15H13.125C13.2382 15 13.3333 14.9048 13.3333 14.7917V13.9583C13.3333 12.4702 12.1132 11.25 10.625 11.25H3.95833ZM0 13.9583C0 11.7798 1.77982 10 3.95833 10H10.625C12.8035 10 14.5833 11.7798 14.5833 13.9583V14.7917C14.5833 15.5952 13.9285 16.25 13.125 16.25H1.45833C0.654822 16.25 0 15.5952 0 14.7917V13.9583Z" fill="#203A3B"/>
</svg>
