<svg width="24" height="24" viewBox="0 0 24 24" fill="none" xmlns="http://www.w3.org/2000/svg">
<path d="M10.25 18C10.25 17.8619 10.1381 17.75 10 17.75H8C7.86193 17.75 7.75 17.8619 7.75 18V21.25H10.25V18ZM14.25 19V17C14.25 16.5858 14.5858 16.25 15 16.25C15.4142 16.25 15.75 16.5858 15.75 17V19C15.75 19.4142 15.4142 19.75 15 19.75C14.5858 19.75 14.25 19.4142 14.25 19ZM17.25 19V17C17.25 16.5858 17.5858 16.25 18 16.25C18.4142 16.25 18.75 16.5858 18.75 17V19C18.75 19.4142 18.4142 19.75 18 19.75C17.5858 19.75 17.25 19.4142 17.25 19ZM13.25 6C13.25 4.48122 14.4812 3.25 16 3.25H18C18.4142 3.25 18.75 3.58579 18.75 4C18.75 4.41421 18.4142 4.75 18 4.75H16C15.3096 4.75 14.75 5.30964 14.75 6C14.75 6.41421 14.4142 6.75 14 6.75C13.5858 6.75 13.25 6.41421 13.25 6ZM7.25 4C7.25 2.48122 8.48122 1.25 10 1.25H12C12.4142 1.25 12.75 1.58579 12.75 2C12.75 2.41421 12.4142 2.75 12 2.75H10C9.30964 2.75 8.75 3.30964 8.75 4C8.75 4.41421 8.41421 4.75 8 4.75C7.58579 4.75 7.25 4.41421 7.25 4ZM11.75 21.25H20.25V13C20.25 12.8619 20.1381 12.75 20 12.75H4C3.86193 12.75 3.75 12.8619 3.75 13V21.25H6.25V18C6.25 17.0335 7.0335 16.25 8 16.25H10C10.9665 16.25 11.75 17.0335 11.75 18V21.25ZM14.25 10C14.25 9.86193 14.1381 9.75 14 9.75H13C12.8619 9.75 12.75 9.86193 12.75 10V11.25H14.25V10ZM8.25 8C8.25 7.86193 8.13807 7.75 8 7.75H7C6.86193 7.75 6.75 7.86193 6.75 8V11.25H8.25V8ZM9.75 11.25H11.25V10C11.25 9.0335 12.0335 8.25 13 8.25H14C14.9665 8.25 15.75 9.0335 15.75 10V11.25H20C20.9665 11.25 21.75 12.0335 21.75 13V21.25H22C22.4142 21.25 22.75 21.5858 22.75 22C22.75 22.4142 22.4142 22.75 22 22.75H2C1.58579 22.75 1.25 22.4142 1.25 22C1.25001 21.5858 1.58579 21.25 2 21.25H2.25V13C2.25 12.0335 3.0335 11.25 4 11.25H5.25V8C5.25 7.0335 6.0335 6.25 7 6.25H8C8.9665 6.25 9.75 7.0335 9.75 8V11.25Z" fill="#635242"/>
</svg>
