<svg width="16" height="16" viewBox="0 0 16 16" fill="none" xmlns="http://www.w3.org/2000/svg">
<circle cx="8" cy="8" r="7" fill="url(#paint0_linear_51226_24310)"/>
<path d="M4.9135 12V11.5H11.0865V12H4.9135ZM5.29868 10.558C5.05842 10.558 4.85212 10.3871 4.80738 10.1511L4.1605 6.7375C4.14383 6.74417 4.12517 6.74783 4.1045 6.7485C4.0835 6.7495 4.06467 6.75 4.048 6.75C3.891 6.75 3.7605 6.69667 3.6565 6.59C3.5525 6.48333 3.50033 6.354 3.5 6.202C3.5 6.04433 3.55217 5.91033 3.6565 5.8C3.7605 5.69 3.89117 5.635 4.0485 5.635C4.20583 5.635 4.33967 5.69 4.45 5.8C4.56 5.91033 4.615 6.04433 4.615 6.202C4.615 6.23667 4.61367 6.26883 4.611 6.2985C4.60833 6.32817 4.5985 6.3575 4.5815 6.3865L6.1825 7.029L7.668 5.0065C7.59567 4.95917 7.53833 4.8965 7.496 4.8185C7.45367 4.74083 7.4325 4.657 7.4325 4.567C7.4325 4.40967 7.48767 4.27583 7.598 4.1655C7.708 4.05517 7.84183 4 7.9995 4C8.15683 4 8.29083 4.055 8.4015 4.165C8.51217 4.275 8.5675 4.40833 8.5675 4.565C8.5675 4.65967 8.54633 4.745 8.504 4.821C8.46167 4.89767 8.40433 4.9595 8.332 5.0065L9.817 7.029L11.4185 6.3865C11.4095 6.35983 11.4017 6.33067 11.395 6.299C11.3883 6.267 11.385 6.23467 11.385 6.202C11.385 6.04433 11.437 5.91033 11.541 5.8C11.645 5.69 11.7757 5.635 11.933 5.635C12.0903 5.635 12.2242 5.69 12.3345 5.8C12.4448 5.91033 12.5 6.04433 12.5 6.202C12.5 6.35333 12.4447 6.4825 12.334 6.5895C12.2233 6.6965 12.089 6.75 11.931 6.75C11.9183 6.75 11.904 6.748 11.888 6.744C11.872 6.74 11.8547 6.73783 11.836 6.7375L11.1923 10.1502C11.1478 10.3864 10.9414 10.5575 10.701 10.5575L5.29868 10.558Z" fill="#FE8A01"/>
<defs>
<linearGradient id="paint0_linear_51226_24310" x1="1" y1="1" x2="1" y2="15" gradientUnits="userSpaceOnUse">
<stop stop-color="#FBF5D6"/>
<stop offset="1" stop-color="#FACE90"/>
</linearGradient>
</defs>
</svg>
