<svg width="24" height="24" viewBox="0 0 24 24" fill="none" xmlns="http://www.w3.org/2000/svg">
<path fill-rule="evenodd" clip-rule="evenodd" d="M11.5 3L14.435 8.993L21 9.96L16.25 14.622L17.371 21.208L11.5 18.097L5.629 21.208L6.75 14.622L2 9.96L8.564 8.993L11.5 3Z" fill="#EFE8FD"/>
<path d="M12.2498 2C12.5361 2.00002 12.7977 2.16285 12.9237 2.41992L15.6844 8.05762L21.8592 8.96777C22.1408 9.00927 22.3745 9.20691 22.4627 9.47754C22.5509 9.74825 22.4784 10.0457 22.2752 10.2451L17.8045 14.6318L18.8602 20.832C18.9081 21.1136 18.7918 21.398 18.5604 21.5654C18.3288 21.7329 18.0218 21.7549 17.7694 21.6211L12.2498 18.6953L6.73029 21.6211C6.4778 21.7549 6.17083 21.7329 5.93928 21.5654C5.70786 21.398 5.59154 21.1136 5.63947 20.832L6.69416 14.6318L2.22443 10.2451C2.02128 10.0457 1.94876 9.74825 2.03693 9.47754C2.12518 9.20692 2.35883 9.00927 2.64045 8.96777L8.8133 8.05762L11.576 2.41992L11.6297 2.32812C11.768 2.12474 11.9994 2 12.2498 2ZM9.98713 9.07324C9.89204 9.26711 9.71885 9.40911 9.5135 9.46582L9.42268 9.48535L4.35236 10.2314L8.02521 13.8369C8.20042 14.0089 8.28028 14.256 8.23908 14.498L7.37287 19.5811L11.8983 17.1846L11.9832 17.1465C12.1837 17.0702 12.4092 17.0828 12.6014 17.1846L17.1258 19.5811L16.2606 14.498C16.2194 14.256 16.2992 14.0089 16.4744 13.8369L20.1463 10.2314L15.076 9.48535C14.8316 9.44936 14.6203 9.29497 14.5115 9.07324L12.2488 4.45508L9.98713 9.07324Z" fill="#6214EB"/>
</svg>
