<svg width="24" height="24" viewBox="0 0 24 24" fill="none" xmlns="http://www.w3.org/2000/svg">
<path d="M13.7505 7.11107C13.7505 6.2326 13.2408 5.43993 12.4546 5.072L12.2935 5.00462L11.6538 4.76341C11.5421 4.72145 11.4188 4.76384 11.356 4.86009L11.3335 4.90501L9.04932 10.6433V19.2536H16.3755C17.1789 19.2536 17.8797 18.7069 18.0747 17.9275L19.1997 13.4255L19.2368 13.2283C19.2889 12.8318 19.2041 12.4289 18.9956 12.0876L18.8813 11.9226C18.591 11.5508 18.1647 11.3149 17.7017 11.2615L17.5005 11.2497H14.5005C14.0866 11.2495 13.7506 10.9137 13.7505 10.4997V7.11107ZM4.74658 18.5027C4.74658 18.9172 5.083 19.2536 5.49756 19.2536H7.54932V11.2488L5.49756 11.2497C5.08313 11.2497 4.74679 11.5854 4.74658 11.9997V18.5027ZM15.2505 9.74974H17.5015L17.688 9.75462C18.6189 9.80818 19.4854 10.2601 20.063 10.9997L20.1743 11.1501C20.6698 11.8658 20.8571 12.751 20.6948 13.6062L20.6548 13.7888L19.5298 18.2908C19.168 19.738 17.8673 20.7536 16.3755 20.7536H5.49756C4.25457 20.7536 3.24658 19.7457 3.24658 18.5027V11.9997C3.24679 10.7571 4.25401 9.75008 5.49658 9.74974L7.79053 9.74876L9.93994 4.35032L10.0132 4.18919C10.4168 3.41165 11.3461 3.04378 12.1831 3.35911L12.8228 3.60032L13.0903 3.71361C14.4007 4.3266 15.2505 5.64713 15.2505 7.11107V9.74974Z" fill="#203A3B"/>
</svg>
