<svg width="24" height="24" viewBox="0 0 24 24" fill="none" xmlns="http://www.w3.org/2000/svg">
<g clip-path="url(#clip0_18657_22334)">
<path d="M15.9795 2.39271C16.6667 1.83217 17.6805 1.87126 18.3213 2.51283L20.5723 4.7638L20.6924 4.89661C21.2532 5.58381 21.213 6.5966 20.5713 7.23743L20.5723 7.23841L7.23828 20.5714L7.23926 20.5724C6.91019 20.9031 6.46354 21.0861 6.00098 21.0861H2.75C2.33579 21.0861 2 20.7503 2 20.3361V17.0851C2.00008 16.6226 2.18306 16.1758 2.51367 15.8468L15.8467 2.51283L15.9795 2.39271ZM17.2598 3.57337C17.1754 3.48878 17.0447 3.47702 16.9473 3.54115L16.9072 3.57337L14.6875 5.7931L17.292 8.39759L19.5127 6.17689L19.5439 6.1388C19.5987 6.05635 19.5992 5.948 19.5439 5.86439L19.5117 5.82435L17.2598 3.57337ZM3.5 19.5861H6.00098C6.06808 19.5861 6.13091 19.5597 6.17578 19.5148L16.2314 9.45814L13.627 6.85365L3.57324 16.9083L3.57227 16.9103C3.52719 16.9551 3.50008 17.0179 3.5 17.0851V19.5861Z" fill="#565450"/>
</g>
<defs>
<clipPath id="clip0_18657_22334">
<rect width="24" height="24" fill="white"/>
</clipPath>
</defs>
</svg>
