<svg width="24" height="24" viewBox="0 0 24 24" fill="none" xmlns="http://www.w3.org/2000/svg">
<path d="M23.2153 4.48974C23.2046 4.30626 23.1269 4.1331 22.9969 4.00314C22.867 3.87318 22.6938 3.79546 22.5103 3.78474C17.6578 3.50349 13.7616 4.97912 12.0872 7.74287C10.9809 9.57006 10.9828 11.7891 12.0722 13.906C11.452 14.6441 10.9988 15.5076 10.7437 16.4372L9.21844 14.9063C9.95156 13.3754 9.92344 11.7797 9.12469 10.4541C7.88719 8.41131 5.03062 7.31631 1.48406 7.52443C1.30058 7.53515 1.12742 7.61286 0.997454 7.74283C0.867491 7.87279 0.789775 8.04595 0.77906 8.22943C0.569997 11.776 1.66593 14.6326 3.70875 15.8701C4.38283 16.282 5.1575 16.5 5.9475 16.5001C6.71427 16.4906 7.46911 16.3089 8.15625 15.9685L10.5 18.3122V21.0001C10.5 21.199 10.579 21.3897 10.7197 21.5304C10.8603 21.671 11.0511 21.7501 11.25 21.7501C11.4489 21.7501 11.6397 21.671 11.7803 21.5304C11.921 21.3897 12 21.199 12 21.0001V18.2354C11.9966 17.0422 12.4026 15.884 13.1503 14.9541C14.1149 15.4583 15.1848 15.7281 16.2731 15.7416C17.3253 15.745 18.358 15.4576 19.2572 14.911C22.0209 13.2385 23.5003 9.34224 23.2153 4.48974ZM4.48219 14.5876C3.04406 13.7166 2.23031 11.6551 2.25 9.00006C4.905 8.97756 6.96656 9.79412 7.8375 11.2322C8.29219 11.9822 8.36625 12.8569 8.06812 13.7579L5.77969 11.4694C5.63789 11.3347 5.44908 11.2607 5.25351 11.2632C5.05793 11.2657 4.87108 11.3445 4.73278 11.4828C4.59448 11.6211 4.51567 11.808 4.51317 12.0036C4.51066 12.1991 4.58466 12.3879 4.71937 12.5297L7.00781 14.8182C6.10687 15.1163 5.23312 15.0422 4.48219 14.5876ZM18.48 13.6294C17.2237 14.3897 15.7472 14.4479 14.2472 13.8169L19.2806 8.78256C19.4153 8.64076 19.4893 8.45195 19.4868 8.25638C19.4843 8.06081 19.4055 7.87395 19.2672 7.73565C19.1289 7.59735 18.9421 7.51854 18.7465 7.51604C18.5509 7.51354 18.3621 7.58753 18.2203 7.72224L13.1859 12.7501C12.5522 11.2501 12.6094 9.77256 13.3734 8.51724C14.6803 6.36099 17.7797 5.15912 21.7481 5.25193C21.8381 9.21943 20.6381 12.3226 18.48 13.6294Z" fill="#635242"/>
</svg>
