<svg width="10" height="11" viewBox="0 0 10 11" fill="none" xmlns="http://www.w3.org/2000/svg">
<g clip-path="url(#clip0_31212_52976)">
<path d="M4 1.99967C4 2.27745 3.94792 2.53613 3.84375 2.77572C3.73958 3.0153 3.59722 3.22711 3.41667 3.41113C3.23611 3.59516 3.02257 3.73926 2.77604 3.84342C2.52951 3.94759 2.27083 3.99967 2 3.99967C1.72222 3.99967 1.46354 3.94759 1.22396 3.84342C0.984375 3.73926 0.772569 3.5969 0.588542 3.41634C0.404514 3.23579 0.260417 3.02398 0.15625 2.78092C0.0520833 2.53787 0 2.27745 0 1.99967C0 1.72537 0.0520833 1.46669 0.15625 1.22363C0.260417 0.980577 0.402778 0.768772 0.583333 0.588216C0.763889 0.407661 0.975694 0.263563 1.21875 0.155924C1.46181 0.0482856 1.72222 -0.00379774 2 -0.000325521C2.27431 -0.000325521 2.53299 0.0517578 2.77604 0.155924C3.0191 0.260091 3.2309 0.402452 3.41146 0.583008C3.59201 0.763563 3.73611 0.977105 3.84375 1.22363C3.95139 1.47016 4.00347 1.72884 4 1.99967ZM2 3.33301C2.18403 3.33301 2.3559 3.29829 2.51562 3.22884C2.67535 3.1594 2.81771 3.06391 2.94271 2.94238C3.06771 2.82086 3.16319 2.68023 3.22917 2.52051C3.29514 2.36079 3.32986 2.18717 3.33333 1.99967C3.33333 1.81565 3.29861 1.64377 3.22917 1.48405C3.15972 1.32433 3.06424 1.18197 2.94271 1.05697C2.82118 0.931966 2.68056 0.83648 2.52083 0.770508C2.36111 0.704536 2.1875 0.669813 2 0.666341C1.81597 0.666341 1.6441 0.701063 1.48438 0.770508C1.32465 0.839952 1.18229 0.935438 1.05729 1.05697C0.932292 1.17849 0.836806 1.31912 0.770833 1.47884C0.704861 1.63856 0.670139 1.81217 0.666667 1.99967C0.666667 2.1837 0.701389 2.35558 0.770833 2.5153C0.840278 2.67502 0.935764 2.81738 1.05729 2.94238C1.17882 3.06738 1.31944 3.16287 1.47917 3.22884C1.63889 3.29481 1.8125 3.32954 2 3.33301ZM8 5.99967C8.27431 5.99967 8.53299 6.05176 8.77604 6.15592C9.0191 6.26009 9.2309 6.40245 9.41146 6.58301C9.59201 6.76356 9.73611 6.97711 9.84375 7.22363C9.95139 7.47016 10.0035 7.72884 10 7.99967C10 8.27745 9.94792 8.53613 9.84375 8.77572C9.73958 9.0153 9.59722 9.22711 9.41667 9.41113C9.23611 9.59516 9.02257 9.73926 8.77604 9.84342C8.52951 9.94759 8.27083 9.99967 8 9.99967C7.72222 9.99967 7.46354 9.94759 7.22396 9.84342C6.98438 9.73926 6.77257 9.5969 6.58854 9.41634C6.40451 9.23579 6.26042 9.02398 6.15625 8.78092C6.05208 8.53787 6 8.27745 6 7.99967C6 7.72537 6.05208 7.46669 6.15625 7.22363C6.26042 6.98058 6.40278 6.76877 6.58333 6.58822C6.76389 6.40766 6.97569 6.26356 7.21875 6.15592C7.46181 6.04829 7.72222 5.9962 8 5.99967ZM8 9.33301C8.18403 9.33301 8.3559 9.29829 8.51562 9.22884C8.67535 9.1594 8.81771 9.06391 8.94271 8.94238C9.06771 8.82086 9.16319 8.68023 9.22917 8.52051C9.29514 8.36079 9.32986 8.18717 9.33333 7.99967C9.33333 7.81565 9.29861 7.64377 9.22917 7.48405C9.15972 7.32433 9.06424 7.18197 8.94271 7.05697C8.82118 6.93197 8.68056 6.83648 8.52083 6.77051C8.36111 6.70454 8.1875 6.66981 8 6.66634C7.81597 6.66634 7.6441 6.70106 7.48438 6.77051C7.32465 6.83995 7.18229 6.93544 7.05729 7.05697C6.93229 7.17849 6.83681 7.31912 6.77083 7.47884C6.70486 7.63856 6.67014 7.81217 6.66667 7.99967C6.66667 8.1837 6.70139 8.35558 6.77083 8.5153C6.84028 8.67502 6.93576 8.81738 7.05729 8.94238C7.17882 9.06738 7.31944 9.16287 7.47917 9.22884C7.63889 9.29481 7.8125 9.32954 8 9.33301ZM7.875 -0.000325521L2.875 9.99967H2.125L7.125 -0.000325521H7.875Z" fill="#2B2B2B"/>
</g>
<defs>
<clipPath id="clip0_31212_52976">
<rect width="10" height="10.6667" fill="white"/>
</clipPath>
</defs>
</svg>
