<svg width="16" height="17" viewBox="0 0 16 17" fill="none" xmlns="http://www.w3.org/2000/svg">
<g clip-path="url(#clip0_50784_33095)">
<path fill-rule="evenodd" clip-rule="evenodd" d="M7.66645 2.27756C4.4138 2.27756 1.77756 4.9138 1.77756 8.16645C1.77756 11.4191 4.4138 14.0553 7.66645 14.0553C10.9191 14.0553 13.5553 11.4191 13.5553 8.16645C13.5553 4.9138 10.9191 2.27756 7.66645 2.27756ZM0.888672 8.16645C0.888672 4.42288 3.92288 1.38867 7.66645 1.38867C11.41 1.38867 14.4442 4.42288 14.4442 8.16645C14.4442 11.91 11.41 14.9442 7.66645 14.9442C3.92288 14.9442 0.888672 11.91 0.888672 8.16645ZM5.81445 6.64157C5.81445 5.61851 6.64325 4.78971 7.66631 4.78971C8.68936 4.78971 9.51816 5.61851 9.51816 6.64157C9.51816 7.43812 9.00194 7.8595 8.62617 8.1128L8.62563 8.11317C8.29823 8.33316 8.11075 8.52893 8.11075 8.8702V9.04612C8.11075 9.29158 7.91177 9.49057 7.66631 9.49057C7.42085 9.49057 7.22186 9.29158 7.22186 9.04612V8.8702C7.22186 8.06184 7.74483 7.63413 8.12955 7.37559C8.4489 7.16028 8.62927 6.97086 8.62927 6.64157C8.62927 6.10943 8.19844 5.6786 7.66631 5.6786C7.13417 5.6786 6.70334 6.10943 6.70334 6.64157C6.70334 6.88703 6.50436 7.08601 6.2589 7.08601C6.01344 7.08601 5.81445 6.88703 5.81445 6.64157ZM7.04594 11.1588C7.04431 10.8138 7.32419 10.5368 7.6656 10.5368C8.00772 10.5368 8.28668 10.8135 8.28668 11.1572C8.28668 11.4998 8.00888 11.7776 7.66631 11.7776C7.32427 11.7776 7.04681 11.5006 7.04594 11.1588ZM7.39779 11.1579L7.04595 11.1604C7.04595 11.1599 7.04594 11.1593 7.04594 11.1588C7.04594 11.1583 7.04594 11.1577 7.04594 11.1572H7.39779C7.39779 11.1574 7.39779 11.1576 7.39779 11.1579Z" fill="#FE9E2D"/>
</g>
<defs>
<clipPath id="clip0_50784_33095">
<rect width="16" height="16" fill="white" transform="translate(0 0.5)"/>
</clipPath>
</defs>
</svg>
