<svg width="24" height="24" viewBox="0 0 24 24" fill="none" xmlns="http://www.w3.org/2000/svg">
<path d="M5.46997 4.75985C9.29736 1.30196 15.2062 1.41699 18.8948 5.10555L19.2405 5.46981C22.5867 9.17367 22.5868 14.8265 19.2405 18.5304L18.8948 18.8946C15.2062 22.5832 9.29734 22.6982 5.46997 19.2403L5.10571 18.8946C1.2981 15.087 1.2981 8.91315 5.10571 5.10555L5.46997 4.75985ZM17.8342 6.1661C14.7131 3.045 9.71341 2.94814 6.47485 5.87411L6.16626 6.1661C2.94443 9.38791 2.94443 14.6122 6.16626 17.8341L6.47485 18.1261C9.71339 21.052 14.7131 20.9552 17.8342 17.8341L18.1262 17.5255C20.9578 14.3914 20.9578 9.60875 18.1262 6.47469L17.8342 6.1661ZM15.47 7.46981C15.7629 7.17695 16.2376 7.17693 16.5305 7.46981C16.8234 7.7627 16.8234 8.23747 16.5305 8.53036L8.53051 16.5304C8.23763 16.8232 7.76286 16.8232 7.46997 16.5304C7.17707 16.2375 7.17707 15.7627 7.46997 15.4698L15.47 7.46981Z" fill="#635242"/>
</svg>
