<svg width="24" height="24" viewBox="0 0 24 24" fill="none" xmlns="http://www.w3.org/2000/svg">
<path d="M20.4616 4.82052C20.4616 4.11202 19.888 3.53847 19.1795 3.53847H4.82052C4.11202 3.53847 3.53847 4.11202 3.53847 4.82052V17.1283C3.53847 17.8368 4.11202 18.4103 4.82052 18.4103H9.94874C10.1528 18.4103 10.3484 18.4914 10.4926 18.6357L12 20.1431L13.5074 18.6357L13.6246 18.5395C13.7501 18.4559 13.8983 18.4103 14.0513 18.4103H19.1795C19.888 18.4103 20.4616 17.8368 20.4616 17.1283V4.82052ZM13.2721 8.26705C13.2721 7.68467 12.5544 7.4452 12.1973 7.85539L12.1312 7.94553L10.3504 10.8602V13.4904L11.1827 14.1815L11.2558 14.2316C11.3327 14.2755 11.4208 14.2997 11.5102 14.2997H15.1851C15.3014 14.2995 15.4046 14.2219 15.4375 14.1084L16.1887 11.4812V11.4802L16.2118 11.344C16.2174 11.252 16.204 11.1596 16.1707 11.0735L16.1066 10.9503C15.9902 10.7752 15.7959 10.6719 15.5898 10.6719H14.0413C13.6165 10.6719 13.2721 10.3275 13.2721 9.90267V8.26705ZM7.78628 14.2997H8.81192V10.1971H7.78628V14.2997ZM14.8105 9.13343H15.5898C16.3129 9.13343 16.9872 9.49564 17.3877 10.098H17.3867C17.7403 10.6292 17.8443 11.2906 17.6681 11.9049L16.9169 14.5311V14.5321C16.6953 15.3041 15.9893 15.838 15.1851 15.8382H11.5102C11.0924 15.8382 10.6843 15.7102 10.3424 15.4736L10.2001 15.3654L10.102 15.2843C9.8519 15.6224 9.44246 15.8382 9.00823 15.8382H7.59096C6.8492 15.8382 6.24781 15.2368 6.24781 14.495V10.0008C6.24793 9.25917 6.84928 8.65867 7.59096 8.65867H9.00823C9.2902 8.65868 9.54324 8.74359 9.75243 8.88604L10.8181 7.14324L10.9293 6.97698C12.1278 5.33977 14.8105 6.15819 14.8105 8.26705V9.13343ZM22.0001 17.1283C22.0001 18.6864 20.7377 19.9488 19.1795 19.9488H14.3698L12.5439 21.7747C12.2435 22.0751 11.7566 22.0751 11.4562 21.7747L9.63023 19.9488H4.82052C3.26235 19.9488 2 18.6864 2 17.1283V4.82052C2 3.26235 3.26235 2 4.82052 2H19.1795C20.7377 2 22.0001 3.26235 22.0001 4.82052V17.1283Z" fill="#203A3B"/>
</svg>
