<svg width="24" height="24" viewBox="0 0 24 24" fill="none" xmlns="http://www.w3.org/2000/svg">
<path d="M2.41504 12.5V5.5C2.41504 3.84315 3.75818 2.5 5.41504 2.5H12.415C17.3856 2.5 21.415 6.52944 21.415 11.5V12.5C21.415 17.4706 17.3856 21.5 12.415 21.5V20C16.5572 20 19.915 16.6421 19.915 12.5V11.5C19.915 7.35786 16.5572 4 12.415 4H5.41504C4.58661 4 3.91504 4.67157 3.91504 5.5V12.5C3.91504 16.6421 7.2729 20 11.415 20V21.5C6.44448 21.5 2.41504 17.4706 2.41504 12.5ZM12.415 20V21.5H11.415V20H12.415Z" fill="#203A3B"/>
</svg>
