<svg width="7" height="7" viewBox="0 0 7 7" fill="none" xmlns="http://www.w3.org/2000/svg">
<path fill-rule="evenodd" clip-rule="evenodd" d="M3.4375 6.5625V6.5625C3.53673 6.56244 3.6206 6.48898 3.63375 6.39063L3.72625 5.69938C3.86328 4.67174 4.67174 3.86328 5.69938 3.72625L6.39063 3.63375C6.48898 3.6206 6.56244 3.53673 6.5625 3.4375V3.4375C6.56244 3.33827 6.48898 3.2544 6.39063 3.24125L5.69938 3.14875C4.67174 3.01172 3.86328 2.20326 3.72625 1.17563L3.63375 0.484375C3.6206 0.386023 3.53673 0.312564 3.4375 0.3125V0.3125C3.33827 0.312564 3.2544 0.386023 3.24125 0.484375L3.14875 1.17563C3.01172 2.20326 2.20326 3.01172 1.17563 3.14875L0.484375 3.24125C0.386023 3.2544 0.312564 3.33827 0.3125 3.4375H0.3125C0.312564 3.53673 0.386023 3.6206 0.484375 3.63375L1.17563 3.72625C2.20326 3.86328 3.01172 4.67174 3.14875 5.69938L3.24125 6.39063C3.2544 6.48898 3.33827 6.56244 3.4375 6.5625V6.5625Z" stroke="#565450" stroke-width="0.625" stroke-linecap="round" stroke-linejoin="round"/>
</svg>
