<svg width="17" height="17" viewBox="0 0 17 17" fill="none" xmlns="http://www.w3.org/2000/svg">
<path fill-rule="evenodd" clip-rule="evenodd" d="M1.66669 2.50016C1.66669 2.27004 1.85324 2.0835 2.08335 2.0835H3.4908C3.68728 2.0835 3.85705 2.22075 3.89822 2.41286L4.28004 4.19469H14.0465C14.3945 4.19468 14.7228 4.35645 14.9349 4.63246C15.147 4.90846 15.2187 5.26736 15.1291 5.60368L14.0035 9.82602L13.6009 9.7187L14.0035 9.82603C13.8727 10.3165 13.4285 10.6578 12.9209 10.6578H5.665L5.93882 11.9357H12.815C13.7254 11.9357 14.4632 12.6738 14.4632 13.584C14.4632 14.4943 13.7253 15.2322 12.815 15.2322C11.9048 15.2322 11.1669 14.4943 11.1669 13.584C11.1669 13.2876 11.2451 13.0094 11.3821 12.769H7.21084C7.34786 13.0094 7.42615 13.2876 7.42615 13.584C7.42615 14.4943 6.68823 15.2322 5.77796 15.2322C4.86769 15.2322 4.12978 14.4943 4.12978 13.584C4.12978 12.9092 4.53533 12.3288 5.11618 12.0739L3.15396 2.91683H2.08335C1.85324 2.91683 1.66669 2.73028 1.66669 2.50016ZM5.77779 12.769C5.32791 12.769 4.96311 13.1338 4.96311 13.584C4.96311 14.034 5.32793 14.3989 5.77796 14.3989C6.22799 14.3989 6.59281 14.034 6.59281 13.584C6.59281 13.134 6.22782 12.769 5.77779 12.769ZM12.815 12.769C12.3651 12.769 12.0002 13.1339 12.0002 13.584C12.0002 14.034 12.365 14.3989 12.815 14.3989C13.2651 14.3989 13.6299 14.034 13.6299 13.584C13.6299 13.1339 13.265 12.769 12.815 12.769ZM5.48643 9.82448H12.9209C13.051 9.82448 13.1648 9.73704 13.1983 9.61137L14.3239 5.38902L14.7265 5.49635L14.3239 5.38902C14.3468 5.30285 14.3284 5.2109 14.2741 5.14018C14.2198 5.06947 14.1357 5.02802 14.0465 5.02802H4.45861L5.48643 9.82448Z" fill="white"/>
</svg>
