<svg width="24" height="24" viewBox="0 0 24 24" fill="none" xmlns="http://www.w3.org/2000/svg">
<path fill-rule="evenodd" clip-rule="evenodd" d="M3.22897 12C3.32886 12.1749 3.46883 12.41 3.64761 12.6869C4.05392 13.316 4.65581 14.1529 5.43778 14.987C7.01539 16.6698 9.23713 18.25 12 18.25C14.7629 18.25 16.9846 16.6698 18.5622 14.987C19.3442 14.1529 19.9461 13.316 20.3524 12.6869C20.5312 12.41 20.6711 12.1749 20.771 12C20.6711 11.8251 20.5312 11.59 20.3524 11.3131C19.9461 10.684 19.3442 9.84705 18.5622 9.01296C16.9846 7.33017 14.7629 5.75 12 5.75C9.23713 5.75 7.01539 7.33017 5.43778 9.01296C4.65581 9.84705 4.05392 10.684 3.64761 11.3131C3.46883 11.59 3.32886 11.8251 3.22897 12ZM21.625 12C22.2958 11.6646 22.2957 11.6643 22.2956 11.6641L22.2952 11.6634L22.2943 11.6615L22.2914 11.6558L22.2818 11.637C22.2737 11.6212 22.2621 11.5989 22.2471 11.5706C22.2171 11.514 22.1735 11.4331 22.1163 11.3315C22.0021 11.1284 21.8336 10.8418 21.6125 10.4994C21.1711 9.81598 20.5152 8.90295 19.6565 7.98704C17.9529 6.16983 15.3621 4.25 12 4.25C8.63787 4.25 6.04711 6.16983 4.34347 7.98704C3.48481 8.90295 2.82889 9.81598 2.38755 10.4994C2.16641 10.8418 1.99792 11.1284 1.88367 11.3315C1.82652 11.4331 1.78286 11.514 1.75289 11.5706C1.73791 11.5989 1.72634 11.6212 1.71821 11.637L1.70861 11.6558L1.70575 11.6615L1.7048 11.6634L1.70445 11.6641C1.70431 11.6643 1.70418 11.6646 2.375 12L1.70418 11.6646C1.59861 11.8757 1.59861 12.1243 1.70418 12.3354L2.375 12C1.70418 12.3354 1.70431 12.3357 1.70445 12.3359L1.7048 12.3366L1.70575 12.3385L1.70861 12.3442L1.71821 12.363C1.72634 12.3788 1.73791 12.4011 1.75289 12.4294C1.78286 12.486 1.82652 12.5669 1.88367 12.6685C1.99792 12.8716 2.16641 13.1582 2.38755 13.5006C2.82889 14.184 3.48481 15.0971 4.34347 16.013C6.04711 17.8302 8.63787 19.75 12 19.75C15.3621 19.75 17.9529 17.8302 19.6565 16.013C20.5152 15.0971 21.1711 14.184 21.6125 13.5006C21.8336 13.1582 22.0021 12.8716 22.1163 12.6685C22.1735 12.5669 22.2171 12.486 22.2471 12.4294C22.2621 12.4011 22.2737 12.3788 22.2818 12.363L22.2914 12.3442L22.2943 12.3385L22.2952 12.3366L22.2956 12.3359C22.2957 12.3357 22.2958 12.3354 21.625 12ZM21.625 12L22.2958 12.3354C22.4014 12.1243 22.4014 11.8757 22.2958 11.6646L21.625 12ZM12 10.125C10.9645 10.125 10.125 10.9645 10.125 12C10.125 13.0355 10.9645 13.875 12 13.875C13.0355 13.875 13.875 13.0355 13.875 12C13.875 10.9645 13.0355 10.125 12 10.125ZM8.625 12C8.625 10.136 10.136 8.625 12 8.625C13.864 8.625 15.375 10.136 15.375 12C15.375 13.864 13.864 15.375 12 15.375C10.136 15.375 8.625 13.864 8.625 12Z" fill="#203A3B"/>
</svg>
