<svg fill="none" height="24" viewBox="0 0 24 24" width="24" xmlns="http://www.w3.org/2000/svg">
    <path clip-rule="evenodd" d="M15.2329 6.53583C12.8348 4.15472 8.94447 4.15472 6.54636 6.53583C4.15121 8.91401 4.15121 12.7676 6.54636 15.1458C8.90778 17.4904 12.7161 17.5263 15.1218 15.2534C15.1399 15.2303 15.1597 15.208 15.1809 15.1868C15.207 15.1606 15.2345 15.1369 15.2632 15.1154C17.628 12.7349 17.6179 8.90392 15.2329 6.53583ZM16.7579 15.7018C19.2666 12.7189 19.1105 8.2722 16.2898 5.47141C13.3067 2.50953 8.4725 2.50953 5.48948 5.47141C2.50351 8.43622 2.50351 13.2454 5.48948 16.2102C8.27849 18.9794 12.6858 19.1595 15.6853 16.7505L19.47 20.5307C19.7631 20.8234 20.2379 20.8231 20.5307 20.53C20.8234 20.2369 20.8231 19.7621 20.53 19.4693L16.7579 15.7018Z"
        fill="white"
        fill-rule="evenodd" />
</svg>
