<svg width="18" height="18" viewBox="0 0 18 18" fill="none" xmlns="http://www.w3.org/2000/svg">
<path d="M16.7083 8.99996C16.7083 4.74276 13.2572 1.29163 8.99996 1.29163C4.74276 1.29163 1.29163 4.74276 1.29163 8.99996C1.29163 13.2572 4.74276 16.7083 8.99996 16.7083C13.2572 16.7083 16.7083 13.2572 16.7083 8.99996ZM12.9672 7.38863L11.1614 8.59306C11.0235 8.68494 10.8543 8.71833 10.6919 8.68583C10.5295 8.65328 10.3866 8.55747 10.2947 8.41972L8.96252 6.42102L7.63114 8.41972C7.45155 8.68895 7.09895 8.77398 6.81897 8.62561L6.76445 8.59306L4.95862 7.38863V11.6863C4.95865 11.8524 5.09288 11.9873 5.25891 11.9874H12.667C12.833 11.9873 12.9672 11.8524 12.9672 11.6863V7.38863ZM14.2172 11.6863C14.2172 12.5427 13.5233 13.2373 12.667 13.2374H5.25891C4.40252 13.2373 3.70865 12.5427 3.70862 11.6863V7.0859C3.70865 6.68466 3.92946 6.31571 4.28316 6.12642L4.41907 6.06539C4.69643 5.96284 5.00416 5.97798 5.2703 6.10689L5.3997 6.18095L6.93697 7.20553L8.05758 5.52584L8.13977 5.41842C8.34494 5.18089 8.64507 5.04163 8.96334 5.04163L9.09762 5.04976C9.36472 5.08305 9.61014 5.21473 9.78609 5.41842L9.86829 5.52584L10.9881 7.20553L12.5262 6.18095L12.6556 6.10689C12.9217 5.97798 13.2294 5.96283 13.5068 6.06539L13.6427 6.12642L13.7688 6.20618C14.0481 6.40903 14.2172 6.73481 14.2172 7.0859V11.6863ZM17.9583 8.99996C17.9583 13.9475 13.9475 17.9583 8.99996 17.9583C4.05241 17.9583 0.041626 13.9475 0.041626 8.99996C0.041626 4.05241 4.05241 0.041626 8.99996 0.041626C13.9475 0.041626 17.9583 4.05241 17.9583 8.99996Z" fill="#203A3B"/>
</svg>
