<svg width="24" height="24" viewBox="0 0 24 24" fill="none" xmlns="http://www.w3.org/2000/svg">
<path fill-rule="evenodd" clip-rule="evenodd" d="M11.9487 2C12.1526 2 12.3482 2.08101 12.4924 2.22522L15.5695 5.30224C15.8697 5.60253 15.8697 6.08939 15.5695 6.38968C15.2692 6.68996 14.7823 6.68996 14.482 6.38968L12.7176 4.62531V15.077C12.7176 15.5017 12.3734 15.846 11.9487 15.846C11.524 15.846 11.1798 15.5017 11.1798 15.077V4.62531L9.41541 6.38968C9.11512 6.68996 8.62826 6.68996 8.32797 6.38968C8.02768 6.08939 8.02768 5.60253 8.32797 5.30224L11.405 2.22522C11.5492 2.08101 11.7448 2 11.9487 2ZM6.82034 9.69191C6.11209 9.69191 5.53793 10.2661 5.53793 10.9743V19.1797C5.53793 19.888 6.11209 20.4621 6.82034 20.4621H17.0771C17.7853 20.4621 18.3595 19.888 18.3595 19.1797V10.9743C18.3595 10.2661 17.7853 9.69191 17.0771 9.69191H15.0257C14.6011 9.69191 14.2568 9.34765 14.2568 8.92298C14.2568 8.49831 14.6011 8.15404 15.0257 8.15404H17.0771C18.6347 8.15404 19.8974 9.41673 19.8974 10.9743V19.1797C19.8974 20.7373 18.6347 22 17.0771 22H6.82034C5.26274 22 4.00006 20.7373 4.00006 19.1797V10.9743C4.00006 9.41673 5.26274 8.15404 6.82034 8.15404H8.87169C9.29636 8.15404 9.64063 8.49831 9.64063 8.92298C9.64063 9.34765 9.29636 9.69191 8.87169 9.69191H6.82034Z" fill="#203A3B"/>
</svg>
