<svg width="32" height="33" viewBox="0 0 32 33" fill="none" xmlns="http://www.w3.org/2000/svg">
<path d="M0 4.82324C0 2.6141 1.79086 0.823242 4 0.823242H28C30.2091 0.823242 32 2.6141 32 4.82324V28.8232C32 31.0324 30.2091 32.8232 28 32.8232H4C1.79086 32.8232 0 31.0324 0 28.8232V4.82324Z" fill="#F5EFE8"/>
<circle cx="14.875" cy="15.6982" r="7.875" fill="#BDDADB"/>
<path fill-rule="evenodd" clip-rule="evenodd" d="M15 8.57324C10.9959 8.57324 7.75 11.8192 7.75 15.8232C7.75 19.8273 10.9959 23.0732 15 23.0732C16.9606 23.0732 18.7395 22.295 20.0445 21.0305C20.0669 20.9999 20.092 20.9706 20.1197 20.9429C20.1474 20.9152 20.1767 20.8902 20.2073 20.8677C21.4717 19.5627 22.25 17.7839 22.25 15.8232C22.25 11.8192 19.0041 8.57324 15 8.57324ZM21.6949 21.4575C22.9773 19.9352 23.75 17.9695 23.75 15.8232C23.75 10.9908 19.8325 7.07324 15 7.07324C10.1675 7.07324 6.25 10.9908 6.25 15.8232C6.25 20.6557 10.1675 24.5732 15 24.5732C17.1462 24.5732 19.112 23.8005 20.6342 22.5181L24.4697 26.3536C24.7626 26.6465 25.2374 26.6465 25.5303 26.3536C25.8232 26.0607 25.8232 25.5858 25.5303 25.2929L21.6949 21.4575Z" fill="#203A3B"/>
</svg>
