<svg width="12" height="12" viewBox="0 0 12 12" fill="none" xmlns="http://www.w3.org/2000/svg">
<path d="M5.0966 3.82258C4.98219 3.82258 4.86778 3.78194 4.77746 3.69484L4.04287 2.98649V10.0645C4.04287 10.3026 3.83814 10.5 3.59126 10.5C3.34438 10.5 3.13965 10.3026 3.13965 10.0645V2.98642L2.40499 3.69484C2.23037 3.86323 1.94133 3.86323 1.76671 3.69484C1.59209 3.52645 1.59209 3.24774 1.76671 3.07936L3.27209 1.62774C3.44671 1.45936 3.73574 1.45936 3.91037 1.62774L5.41574 3.07936C5.59037 3.24774 5.59037 3.52645 5.41574 3.69484C5.32542 3.78194 5.21101 3.82258 5.0966 3.82258Z" fill="#203A3B"/>
<path d="M8.40843 10.5C8.29402 10.5 8.17961 10.4594 8.08929 10.3723L6.58391 8.92064C6.40929 8.75226 6.40929 8.47355 6.58391 8.30516C6.75854 8.13677 7.04757 8.13677 7.22219 8.30516L7.95685 9.01358V1.93548C7.95685 1.69742 8.16158 1.5 8.40846 1.5C8.65535 1.5 8.86008 1.69742 8.86008 1.93548V9.01351L9.59467 8.30516C9.76929 8.13677 10.0583 8.13677 10.2329 8.30516C10.4076 8.47355 10.4076 8.75226 10.2329 8.92064L8.72757 10.3723C8.63725 10.4594 8.52284 10.5 8.40843 10.5Z" fill="#203A3B"/>
</svg>
