<svg width="16" height="16" viewBox="0 0 16 16" fill="none" xmlns="http://www.w3.org/2000/svg">
<path d="M8.00009 1.5C8.43471 1.50001 8.83352 1.74165 9.0346 2.12695L10.6179 5.16146L13.5261 5.65104L13.6056 5.66732C13.9981 5.76166 14.3162 6.05378 14.4421 6.44141C14.568 6.8289 14.4821 7.25161 14.2201 7.55859L14.1655 7.61849L11.9929 9.83333L12.4871 13.1608L12.4962 13.2415C12.5276 13.6438 12.3485 14.0366 12.019 14.276C11.6894 14.5155 11.2604 14.5644 10.8875 14.4102L10.8132 14.3763L8.00009 12.9772L5.18694 14.3763C4.79778 14.5699 4.33285 14.5315 3.98121 14.276C3.62962 14.0206 3.44934 13.5907 3.51311 13.1608L4.0066 9.83333L1.83473 7.61849C1.53044 7.30825 1.42384 6.85471 1.55803 6.44141C1.69234 6.02804 2.04544 5.7232 2.47405 5.65104L5.3816 5.16146L6.96559 2.12695L7.00595 2.05664C7.217 1.71255 7.59259 1.5 8.00009 1.5ZM8.00009 2.5C7.95364 2.5 7.91003 2.5193 7.879 2.55208L7.8523 2.58984L6.15374 5.84505C6.08126 5.98394 5.94755 6.08079 5.79306 6.10677L2.63941 6.63672L2.64006 6.63737C2.57889 6.64767 2.52843 6.69103 2.5092 6.75C2.49002 6.80905 2.50479 6.87429 2.54827 6.91862L4.89527 9.3112C5.00478 9.423 5.05562 9.57956 5.03264 9.73438L4.50204 13.3073C4.49293 13.3687 4.5189 13.4303 4.5691 13.4668C4.61933 13.5033 4.68603 13.5088 4.74163 13.4811L7.77743 11.9714L7.83082 11.9486C7.95832 11.9027 8.09993 11.9103 8.22275 11.9714L11.2586 13.4811L11.3022 13.4961C11.3466 13.5044 11.3934 13.4941 11.4311 13.4668C11.4686 13.4395 11.4923 13.3982 11.4981 13.3535V13.3073L10.9675 9.73438C10.9446 9.57955 10.9954 9.42301 11.1049 9.3112L13.4519 6.91862L13.4786 6.88151C13.5004 6.8418 13.5054 6.79431 13.491 6.75C13.4718 6.69103 13.4213 6.64767 13.3601 6.63737V6.63672L10.2071 6.10677C10.0526 6.08079 9.91892 5.98394 9.84645 5.84505L8.14788 2.58984C8.11915 2.53481 8.06217 2.50001 8.00009 2.5Z" fill="#203A3B"/>
</svg>
