<svg width="24" height="24" viewBox="0 0 24 24" fill="none" xmlns="http://www.w3.org/2000/svg">
<path fill-rule="evenodd" clip-rule="evenodd" d="M8 3.75C5.65279 3.75 3.75 5.65279 3.75 8V11.2088C3.74999 15.56 6.82125 19.3064 11.088 20.1597M2.25 8C2.25 4.82436 4.82436 2.25 8 2.25H16C19.1756 2.25 21.75 4.82436 21.75 8V11.2088C21.75 16.2749 18.1742 20.6368 13.2064 21.6305C13.2036 21.6311 13.2007 21.6316 13.1978 21.6322C12.4042 21.7898 11.5873 21.7892 10.7938 21.6306C5.82597 20.637 2.24999 16.275 2.25 11.2088V8ZM11.088 20.1597C11.69 20.2801 12.3099 20.2801 12.912 20.1596C12.9146 20.1591 12.9172 20.1586 12.9198 20.1581C17.1825 19.3018 20.25 15.5573 20.25 11.2088V8C20.25 5.65279 18.3472 3.75 16 3.75H8" fill="#203A3B"/>
<path fill-rule="evenodd" clip-rule="evenodd" d="M12 11.5C12.6198 11.5 13.5 10.8298 13.5 9.5C13.5 8.17017 12.6198 7.5 12 7.5C11.3802 7.5 10.5 8.17017 10.5 9.5C10.5 10.8298 11.3802 11.5 12 11.5ZM12 13C13.6569 13 15 11.433 15 9.5C15 7.567 13.6569 6 12 6C10.3431 6 9 7.567 9 9.5C9 11.433 10.3431 13 12 13Z" fill="#203A3B"/>
<path fill-rule="evenodd" clip-rule="evenodd" d="M16.1824 16.6794C13.5318 15.4402 10.4682 15.4402 7.81765 16.6794C7.44242 16.8548 6.99602 16.6929 6.82059 16.3176C6.64516 15.9424 6.80712 15.496 7.18235 15.3206C10.2355 13.8931 13.7645 13.8931 16.8176 15.3206C17.1929 15.496 17.3548 15.9424 17.1794 16.3176C17.004 16.6929 16.5576 16.8548 16.1824 16.6794Z" fill="#203A3B"/>
</svg>
