<svg width="24" height="24" viewBox="0 0 24 24" fill="none" xmlns="http://www.w3.org/2000/svg">
<path fill-rule="evenodd" clip-rule="evenodd" d="M16.8595 18.6684L16.7161 18.3085C16.5808 17.9675 16.3701 17.6602 16.0999 17.4098L16.0366 17.3514L16.0348 17.3498C15.6194 16.9644 15.0736 16.75 14.5069 16.75H9.49294C8.92716 16.75 8.3815 16.9638 7.9648 17.3481L7.89957 17.4093C7.62988 17.659 7.41954 17.9658 7.28261 18.3088L7.13967 18.6678C10.026 20.7772 13.9729 20.7774 16.8595 18.6684ZM5.10571 5.10571C8.91332 1.2981 15.0867 1.2981 18.8943 5.10571C22.7019 8.91332 22.7019 15.0867 18.8943 18.8943C15.0867 22.7019 8.9133 22.7019 5.10571 18.8943C1.2981 15.0867 1.2981 8.9133 5.10571 5.10571ZM8.99476 6.9168C10.6545 5.25707 13.3454 5.25707 15.0052 6.9168C16.6649 8.57653 16.6649 11.2675 15.0052 12.9272C13.3454 14.5869 10.6545 14.5869 8.99476 12.9272C7.33503 11.2675 7.33503 8.57653 8.99476 6.9168Z" fill="#B09374"/>
</svg>
