<svg width="24" height="24" viewBox="0 0 24 24" fill="none" xmlns="http://www.w3.org/2000/svg">
<path fill-rule="evenodd" clip-rule="evenodd" d="M10.6221 4.51084C11.2313 3.44397 12.7684 3.44399 13.3775 4.51082L21.0366 17.915C21.6411 18.9733 20.8767 20.2899 19.6588 20.2899H4.34079C3.1216 20.2899 2.35801 18.9729 2.96298 17.915L10.6221 4.51084ZM9.31949 3.76705C10.5044 1.69192 13.4953 1.69189 14.6801 3.76706L22.3391 17.1709C23.5145 19.2286 22.029 21.7899 19.6588 21.7899H4.34079C1.97007 21.7899 0.483965 19.2287 1.66074 17.1706L9.31949 3.76705ZM12.7498 9.37994C12.7498 8.96573 12.414 8.62994 11.9998 8.62994C11.5856 8.62994 11.2498 8.96573 11.2498 9.37994V13.1199C11.2498 13.5341 11.5856 13.8699 11.9998 13.8699C12.414 13.8699 12.7498 13.5341 12.7498 13.1199V9.37994ZM13 16.3701C13 16.9224 12.5523 17.3701 12 17.3701C11.4477 17.3701 11 16.9224 11 16.3701C11 15.8178 11.4477 15.3701 12 15.3701C12.5523 15.3701 13 15.8178 13 16.3701Z" fill="#203A3B"/>
</svg>
