<svg width="24" height="24" viewBox="0 0 24 24" fill="none" xmlns="http://www.w3.org/2000/svg">
<path fill-rule="evenodd" clip-rule="evenodd" d="M3.75 12C3.75 7.44321 7.44321 3.75 12 3.75C16.5568 3.75 20.25 7.44321 20.25 12C20.25 16.5568 16.5568 20.25 12 20.25C7.44321 20.25 3.75 16.5568 3.75 12ZM12 2.25C6.61479 2.25 2.25 6.61479 2.25 12C2.25 17.3852 6.61479 21.75 12 21.75C17.3852 21.75 21.75 17.3852 21.75 12C21.75 6.61479 17.3852 2.25 12 2.25ZM12.75 7.5C12.75 7.08579 12.4142 6.75 12 6.75C11.5858 6.75 11.25 7.08579 11.25 7.5V12.5C11.25 12.9142 11.5858 13.25 12 13.25C12.4142 13.25 12.75 12.9142 12.75 12.5V7.5ZM12 17.2C12.5523 17.2 13 16.7522 13 16.2C13 15.6477 12.5523 15.2 12 15.2C11.4477 15.2 11 15.6477 11 16.2C11 16.7522 11.4477 17.2 12 17.2Z" fill="#203A3B"/>
</svg>
