<svg width="40" height="40" viewBox="0 0 40 40" fill="none" xmlns="http://www.w3.org/2000/svg">
<path d="M17.0879 24.5811H11.2513V30.8343C11.2513 32.4461 12.5578 33.7542 14.1696 33.7542C15.7811 33.7538 17.0879 32.4459 17.0879 30.8343V24.5811ZM11.2513 22.0811H17.0879V14.5778H11.2513V22.0811ZM26.2611 13.3311C26.2611 11.3882 24.7841 9.78931 22.8919 9.59733L22.3809 9.57129C21.7505 9.50727 21.2594 8.975 21.2594 8.3278C21.2597 7.63765 21.8192 7.0778 22.5094 7.0778L22.8919 7.05827C24.7841 6.86625 26.2611 5.26897 26.2611 3.32617C26.2611 2.63582 26.8207 2.07617 27.5111 2.07617C28.1579 2.07635 28.6902 2.56774 28.7546 3.19759L28.7806 3.71029C28.973 5.60201 30.5702 7.07775 32.5127 7.0778C33.2029 7.0778 33.7624 7.63765 33.7627 8.3278C33.7627 9.01816 33.2031 9.5778 32.5127 9.5778C30.57 9.57785 28.9727 11.0549 28.7806 12.9469L28.7546 13.458C28.6906 14.0883 28.1582 14.5809 27.5111 14.5811C26.821 14.5811 26.2615 14.0211 26.2611 13.3311ZM27.5111 7.07617C27.1551 7.55021 26.7334 7.97179 26.2594 8.3278C26.7331 8.68347 27.1553 9.10427 27.5111 9.5778C27.8666 9.10461 28.2878 8.68329 28.7611 8.3278C28.2874 7.97197 27.8668 7.54988 27.5111 7.07617ZM19.5879 30.8343C19.5879 33.8266 17.1618 36.2538 14.1696 36.2542C11.2707 36.2542 8.90311 33.977 8.75781 31.1143L8.7513 30.8343V14.5778H8.33301C7.64267 14.5778 7.08304 14.0181 7.08301 13.3278C7.08301 12.6374 7.64265 12.0778 8.33301 12.0778H20.0046L20.1331 12.0843C20.7631 12.1487 21.2546 12.6809 21.2546 13.3278C21.2545 13.9747 20.7631 14.5069 20.1331 14.5713L20.0046 14.5778H19.5879V30.8343Z" fill="#F3F2F1"/>
</svg>
