<svg width="56" height="56" viewBox="0 0 56 56" fill="none" xmlns="http://www.w3.org/2000/svg">
<g clip-path="url(#clip0_12545_18423)">
<path d="M28 56C12.5613 56 0 43.4387 0 28C0 12.5613 12.5613 0 28 0C43.4387 0 56 12.5613 56 28C56 43.4387 43.4387 56 28 56ZM28 1.52828C13.4034 1.52828 1.52828 13.4034 1.52828 28C1.52828 42.5966 13.4034 54.4717 28 54.4717C42.5966 54.4717 54.4717 42.5966 54.4717 28C54.4717 13.4034 42.5966 1.52828 28 1.52828Z" fill="white"/>
<path d="M9.40625 14.8767L11.3221 12.4219L12.0549 12.9944L10.7932 14.6116L11.2711 14.9845L12.4147 13.5204L13.098 14.0536L11.9544 15.5178L12.4497 15.9053L13.7288 14.2663L14.466 14.8418L12.5327 17.3185L9.40625 14.8767Z" fill="white"/>
<path d="M11.7896 11.7227L12.6768 11.0161L14.6334 12.3914L13.7826 10.1216L14.5052 9.54613L16.5244 10.8865L15.6241 8.67054L16.4939 7.97852L17.9668 11.9107L17.2354 12.492L15.2089 11.1866L16.0204 13.4593L15.289 14.0406L11.791 11.7198L11.7896 11.7227Z" fill="white"/>
<path d="M17.896 9.60698L17.8917 9.59679C17.4109 8.54491 17.8378 7.35317 18.9246 6.85637C19.5438 6.57374 20.0683 6.56354 20.5913 6.7238L20.3436 7.697C19.9925 7.59502 19.6895 7.58482 19.3384 7.74508C18.8299 7.97818 18.6361 8.59007 18.8882 9.14078L18.8926 9.15098C19.1621 9.7381 19.7492 9.97412 20.3087 9.71917C20.5505 9.60844 20.7078 9.47441 20.804 9.31269L20.6029 8.87417L19.9138 9.18886L19.5787 8.4575L21.1944 7.71885L21.9345 9.33746C21.7087 9.82697 21.3066 10.3034 20.6627 10.5977C19.5656 11.0988 18.3972 10.6982 17.8975 9.60553L17.896 9.60698Z" fill="white"/>
<path d="M22.5791 5.56883L23.7592 5.38672L25.0121 7.73523L25.5016 5.11865L26.6599 4.93945L25.7202 9.12802L24.7368 9.27953L22.5806 5.56883H22.5791Z" fill="white"/>
<path d="M27.4452 4.93945L30.5527 5.10262L30.5046 6.03067L28.4563 5.92286L28.4257 6.52892L30.2803 6.62653L30.2351 7.49193L28.3805 7.39432L28.3484 8.02224L30.4245 8.1315L30.3764 9.06537L27.2412 8.90074L27.4481 4.93945H27.4452Z" fill="white"/>
<path d="M31.4004 5.20312L33.1836 5.61397C33.7606 5.74655 34.1233 5.99276 34.3171 6.31182C34.4861 6.58863 34.5313 6.90769 34.4439 7.28794L34.4409 7.29959C34.304 7.89546 33.9063 8.21598 33.3905 8.31213L33.9806 9.86664L32.7786 9.58983L32.2877 8.24512L31.8244 8.13876L31.5548 9.30865L30.5088 9.06826L31.3975 5.20458L31.4004 5.20312ZM32.7145 7.45985C33.0642 7.53998 33.3148 7.41177 33.3803 7.13059L33.3832 7.11894C33.4546 6.81008 33.2696 6.60465 32.9243 6.52453L32.2352 6.36572L32.021 7.29814L32.716 7.45839L32.7145 7.45985Z" fill="white"/>
<path d="M35.4498 6.26367L36.4521 6.64829L35.036 10.3517L34.0337 9.96855L35.4498 6.26513V6.26367Z" fill="white"/>
<path d="M37.2593 6.95458L39.988 8.42167L39.532 9.26958L37.7488 8.31095L37.4297 8.90536L39.0425 9.77221L38.6113 10.575L36.9985 9.70811L36.3283 10.9552L35.3828 10.4468L37.2593 6.95312V6.95458Z" fill="white"/>
<path d="M40.4977 8.83008L41.3703 9.45508L39.0626 12.6836L38.1899 12.06L40.4977 8.83153V8.83008Z" fill="white"/>
<path d="M42.0746 9.94727L44.3561 12.0641L43.7238 12.746L42.2203 11.3503L41.808 11.7946L43.1702 13.0577L42.5802 13.6929L41.218 12.4298L40.7896 12.8916L42.3136 14.3063L41.6769 14.991L39.375 12.8552L42.0746 9.94872V9.94727Z" fill="white"/>
<path d="M44.9733 12.7344L45.8635 13.9392C46.6808 15.0465 46.5001 16.177 45.5794 16.8574L45.5706 16.8647C44.6499 17.545 43.4829 17.395 42.6583 16.279L41.7812 15.0916L44.9748 12.7358L44.9733 12.7344ZM44.8305 14.1723L43.2017 15.3743L43.461 15.7254C43.8457 16.2455 44.3905 16.3722 44.9048 15.992L44.9136 15.9847C45.4249 15.6074 45.473 15.0435 45.0884 14.522L44.8291 14.1709L44.8305 14.1723Z" fill="white"/>
<path d="M9.87902 18.104L9.88922 18.1084C10.2141 18.2628 10.3467 18.662 10.2025 18.965C10.0611 19.2637 9.66631 19.4196 9.34143 19.2651L9.33123 19.2608C9.00634 19.1063 8.86794 18.7217 9.018 18.4041C9.16806 18.0865 9.55413 17.951 9.87902 18.104Z" fill="white"/>
<path d="M10.2974 21.7983L9.67388 24.2648L9.42766 24.2036L9.98565 21.9964L8.51419 21.6264L8.01302 23.6078L7.76681 23.5466L8.26798 21.5652L6.64209 21.1558L6.70765 20.8965L10.2974 21.7998V21.7983Z" fill="white"/>
<path d="M7.77462 24.2301H7.78482C8.79153 24.3059 9.63944 25.0999 9.55785 26.1911C9.47627 27.2823 8.53075 27.9321 7.52403 27.8563H7.51384C6.50567 27.7806 5.65921 26.9865 5.7408 25.8953C5.82238 24.8027 6.76791 24.1543 7.77462 24.2301ZM7.52403 27.578H7.53423C8.44625 27.6465 9.24462 27.0536 9.31164 26.1634C9.37866 25.2718 8.68809 24.5783 7.77608 24.5098H7.76588C6.85386 24.4414 6.05549 25.0343 5.98847 25.9245C5.92145 26.8161 6.61202 27.5096 7.52403 27.578Z" fill="white"/>
<path d="M9.39056 28.4146L9.5581 29.9239C9.60763 30.3653 9.50419 30.7339 9.30751 30.9743C9.15308 31.1622 8.91707 31.2919 8.65483 31.321H8.64463C8.02982 31.3895 7.62772 30.983 7.4762 30.3872L6.03534 31.7465L5.99746 31.4085L7.39462 30.0958L7.26495 28.9215L5.73959 29.0905L5.71045 28.8239L9.39056 28.4175V28.4146ZM7.64666 30.1031C7.71368 30.7033 8.07353 31.1156 8.60384 31.0574H8.61403C9.10792 31.002 9.37599 30.5868 9.30314 29.9355L9.16765 28.7088L7.51117 28.8924L7.6452 30.1031H7.64666Z" fill="white"/>
<path d="M8.39382 34.6711L9.98766 32.4668L10.0998 32.7829L8.675 34.7206L11.0031 35.3383L11.1095 35.6399L8.48852 34.9231L7.10156 35.4126L7.01123 35.1591L8.39236 34.6711H8.39382Z" fill="white"/>
<path d="M9.35911 36.3079L9.36785 36.3021C10.2522 35.8155 11.3958 36.0166 11.9232 36.9752C12.4506 37.9338 12.0136 38.993 11.1278 39.4796L11.119 39.4854C10.2347 39.972 9.09104 39.771 8.56365 38.8123C8.03625 37.8537 8.47332 36.7945 9.35911 36.3079ZM10.9763 39.2465L10.985 39.2407C11.7863 38.7992 12.1301 37.8683 11.7003 37.0859C11.2691 36.3036 10.3134 36.0996 9.51208 36.541L9.50188 36.5454C8.70059 36.9868 8.35531 37.9178 8.78655 38.7002C9.21633 39.4825 10.1735 39.6865 10.9748 39.245L10.9763 39.2465Z" fill="white"/>
<path d="M11.3198 40.2674L12.9865 38.8906L13.1584 39.0975L11.5121 40.4582C10.8405 41.0133 10.7458 41.6879 11.2324 42.275C11.7 42.8403 12.3498 42.9131 13.0389 42.3435L14.7056 40.9667L14.8775 41.1736L13.2356 42.5314C12.4168 43.2074 11.5952 43.1025 11.0357 42.428C10.4821 41.7592 10.5229 40.9303 11.3213 40.2703L11.3198 40.2674Z" fill="white"/>
<path d="M15.2525 41.541L16.4064 42.5244C16.7444 42.8129 16.9236 43.1523 16.944 43.4612C16.96 43.7045 16.8784 43.9609 16.7065 44.162L16.7007 44.1692C16.2986 44.6398 15.7275 44.618 15.2088 44.2873L15.0893 46.2628L14.83 46.0413L14.9495 44.1284L14.0506 43.3607L13.0555 44.5276L12.8516 44.3543L15.254 41.5396L15.2525 41.541ZM15.1374 43.9653C15.5963 44.3572 16.1412 44.4111 16.488 44.0046L16.4952 43.9973C16.8172 43.62 16.7298 43.1348 16.2301 42.7094L15.2919 41.9096L14.2108 43.1771L15.1374 43.9667V43.9653Z" fill="white"/>
<path d="M18.755 44.2676L18.9954 44.3885L18.2218 45.9168L20.2877 46.9599L21.0613 45.4316L21.3002 45.5526L19.6306 48.8553L19.3903 48.7344L20.1726 47.1872L18.1082 46.1455L17.3258 47.6927L17.0854 47.5718L18.755 44.269V44.2676Z" fill="white"/>
<path d="M21.8666 45.7656L24.323 46.5203L24.2487 46.7621L22.0487 46.0861L21.6219 47.476L23.5989 48.0835L23.5246 48.3268L21.5476 47.7193L21.112 49.1398L23.3366 49.8245L23.2623 50.0664L20.7812 49.3044L21.8666 45.7656Z" fill="white"/>
<path d="M26.0939 46.7554L26.3503 46.7874L27.5697 50.6919L27.2769 50.6569L26.9462 49.573L24.8293 49.3151L24.248 50.2883L23.9712 50.2548L26.091 46.7568L26.0939 46.7554ZM26.8646 49.3108L26.1798 47.0701L24.9735 49.0806L26.8646 49.3108Z" fill="white"/>
<path d="M28.2749 46.9423L28.543 46.9277L28.7236 50.3704L30.8419 50.2582L30.855 50.5117L28.4672 50.6384L28.2734 46.9423H28.2749Z" fill="white"/>
<path d="M31.5623 46.9009L30.324 47.1297L30.2788 46.8805L33.0192 46.375L33.0658 46.6241L31.8275 46.8529L32.4525 50.2416L32.1888 50.2911L31.5638 46.9024L31.5623 46.9009Z" fill="white"/>
<path d="M33.3428 46.288L33.5934 46.1948L34.1936 47.8003L36.36 46.9917L35.7597 45.3862L36.0103 45.293L37.307 48.7604L37.0549 48.8551L36.4474 47.2306L34.281 48.0407L34.8885 49.6651L34.6379 49.7583L33.3413 46.2909L33.3428 46.288Z" fill="white"/>
<path d="M38.6557 45.9214L38.6499 45.9127C38.4547 45.6111 38.5523 45.2017 38.8349 45.0196C39.1117 44.8404 39.5298 44.9162 39.7251 45.2177L39.7309 45.2265C39.9261 45.528 39.8402 45.9302 39.5459 46.121C39.2501 46.3119 38.8509 46.2244 38.6557 45.9214Z" fill="white"/>
<path d="M40.2271 42.5541L42.0525 40.7446L42.2317 40.9238L40.5971 42.5453L41.6213 43.5783L43.0913 42.1214L43.2705 42.302L41.8005 43.7589L42.8465 44.8137L44.5001 43.1747L44.6779 43.3539L42.8334 45.1823L40.2271 42.5555V42.5541Z" fill="white"/>
<path d="M42.1958 40.7619L42.3575 40.5098L45.7462 41.3271L43.5318 38.6552L43.6425 38.4818L46.9977 39.3705L44.8328 36.6389L44.9828 36.4043L47.4188 39.5177L47.3022 39.7012L44.0227 38.8606L46.1629 41.4845L46.0464 41.668L42.1973 40.7648L42.1958 40.7619Z" fill="white"/>
<path d="M46.5891 37.0751L46.5789 37.0722C45.6392 36.7313 45.0215 35.7552 45.3887 34.7412C45.5897 34.1876 45.8855 33.9006 46.2963 33.6646L46.4303 33.8991C46.0952 34.0798 45.8039 34.326 45.6174 34.8388C45.3187 35.6634 45.8243 36.5011 46.6649 36.8042L46.6751 36.8085C47.5754 37.1349 48.4452 36.8304 48.7745 35.9227C48.9304 35.49 48.8939 35.0209 48.7686 34.6975L47.7692 34.3347L47.3569 35.4696L47.118 35.3822L47.6177 34.004L48.9595 34.4906C49.127 34.8971 49.1984 35.4609 48.9974 36.0131C48.6084 37.0853 47.5682 37.4277 46.5891 37.0722V37.0751Z" fill="white"/>
<path d="M49.1641 33.6842L49.2427 33.3535L49.6798 33.457L49.6011 33.7891L49.1641 33.6857V33.6842Z" fill="white"/>
<path d="M48.0627 32.673H48.0525C47.0501 32.5536 46.2372 31.7246 46.3654 30.6378C46.4936 29.5509 47.4639 28.9434 48.4677 29.0614H48.4779C49.4802 29.1809 50.2932 30.0098 50.165 31.0967C50.0368 32.1835 49.0665 32.791 48.0641 32.673H48.0627ZM48.456 29.3397H48.4444C47.5367 29.2304 46.7151 29.7884 46.6102 30.6756C46.5053 31.5629 47.1652 32.2855 48.0729 32.3919H48.0831C48.9907 32.4997 49.8124 31.9431 49.9173 31.0559C50.0222 30.1686 49.3622 29.446 48.4546 29.3382L48.456 29.3397Z" fill="white"/>
<path d="M46.5994 28.404L46.496 26.8888C46.4654 26.4459 46.5834 26.0802 46.7903 25.8486C46.952 25.6665 47.1939 25.547 47.4576 25.5281H47.4678C48.0855 25.4844 48.4686 25.9083 48.5939 26.5115L50.0902 25.2134L50.1135 25.5528L48.6624 26.8072L48.7425 27.9858L50.2723 27.8809L50.2897 28.149L46.598 28.4025L46.5994 28.404ZM48.4118 26.7883C48.371 26.1851 48.0287 25.7583 47.4969 25.7947H47.4867C46.9913 25.8296 46.7058 26.2317 46.751 26.8859L46.8355 28.117L48.4963 28.0033L48.4133 26.7883H48.4118Z" fill="white"/>
<path d="M48.1795 24.8888L48.1693 24.8917C47.199 25.1321 46.1398 24.6674 45.8805 23.6213C45.7377 23.0502 45.8237 22.6467 46.0335 22.2227L46.2753 22.3436C46.0976 22.6802 45.9927 23.0458 46.1252 23.5776C46.3365 24.4284 47.2252 24.8407 48.0921 24.6251L48.1023 24.6222C49.0317 24.392 49.5825 23.6534 49.3508 22.7166C49.2401 22.2708 48.9472 21.9022 48.6617 21.7026L47.6302 21.959L47.9216 23.1303L47.6754 23.1915L47.3214 21.7696L48.7069 21.4258C49.0725 21.6691 49.447 22.0974 49.5883 22.6685C49.8636 23.7743 49.1905 24.6397 48.1795 24.8903V24.8888Z" fill="white"/>
<path d="M46.5565 19.7656L46.5478 19.77C46.2244 19.9258 45.8295 19.7772 45.6853 19.4742C45.5425 19.1755 45.6707 18.772 45.9956 18.6161L46.0058 18.6117C46.3292 18.4558 46.7168 18.5913 46.8683 18.9075C47.0198 19.2236 46.8829 19.6112 46.558 19.7656H46.5565Z" fill="white"/>
<path d="M26.5674 14.7598C26.5281 14.7598 26.4902 14.7612 26.4523 14.767C19.7404 15.5465 14.6792 21.2357 14.6792 28.0015C14.6792 34.7673 19.7419 40.4593 26.4567 41.2359C27.0074 41.3014 27.4926 40.9037 27.5537 40.3661C27.5843 40.1039 27.5115 39.8445 27.3469 39.6377C27.1822 39.4308 26.9477 39.2997 26.684 39.2691C20.9686 38.6076 16.6591 33.7635 16.6591 28.0015C16.6591 22.2394 20.9686 17.3967 26.6796 16.7339C27.223 16.6712 27.612 16.1788 27.5494 15.6368C27.4911 15.1371 27.0701 14.7598 26.5674 14.7598Z" fill="white"/>
<path d="M29.4403 14.7598C28.9377 14.7598 28.5167 15.1371 28.4584 15.6368C28.3957 16.1788 28.7862 16.6712 29.3281 16.7339C35.0406 17.3982 39.3501 22.2409 39.3501 28.0015C39.3501 33.762 35.0406 38.6076 29.3252 39.269C29.063 39.2996 28.827 39.4308 28.6638 39.6376C28.4992 39.8445 28.4249 40.1038 28.4555 40.3661C28.5167 40.9037 29.0047 41.3 29.5525 41.2359C36.2673 40.4593 41.33 34.7687 41.33 28.0015C41.33 21.2342 36.2688 15.5465 29.5569 14.767C29.5175 14.7627 29.4797 14.7598 29.4403 14.7598Z" fill="white"/>
<path d="M19.4451 28.5425C19.3868 28.5425 19.3286 28.5483 19.2703 28.5585C19.0095 28.6051 18.7837 28.7494 18.6322 28.9664C18.4806 29.1835 18.4238 29.4457 18.4705 29.7065C19.2936 34.3307 23.3044 37.6859 28.0058 37.6859C32.7072 37.6859 36.7166 34.3307 37.5412 29.7065C37.6373 29.1689 37.2775 28.6547 36.7399 28.5585C36.6816 28.5483 36.6248 28.5425 36.565 28.5425C36.0843 28.5425 35.6763 28.8863 35.5904 29.3598C34.9362 33.037 31.7456 35.706 28.0058 35.706C24.266 35.706 21.0754 33.037 20.4198 29.3583C20.3353 28.8848 19.9259 28.541 19.4466 28.541" fill="white"/>
<path d="M28.0106 18.3179C25.6825 18.3179 23.4316 19.1556 21.6731 20.678C19.9336 22.183 18.7827 24.2591 18.4345 26.5231C18.3514 27.0621 18.7229 27.5691 19.262 27.6522C19.3115 27.6595 19.3625 27.6638 19.4135 27.6638C19.8972 27.6638 20.3168 27.3025 20.3896 26.8247C20.6664 25.0254 21.5828 23.3747 22.9668 22.1757C24.3655 20.965 26.156 20.2992 28.0091 20.2992C29.8623 20.2992 31.6514 20.965 33.05 22.1757C34.4355 23.3747 35.3504 25.0254 35.6287 26.8232C35.7015 27.3025 36.1211 27.6624 36.6048 27.6624C36.6558 27.6624 36.7068 27.658 36.7563 27.6507C37.0186 27.6114 37.2473 27.4715 37.4046 27.2574C37.5605 27.0432 37.6246 26.7824 37.5853 26.5216C37.2356 24.2591 36.0876 22.183 34.3466 20.678C32.5896 19.1556 30.3387 18.3179 28.0106 18.3179Z" fill="white"/>
<path d="M28.0381 22.0137C24.7339 22.0137 22.0459 24.7016 22.0459 28.0073C22.0459 31.313 24.7339 34.001 28.0381 34.001C29.5212 34.001 30.9431 33.4576 32.0402 32.4698C32.2354 32.2702 32.3476 31.9978 32.3476 31.7122C32.3476 31.109 31.8566 30.6181 31.2535 30.6181C30.9752 30.6181 30.7086 30.723 30.5061 30.9138L30.4769 30.9386C29.7922 31.5068 28.9268 31.8186 28.0381 31.8186C25.9373 31.8186 24.2269 30.1082 24.2269 28.0073C24.2269 25.9065 25.9373 24.1961 28.0381 24.1961C29.6407 24.1961 31.0815 25.2101 31.625 26.718L31.6963 26.9161L27.0052 26.9205C26.4399 26.9642 25.997 27.4435 25.997 28.0088C25.997 28.6105 26.4865 29.1 27.0882 29.1C27.0969 29.1 27.1042 29.1 27.113 29.1H27.129L32.8531 29.0985C33.4548 29.0985 33.9443 28.609 33.9443 28.0073C33.9443 26.4033 33.3354 24.8983 32.2296 23.7707C31.118 22.6372 29.6305 22.0137 28.0366 22.0137" fill="white"/>
<path d="M47.6396 4.78386V4.77075C47.6396 3.58047 48.6041 2.57812 49.8192 2.57812C51.0342 2.57812 51.9987 3.56735 51.9987 4.75763V4.77075C51.9987 5.96103 51.0342 6.96337 49.8192 6.96337C48.6041 6.96337 47.6396 5.97414 47.6396 4.78386ZM51.7495 4.77075V4.75763C51.7495 3.69265 50.922 2.8156 49.8206 2.8156C48.7192 2.8156 47.8917 3.70576 47.8917 4.77075V4.78386C47.8917 5.84885 48.7192 6.72589 49.8206 6.72589C50.922 6.72589 51.7495 5.83573 51.7495 4.77075ZM48.8678 3.58047H49.9707C50.5345 3.58047 50.9351 3.81794 50.9351 4.35699C50.9351 4.71976 50.7472 4.97034 50.4587 5.08398L51.0094 5.88527H50.2577L49.7944 5.19616H49.519V5.88527H48.8678V3.58047ZM49.9328 4.68333C50.1586 4.68333 50.2839 4.57115 50.2839 4.40798C50.2839 4.23315 50.1586 4.13263 49.9328 4.13263H49.519V4.68333H49.9328Z" fill="white"/>
</g>
<defs>
<clipPath id="clip0_12545_18423">
<rect width="56" height="56" fill="white"/>
</clipPath>
</defs>
</svg>
