<svg width="17" height="16" viewBox="0 0 17 16" fill="none" xmlns="http://www.w3.org/2000/svg">
<path d="M10.7499 6.8335C10.7499 6.18916 10.2276 5.66683 9.58325 5.66683H4.24992C3.60559 5.66683 3.08325 6.18916 3.08325 6.8335V12.1668C3.08325 12.8112 3.60559 13.3335 4.24992 13.3335H9.58325C10.2276 13.3335 10.7499 12.8112 10.7499 12.1668V6.8335ZM5.41658 8.8335V6.8335C5.41658 6.55735 5.64044 6.3335 5.91658 6.3335C6.19273 6.3335 6.41658 6.55735 6.41658 6.8335V8.8335C6.41658 9.47783 6.93892 10.0002 7.58325 10.0002H9.58325C9.85939 10.0002 10.0833 10.224 10.0833 10.5002C10.0833 10.7763 9.85939 11.0002 9.58325 11.0002H7.58325C6.38663 11.0002 5.41658 10.0301 5.41658 8.8335ZM14.0833 8.8335V3.50016C14.0833 2.85583 13.5609 2.3335 12.9166 2.3335H7.58325C6.93892 2.3335 6.41658 2.85583 6.41658 3.50016C6.41658 3.7763 6.19273 4.00016 5.91658 4.00016C5.64044 4.00016 5.41658 3.7763 5.41658 3.50016C5.41658 2.30355 6.38663 1.3335 7.58325 1.3335H12.9166C14.1132 1.3335 15.0833 2.30355 15.0833 3.50016V8.8335C15.0833 10.0301 14.1132 11.0002 12.9166 11.0002C12.6404 11.0002 12.4166 10.7763 12.4166 10.5002C12.4166 10.224 12.6404 10.0002 12.9166 10.0002C13.5609 10.0002 14.0833 9.47783 14.0833 8.8335ZM11.7499 12.1668C11.7499 13.3634 10.7799 14.3335 9.58325 14.3335H4.24992C3.0533 14.3335 2.08325 13.3634 2.08325 12.1668V6.8335C2.08325 5.63688 3.0533 4.66683 4.24992 4.66683H9.58325C10.7799 4.66683 11.7499 5.63688 11.7499 6.8335V12.1668Z" fill="#203A3B"/>
</svg>
