<svg width="17" height="16" viewBox="0 0 17 16" fill="none" xmlns="http://www.w3.org/2000/svg">
<path d="M3.74992 11.5C4.02606 11.5 4.24992 11.7239 4.24992 12C4.24992 12.2761 4.02606 12.5 3.74992 12.5H3.08325C2.80711 12.5 2.58325 12.2761 2.58325 12C2.58325 11.7239 2.80711 11.5 3.08325 11.5H3.74992ZM14.4166 11.5C14.6927 11.5 14.9166 11.7239 14.9166 12C14.9166 12.2761 14.6927 12.5 14.4166 12.5H6.41659C6.14044 12.5 5.91659 12.2761 5.91659 12C5.91659 11.7239 6.14044 11.5 6.41659 11.5H14.4166ZM3.74992 7.5C4.02606 7.5 4.24992 7.72386 4.24992 8C4.24992 8.27614 4.02606 8.5 3.74992 8.5H3.08325C2.80711 8.5 2.58325 8.27614 2.58325 8C2.58325 7.72386 2.80711 7.5 3.08325 7.5H3.74992ZM14.4166 7.5C14.6927 7.5 14.9166 7.72386 14.9166 8C14.9166 8.27614 14.6927 8.5 14.4166 8.5H6.41659C6.14044 8.5 5.91659 8.27614 5.91659 8C5.91659 7.72386 6.14044 7.5 6.41659 7.5H14.4166ZM3.74992 3.5C4.02606 3.5 4.24992 3.72386 4.24992 4C4.24992 4.27614 4.02606 4.5 3.74992 4.5H3.08325C2.80711 4.5 2.58325 4.27614 2.58325 4C2.58325 3.72386 2.80711 3.5 3.08325 3.5H3.74992ZM14.4166 3.5C14.6927 3.5 14.9166 3.72386 14.9166 4C14.9166 4.27614 14.6927 4.5 14.4166 4.5H6.41659C6.14044 4.5 5.91659 4.27614 5.91659 4C5.91659 3.72386 6.14044 3.5 6.41659 3.5H14.4166Z" fill="#F3F2F1"/>
</svg>
