<svg width="20" height="20" viewBox="0 0 20 20" fill="none" xmlns="http://www.w3.org/2000/svg">
<path fill-rule="evenodd" clip-rule="evenodd" d="M1.14575 2.50033C1.14575 2.21268 1.37894 1.97949 1.66659 1.97949H3.4259C3.67149 1.97949 3.88371 2.15105 3.93517 2.3912L4.41244 4.61848H16.6205C17.0556 4.61848 17.4659 4.82069 17.731 5.1657C17.9961 5.5107 18.0858 5.95932 17.9737 6.37972L16.5667 11.6577L16.0635 11.5235L16.5667 11.6577C16.4033 12.2708 15.8481 12.6974 15.2135 12.6974H6.14364L6.48592 14.2947H15.0812C16.2191 14.2947 17.1414 15.2174 17.1414 16.3551C17.1414 17.493 16.219 18.4154 15.0812 18.4154C13.9434 18.4154 13.021 17.493 13.021 16.3551C13.021 15.9846 13.1188 15.6368 13.29 15.3364H8.07594C8.24722 15.6368 8.34508 15.9846 8.34508 16.3551C8.34508 17.493 7.42268 18.4154 6.28484 18.4154C5.14701 18.4154 4.22461 17.493 4.22461 16.3551C4.22461 15.5116 4.73156 14.7861 5.45762 14.4674L3.00485 3.02116H1.66659C1.37894 3.02116 1.14575 2.78797 1.14575 2.50033ZM6.28463 15.3364C5.72228 15.3364 5.26628 15.7924 5.26628 16.3551C5.26628 16.9177 5.72231 17.3737 6.28484 17.3737C6.84738 17.3737 7.30341 16.9177 7.30341 16.3551C7.30341 15.7926 6.84717 15.3364 6.28463 15.3364ZM15.0812 15.3364C14.5187 15.3364 14.0626 15.7925 14.0626 16.3551C14.0626 16.9177 14.5186 17.3737 15.0812 17.3737C15.6437 17.3737 16.0997 16.9177 16.0997 16.3551C16.0997 15.7925 15.6436 15.3364 15.0812 15.3364ZM5.92043 11.6557H15.2135C15.3761 11.6557 15.5183 11.5464 15.5602 11.3893L16.9672 6.1114L17.4705 6.24556L16.9672 6.1114C16.9959 6.00369 16.9729 5.88874 16.905 5.80035C16.8371 5.71195 16.732 5.66015 16.6205 5.66015H4.63566L5.92043 11.6557Z" fill="#2B2B2B"/>
</svg>
